%TF.GenerationSoftware,KiCad,Pcbnew,(5.1.10)-1*%
%TF.CreationDate,2021-08-29T08:11:49+09:00*%
%TF.ProjectId,korpo44,6b6f7270-6f34-4342-9e6b-696361645f70,rev?*%
%TF.SameCoordinates,Original*%
%TF.FileFunction,Legend,Top*%
%TF.FilePolarity,Positive*%
%FSLAX46Y46*%
G04 Gerber Fmt 4.6, Leading zero omitted, Abs format (unit mm)*
G04 Created by KiCad (PCBNEW (5.1.10)-1) date 2021-08-29 08:11:49*
%MOMM*%
%LPD*%
G01*
G04 APERTURE LIST*
%ADD10C,0.300000*%
%ADD11C,0.150000*%
%ADD12C,0.800000*%
%ADD13C,3.000000*%
%ADD14C,0.500000*%
%ADD15C,1.000000*%
%ADD16C,3.500000*%
%ADD17C,0.400000*%
%ADD18C,0.120000*%
%ADD19C,0.125000*%
G04 APERTURE END LIST*
D10*
X152596428Y-47892857D02*
X154096428Y-47892857D01*
X153167857Y-48035714D02*
X152596428Y-48464285D01*
X153596428Y-48464285D02*
X153025000Y-47892857D01*
X152596428Y-49321428D02*
X152667857Y-49178571D01*
X152739285Y-49107142D01*
X152882142Y-49035714D01*
X153310714Y-49035714D01*
X153453571Y-49107142D01*
X153525000Y-49178571D01*
X153596428Y-49321428D01*
X153596428Y-49535714D01*
X153525000Y-49678571D01*
X153453571Y-49750000D01*
X153310714Y-49821428D01*
X152882142Y-49821428D01*
X152739285Y-49750000D01*
X152667857Y-49678571D01*
X152596428Y-49535714D01*
X152596428Y-49321428D01*
X152596428Y-50464285D02*
X153596428Y-50464285D01*
X153310714Y-50464285D02*
X153453571Y-50535714D01*
X153525000Y-50607142D01*
X153596428Y-50750000D01*
X153596428Y-50892857D01*
X153596428Y-51392857D02*
X152096428Y-51392857D01*
X153525000Y-51392857D02*
X153596428Y-51535714D01*
X153596428Y-51821428D01*
X153525000Y-51964285D01*
X153453571Y-52035714D01*
X153310714Y-52107142D01*
X152882142Y-52107142D01*
X152739285Y-52035714D01*
X152667857Y-51964285D01*
X152596428Y-51821428D01*
X152596428Y-51535714D01*
X152667857Y-51392857D01*
X152596428Y-52964285D02*
X152667857Y-52821428D01*
X152739285Y-52750000D01*
X152882142Y-52678571D01*
X153310714Y-52678571D01*
X153453571Y-52750000D01*
X153525000Y-52821428D01*
X153596428Y-52964285D01*
X153596428Y-53178571D01*
X153525000Y-53321428D01*
X153453571Y-53392857D01*
X153310714Y-53464285D01*
X152882142Y-53464285D01*
X152739285Y-53392857D01*
X152667857Y-53321428D01*
X152596428Y-53178571D01*
X152596428Y-52964285D01*
X153596428Y-54750000D02*
X152596428Y-54750000D01*
X154167857Y-54392857D02*
X153096428Y-54035714D01*
X153096428Y-54964285D01*
X153596428Y-56178571D02*
X152596428Y-56178571D01*
X154167857Y-55821428D02*
X153096428Y-55464285D01*
X153096428Y-56392857D01*
X153596428Y-57964285D02*
X152596428Y-58321428D01*
X153596428Y-58678571D01*
X154096428Y-59535714D02*
X154096428Y-59678571D01*
X154025000Y-59821428D01*
X153953571Y-59892857D01*
X153810714Y-59964285D01*
X153525000Y-60035714D01*
X153167857Y-60035714D01*
X152882142Y-59964285D01*
X152739285Y-59892857D01*
X152667857Y-59821428D01*
X152596428Y-59678571D01*
X152596428Y-59535714D01*
X152667857Y-59392857D01*
X152739285Y-59321428D01*
X152882142Y-59250000D01*
X153167857Y-59178571D01*
X153525000Y-59178571D01*
X153810714Y-59250000D01*
X153953571Y-59321428D01*
X154025000Y-59392857D01*
X154096428Y-59535714D01*
X152739285Y-60678571D02*
X152667857Y-60750000D01*
X152596428Y-60678571D01*
X152667857Y-60607142D01*
X152739285Y-60678571D01*
X152596428Y-60678571D01*
X154096428Y-61250000D02*
X154096428Y-62178571D01*
X153525000Y-61678571D01*
X153525000Y-61892857D01*
X153453571Y-62035714D01*
X153382142Y-62107142D01*
X153239285Y-62178571D01*
X152882142Y-62178571D01*
X152739285Y-62107142D01*
X152667857Y-62035714D01*
X152596428Y-61892857D01*
X152596428Y-61464285D01*
X152667857Y-61321428D01*
X152739285Y-61250000D01*
X150046428Y-43678571D02*
X151546428Y-43678571D01*
X150117857Y-43678571D02*
X150046428Y-43535714D01*
X150046428Y-43250000D01*
X150117857Y-43107142D01*
X150189285Y-43035714D01*
X150332142Y-42964285D01*
X150760714Y-42964285D01*
X150903571Y-43035714D01*
X150975000Y-43107142D01*
X151046428Y-43250000D01*
X151046428Y-43535714D01*
X150975000Y-43678571D01*
X150117857Y-44964285D02*
X150046428Y-44821428D01*
X150046428Y-44535714D01*
X150117857Y-44392857D01*
X150260714Y-44321428D01*
X150832142Y-44321428D01*
X150975000Y-44392857D01*
X151046428Y-44535714D01*
X151046428Y-44821428D01*
X150975000Y-44964285D01*
X150832142Y-45035714D01*
X150689285Y-45035714D01*
X150546428Y-44321428D01*
X150117857Y-45607142D02*
X150046428Y-45750000D01*
X150046428Y-46035714D01*
X150117857Y-46178571D01*
X150260714Y-46250000D01*
X150332142Y-46250000D01*
X150475000Y-46178571D01*
X150546428Y-46035714D01*
X150546428Y-45821428D01*
X150617857Y-45678571D01*
X150760714Y-45607142D01*
X150832142Y-45607142D01*
X150975000Y-45678571D01*
X151046428Y-45821428D01*
X151046428Y-46035714D01*
X150975000Y-46178571D01*
X150046428Y-46892857D02*
X151046428Y-46892857D01*
X151546428Y-46892857D02*
X151475000Y-46821428D01*
X151403571Y-46892857D01*
X151475000Y-46964285D01*
X151546428Y-46892857D01*
X151403571Y-46892857D01*
X151046428Y-48250000D02*
X149832142Y-48250000D01*
X149689285Y-48178571D01*
X149617857Y-48107142D01*
X149546428Y-47964285D01*
X149546428Y-47750000D01*
X149617857Y-47607142D01*
X150117857Y-48250000D02*
X150046428Y-48107142D01*
X150046428Y-47821428D01*
X150117857Y-47678571D01*
X150189285Y-47607142D01*
X150332142Y-47535714D01*
X150760714Y-47535714D01*
X150903571Y-47607142D01*
X150975000Y-47678571D01*
X151046428Y-47821428D01*
X151046428Y-48107142D01*
X150975000Y-48250000D01*
X151046428Y-48964285D02*
X150046428Y-48964285D01*
X150903571Y-48964285D02*
X150975000Y-49035714D01*
X151046428Y-49178571D01*
X151046428Y-49392857D01*
X150975000Y-49535714D01*
X150832142Y-49607142D01*
X150046428Y-49607142D01*
X150046428Y-51464285D02*
X151546428Y-51464285D01*
X150975000Y-51464285D02*
X151046428Y-51607142D01*
X151046428Y-51892857D01*
X150975000Y-52035714D01*
X150903571Y-52107142D01*
X150760714Y-52178571D01*
X150332142Y-52178571D01*
X150189285Y-52107142D01*
X150117857Y-52035714D01*
X150046428Y-51892857D01*
X150046428Y-51607142D01*
X150117857Y-51464285D01*
X151046428Y-52678571D02*
X150046428Y-53035714D01*
X151046428Y-53392857D02*
X150046428Y-53035714D01*
X149689285Y-52892857D01*
X149617857Y-52821428D01*
X149546428Y-52678571D01*
X151046428Y-54892857D02*
X151046428Y-55464285D01*
X151546428Y-55107142D02*
X150260714Y-55107142D01*
X150117857Y-55178571D01*
X150046428Y-55321428D01*
X150046428Y-55464285D01*
X150046428Y-56607142D02*
X150832142Y-56607142D01*
X150975000Y-56535714D01*
X151046428Y-56392857D01*
X151046428Y-56107142D01*
X150975000Y-55964285D01*
X150117857Y-56607142D02*
X150046428Y-56464285D01*
X150046428Y-56107142D01*
X150117857Y-55964285D01*
X150260714Y-55892857D01*
X150403571Y-55892857D01*
X150546428Y-55964285D01*
X150617857Y-56107142D01*
X150617857Y-56464285D01*
X150689285Y-56607142D01*
X150046428Y-57321428D02*
X151046428Y-57321428D01*
X150903571Y-57321428D02*
X150975000Y-57392857D01*
X151046428Y-57535714D01*
X151046428Y-57750000D01*
X150975000Y-57892857D01*
X150832142Y-57964285D01*
X150046428Y-57964285D01*
X150832142Y-57964285D02*
X150975000Y-58035714D01*
X151046428Y-58178571D01*
X151046428Y-58392857D01*
X150975000Y-58535714D01*
X150832142Y-58607142D01*
X150046428Y-58607142D01*
X150046428Y-59964285D02*
X150832142Y-59964285D01*
X150975000Y-59892857D01*
X151046428Y-59750000D01*
X151046428Y-59464285D01*
X150975000Y-59321428D01*
X150117857Y-59964285D02*
X150046428Y-59821428D01*
X150046428Y-59464285D01*
X150117857Y-59321428D01*
X150260714Y-59250000D01*
X150403571Y-59250000D01*
X150546428Y-59321428D01*
X150617857Y-59464285D01*
X150617857Y-59821428D01*
X150689285Y-59964285D01*
X151046428Y-61321428D02*
X149832142Y-61321428D01*
X149689285Y-61250000D01*
X149617857Y-61178571D01*
X149546428Y-61035714D01*
X149546428Y-60821428D01*
X149617857Y-60678571D01*
X150117857Y-61321428D02*
X150046428Y-61178571D01*
X150046428Y-60892857D01*
X150117857Y-60750000D01*
X150189285Y-60678571D01*
X150332142Y-60607142D01*
X150760714Y-60607142D01*
X150903571Y-60678571D01*
X150975000Y-60750000D01*
X151046428Y-60892857D01*
X151046428Y-61178571D01*
X150975000Y-61321428D01*
X150046428Y-62250000D02*
X150117857Y-62107142D01*
X150189285Y-62035714D01*
X150332142Y-61964285D01*
X150760714Y-61964285D01*
X150903571Y-62035714D01*
X150975000Y-62107142D01*
X151046428Y-62250000D01*
X151046428Y-62464285D01*
X150975000Y-62607142D01*
X150903571Y-62678571D01*
X150760714Y-62750000D01*
X150332142Y-62750000D01*
X150189285Y-62678571D01*
X150117857Y-62607142D01*
X150046428Y-62464285D01*
X150046428Y-62250000D01*
X151546428Y-63250000D02*
X151546428Y-64178571D01*
X150975000Y-63678571D01*
X150975000Y-63892857D01*
X150903571Y-64035714D01*
X150832142Y-64107142D01*
X150689285Y-64178571D01*
X150332142Y-64178571D01*
X150189285Y-64107142D01*
X150117857Y-64035714D01*
X150046428Y-63892857D01*
X150046428Y-63464285D01*
X150117857Y-63321428D01*
X150189285Y-63250000D01*
X151403571Y-64750000D02*
X151475000Y-64821428D01*
X151546428Y-64964285D01*
X151546428Y-65321428D01*
X151475000Y-65464285D01*
X151403571Y-65535714D01*
X151260714Y-65607142D01*
X151117857Y-65607142D01*
X150903571Y-65535714D01*
X150046428Y-64678571D01*
X150046428Y-65607142D01*
X151046428Y-66892857D02*
X150046428Y-66892857D01*
X151617857Y-66535714D02*
X150546428Y-66178571D01*
X150546428Y-67107142D01*
D11*
%TO.C,U1*%
X159167400Y-70129400D02*
X159167400Y-39649400D01*
X161707400Y-70129400D02*
X159167400Y-70129400D01*
X161707400Y-39649400D02*
X161707400Y-70129400D01*
X159167400Y-39649400D02*
X161707400Y-39649400D01*
X143947400Y-70129400D02*
X143947400Y-39649400D01*
X146487400Y-70129400D02*
X143947400Y-70129400D01*
X146487400Y-39649400D02*
X146487400Y-70129400D01*
X143947400Y-39649400D02*
X146487400Y-39649400D01*
D10*
%TO.C,SW6*%
X61171999Y-84388800D02*
X61172000Y-83488801D01*
D12*
X60672000Y-86588800D02*
X60672000Y-84788800D01*
D13*
X59542000Y-83088800D02*
X59542000Y-85328800D01*
D14*
X51072000Y-84888800D02*
X52472000Y-84888800D01*
D15*
X51472000Y-82188800D02*
X51472000Y-84688800D01*
D16*
X52772000Y-83388800D02*
X59472000Y-83388800D01*
D11*
X50772000Y-85188800D02*
X50772000Y-84188800D01*
X50772000Y-84188800D02*
X50972000Y-84188800D01*
X50992000Y-84188800D02*
X50992000Y-81938800D01*
X50972000Y-81938800D02*
X50772000Y-81938800D01*
X61272000Y-84488800D02*
X61072000Y-84488800D01*
X61042000Y-84488800D02*
X61042000Y-86728800D01*
X61072000Y-86728800D02*
X61272000Y-86728800D01*
X61272000Y-87088800D02*
X61272000Y-86728800D01*
X61272000Y-83488800D02*
X61272000Y-84488800D01*
X61272000Y-87088800D02*
X57992000Y-87088800D01*
X55772000Y-85188800D02*
X50772000Y-85188800D01*
X50772000Y-81588800D02*
X59172000Y-81588799D01*
X50772000Y-81938800D02*
X50772000Y-81588800D01*
D14*
X61072000Y-86888800D02*
X58372000Y-86888800D01*
D17*
X50972000Y-81788800D02*
X52372000Y-81788800D01*
X50972000Y-84288800D02*
X50972000Y-84988800D01*
D11*
X57988318Y-87067329D02*
G75*
G03*
X55772000Y-85188800I-2151318J-291471D01*
G01*
X61272001Y-83488800D02*
G75*
G03*
X59172000Y-81588799I-2000001J-100000D01*
G01*
D15*
X58388318Y-86667329D02*
G75*
G03*
X56172000Y-84788800I-2151318J-291471D01*
G01*
D10*
%TO.C,SW18*%
X121034253Y-105148110D02*
X120877969Y-106034436D01*
D12*
X121908682Y-103068357D02*
X121596115Y-104841011D01*
D13*
X122413746Y-106711407D02*
X122802718Y-104505437D01*
D14*
X131067634Y-106409553D02*
X129688903Y-106166445D01*
D15*
X130204861Y-108999074D02*
X130638982Y-106537055D01*
D16*
X129132989Y-107591562D02*
X122534777Y-106428120D01*
D11*
X131415171Y-106166205D02*
X131241523Y-107151013D01*
X131241523Y-107151013D02*
X131044561Y-107116283D01*
X131024865Y-107112810D02*
X130634157Y-109328627D01*
X130653853Y-109332100D02*
X130850815Y-109366830D01*
X120953136Y-105032264D02*
X121150098Y-105066994D01*
X121179642Y-105072204D02*
X121568614Y-102866234D01*
X121539069Y-102861025D02*
X121342108Y-102826295D01*
X121404621Y-102471764D02*
X121342108Y-102826295D01*
X120779488Y-106017072D02*
X120953136Y-105032264D01*
X121404621Y-102471764D02*
X124634791Y-103041330D01*
X126491132Y-105297964D02*
X131415171Y-106166205D01*
X130790038Y-109711513D02*
X122517652Y-108252869D01*
X130850815Y-109366830D02*
X130790038Y-109711513D01*
D14*
X121566853Y-102703455D02*
X124225834Y-103172306D01*
D17*
X130627806Y-109479822D02*
X129249075Y-109236714D01*
X131061926Y-107017802D02*
X131183480Y-106328437D01*
D11*
X124634688Y-103063114D02*
G75*
G03*
X126491132Y-105297964I2169248J-86530D01*
G01*
X120779487Y-106017072D02*
G75*
G03*
X122517652Y-108252869I1986981J-248816D01*
G01*
D15*
X124171306Y-103387578D02*
G75*
G03*
X126027750Y-105622428I2169248J-86530D01*
G01*
D10*
%TO.C,SW1*%
X42121999Y-48778000D02*
X42122000Y-47878001D01*
D12*
X41622000Y-50978000D02*
X41622000Y-49178000D01*
D13*
X40492000Y-47478000D02*
X40492000Y-49718000D01*
D14*
X32022000Y-49278000D02*
X33422000Y-49278000D01*
D15*
X32422000Y-46578000D02*
X32422000Y-49078000D01*
D16*
X33722000Y-47778000D02*
X40422000Y-47778000D01*
D11*
X31722000Y-49578000D02*
X31722000Y-48578000D01*
X31722000Y-48578000D02*
X31922000Y-48578000D01*
X31942000Y-48578000D02*
X31942000Y-46328000D01*
X31922000Y-46328000D02*
X31722000Y-46328000D01*
X42222000Y-48878000D02*
X42022000Y-48878000D01*
X41992000Y-48878000D02*
X41992000Y-51118000D01*
X42022000Y-51118000D02*
X42222000Y-51118000D01*
X42222000Y-51478000D02*
X42222000Y-51118000D01*
X42222000Y-47878000D02*
X42222000Y-48878000D01*
X42222000Y-51478000D02*
X38942000Y-51478000D01*
X36722000Y-49578000D02*
X31722000Y-49578000D01*
X31722000Y-45978000D02*
X40122000Y-45977999D01*
X31722000Y-46328000D02*
X31722000Y-45978000D01*
D14*
X42022000Y-51278000D02*
X39322000Y-51278000D01*
D17*
X31922000Y-46178000D02*
X33322000Y-46178000D01*
X31922000Y-48678000D02*
X31922000Y-49378000D01*
D11*
X38938318Y-51456529D02*
G75*
G03*
X36722000Y-49578000I-2151318J-291471D01*
G01*
X42222001Y-47878000D02*
G75*
G03*
X40122000Y-45977999I-2000001J-100000D01*
G01*
D15*
X39338318Y-51056529D02*
G75*
G03*
X37122000Y-49178000I-2151318J-291471D01*
G01*
D11*
%TO.C,D1*%
X44107800Y-59596000D02*
X44107800Y-54196000D01*
X42607800Y-54196000D02*
X42607800Y-59596000D01*
X42607800Y-59596000D02*
X44107800Y-59596000D01*
X42607800Y-54196000D02*
X44107800Y-54196000D01*
X42857800Y-56396000D02*
X43857800Y-56396000D01*
X43857800Y-56396000D02*
X43357800Y-57296000D01*
X43357800Y-57296000D02*
X42857800Y-56396000D01*
X42857800Y-57396000D02*
X43857800Y-57396000D01*
%TO.C,D2*%
X44082400Y-78620600D02*
X44082400Y-73220600D01*
X42582400Y-73220600D02*
X42582400Y-78620600D01*
X42582400Y-78620600D02*
X44082400Y-78620600D01*
X42582400Y-73220600D02*
X44082400Y-73220600D01*
X42832400Y-75420600D02*
X43832400Y-75420600D01*
X43832400Y-75420600D02*
X43332400Y-76320600D01*
X43332400Y-76320600D02*
X42832400Y-75420600D01*
X42832400Y-76420600D02*
X43832400Y-76420600D01*
%TO.C,D3*%
X44031600Y-97696000D02*
X44031600Y-92296000D01*
X42531600Y-92296000D02*
X42531600Y-97696000D01*
X42531600Y-97696000D02*
X44031600Y-97696000D01*
X42531600Y-92296000D02*
X44031600Y-92296000D01*
X42781600Y-94496000D02*
X43781600Y-94496000D01*
X43781600Y-94496000D02*
X43281600Y-95396000D01*
X43281600Y-95396000D02*
X42781600Y-94496000D01*
X42781600Y-95496000D02*
X43781600Y-95496000D01*
%TO.C,D4*%
X49162400Y-57081400D02*
X49162400Y-51681400D01*
X47662400Y-51681400D02*
X47662400Y-57081400D01*
X47662400Y-57081400D02*
X49162400Y-57081400D01*
X47662400Y-51681400D02*
X49162400Y-51681400D01*
X47912400Y-53881400D02*
X48912400Y-53881400D01*
X48912400Y-53881400D02*
X48412400Y-54781400D01*
X48412400Y-54781400D02*
X47912400Y-53881400D01*
X47912400Y-54881400D02*
X48912400Y-54881400D01*
%TO.C,D5*%
X49111600Y-76182200D02*
X49111600Y-70782200D01*
X47611600Y-70782200D02*
X47611600Y-76182200D01*
X47611600Y-76182200D02*
X49111600Y-76182200D01*
X47611600Y-70782200D02*
X49111600Y-70782200D01*
X47861600Y-72982200D02*
X48861600Y-72982200D01*
X48861600Y-72982200D02*
X48361600Y-73882200D01*
X48361600Y-73882200D02*
X47861600Y-72982200D01*
X47861600Y-73982200D02*
X48861600Y-73982200D01*
%TO.C,D6*%
X49162400Y-95232200D02*
X49162400Y-89832200D01*
X47662400Y-89832200D02*
X47662400Y-95232200D01*
X47662400Y-95232200D02*
X49162400Y-95232200D01*
X47662400Y-89832200D02*
X49162400Y-89832200D01*
X47912400Y-92032200D02*
X48912400Y-92032200D01*
X48912400Y-92032200D02*
X48412400Y-92932200D01*
X48412400Y-92932200D02*
X47912400Y-92032200D01*
X47912400Y-93032200D02*
X48912400Y-93032200D01*
%TO.C,D7*%
X82157000Y-45600600D02*
X82157000Y-40200600D01*
X80657000Y-40200600D02*
X80657000Y-45600600D01*
X80657000Y-45600600D02*
X82157000Y-45600600D01*
X80657000Y-40200600D02*
X82157000Y-40200600D01*
X80907000Y-42400600D02*
X81907000Y-42400600D01*
X81907000Y-42400600D02*
X81407000Y-43300600D01*
X81407000Y-43300600D02*
X80907000Y-42400600D01*
X80907000Y-43400600D02*
X81907000Y-43400600D01*
%TO.C,D8*%
X82157000Y-64726800D02*
X82157000Y-59326800D01*
X80657000Y-59326800D02*
X80657000Y-64726800D01*
X80657000Y-64726800D02*
X82157000Y-64726800D01*
X80657000Y-59326800D02*
X82157000Y-59326800D01*
X80907000Y-61526800D02*
X81907000Y-61526800D01*
X81907000Y-61526800D02*
X81407000Y-62426800D01*
X81407000Y-62426800D02*
X80907000Y-61526800D01*
X80907000Y-62526800D02*
X81907000Y-62526800D01*
%TO.C,D9*%
X82131600Y-83776800D02*
X82131600Y-78376800D01*
X80631600Y-78376800D02*
X80631600Y-83776800D01*
X80631600Y-83776800D02*
X82131600Y-83776800D01*
X80631600Y-78376800D02*
X82131600Y-78376800D01*
X80881600Y-80576800D02*
X81881600Y-80576800D01*
X81881600Y-80576800D02*
X81381600Y-81476800D01*
X81381600Y-81476800D02*
X80881600Y-80576800D01*
X80881600Y-81576800D02*
X81881600Y-81576800D01*
%TO.C,D10*%
X89674000Y-93566000D02*
X89674000Y-98966000D01*
X91174000Y-98966000D02*
X91174000Y-93566000D01*
X91174000Y-93566000D02*
X89674000Y-93566000D01*
X91174000Y-98966000D02*
X89674000Y-98966000D01*
X90924000Y-96766000D02*
X89924000Y-96766000D01*
X89924000Y-96766000D02*
X90424000Y-95866000D01*
X90424000Y-95866000D02*
X90924000Y-96766000D01*
X90924000Y-95766000D02*
X89924000Y-95766000D01*
%TO.C,D11*%
X87287800Y-43213000D02*
X87287800Y-37813000D01*
X85787800Y-37813000D02*
X85787800Y-43213000D01*
X85787800Y-43213000D02*
X87287800Y-43213000D01*
X85787800Y-37813000D02*
X87287800Y-37813000D01*
X86037800Y-40013000D02*
X87037800Y-40013000D01*
X87037800Y-40013000D02*
X86537800Y-40913000D01*
X86537800Y-40913000D02*
X86037800Y-40013000D01*
X86037800Y-41013000D02*
X87037800Y-41013000D01*
%TO.C,D12*%
X87186200Y-62288400D02*
X87186200Y-56888400D01*
X85686200Y-56888400D02*
X85686200Y-62288400D01*
X85686200Y-62288400D02*
X87186200Y-62288400D01*
X85686200Y-56888400D02*
X87186200Y-56888400D01*
X85936200Y-59088400D02*
X86936200Y-59088400D01*
X86936200Y-59088400D02*
X86436200Y-59988400D01*
X86436200Y-59988400D02*
X85936200Y-59088400D01*
X85936200Y-60088400D02*
X86936200Y-60088400D01*
%TO.C,D13*%
X87262400Y-81262200D02*
X87262400Y-75862200D01*
X85762400Y-75862200D02*
X85762400Y-81262200D01*
X85762400Y-81262200D02*
X87262400Y-81262200D01*
X85762400Y-75862200D02*
X87262400Y-75862200D01*
X86012400Y-78062200D02*
X87012400Y-78062200D01*
X87012400Y-78062200D02*
X86512400Y-78962200D01*
X86512400Y-78962200D02*
X86012400Y-78062200D01*
X86012400Y-79062200D02*
X87012400Y-79062200D01*
%TO.C,D14*%
X99122800Y-93591400D02*
X99122800Y-98991400D01*
X100622800Y-98991400D02*
X100622800Y-93591400D01*
X100622800Y-93591400D02*
X99122800Y-93591400D01*
X100622800Y-98991400D02*
X99122800Y-98991400D01*
X100372800Y-96791400D02*
X99372800Y-96791400D01*
X99372800Y-96791400D02*
X99872800Y-95891400D01*
X99872800Y-95891400D02*
X100372800Y-96791400D01*
X100372800Y-95791400D02*
X99372800Y-95791400D01*
%TO.C,D15*%
X120257000Y-45702200D02*
X120257000Y-40302200D01*
X118757000Y-40302200D02*
X118757000Y-45702200D01*
X118757000Y-45702200D02*
X120257000Y-45702200D01*
X118757000Y-40302200D02*
X120257000Y-40302200D01*
X119007000Y-42502200D02*
X120007000Y-42502200D01*
X120007000Y-42502200D02*
X119507000Y-43402200D01*
X119507000Y-43402200D02*
X119007000Y-42502200D01*
X119007000Y-43502200D02*
X120007000Y-43502200D01*
%TO.C,D16*%
X120206000Y-64726800D02*
X120206000Y-59326800D01*
X118706000Y-59326800D02*
X118706000Y-64726800D01*
X118706000Y-64726800D02*
X120206000Y-64726800D01*
X118706000Y-59326800D02*
X120206000Y-59326800D01*
X118956000Y-61526800D02*
X119956000Y-61526800D01*
X119956000Y-61526800D02*
X119456000Y-62426800D01*
X119456000Y-62426800D02*
X118956000Y-61526800D01*
X118956000Y-62526800D02*
X119956000Y-62526800D01*
%TO.C,D17*%
X120257000Y-83802200D02*
X120257000Y-78402200D01*
X118757000Y-78402200D02*
X118757000Y-83802200D01*
X118757000Y-83802200D02*
X120257000Y-83802200D01*
X118757000Y-78402200D02*
X120257000Y-78402200D01*
X119007000Y-80602200D02*
X120007000Y-80602200D01*
X120007000Y-80602200D02*
X119507000Y-81502200D01*
X119507000Y-81502200D02*
X119007000Y-80602200D01*
X119007000Y-81602200D02*
X120007000Y-81602200D01*
%TO.C,D18*%
X134728244Y-96596383D02*
X133790544Y-101914345D01*
X135267756Y-102174817D02*
X136205456Y-96856855D01*
X136205456Y-96856855D02*
X134728244Y-96596383D01*
X135267756Y-102174817D02*
X133790544Y-101914345D01*
X135403580Y-99964828D02*
X134418772Y-99791180D01*
X134418772Y-99791180D02*
X135067459Y-98991677D01*
X135067459Y-98991677D02*
X135403580Y-99964828D01*
X135577228Y-98980020D02*
X134592420Y-98806372D01*
%TO.C,D19*%
X125337000Y-48166000D02*
X125337000Y-42766000D01*
X123837000Y-42766000D02*
X123837000Y-48166000D01*
X123837000Y-48166000D02*
X125337000Y-48166000D01*
X123837000Y-42766000D02*
X125337000Y-42766000D01*
X124087000Y-44966000D02*
X125087000Y-44966000D01*
X125087000Y-44966000D02*
X124587000Y-45866000D01*
X124587000Y-45866000D02*
X124087000Y-44966000D01*
X124087000Y-45966000D02*
X125087000Y-45966000D01*
%TO.C,D20*%
X125286000Y-67139800D02*
X125286000Y-61739800D01*
X123786000Y-61739800D02*
X123786000Y-67139800D01*
X123786000Y-67139800D02*
X125286000Y-67139800D01*
X123786000Y-61739800D02*
X125286000Y-61739800D01*
X124036000Y-63939800D02*
X125036000Y-63939800D01*
X125036000Y-63939800D02*
X124536000Y-64839800D01*
X124536000Y-64839800D02*
X124036000Y-63939800D01*
X124036000Y-64939800D02*
X125036000Y-64939800D01*
%TO.C,D21*%
X125337000Y-86266000D02*
X125337000Y-80866000D01*
X123837000Y-80866000D02*
X123837000Y-86266000D01*
X123837000Y-86266000D02*
X125337000Y-86266000D01*
X123837000Y-80866000D02*
X125337000Y-80866000D01*
X124087000Y-83066000D02*
X125087000Y-83066000D01*
X125087000Y-83066000D02*
X124587000Y-83966000D01*
X124587000Y-83966000D02*
X124087000Y-83066000D01*
X124087000Y-84066000D02*
X125087000Y-84066000D01*
%TO.C,D22*%
X144094315Y-95615515D02*
X149168655Y-97462424D01*
X149681685Y-96052885D02*
X144607345Y-94205976D01*
X144607345Y-94205976D02*
X144094315Y-95615515D01*
X149681685Y-96052885D02*
X149168655Y-97462424D01*
X147528856Y-95535364D02*
X147186836Y-96475056D01*
X147186836Y-96475056D02*
X146512123Y-95697392D01*
X146512123Y-95697392D02*
X147528856Y-95535364D01*
X146589164Y-95193344D02*
X146247144Y-96133036D01*
%TO.C,J1*%
X161163000Y-74698600D02*
X161163000Y-80698600D01*
X161163000Y-80698600D02*
X149163000Y-80698600D01*
X149163000Y-80698600D02*
X149163000Y-74698600D01*
X149163000Y-74698600D02*
X161163000Y-74698600D01*
D18*
%TO.C,LED1*%
X40157400Y-56769000D02*
X38785800Y-56769000D01*
X40157400Y-57962800D02*
X38785800Y-57962800D01*
X40157400Y-57962800D02*
X40157400Y-56769000D01*
%TO.C,LED2*%
X39954200Y-75793600D02*
X38582600Y-75793600D01*
X39954200Y-76987400D02*
X38582600Y-76987400D01*
X39954200Y-76987400D02*
X39954200Y-75793600D01*
%TO.C,LED3*%
X39954200Y-94869000D02*
X38582600Y-94869000D01*
X39954200Y-96062800D02*
X38582600Y-96062800D01*
X39954200Y-96062800D02*
X39954200Y-94869000D01*
%TO.C,LED4*%
X59036400Y-55459400D02*
X59036400Y-54265600D01*
X59036400Y-55459400D02*
X57664800Y-55459400D01*
X59036400Y-54265600D02*
X57664800Y-54265600D01*
%TO.C,LED5*%
X59156600Y-74523600D02*
X59156600Y-73329800D01*
X59156600Y-74523600D02*
X57785000Y-74523600D01*
X59156600Y-73329800D02*
X57785000Y-73329800D01*
%TO.C,LED6*%
X59232800Y-93599000D02*
X59232800Y-92405200D01*
X59232800Y-93599000D02*
X57861200Y-93599000D01*
X59232800Y-92405200D02*
X57861200Y-92405200D01*
%TO.C,LED7*%
X78232000Y-42849800D02*
X76860400Y-42849800D01*
X78232000Y-44043600D02*
X76860400Y-44043600D01*
X78232000Y-44043600D02*
X78232000Y-42849800D01*
%TO.C,LED8*%
X78079600Y-61925200D02*
X76708000Y-61925200D01*
X78079600Y-63119000D02*
X76708000Y-63119000D01*
X78079600Y-63119000D02*
X78079600Y-61925200D01*
%TO.C,LED9*%
X78257400Y-80949800D02*
X76885800Y-80949800D01*
X78257400Y-82143600D02*
X76885800Y-82143600D01*
X78257400Y-82143600D02*
X78257400Y-80949800D01*
%TO.C,LED10*%
X87376000Y-93700600D02*
X86004400Y-93700600D01*
X87376000Y-94894400D02*
X86004400Y-94894400D01*
X87376000Y-94894400D02*
X87376000Y-93700600D01*
%TO.C,LED11*%
X97231200Y-41579800D02*
X97231200Y-40386000D01*
X97231200Y-41579800D02*
X95859600Y-41579800D01*
X97231200Y-40386000D02*
X95859600Y-40386000D01*
%TO.C,LED12*%
X97155000Y-60680600D02*
X97155000Y-59486800D01*
X97155000Y-60680600D02*
X95783400Y-60680600D01*
X97155000Y-59486800D02*
X95783400Y-59486800D01*
%TO.C,LED13*%
X97256600Y-79654400D02*
X97256600Y-78460600D01*
X97256600Y-79654400D02*
X95885000Y-79654400D01*
X97256600Y-78460600D02*
X95885000Y-78460600D01*
%TO.C,LED14*%
X110718800Y-94970600D02*
X110718800Y-93776800D01*
X110718800Y-94970600D02*
X109347200Y-94970600D01*
X110718800Y-93776800D02*
X109347200Y-93776800D01*
%TO.C,LED15*%
X116255800Y-42875200D02*
X114884200Y-42875200D01*
X116255800Y-44069000D02*
X114884200Y-44069000D01*
X116255800Y-44069000D02*
X116255800Y-42875200D01*
%TO.C,LED16*%
X116103800Y-61899800D02*
X114732200Y-61899800D01*
X116103800Y-63093600D02*
X114732200Y-63093600D01*
X116103800Y-63093600D02*
X116103800Y-61899800D01*
%TO.C,LED17*%
X116128800Y-80949800D02*
X114757200Y-80949800D01*
X116128800Y-82143600D02*
X114757200Y-82143600D01*
X116128800Y-82143600D02*
X116128800Y-80949800D01*
%TO.C,LED18*%
X132502019Y-96476848D02*
X131151257Y-96238672D01*
X132294718Y-97652511D02*
X130943956Y-97414335D01*
X132294718Y-97652511D02*
X132502019Y-96476848D01*
%TO.C,LED19*%
X135229800Y-46532800D02*
X135229800Y-45339000D01*
X135229800Y-46532800D02*
X133858200Y-46532800D01*
X135229800Y-45339000D02*
X133858200Y-45339000D01*
%TO.C,LED20*%
X135254800Y-65582800D02*
X135254800Y-64389000D01*
X135254800Y-65582800D02*
X133883200Y-65582800D01*
X135254800Y-64389000D02*
X133883200Y-64389000D01*
%TO.C,LED21*%
X135686800Y-84607400D02*
X135686800Y-83413600D01*
X135686800Y-84607400D02*
X134315200Y-84607400D01*
X135686800Y-83413600D02*
X134315200Y-83413600D01*
%TO.C,LED22*%
X144539562Y-98742626D02*
X143417757Y-98334323D01*
X144539562Y-98742626D02*
X144070447Y-100031509D01*
X143417757Y-98334323D02*
X142948642Y-99623205D01*
D11*
%TO.C,RESET_SW1*%
X158143000Y-83080600D02*
X158143000Y-89080600D01*
X158143000Y-89080600D02*
X158393000Y-89080600D01*
X158143000Y-83080600D02*
X158393000Y-83080600D01*
X161643000Y-83080600D02*
X161393000Y-83080600D01*
X161643000Y-83080600D02*
X161643000Y-89080600D01*
X161643000Y-89080600D02*
X161393000Y-89080600D01*
D17*
%TO.C,SW2*%
X31922000Y-67728000D02*
X31922000Y-68428000D01*
X31922000Y-65228000D02*
X33322000Y-65228000D01*
D14*
X42022000Y-70328000D02*
X39322000Y-70328000D01*
D11*
X31722000Y-65378000D02*
X31722000Y-65028000D01*
X31722000Y-65028000D02*
X40122000Y-65027999D01*
X36722000Y-68628000D02*
X31722000Y-68628000D01*
X42222000Y-70528000D02*
X38942000Y-70528000D01*
X42222000Y-66928000D02*
X42222000Y-67928000D01*
X42222000Y-70528000D02*
X42222000Y-70168000D01*
X42022000Y-70168000D02*
X42222000Y-70168000D01*
X41992000Y-67928000D02*
X41992000Y-70168000D01*
X42222000Y-67928000D02*
X42022000Y-67928000D01*
X31922000Y-65378000D02*
X31722000Y-65378000D01*
X31942000Y-67628000D02*
X31942000Y-65378000D01*
X31722000Y-67628000D02*
X31922000Y-67628000D01*
X31722000Y-68628000D02*
X31722000Y-67628000D01*
D16*
X33722000Y-66828000D02*
X40422000Y-66828000D01*
D15*
X32422000Y-65628000D02*
X32422000Y-68128000D01*
D14*
X32022000Y-68328000D02*
X33422000Y-68328000D01*
D13*
X40492000Y-66528000D02*
X40492000Y-68768000D01*
D12*
X41622000Y-70028000D02*
X41622000Y-68228000D01*
D10*
X42121999Y-67828000D02*
X42122000Y-66928001D01*
D15*
X39338318Y-70106529D02*
G75*
G03*
X37122000Y-68228000I-2151318J-291471D01*
G01*
D11*
X42222001Y-66928000D02*
G75*
G03*
X40122000Y-65027999I-2000001J-100000D01*
G01*
X38938318Y-70506529D02*
G75*
G03*
X36722000Y-68628000I-2151318J-291471D01*
G01*
D10*
%TO.C,SW3*%
X42121999Y-86878000D02*
X42122000Y-85978001D01*
D12*
X41622000Y-89078000D02*
X41622000Y-87278000D01*
D13*
X40492000Y-85578000D02*
X40492000Y-87818000D01*
D14*
X32022000Y-87378000D02*
X33422000Y-87378000D01*
D15*
X32422000Y-84678000D02*
X32422000Y-87178000D01*
D16*
X33722000Y-85878000D02*
X40422000Y-85878000D01*
D11*
X31722000Y-87678000D02*
X31722000Y-86678000D01*
X31722000Y-86678000D02*
X31922000Y-86678000D01*
X31942000Y-86678000D02*
X31942000Y-84428000D01*
X31922000Y-84428000D02*
X31722000Y-84428000D01*
X42222000Y-86978000D02*
X42022000Y-86978000D01*
X41992000Y-86978000D02*
X41992000Y-89218000D01*
X42022000Y-89218000D02*
X42222000Y-89218000D01*
X42222000Y-89578000D02*
X42222000Y-89218000D01*
X42222000Y-85978000D02*
X42222000Y-86978000D01*
X42222000Y-89578000D02*
X38942000Y-89578000D01*
X36722000Y-87678000D02*
X31722000Y-87678000D01*
X31722000Y-84078000D02*
X40122000Y-84077999D01*
X31722000Y-84428000D02*
X31722000Y-84078000D01*
D14*
X42022000Y-89378000D02*
X39322000Y-89378000D01*
D17*
X31922000Y-84278000D02*
X33322000Y-84278000D01*
X31922000Y-86778000D02*
X31922000Y-87478000D01*
D11*
X38938318Y-89556529D02*
G75*
G03*
X36722000Y-87678000I-2151318J-291471D01*
G01*
X42222001Y-85978000D02*
G75*
G03*
X40122000Y-84077999I-2000001J-100000D01*
G01*
D15*
X39338318Y-89156529D02*
G75*
G03*
X37122000Y-87278000I-2151318J-291471D01*
G01*
D17*
%TO.C,SW4*%
X50972000Y-46188800D02*
X50972000Y-46888800D01*
X50972000Y-43688800D02*
X52372000Y-43688800D01*
D14*
X61072000Y-48788800D02*
X58372000Y-48788800D01*
D11*
X50772000Y-43838800D02*
X50772000Y-43488800D01*
X50772000Y-43488800D02*
X59172000Y-43488799D01*
X55772000Y-47088800D02*
X50772000Y-47088800D01*
X61272000Y-48988800D02*
X57992000Y-48988800D01*
X61272000Y-45388800D02*
X61272000Y-46388800D01*
X61272000Y-48988800D02*
X61272000Y-48628800D01*
X61072000Y-48628800D02*
X61272000Y-48628800D01*
X61042000Y-46388800D02*
X61042000Y-48628800D01*
X61272000Y-46388800D02*
X61072000Y-46388800D01*
X50972000Y-43838800D02*
X50772000Y-43838800D01*
X50992000Y-46088800D02*
X50992000Y-43838800D01*
X50772000Y-46088800D02*
X50972000Y-46088800D01*
X50772000Y-47088800D02*
X50772000Y-46088800D01*
D16*
X52772000Y-45288800D02*
X59472000Y-45288800D01*
D15*
X51472000Y-44088800D02*
X51472000Y-46588800D01*
D14*
X51072000Y-46788800D02*
X52472000Y-46788800D01*
D13*
X59542000Y-44988800D02*
X59542000Y-47228800D01*
D12*
X60672000Y-48488800D02*
X60672000Y-46688800D01*
D10*
X61171999Y-46288800D02*
X61172000Y-45388801D01*
D15*
X58388318Y-48567329D02*
G75*
G03*
X56172000Y-46688800I-2151318J-291471D01*
G01*
D11*
X61272001Y-45388800D02*
G75*
G03*
X59172000Y-43488799I-2000001J-100000D01*
G01*
X57988318Y-48967329D02*
G75*
G03*
X55772000Y-47088800I-2151318J-291471D01*
G01*
D17*
%TO.C,SW5*%
X50972000Y-65264200D02*
X50972000Y-65964200D01*
X50972000Y-62764200D02*
X52372000Y-62764200D01*
D14*
X61072000Y-67864200D02*
X58372000Y-67864200D01*
D11*
X50772000Y-62914200D02*
X50772000Y-62564200D01*
X50772000Y-62564200D02*
X59172000Y-62564199D01*
X55772000Y-66164200D02*
X50772000Y-66164200D01*
X61272000Y-68064200D02*
X57992000Y-68064200D01*
X61272000Y-64464200D02*
X61272000Y-65464200D01*
X61272000Y-68064200D02*
X61272000Y-67704200D01*
X61072000Y-67704200D02*
X61272000Y-67704200D01*
X61042000Y-65464200D02*
X61042000Y-67704200D01*
X61272000Y-65464200D02*
X61072000Y-65464200D01*
X50972000Y-62914200D02*
X50772000Y-62914200D01*
X50992000Y-65164200D02*
X50992000Y-62914200D01*
X50772000Y-65164200D02*
X50972000Y-65164200D01*
X50772000Y-66164200D02*
X50772000Y-65164200D01*
D16*
X52772000Y-64364200D02*
X59472000Y-64364200D01*
D15*
X51472000Y-63164200D02*
X51472000Y-65664200D01*
D14*
X51072000Y-65864200D02*
X52472000Y-65864200D01*
D13*
X59542000Y-64064200D02*
X59542000Y-66304200D01*
D12*
X60672000Y-67564200D02*
X60672000Y-65764200D01*
D10*
X61171999Y-65364200D02*
X61172000Y-64464201D01*
D15*
X58388318Y-67642729D02*
G75*
G03*
X56172000Y-65764200I-2151318J-291471D01*
G01*
D11*
X61272001Y-64464200D02*
G75*
G03*
X59172000Y-62564199I-2000001J-100000D01*
G01*
X57988318Y-68042729D02*
G75*
G03*
X55772000Y-66164200I-2151318J-291471D01*
G01*
D10*
%TO.C,SW7*%
X80221999Y-34858800D02*
X80222000Y-33958801D01*
D12*
X79722000Y-37058800D02*
X79722000Y-35258800D01*
D13*
X78592000Y-33558800D02*
X78592000Y-35798800D01*
D14*
X70122000Y-35358800D02*
X71522000Y-35358800D01*
D15*
X70522000Y-32658800D02*
X70522000Y-35158800D01*
D16*
X71822000Y-33858800D02*
X78522000Y-33858800D01*
D11*
X69822000Y-35658800D02*
X69822000Y-34658800D01*
X69822000Y-34658800D02*
X70022000Y-34658800D01*
X70042000Y-34658800D02*
X70042000Y-32408800D01*
X70022000Y-32408800D02*
X69822000Y-32408800D01*
X80322000Y-34958800D02*
X80122000Y-34958800D01*
X80092000Y-34958800D02*
X80092000Y-37198800D01*
X80122000Y-37198800D02*
X80322000Y-37198800D01*
X80322000Y-37558800D02*
X80322000Y-37198800D01*
X80322000Y-33958800D02*
X80322000Y-34958800D01*
X80322000Y-37558800D02*
X77042000Y-37558800D01*
X74822000Y-35658800D02*
X69822000Y-35658800D01*
X69822000Y-32058800D02*
X78222000Y-32058799D01*
X69822000Y-32408800D02*
X69822000Y-32058800D01*
D14*
X80122000Y-37358800D02*
X77422000Y-37358800D01*
D17*
X70022000Y-32258800D02*
X71422000Y-32258800D01*
X70022000Y-34758800D02*
X70022000Y-35458800D01*
D11*
X77038318Y-37537329D02*
G75*
G03*
X74822000Y-35658800I-2151318J-291471D01*
G01*
X80322001Y-33958800D02*
G75*
G03*
X78222000Y-32058799I-2000001J-100000D01*
G01*
D15*
X77438318Y-37137329D02*
G75*
G03*
X75222000Y-35258800I-2151318J-291471D01*
G01*
D17*
%TO.C,SW8*%
X70022000Y-53834200D02*
X70022000Y-54534200D01*
X70022000Y-51334200D02*
X71422000Y-51334200D01*
D14*
X80122000Y-56434200D02*
X77422000Y-56434200D01*
D11*
X69822000Y-51484200D02*
X69822000Y-51134200D01*
X69822000Y-51134200D02*
X78222000Y-51134199D01*
X74822000Y-54734200D02*
X69822000Y-54734200D01*
X80322000Y-56634200D02*
X77042000Y-56634200D01*
X80322000Y-53034200D02*
X80322000Y-54034200D01*
X80322000Y-56634200D02*
X80322000Y-56274200D01*
X80122000Y-56274200D02*
X80322000Y-56274200D01*
X80092000Y-54034200D02*
X80092000Y-56274200D01*
X80322000Y-54034200D02*
X80122000Y-54034200D01*
X70022000Y-51484200D02*
X69822000Y-51484200D01*
X70042000Y-53734200D02*
X70042000Y-51484200D01*
X69822000Y-53734200D02*
X70022000Y-53734200D01*
X69822000Y-54734200D02*
X69822000Y-53734200D01*
D16*
X71822000Y-52934200D02*
X78522000Y-52934200D01*
D15*
X70522000Y-51734200D02*
X70522000Y-54234200D01*
D14*
X70122000Y-54434200D02*
X71522000Y-54434200D01*
D13*
X78592000Y-52634200D02*
X78592000Y-54874200D01*
D12*
X79722000Y-56134200D02*
X79722000Y-54334200D01*
D10*
X80221999Y-53934200D02*
X80222000Y-53034201D01*
D15*
X77438318Y-56212729D02*
G75*
G03*
X75222000Y-54334200I-2151318J-291471D01*
G01*
D11*
X80322001Y-53034200D02*
G75*
G03*
X78222000Y-51134199I-2000001J-100000D01*
G01*
X77038318Y-56612729D02*
G75*
G03*
X74822000Y-54734200I-2151318J-291471D01*
G01*
D17*
%TO.C,SW9*%
X70022000Y-72960400D02*
X70022000Y-73660400D01*
X70022000Y-70460400D02*
X71422000Y-70460400D01*
D14*
X80122000Y-75560400D02*
X77422000Y-75560400D01*
D11*
X69822000Y-70610400D02*
X69822000Y-70260400D01*
X69822000Y-70260400D02*
X78222000Y-70260399D01*
X74822000Y-73860400D02*
X69822000Y-73860400D01*
X80322000Y-75760400D02*
X77042000Y-75760400D01*
X80322000Y-72160400D02*
X80322000Y-73160400D01*
X80322000Y-75760400D02*
X80322000Y-75400400D01*
X80122000Y-75400400D02*
X80322000Y-75400400D01*
X80092000Y-73160400D02*
X80092000Y-75400400D01*
X80322000Y-73160400D02*
X80122000Y-73160400D01*
X70022000Y-70610400D02*
X69822000Y-70610400D01*
X70042000Y-72860400D02*
X70042000Y-70610400D01*
X69822000Y-72860400D02*
X70022000Y-72860400D01*
X69822000Y-73860400D02*
X69822000Y-72860400D01*
D16*
X71822000Y-72060400D02*
X78522000Y-72060400D01*
D15*
X70522000Y-70860400D02*
X70522000Y-73360400D01*
D14*
X70122000Y-73560400D02*
X71522000Y-73560400D01*
D13*
X78592000Y-71760400D02*
X78592000Y-74000400D01*
D12*
X79722000Y-75260400D02*
X79722000Y-73460400D01*
D10*
X80221999Y-73060400D02*
X80222000Y-72160401D01*
D15*
X77438318Y-75338929D02*
G75*
G03*
X75222000Y-73460400I-2151318J-291471D01*
G01*
D11*
X80322001Y-72160400D02*
G75*
G03*
X78222000Y-70260399I-2000001J-100000D01*
G01*
X77038318Y-75738929D02*
G75*
G03*
X74822000Y-73860400I-2151318J-291471D01*
G01*
D10*
%TO.C,SW10*%
X77639001Y-104409000D02*
X77639000Y-105308999D01*
D12*
X78139000Y-102209000D02*
X78139000Y-104009000D01*
D13*
X79269000Y-105709000D02*
X79269000Y-103469000D01*
D14*
X87739000Y-103909000D02*
X86339000Y-103909000D01*
D15*
X87339000Y-106609000D02*
X87339000Y-104109000D01*
D16*
X86039000Y-105409000D02*
X79339000Y-105409000D01*
D11*
X88039000Y-103609000D02*
X88039000Y-104609000D01*
X88039000Y-104609000D02*
X87839000Y-104609000D01*
X87819000Y-104609000D02*
X87819000Y-106859000D01*
X87839000Y-106859000D02*
X88039000Y-106859000D01*
X77539000Y-104309000D02*
X77739000Y-104309000D01*
X77769000Y-104309000D02*
X77769000Y-102069000D01*
X77739000Y-102069000D02*
X77539000Y-102069000D01*
X77539000Y-101709000D02*
X77539000Y-102069000D01*
X77539000Y-105309000D02*
X77539000Y-104309000D01*
X77539000Y-101709000D02*
X80819000Y-101709000D01*
X83039000Y-103609000D02*
X88039000Y-103609000D01*
X88039000Y-107209000D02*
X79639000Y-107209001D01*
X88039000Y-106859000D02*
X88039000Y-107209000D01*
D14*
X77739000Y-101909000D02*
X80439000Y-101909000D01*
D17*
X87839000Y-107009000D02*
X86439000Y-107009000D01*
X87839000Y-104509000D02*
X87839000Y-103809000D01*
D11*
X80822682Y-101730471D02*
G75*
G03*
X83039000Y-103609000I2151318J291471D01*
G01*
X77538999Y-105309000D02*
G75*
G03*
X79639000Y-107209001I2000001J100000D01*
G01*
D15*
X80422682Y-102130471D02*
G75*
G03*
X82639000Y-104009000I2151318J291471D01*
G01*
D17*
%TO.C,SW11*%
X89072000Y-32345800D02*
X89072000Y-33045800D01*
X89072000Y-29845800D02*
X90472000Y-29845800D01*
D14*
X99172000Y-34945800D02*
X96472000Y-34945800D01*
D11*
X88872000Y-29995800D02*
X88872000Y-29645800D01*
X88872000Y-29645800D02*
X97272000Y-29645799D01*
X93872000Y-33245800D02*
X88872000Y-33245800D01*
X99372000Y-35145800D02*
X96092000Y-35145800D01*
X99372000Y-31545800D02*
X99372000Y-32545800D01*
X99372000Y-35145800D02*
X99372000Y-34785800D01*
X99172000Y-34785800D02*
X99372000Y-34785800D01*
X99142000Y-32545800D02*
X99142000Y-34785800D01*
X99372000Y-32545800D02*
X99172000Y-32545800D01*
X89072000Y-29995800D02*
X88872000Y-29995800D01*
X89092000Y-32245800D02*
X89092000Y-29995800D01*
X88872000Y-32245800D02*
X89072000Y-32245800D01*
X88872000Y-33245800D02*
X88872000Y-32245800D01*
D16*
X90872000Y-31445800D02*
X97572000Y-31445800D01*
D15*
X89572000Y-30245800D02*
X89572000Y-32745800D01*
D14*
X89172000Y-32945800D02*
X90572000Y-32945800D01*
D13*
X97642000Y-31145800D02*
X97642000Y-33385800D01*
D12*
X98772000Y-34645800D02*
X98772000Y-32845800D01*
D10*
X99271999Y-32445800D02*
X99272000Y-31545801D01*
D15*
X96488318Y-34724329D02*
G75*
G03*
X94272000Y-32845800I-2151318J-291471D01*
G01*
D11*
X99372001Y-31545800D02*
G75*
G03*
X97272000Y-29645799I-2000001J-100000D01*
G01*
X96088318Y-35124329D02*
G75*
G03*
X93872000Y-33245800I-2151318J-291471D01*
G01*
D10*
%TO.C,SW12*%
X99271999Y-51470400D02*
X99272000Y-50570401D01*
D12*
X98772000Y-53670400D02*
X98772000Y-51870400D01*
D13*
X97642000Y-50170400D02*
X97642000Y-52410400D01*
D14*
X89172000Y-51970400D02*
X90572000Y-51970400D01*
D15*
X89572000Y-49270400D02*
X89572000Y-51770400D01*
D16*
X90872000Y-50470400D02*
X97572000Y-50470400D01*
D11*
X88872000Y-52270400D02*
X88872000Y-51270400D01*
X88872000Y-51270400D02*
X89072000Y-51270400D01*
X89092000Y-51270400D02*
X89092000Y-49020400D01*
X89072000Y-49020400D02*
X88872000Y-49020400D01*
X99372000Y-51570400D02*
X99172000Y-51570400D01*
X99142000Y-51570400D02*
X99142000Y-53810400D01*
X99172000Y-53810400D02*
X99372000Y-53810400D01*
X99372000Y-54170400D02*
X99372000Y-53810400D01*
X99372000Y-50570400D02*
X99372000Y-51570400D01*
X99372000Y-54170400D02*
X96092000Y-54170400D01*
X93872000Y-52270400D02*
X88872000Y-52270400D01*
X88872000Y-48670400D02*
X97272000Y-48670399D01*
X88872000Y-49020400D02*
X88872000Y-48670400D01*
D14*
X99172000Y-53970400D02*
X96472000Y-53970400D01*
D17*
X89072000Y-48870400D02*
X90472000Y-48870400D01*
X89072000Y-51370400D02*
X89072000Y-52070400D01*
D11*
X96088318Y-54148929D02*
G75*
G03*
X93872000Y-52270400I-2151318J-291471D01*
G01*
X99372001Y-50570400D02*
G75*
G03*
X97272000Y-48670399I-2000001J-100000D01*
G01*
D15*
X96488318Y-53748929D02*
G75*
G03*
X94272000Y-51870400I-2151318J-291471D01*
G01*
D10*
%TO.C,SW13*%
X99271999Y-70520400D02*
X99272000Y-69620401D01*
D12*
X98772000Y-72720400D02*
X98772000Y-70920400D01*
D13*
X97642000Y-69220400D02*
X97642000Y-71460400D01*
D14*
X89172000Y-71020400D02*
X90572000Y-71020400D01*
D15*
X89572000Y-68320400D02*
X89572000Y-70820400D01*
D16*
X90872000Y-69520400D02*
X97572000Y-69520400D01*
D11*
X88872000Y-71320400D02*
X88872000Y-70320400D01*
X88872000Y-70320400D02*
X89072000Y-70320400D01*
X89092000Y-70320400D02*
X89092000Y-68070400D01*
X89072000Y-68070400D02*
X88872000Y-68070400D01*
X99372000Y-70620400D02*
X99172000Y-70620400D01*
X99142000Y-70620400D02*
X99142000Y-72860400D01*
X99172000Y-72860400D02*
X99372000Y-72860400D01*
X99372000Y-73220400D02*
X99372000Y-72860400D01*
X99372000Y-69620400D02*
X99372000Y-70620400D01*
X99372000Y-73220400D02*
X96092000Y-73220400D01*
X93872000Y-71320400D02*
X88872000Y-71320400D01*
X88872000Y-67720400D02*
X97272000Y-67720399D01*
X88872000Y-68070400D02*
X88872000Y-67720400D01*
D14*
X99172000Y-73020400D02*
X96472000Y-73020400D01*
D17*
X89072000Y-67920400D02*
X90472000Y-67920400D01*
X89072000Y-70420400D02*
X89072000Y-71120400D01*
D11*
X96088318Y-73198929D02*
G75*
G03*
X93872000Y-71320400I-2151318J-291471D01*
G01*
X99372001Y-69620400D02*
G75*
G03*
X97272000Y-67720399I-2000001J-100000D01*
G01*
D15*
X96488318Y-72798929D02*
G75*
G03*
X94272000Y-70920400I-2151318J-291471D01*
G01*
D17*
%TO.C,SW14*%
X111207000Y-104484000D02*
X111207000Y-103784000D01*
X111207000Y-106984000D02*
X109807000Y-106984000D01*
D14*
X101107000Y-101884000D02*
X103807000Y-101884000D01*
D11*
X111407000Y-106834000D02*
X111407000Y-107184000D01*
X111407000Y-107184000D02*
X103007000Y-107184001D01*
X106407000Y-103584000D02*
X111407000Y-103584000D01*
X100907000Y-101684000D02*
X104187000Y-101684000D01*
X100907000Y-105284000D02*
X100907000Y-104284000D01*
X100907000Y-101684000D02*
X100907000Y-102044000D01*
X101107000Y-102044000D02*
X100907000Y-102044000D01*
X101137000Y-104284000D02*
X101137000Y-102044000D01*
X100907000Y-104284000D02*
X101107000Y-104284000D01*
X111207000Y-106834000D02*
X111407000Y-106834000D01*
X111187000Y-104584000D02*
X111187000Y-106834000D01*
X111407000Y-104584000D02*
X111207000Y-104584000D01*
X111407000Y-103584000D02*
X111407000Y-104584000D01*
D16*
X109407000Y-105384000D02*
X102707000Y-105384000D01*
D15*
X110707000Y-106584000D02*
X110707000Y-104084000D01*
D14*
X111107000Y-103884000D02*
X109707000Y-103884000D01*
D13*
X102637000Y-105684000D02*
X102637000Y-103444000D01*
D12*
X101507000Y-102184000D02*
X101507000Y-103984000D01*
D10*
X101007001Y-104384000D02*
X101007000Y-105283999D01*
D15*
X103790682Y-102105471D02*
G75*
G03*
X106007000Y-103984000I2151318J291471D01*
G01*
D11*
X100906999Y-105284000D02*
G75*
G03*
X103007000Y-107184001I2000001J100000D01*
G01*
X104190682Y-101705471D02*
G75*
G03*
X106407000Y-103584000I2151318J291471D01*
G01*
D10*
%TO.C,SW15*%
X118321999Y-34884200D02*
X118322000Y-33984201D01*
D12*
X117822000Y-37084200D02*
X117822000Y-35284200D01*
D13*
X116692000Y-33584200D02*
X116692000Y-35824200D01*
D14*
X108222000Y-35384200D02*
X109622000Y-35384200D01*
D15*
X108622000Y-32684200D02*
X108622000Y-35184200D01*
D16*
X109922000Y-33884200D02*
X116622000Y-33884200D01*
D11*
X107922000Y-35684200D02*
X107922000Y-34684200D01*
X107922000Y-34684200D02*
X108122000Y-34684200D01*
X108142000Y-34684200D02*
X108142000Y-32434200D01*
X108122000Y-32434200D02*
X107922000Y-32434200D01*
X118422000Y-34984200D02*
X118222000Y-34984200D01*
X118192000Y-34984200D02*
X118192000Y-37224200D01*
X118222000Y-37224200D02*
X118422000Y-37224200D01*
X118422000Y-37584200D02*
X118422000Y-37224200D01*
X118422000Y-33984200D02*
X118422000Y-34984200D01*
X118422000Y-37584200D02*
X115142000Y-37584200D01*
X112922000Y-35684200D02*
X107922000Y-35684200D01*
X107922000Y-32084200D02*
X116322000Y-32084199D01*
X107922000Y-32434200D02*
X107922000Y-32084200D01*
D14*
X118222000Y-37384200D02*
X115522000Y-37384200D01*
D17*
X108122000Y-32284200D02*
X109522000Y-32284200D01*
X108122000Y-34784200D02*
X108122000Y-35484200D01*
D11*
X115138318Y-37562729D02*
G75*
G03*
X112922000Y-35684200I-2151318J-291471D01*
G01*
X118422001Y-33984200D02*
G75*
G03*
X116322000Y-32084199I-2000001J-100000D01*
G01*
D15*
X115538318Y-37162729D02*
G75*
G03*
X113322000Y-35284200I-2151318J-291471D01*
G01*
D17*
%TO.C,SW16*%
X108122000Y-53834200D02*
X108122000Y-54534200D01*
X108122000Y-51334200D02*
X109522000Y-51334200D01*
D14*
X118222000Y-56434200D02*
X115522000Y-56434200D01*
D11*
X107922000Y-51484200D02*
X107922000Y-51134200D01*
X107922000Y-51134200D02*
X116322000Y-51134199D01*
X112922000Y-54734200D02*
X107922000Y-54734200D01*
X118422000Y-56634200D02*
X115142000Y-56634200D01*
X118422000Y-53034200D02*
X118422000Y-54034200D01*
X118422000Y-56634200D02*
X118422000Y-56274200D01*
X118222000Y-56274200D02*
X118422000Y-56274200D01*
X118192000Y-54034200D02*
X118192000Y-56274200D01*
X118422000Y-54034200D02*
X118222000Y-54034200D01*
X108122000Y-51484200D02*
X107922000Y-51484200D01*
X108142000Y-53734200D02*
X108142000Y-51484200D01*
X107922000Y-53734200D02*
X108122000Y-53734200D01*
X107922000Y-54734200D02*
X107922000Y-53734200D01*
D16*
X109922000Y-52934200D02*
X116622000Y-52934200D01*
D15*
X108622000Y-51734200D02*
X108622000Y-54234200D01*
D14*
X108222000Y-54434200D02*
X109622000Y-54434200D01*
D13*
X116692000Y-52634200D02*
X116692000Y-54874200D01*
D12*
X117822000Y-56134200D02*
X117822000Y-54334200D01*
D10*
X118321999Y-53934200D02*
X118322000Y-53034201D01*
D15*
X115538318Y-56212729D02*
G75*
G03*
X113322000Y-54334200I-2151318J-291471D01*
G01*
D11*
X118422001Y-53034200D02*
G75*
G03*
X116322000Y-51134199I-2000001J-100000D01*
G01*
X115138318Y-56612729D02*
G75*
G03*
X112922000Y-54734200I-2151318J-291471D01*
G01*
D10*
%TO.C,SW17*%
X118321999Y-73009600D02*
X118322000Y-72109601D01*
D12*
X117822000Y-75209600D02*
X117822000Y-73409600D01*
D13*
X116692000Y-71709600D02*
X116692000Y-73949600D01*
D14*
X108222000Y-73509600D02*
X109622000Y-73509600D01*
D15*
X108622000Y-70809600D02*
X108622000Y-73309600D01*
D16*
X109922000Y-72009600D02*
X116622000Y-72009600D01*
D11*
X107922000Y-73809600D02*
X107922000Y-72809600D01*
X107922000Y-72809600D02*
X108122000Y-72809600D01*
X108142000Y-72809600D02*
X108142000Y-70559600D01*
X108122000Y-70559600D02*
X107922000Y-70559600D01*
X118422000Y-73109600D02*
X118222000Y-73109600D01*
X118192000Y-73109600D02*
X118192000Y-75349600D01*
X118222000Y-75349600D02*
X118422000Y-75349600D01*
X118422000Y-75709600D02*
X118422000Y-75349600D01*
X118422000Y-72109600D02*
X118422000Y-73109600D01*
X118422000Y-75709600D02*
X115142000Y-75709600D01*
X112922000Y-73809600D02*
X107922000Y-73809600D01*
X107922000Y-70209600D02*
X116322000Y-70209599D01*
X107922000Y-70559600D02*
X107922000Y-70209600D01*
D14*
X118222000Y-75509600D02*
X115522000Y-75509600D01*
D17*
X108122000Y-70409600D02*
X109522000Y-70409600D01*
X108122000Y-72909600D02*
X108122000Y-73609600D01*
D11*
X115138318Y-75688129D02*
G75*
G03*
X112922000Y-73809600I-2151318J-291471D01*
G01*
X118422001Y-72109600D02*
G75*
G03*
X116322000Y-70209599I-2000001J-100000D01*
G01*
D15*
X115538318Y-75288129D02*
G75*
G03*
X113322000Y-73409600I-2151318J-291471D01*
G01*
D17*
%TO.C,SW19*%
X127172000Y-37197200D02*
X127172000Y-37897200D01*
X127172000Y-34697200D02*
X128572000Y-34697200D01*
D14*
X137272000Y-39797200D02*
X134572000Y-39797200D01*
D11*
X126972000Y-34847200D02*
X126972000Y-34497200D01*
X126972000Y-34497200D02*
X135372000Y-34497199D01*
X131972000Y-38097200D02*
X126972000Y-38097200D01*
X137472000Y-39997200D02*
X134192000Y-39997200D01*
X137472000Y-36397200D02*
X137472000Y-37397200D01*
X137472000Y-39997200D02*
X137472000Y-39637200D01*
X137272000Y-39637200D02*
X137472000Y-39637200D01*
X137242000Y-37397200D02*
X137242000Y-39637200D01*
X137472000Y-37397200D02*
X137272000Y-37397200D01*
X127172000Y-34847200D02*
X126972000Y-34847200D01*
X127192000Y-37097200D02*
X127192000Y-34847200D01*
X126972000Y-37097200D02*
X127172000Y-37097200D01*
X126972000Y-38097200D02*
X126972000Y-37097200D01*
D16*
X128972000Y-36297200D02*
X135672000Y-36297200D01*
D15*
X127672000Y-35097200D02*
X127672000Y-37597200D01*
D14*
X127272000Y-37797200D02*
X128672000Y-37797200D01*
D13*
X135742000Y-35997200D02*
X135742000Y-38237200D01*
D12*
X136872000Y-39497200D02*
X136872000Y-37697200D01*
D10*
X137371999Y-37297200D02*
X137372000Y-36397201D01*
D15*
X134588318Y-39575729D02*
G75*
G03*
X132372000Y-37697200I-2151318J-291471D01*
G01*
D11*
X137472001Y-36397200D02*
G75*
G03*
X135372000Y-34497199I-2000001J-100000D01*
G01*
X134188318Y-39975729D02*
G75*
G03*
X131972000Y-38097200I-2151318J-291471D01*
G01*
D17*
%TO.C,SW20*%
X127172000Y-56323400D02*
X127172000Y-57023400D01*
X127172000Y-53823400D02*
X128572000Y-53823400D01*
D14*
X137272000Y-58923400D02*
X134572000Y-58923400D01*
D11*
X126972000Y-53973400D02*
X126972000Y-53623400D01*
X126972000Y-53623400D02*
X135372000Y-53623399D01*
X131972000Y-57223400D02*
X126972000Y-57223400D01*
X137472000Y-59123400D02*
X134192000Y-59123400D01*
X137472000Y-55523400D02*
X137472000Y-56523400D01*
X137472000Y-59123400D02*
X137472000Y-58763400D01*
X137272000Y-58763400D02*
X137472000Y-58763400D01*
X137242000Y-56523400D02*
X137242000Y-58763400D01*
X137472000Y-56523400D02*
X137272000Y-56523400D01*
X127172000Y-53973400D02*
X126972000Y-53973400D01*
X127192000Y-56223400D02*
X127192000Y-53973400D01*
X126972000Y-56223400D02*
X127172000Y-56223400D01*
X126972000Y-57223400D02*
X126972000Y-56223400D01*
D16*
X128972000Y-55423400D02*
X135672000Y-55423400D01*
D15*
X127672000Y-54223400D02*
X127672000Y-56723400D01*
D14*
X127272000Y-56923400D02*
X128672000Y-56923400D01*
D13*
X135742000Y-55123400D02*
X135742000Y-57363400D01*
D12*
X136872000Y-58623400D02*
X136872000Y-56823400D01*
D10*
X137371999Y-56423400D02*
X137372000Y-55523401D01*
D15*
X134588318Y-58701929D02*
G75*
G03*
X132372000Y-56823400I-2151318J-291471D01*
G01*
D11*
X137472001Y-55523400D02*
G75*
G03*
X135372000Y-53623399I-2000001J-100000D01*
G01*
X134188318Y-59101929D02*
G75*
G03*
X131972000Y-57223400I-2151318J-291471D01*
G01*
D10*
%TO.C,SW21*%
X137371999Y-75422600D02*
X137372000Y-74522601D01*
D12*
X136872000Y-77622600D02*
X136872000Y-75822600D01*
D13*
X135742000Y-74122600D02*
X135742000Y-76362600D01*
D14*
X127272000Y-75922600D02*
X128672000Y-75922600D01*
D15*
X127672000Y-73222600D02*
X127672000Y-75722600D01*
D16*
X128972000Y-74422600D02*
X135672000Y-74422600D01*
D11*
X126972000Y-76222600D02*
X126972000Y-75222600D01*
X126972000Y-75222600D02*
X127172000Y-75222600D01*
X127192000Y-75222600D02*
X127192000Y-72972600D01*
X127172000Y-72972600D02*
X126972000Y-72972600D01*
X137472000Y-75522600D02*
X137272000Y-75522600D01*
X137242000Y-75522600D02*
X137242000Y-77762600D01*
X137272000Y-77762600D02*
X137472000Y-77762600D01*
X137472000Y-78122600D02*
X137472000Y-77762600D01*
X137472000Y-74522600D02*
X137472000Y-75522600D01*
X137472000Y-78122600D02*
X134192000Y-78122600D01*
X131972000Y-76222600D02*
X126972000Y-76222600D01*
X126972000Y-72622600D02*
X135372000Y-72622599D01*
X126972000Y-72972600D02*
X126972000Y-72622600D01*
D14*
X137272000Y-77922600D02*
X134572000Y-77922600D01*
D17*
X127172000Y-72822600D02*
X128572000Y-72822600D01*
X127172000Y-75322600D02*
X127172000Y-76022600D01*
D11*
X134188318Y-78101129D02*
G75*
G03*
X131972000Y-76222600I-2151318J-291471D01*
G01*
X137472001Y-74522600D02*
G75*
G03*
X135372000Y-72622599I-2000001J-100000D01*
G01*
D15*
X134588318Y-77701129D02*
G75*
G03*
X132372000Y-75822600I-2151318J-291471D01*
G01*
D17*
%TO.C,SW22*%
X153708690Y-101263231D02*
X153050905Y-101023817D01*
X156057921Y-102118281D02*
X155579093Y-103433851D01*
D14*
X147811086Y-109864874D02*
X148734540Y-107327704D01*
D11*
X155985372Y-101879040D02*
X156314264Y-101998747D01*
X156314264Y-101998747D02*
X153441296Y-109892165D01*
X151221270Y-105465937D02*
X152931371Y-100767474D01*
X147554743Y-109984409D02*
X148676569Y-106902217D01*
X150937636Y-111215681D02*
X149997944Y-110873661D01*
X147554743Y-109984409D02*
X147893032Y-110107536D01*
X147961436Y-109919597D02*
X147893032Y-110107536D01*
X150076608Y-110657532D02*
X147971697Y-109891407D01*
X149997944Y-110873661D02*
X150066348Y-110685722D01*
X155916968Y-102066978D02*
X155985372Y-101879040D01*
X153795819Y-101316227D02*
X155910127Y-102085772D01*
X153871063Y-101109495D02*
X153802659Y-101297433D01*
X152931371Y-100767474D02*
X153871063Y-101109495D01*
D16*
X153938777Y-103262496D02*
X151647242Y-109558436D01*
D15*
X155511034Y-102451320D02*
X153161803Y-101596269D01*
D14*
X153110672Y-101151988D02*
X152631844Y-102467558D01*
D13*
X151905208Y-109726821D02*
X149800297Y-108960696D01*
D12*
X148229801Y-109591603D02*
X149921248Y-110207239D01*
D10*
X150126115Y-110813893D02*
X150971838Y-111121712D01*
D15*
X148937072Y-107418786D02*
G75*
G03*
X151460339Y-105978623I461902J2121267D01*
G01*
D11*
X150937636Y-111215683D02*
G75*
G03*
X153441296Y-109892165I590071J1913589D01*
G01*
X148698005Y-106906100D02*
G75*
G03*
X151221270Y-105465937I461901J2121266D01*
G01*
%TO.C,U1*%
D19*
X157400047Y-59038685D02*
X157233380Y-58681542D01*
X157114333Y-59038685D02*
X157114333Y-58288685D01*
X157304809Y-58288685D01*
X157352428Y-58324400D01*
X157376238Y-58360114D01*
X157400047Y-58431542D01*
X157400047Y-58538685D01*
X157376238Y-58610114D01*
X157352428Y-58645828D01*
X157304809Y-58681542D01*
X157114333Y-58681542D01*
X157709571Y-58288685D02*
X157804809Y-58288685D01*
X157852428Y-58324400D01*
X157900047Y-58395828D01*
X157923857Y-58538685D01*
X157923857Y-58788685D01*
X157900047Y-58931542D01*
X157852428Y-59002971D01*
X157804809Y-59038685D01*
X157709571Y-59038685D01*
X157661952Y-59002971D01*
X157614333Y-58931542D01*
X157590523Y-58788685D01*
X157590523Y-58538685D01*
X157614333Y-58395828D01*
X157661952Y-58324400D01*
X157709571Y-58288685D01*
X158090523Y-58288685D02*
X158209571Y-59038685D01*
X158304809Y-58502971D01*
X158400047Y-59038685D01*
X158519095Y-58288685D01*
X158971476Y-59038685D02*
X158685761Y-59038685D01*
X158828619Y-59038685D02*
X158828619Y-58288685D01*
X158781000Y-58395828D01*
X158733380Y-58467257D01*
X158685761Y-58502971D01*
X142283380Y-61515257D02*
X142259571Y-61550971D01*
X142188142Y-61586685D01*
X142140523Y-61586685D01*
X142069095Y-61550971D01*
X142021476Y-61479542D01*
X141997666Y-61408114D01*
X141973857Y-61265257D01*
X141973857Y-61158114D01*
X141997666Y-61015257D01*
X142021476Y-60943828D01*
X142069095Y-60872400D01*
X142140523Y-60836685D01*
X142188142Y-60836685D01*
X142259571Y-60872400D01*
X142283380Y-60908114D01*
X142592904Y-60836685D02*
X142688142Y-60836685D01*
X142735761Y-60872400D01*
X142783380Y-60943828D01*
X142807190Y-61086685D01*
X142807190Y-61336685D01*
X142783380Y-61479542D01*
X142735761Y-61550971D01*
X142688142Y-61586685D01*
X142592904Y-61586685D01*
X142545285Y-61550971D01*
X142497666Y-61479542D01*
X142473857Y-61336685D01*
X142473857Y-61086685D01*
X142497666Y-60943828D01*
X142545285Y-60872400D01*
X142592904Y-60836685D01*
X143259571Y-61586685D02*
X143021476Y-61586685D01*
X143021476Y-60836685D01*
X143640523Y-61086685D02*
X143640523Y-61586685D01*
X143521476Y-60800971D02*
X143402428Y-61336685D01*
X143711952Y-61336685D01*
X157350047Y-61586685D02*
X157183380Y-61229542D01*
X157064333Y-61586685D02*
X157064333Y-60836685D01*
X157254809Y-60836685D01*
X157302428Y-60872400D01*
X157326238Y-60908114D01*
X157350047Y-60979542D01*
X157350047Y-61086685D01*
X157326238Y-61158114D01*
X157302428Y-61193828D01*
X157254809Y-61229542D01*
X157064333Y-61229542D01*
X157659571Y-60836685D02*
X157754809Y-60836685D01*
X157802428Y-60872400D01*
X157850047Y-60943828D01*
X157873857Y-61086685D01*
X157873857Y-61336685D01*
X157850047Y-61479542D01*
X157802428Y-61550971D01*
X157754809Y-61586685D01*
X157659571Y-61586685D01*
X157611952Y-61550971D01*
X157564333Y-61479542D01*
X157540523Y-61336685D01*
X157540523Y-61086685D01*
X157564333Y-60943828D01*
X157611952Y-60872400D01*
X157659571Y-60836685D01*
X158040523Y-60836685D02*
X158159571Y-61586685D01*
X158254809Y-61050971D01*
X158350047Y-61586685D01*
X158469095Y-60836685D01*
X158635761Y-60908114D02*
X158659571Y-60872400D01*
X158707190Y-60836685D01*
X158826238Y-60836685D01*
X158873857Y-60872400D01*
X158897666Y-60908114D01*
X158921476Y-60979542D01*
X158921476Y-61050971D01*
X158897666Y-61158114D01*
X158611952Y-61586685D01*
X158921476Y-61586685D01*
X142283380Y-64110757D02*
X142259571Y-64146471D01*
X142188142Y-64182185D01*
X142140523Y-64182185D01*
X142069095Y-64146471D01*
X142021476Y-64075042D01*
X141997666Y-64003614D01*
X141973857Y-63860757D01*
X141973857Y-63753614D01*
X141997666Y-63610757D01*
X142021476Y-63539328D01*
X142069095Y-63467900D01*
X142140523Y-63432185D01*
X142188142Y-63432185D01*
X142259571Y-63467900D01*
X142283380Y-63503614D01*
X142592904Y-63432185D02*
X142688142Y-63432185D01*
X142735761Y-63467900D01*
X142783380Y-63539328D01*
X142807190Y-63682185D01*
X142807190Y-63932185D01*
X142783380Y-64075042D01*
X142735761Y-64146471D01*
X142688142Y-64182185D01*
X142592904Y-64182185D01*
X142545285Y-64146471D01*
X142497666Y-64075042D01*
X142473857Y-63932185D01*
X142473857Y-63682185D01*
X142497666Y-63539328D01*
X142545285Y-63467900D01*
X142592904Y-63432185D01*
X143259571Y-64182185D02*
X143021476Y-64182185D01*
X143021476Y-63432185D01*
X143664333Y-63432185D02*
X143426238Y-63432185D01*
X143402428Y-63789328D01*
X143426238Y-63753614D01*
X143473857Y-63717900D01*
X143592904Y-63717900D01*
X143640523Y-63753614D01*
X143664333Y-63789328D01*
X143688142Y-63860757D01*
X143688142Y-64039328D01*
X143664333Y-64110757D01*
X143640523Y-64146471D01*
X143592904Y-64182185D01*
X143473857Y-64182185D01*
X143426238Y-64146471D01*
X143402428Y-64110757D01*
X157350047Y-64182185D02*
X157183380Y-63825042D01*
X157064333Y-64182185D02*
X157064333Y-63432185D01*
X157254809Y-63432185D01*
X157302428Y-63467900D01*
X157326238Y-63503614D01*
X157350047Y-63575042D01*
X157350047Y-63682185D01*
X157326238Y-63753614D01*
X157302428Y-63789328D01*
X157254809Y-63825042D01*
X157064333Y-63825042D01*
X157659571Y-63432185D02*
X157754809Y-63432185D01*
X157802428Y-63467900D01*
X157850047Y-63539328D01*
X157873857Y-63682185D01*
X157873857Y-63932185D01*
X157850047Y-64075042D01*
X157802428Y-64146471D01*
X157754809Y-64182185D01*
X157659571Y-64182185D01*
X157611952Y-64146471D01*
X157564333Y-64075042D01*
X157540523Y-63932185D01*
X157540523Y-63682185D01*
X157564333Y-63539328D01*
X157611952Y-63467900D01*
X157659571Y-63432185D01*
X158040523Y-63432185D02*
X158159571Y-64182185D01*
X158254809Y-63646471D01*
X158350047Y-64182185D01*
X158469095Y-63432185D01*
X158611952Y-63432185D02*
X158921476Y-63432185D01*
X158754809Y-63717900D01*
X158826238Y-63717900D01*
X158873857Y-63753614D01*
X158897666Y-63789328D01*
X158921476Y-63860757D01*
X158921476Y-64039328D01*
X158897666Y-64110757D01*
X158873857Y-64146471D01*
X158826238Y-64182185D01*
X158683380Y-64182185D01*
X158635761Y-64146471D01*
X158611952Y-64110757D01*
X142628619Y-66293828D02*
X142700047Y-66329542D01*
X142723857Y-66365257D01*
X142747666Y-66436685D01*
X142747666Y-66543828D01*
X142723857Y-66615257D01*
X142700047Y-66650971D01*
X142652428Y-66686685D01*
X142461952Y-66686685D01*
X142461952Y-65936685D01*
X142628619Y-65936685D01*
X142676238Y-65972400D01*
X142700047Y-66008114D01*
X142723857Y-66079542D01*
X142723857Y-66150971D01*
X142700047Y-66222400D01*
X142676238Y-66258114D01*
X142628619Y-66293828D01*
X142461952Y-66293828D01*
X142938142Y-66008114D02*
X142961952Y-65972400D01*
X143009571Y-65936685D01*
X143128619Y-65936685D01*
X143176238Y-65972400D01*
X143200047Y-66008114D01*
X143223857Y-66079542D01*
X143223857Y-66150971D01*
X143200047Y-66258114D01*
X142914333Y-66686685D01*
X143223857Y-66686685D01*
X157778619Y-66265828D02*
X157850047Y-66301542D01*
X157873857Y-66337257D01*
X157897666Y-66408685D01*
X157897666Y-66515828D01*
X157873857Y-66587257D01*
X157850047Y-66622971D01*
X157802428Y-66658685D01*
X157611952Y-66658685D01*
X157611952Y-65908685D01*
X157778619Y-65908685D01*
X157826238Y-65944400D01*
X157850047Y-65980114D01*
X157873857Y-66051542D01*
X157873857Y-66122971D01*
X157850047Y-66194400D01*
X157826238Y-66230114D01*
X157778619Y-66265828D01*
X157611952Y-66265828D01*
X158326238Y-66158685D02*
X158326238Y-66658685D01*
X158207190Y-65872971D02*
X158088142Y-66408685D01*
X158397666Y-66408685D01*
X157778619Y-68869328D02*
X157850047Y-68905042D01*
X157873857Y-68940757D01*
X157897666Y-69012185D01*
X157897666Y-69119328D01*
X157873857Y-69190757D01*
X157850047Y-69226471D01*
X157802428Y-69262185D01*
X157611952Y-69262185D01*
X157611952Y-68512185D01*
X157778619Y-68512185D01*
X157826238Y-68547900D01*
X157850047Y-68583614D01*
X157873857Y-68655042D01*
X157873857Y-68726471D01*
X157850047Y-68797900D01*
X157826238Y-68833614D01*
X157778619Y-68869328D01*
X157611952Y-68869328D01*
X158350047Y-68512185D02*
X158111952Y-68512185D01*
X158088142Y-68869328D01*
X158111952Y-68833614D01*
X158159571Y-68797900D01*
X158278619Y-68797900D01*
X158326238Y-68833614D01*
X158350047Y-68869328D01*
X158373857Y-68940757D01*
X158373857Y-69119328D01*
X158350047Y-69190757D01*
X158326238Y-69226471D01*
X158278619Y-69262185D01*
X158159571Y-69262185D01*
X158111952Y-69226471D01*
X158088142Y-69190757D01*
X142528619Y-68843828D02*
X142600047Y-68879542D01*
X142623857Y-68915257D01*
X142647666Y-68986685D01*
X142647666Y-69093828D01*
X142623857Y-69165257D01*
X142600047Y-69200971D01*
X142552428Y-69236685D01*
X142361952Y-69236685D01*
X142361952Y-68486685D01*
X142528619Y-68486685D01*
X142576238Y-68522400D01*
X142600047Y-68558114D01*
X142623857Y-68629542D01*
X142623857Y-68700971D01*
X142600047Y-68772400D01*
X142576238Y-68808114D01*
X142528619Y-68843828D01*
X142361952Y-68843828D01*
X143076238Y-68486685D02*
X142981000Y-68486685D01*
X142933380Y-68522400D01*
X142909571Y-68558114D01*
X142861952Y-68665257D01*
X142838142Y-68808114D01*
X142838142Y-69093828D01*
X142861952Y-69165257D01*
X142885761Y-69200971D01*
X142933380Y-69236685D01*
X143028619Y-69236685D01*
X143076238Y-69200971D01*
X143100047Y-69165257D01*
X143123857Y-69093828D01*
X143123857Y-68915257D01*
X143100047Y-68843828D01*
X143076238Y-68808114D01*
X143028619Y-68772400D01*
X142933380Y-68772400D01*
X142885761Y-68808114D01*
X142861952Y-68843828D01*
X142838142Y-68915257D01*
X142333380Y-51365257D02*
X142309571Y-51400971D01*
X142238142Y-51436685D01*
X142190523Y-51436685D01*
X142119095Y-51400971D01*
X142071476Y-51329542D01*
X142047666Y-51258114D01*
X142023857Y-51115257D01*
X142023857Y-51008114D01*
X142047666Y-50865257D01*
X142071476Y-50793828D01*
X142119095Y-50722400D01*
X142190523Y-50686685D01*
X142238142Y-50686685D01*
X142309571Y-50722400D01*
X142333380Y-50758114D01*
X142642904Y-50686685D02*
X142738142Y-50686685D01*
X142785761Y-50722400D01*
X142833380Y-50793828D01*
X142857190Y-50936685D01*
X142857190Y-51186685D01*
X142833380Y-51329542D01*
X142785761Y-51400971D01*
X142738142Y-51436685D01*
X142642904Y-51436685D01*
X142595285Y-51400971D01*
X142547666Y-51329542D01*
X142523857Y-51186685D01*
X142523857Y-50936685D01*
X142547666Y-50793828D01*
X142595285Y-50722400D01*
X142642904Y-50686685D01*
X143309571Y-51436685D02*
X143071476Y-51436685D01*
X143071476Y-50686685D01*
X143571476Y-50686685D02*
X143619095Y-50686685D01*
X143666714Y-50722400D01*
X143690523Y-50758114D01*
X143714333Y-50829542D01*
X143738142Y-50972400D01*
X143738142Y-51150971D01*
X143714333Y-51293828D01*
X143690523Y-51365257D01*
X143666714Y-51400971D01*
X143619095Y-51436685D01*
X143571476Y-51436685D01*
X143523857Y-51400971D01*
X143500047Y-51365257D01*
X143476238Y-51293828D01*
X143452428Y-51150971D01*
X143452428Y-50972400D01*
X143476238Y-50829542D01*
X143500047Y-50758114D01*
X143523857Y-50722400D01*
X143571476Y-50686685D01*
X157634857Y-51382971D02*
X157706285Y-51418685D01*
X157825333Y-51418685D01*
X157872952Y-51382971D01*
X157896761Y-51347257D01*
X157920571Y-51275828D01*
X157920571Y-51204400D01*
X157896761Y-51132971D01*
X157872952Y-51097257D01*
X157825333Y-51061542D01*
X157730095Y-51025828D01*
X157682476Y-50990114D01*
X157658666Y-50954400D01*
X157634857Y-50882971D01*
X157634857Y-50811542D01*
X157658666Y-50740114D01*
X157682476Y-50704400D01*
X157730095Y-50668685D01*
X157849142Y-50668685D01*
X157920571Y-50704400D01*
X158134857Y-51418685D02*
X158134857Y-50668685D01*
X158253904Y-50668685D01*
X158325333Y-50704400D01*
X158372952Y-50775828D01*
X158396761Y-50847257D01*
X158420571Y-50990114D01*
X158420571Y-51097257D01*
X158396761Y-51240114D01*
X158372952Y-51311542D01*
X158325333Y-51382971D01*
X158253904Y-51418685D01*
X158134857Y-51418685D01*
X158611047Y-51204400D02*
X158849142Y-51204400D01*
X158563428Y-51418685D02*
X158730095Y-50668685D01*
X158896761Y-51418685D01*
X142383380Y-53887257D02*
X142359571Y-53922971D01*
X142288142Y-53958685D01*
X142240523Y-53958685D01*
X142169095Y-53922971D01*
X142121476Y-53851542D01*
X142097666Y-53780114D01*
X142073857Y-53637257D01*
X142073857Y-53530114D01*
X142097666Y-53387257D01*
X142121476Y-53315828D01*
X142169095Y-53244400D01*
X142240523Y-53208685D01*
X142288142Y-53208685D01*
X142359571Y-53244400D01*
X142383380Y-53280114D01*
X142692904Y-53208685D02*
X142788142Y-53208685D01*
X142835761Y-53244400D01*
X142883380Y-53315828D01*
X142907190Y-53458685D01*
X142907190Y-53708685D01*
X142883380Y-53851542D01*
X142835761Y-53922971D01*
X142788142Y-53958685D01*
X142692904Y-53958685D01*
X142645285Y-53922971D01*
X142597666Y-53851542D01*
X142573857Y-53708685D01*
X142573857Y-53458685D01*
X142597666Y-53315828D01*
X142645285Y-53244400D01*
X142692904Y-53208685D01*
X143359571Y-53958685D02*
X143121476Y-53958685D01*
X143121476Y-53208685D01*
X143788142Y-53958685D02*
X143502428Y-53958685D01*
X143645285Y-53958685D02*
X143645285Y-53208685D01*
X143597666Y-53315828D01*
X143550047Y-53387257D01*
X143502428Y-53422971D01*
X157646761Y-53922971D02*
X157718190Y-53958685D01*
X157837238Y-53958685D01*
X157884857Y-53922971D01*
X157908666Y-53887257D01*
X157932476Y-53815828D01*
X157932476Y-53744400D01*
X157908666Y-53672971D01*
X157884857Y-53637257D01*
X157837238Y-53601542D01*
X157742000Y-53565828D01*
X157694380Y-53530114D01*
X157670571Y-53494400D01*
X157646761Y-53422971D01*
X157646761Y-53351542D01*
X157670571Y-53280114D01*
X157694380Y-53244400D01*
X157742000Y-53208685D01*
X157861047Y-53208685D01*
X157932476Y-53244400D01*
X158432476Y-53887257D02*
X158408666Y-53922971D01*
X158337238Y-53958685D01*
X158289619Y-53958685D01*
X158218190Y-53922971D01*
X158170571Y-53851542D01*
X158146761Y-53780114D01*
X158122952Y-53637257D01*
X158122952Y-53530114D01*
X158146761Y-53387257D01*
X158170571Y-53315828D01*
X158218190Y-53244400D01*
X158289619Y-53208685D01*
X158337238Y-53208685D01*
X158408666Y-53244400D01*
X158432476Y-53280114D01*
X158884857Y-53958685D02*
X158646761Y-53958685D01*
X158646761Y-53208685D01*
X142333380Y-56427257D02*
X142309571Y-56462971D01*
X142238142Y-56498685D01*
X142190523Y-56498685D01*
X142119095Y-56462971D01*
X142071476Y-56391542D01*
X142047666Y-56320114D01*
X142023857Y-56177257D01*
X142023857Y-56070114D01*
X142047666Y-55927257D01*
X142071476Y-55855828D01*
X142119095Y-55784400D01*
X142190523Y-55748685D01*
X142238142Y-55748685D01*
X142309571Y-55784400D01*
X142333380Y-55820114D01*
X142642904Y-55748685D02*
X142738142Y-55748685D01*
X142785761Y-55784400D01*
X142833380Y-55855828D01*
X142857190Y-55998685D01*
X142857190Y-56248685D01*
X142833380Y-56391542D01*
X142785761Y-56462971D01*
X142738142Y-56498685D01*
X142642904Y-56498685D01*
X142595285Y-56462971D01*
X142547666Y-56391542D01*
X142523857Y-56248685D01*
X142523857Y-55998685D01*
X142547666Y-55855828D01*
X142595285Y-55784400D01*
X142642904Y-55748685D01*
X143309571Y-56498685D02*
X143071476Y-56498685D01*
X143071476Y-55748685D01*
X143452428Y-55820114D02*
X143476238Y-55784400D01*
X143523857Y-55748685D01*
X143642904Y-55748685D01*
X143690523Y-55784400D01*
X143714333Y-55820114D01*
X143738142Y-55891542D01*
X143738142Y-55962971D01*
X143714333Y-56070114D01*
X143428619Y-56498685D01*
X143738142Y-56498685D01*
X157350047Y-56536685D02*
X157183380Y-56179542D01*
X157064333Y-56536685D02*
X157064333Y-55786685D01*
X157254809Y-55786685D01*
X157302428Y-55822400D01*
X157326238Y-55858114D01*
X157350047Y-55929542D01*
X157350047Y-56036685D01*
X157326238Y-56108114D01*
X157302428Y-56143828D01*
X157254809Y-56179542D01*
X157064333Y-56179542D01*
X157659571Y-55786685D02*
X157754809Y-55786685D01*
X157802428Y-55822400D01*
X157850047Y-55893828D01*
X157873857Y-56036685D01*
X157873857Y-56286685D01*
X157850047Y-56429542D01*
X157802428Y-56500971D01*
X157754809Y-56536685D01*
X157659571Y-56536685D01*
X157611952Y-56500971D01*
X157564333Y-56429542D01*
X157540523Y-56286685D01*
X157540523Y-56036685D01*
X157564333Y-55893828D01*
X157611952Y-55822400D01*
X157659571Y-55786685D01*
X158040523Y-55786685D02*
X158159571Y-56536685D01*
X158254809Y-56000971D01*
X158350047Y-56536685D01*
X158469095Y-55786685D01*
X158754809Y-55786685D02*
X158802428Y-55786685D01*
X158850047Y-55822400D01*
X158873857Y-55858114D01*
X158897666Y-55929542D01*
X158921476Y-56072400D01*
X158921476Y-56250971D01*
X158897666Y-56393828D01*
X158873857Y-56465257D01*
X158850047Y-56500971D01*
X158802428Y-56536685D01*
X158754809Y-56536685D01*
X158707190Y-56500971D01*
X158683380Y-56465257D01*
X158659571Y-56393828D01*
X158635761Y-56250971D01*
X158635761Y-56072400D01*
X158659571Y-55929542D01*
X158683380Y-55858114D01*
X158707190Y-55822400D01*
X158754809Y-55786685D01*
X142233380Y-59015257D02*
X142209571Y-59050971D01*
X142138142Y-59086685D01*
X142090523Y-59086685D01*
X142019095Y-59050971D01*
X141971476Y-58979542D01*
X141947666Y-58908114D01*
X141923857Y-58765257D01*
X141923857Y-58658114D01*
X141947666Y-58515257D01*
X141971476Y-58443828D01*
X142019095Y-58372400D01*
X142090523Y-58336685D01*
X142138142Y-58336685D01*
X142209571Y-58372400D01*
X142233380Y-58408114D01*
X142542904Y-58336685D02*
X142638142Y-58336685D01*
X142685761Y-58372400D01*
X142733380Y-58443828D01*
X142757190Y-58586685D01*
X142757190Y-58836685D01*
X142733380Y-58979542D01*
X142685761Y-59050971D01*
X142638142Y-59086685D01*
X142542904Y-59086685D01*
X142495285Y-59050971D01*
X142447666Y-58979542D01*
X142423857Y-58836685D01*
X142423857Y-58586685D01*
X142447666Y-58443828D01*
X142495285Y-58372400D01*
X142542904Y-58336685D01*
X143209571Y-59086685D02*
X142971476Y-59086685D01*
X142971476Y-58336685D01*
X143328619Y-58336685D02*
X143638142Y-58336685D01*
X143471476Y-58622400D01*
X143542904Y-58622400D01*
X143590523Y-58658114D01*
X143614333Y-58693828D01*
X143638142Y-58765257D01*
X143638142Y-58943828D01*
X143614333Y-59015257D01*
X143590523Y-59050971D01*
X143542904Y-59086685D01*
X143400047Y-59086685D01*
X143352428Y-59050971D01*
X143328619Y-59015257D01*
X157861047Y-48227900D02*
X157813428Y-48192185D01*
X157742000Y-48192185D01*
X157670571Y-48227900D01*
X157622952Y-48299328D01*
X157599142Y-48370757D01*
X157575333Y-48513614D01*
X157575333Y-48620757D01*
X157599142Y-48763614D01*
X157622952Y-48835042D01*
X157670571Y-48906471D01*
X157742000Y-48942185D01*
X157789619Y-48942185D01*
X157861047Y-48906471D01*
X157884857Y-48870757D01*
X157884857Y-48620757D01*
X157789619Y-48620757D01*
X158099142Y-48942185D02*
X158099142Y-48192185D01*
X158384857Y-48942185D01*
X158384857Y-48192185D01*
X158622952Y-48942185D02*
X158622952Y-48192185D01*
X158742000Y-48192185D01*
X158813428Y-48227900D01*
X158861047Y-48299328D01*
X158884857Y-48370757D01*
X158908666Y-48513614D01*
X158908666Y-48620757D01*
X158884857Y-48763614D01*
X158861047Y-48835042D01*
X158813428Y-48906471D01*
X158742000Y-48942185D01*
X158622952Y-48942185D01*
X142398833Y-48128685D02*
X142565500Y-48878685D01*
X142732166Y-48128685D01*
X143184547Y-48807257D02*
X143160738Y-48842971D01*
X143089309Y-48878685D01*
X143041690Y-48878685D01*
X142970261Y-48842971D01*
X142922642Y-48771542D01*
X142898833Y-48700114D01*
X142875023Y-48557257D01*
X142875023Y-48450114D01*
X142898833Y-48307257D01*
X142922642Y-48235828D01*
X142970261Y-48164400D01*
X143041690Y-48128685D01*
X143089309Y-48128685D01*
X143160738Y-48164400D01*
X143184547Y-48200114D01*
X143684547Y-48807257D02*
X143660738Y-48842971D01*
X143589309Y-48878685D01*
X143541690Y-48878685D01*
X143470261Y-48842971D01*
X143422642Y-48771542D01*
X143398833Y-48700114D01*
X143375023Y-48557257D01*
X143375023Y-48450114D01*
X143398833Y-48307257D01*
X143422642Y-48235828D01*
X143470261Y-48164400D01*
X143541690Y-48128685D01*
X143589309Y-48128685D01*
X143660738Y-48164400D01*
X143684547Y-48200114D01*
X157924547Y-45687900D02*
X157876928Y-45652185D01*
X157805500Y-45652185D01*
X157734071Y-45687900D01*
X157686452Y-45759328D01*
X157662642Y-45830757D01*
X157638833Y-45973614D01*
X157638833Y-46080757D01*
X157662642Y-46223614D01*
X157686452Y-46295042D01*
X157734071Y-46366471D01*
X157805500Y-46402185D01*
X157853119Y-46402185D01*
X157924547Y-46366471D01*
X157948357Y-46330757D01*
X157948357Y-46080757D01*
X157853119Y-46080757D01*
X158162642Y-46402185D02*
X158162642Y-45652185D01*
X158448357Y-46402185D01*
X158448357Y-45652185D01*
X158686452Y-46402185D02*
X158686452Y-45652185D01*
X158805500Y-45652185D01*
X158876928Y-45687900D01*
X158924547Y-45759328D01*
X158948357Y-45830757D01*
X158972166Y-45973614D01*
X158972166Y-46080757D01*
X158948357Y-46223614D01*
X158924547Y-46295042D01*
X158876928Y-46366471D01*
X158805500Y-46402185D01*
X158686452Y-46402185D01*
X142791690Y-46402185D02*
X142625023Y-46045042D01*
X142505976Y-46402185D02*
X142505976Y-45652185D01*
X142696452Y-45652185D01*
X142744071Y-45687900D01*
X142767880Y-45723614D01*
X142791690Y-45795042D01*
X142791690Y-45902185D01*
X142767880Y-45973614D01*
X142744071Y-46009328D01*
X142696452Y-46045042D01*
X142505976Y-46045042D01*
X142982166Y-46366471D02*
X143053595Y-46402185D01*
X143172642Y-46402185D01*
X143220261Y-46366471D01*
X143244071Y-46330757D01*
X143267880Y-46259328D01*
X143267880Y-46187900D01*
X143244071Y-46116471D01*
X143220261Y-46080757D01*
X143172642Y-46045042D01*
X143077404Y-46009328D01*
X143029785Y-45973614D01*
X143005976Y-45937900D01*
X142982166Y-45866471D01*
X142982166Y-45795042D01*
X143005976Y-45723614D01*
X143029785Y-45687900D01*
X143077404Y-45652185D01*
X143196452Y-45652185D01*
X143267880Y-45687900D01*
X143410738Y-45652185D02*
X143696452Y-45652185D01*
X143553595Y-46402185D02*
X143553595Y-45652185D01*
X157381000Y-43786685D02*
X157381000Y-43036685D01*
X157500047Y-43036685D01*
X157571476Y-43072400D01*
X157619095Y-43143828D01*
X157642904Y-43215257D01*
X157666714Y-43358114D01*
X157666714Y-43465257D01*
X157642904Y-43608114D01*
X157619095Y-43679542D01*
X157571476Y-43750971D01*
X157500047Y-43786685D01*
X157381000Y-43786685D01*
X157857190Y-43572400D02*
X158095285Y-43572400D01*
X157809571Y-43786685D02*
X157976238Y-43036685D01*
X158142904Y-43786685D01*
X158238142Y-43036685D02*
X158523857Y-43036685D01*
X158381000Y-43786685D02*
X158381000Y-43036685D01*
X158666714Y-43572400D02*
X158904809Y-43572400D01*
X158619095Y-43786685D02*
X158785761Y-43036685D01*
X158952428Y-43786685D01*
X142684547Y-43084400D02*
X142636928Y-43048685D01*
X142565500Y-43048685D01*
X142494071Y-43084400D01*
X142446452Y-43155828D01*
X142422642Y-43227257D01*
X142398833Y-43370114D01*
X142398833Y-43477257D01*
X142422642Y-43620114D01*
X142446452Y-43691542D01*
X142494071Y-43762971D01*
X142565500Y-43798685D01*
X142613119Y-43798685D01*
X142684547Y-43762971D01*
X142708357Y-43727257D01*
X142708357Y-43477257D01*
X142613119Y-43477257D01*
X142922642Y-43798685D02*
X142922642Y-43048685D01*
X143208357Y-43798685D01*
X143208357Y-43048685D01*
X143446452Y-43798685D02*
X143446452Y-43048685D01*
X143565500Y-43048685D01*
X143636928Y-43084400D01*
X143684547Y-43155828D01*
X143708357Y-43227257D01*
X143732166Y-43370114D01*
X143732166Y-43477257D01*
X143708357Y-43620114D01*
X143684547Y-43691542D01*
X143636928Y-43762971D01*
X143565500Y-43798685D01*
X143446452Y-43798685D01*
X157959571Y-41258685D02*
X157721476Y-41258685D01*
X157721476Y-40508685D01*
X158126238Y-40865828D02*
X158292904Y-40865828D01*
X158364333Y-41258685D02*
X158126238Y-41258685D01*
X158126238Y-40508685D01*
X158364333Y-40508685D01*
X158578619Y-41258685D02*
X158578619Y-40508685D01*
X158697666Y-40508685D01*
X158769095Y-40544400D01*
X158816714Y-40615828D01*
X158840523Y-40687257D01*
X158864333Y-40830114D01*
X158864333Y-40937257D01*
X158840523Y-41080114D01*
X158816714Y-41151542D01*
X158769095Y-41222971D01*
X158697666Y-41258685D01*
X158578619Y-41258685D01*
X142720261Y-41258685D02*
X142553595Y-40901542D01*
X142434547Y-41258685D02*
X142434547Y-40508685D01*
X142625023Y-40508685D01*
X142672642Y-40544400D01*
X142696452Y-40580114D01*
X142720261Y-40651542D01*
X142720261Y-40758685D01*
X142696452Y-40830114D01*
X142672642Y-40865828D01*
X142625023Y-40901542D01*
X142434547Y-40901542D01*
X142910738Y-41044400D02*
X143148833Y-41044400D01*
X142863119Y-41258685D02*
X143029785Y-40508685D01*
X143196452Y-41258685D01*
X143315500Y-40508685D02*
X143434547Y-41258685D01*
X143529785Y-40722971D01*
X143625023Y-41258685D01*
X143744071Y-40508685D01*
%TO.C,J1*%
D11*
X154165380Y-78710504D02*
X154165380Y-78139076D01*
X155165380Y-78424790D02*
X154165380Y-78424790D01*
X155165380Y-77234314D02*
X154689190Y-77567647D01*
X155165380Y-77805742D02*
X154165380Y-77805742D01*
X154165380Y-77424790D01*
X154213000Y-77329552D01*
X154260619Y-77281933D01*
X154355857Y-77234314D01*
X154498714Y-77234314D01*
X154593952Y-77281933D01*
X154641571Y-77329552D01*
X154689190Y-77424790D01*
X154689190Y-77805742D01*
X155165380Y-76234314D02*
X154689190Y-76567647D01*
X155165380Y-76805742D02*
X154165380Y-76805742D01*
X154165380Y-76424790D01*
X154213000Y-76329552D01*
X154260619Y-76281933D01*
X154355857Y-76234314D01*
X154498714Y-76234314D01*
X154593952Y-76281933D01*
X154641571Y-76329552D01*
X154689190Y-76424790D01*
X154689190Y-76805742D01*
X155117761Y-75853361D02*
X155165380Y-75710504D01*
X155165380Y-75472409D01*
X155117761Y-75377171D01*
X155070142Y-75329552D01*
X154974904Y-75281933D01*
X154879666Y-75281933D01*
X154784428Y-75329552D01*
X154736809Y-75377171D01*
X154689190Y-75472409D01*
X154641571Y-75662885D01*
X154593952Y-75758123D01*
X154546333Y-75805742D01*
X154451095Y-75853361D01*
X154355857Y-75853361D01*
X154260619Y-75805742D01*
X154213000Y-75758123D01*
X154165380Y-75662885D01*
X154165380Y-75424790D01*
X154213000Y-75281933D01*
%TO.C,RESET_SW1*%
X160345380Y-87532980D02*
X159869190Y-87866314D01*
X160345380Y-88104409D02*
X159345380Y-88104409D01*
X159345380Y-87723457D01*
X159393000Y-87628219D01*
X159440619Y-87580600D01*
X159535857Y-87532980D01*
X159678714Y-87532980D01*
X159773952Y-87580600D01*
X159821571Y-87628219D01*
X159869190Y-87723457D01*
X159869190Y-88104409D01*
X159821571Y-87104409D02*
X159821571Y-86771076D01*
X160345380Y-86628219D02*
X160345380Y-87104409D01*
X159345380Y-87104409D01*
X159345380Y-86628219D01*
X160297761Y-86247266D02*
X160345380Y-86104409D01*
X160345380Y-85866314D01*
X160297761Y-85771076D01*
X160250142Y-85723457D01*
X160154904Y-85675838D01*
X160059666Y-85675838D01*
X159964428Y-85723457D01*
X159916809Y-85771076D01*
X159869190Y-85866314D01*
X159821571Y-86056790D01*
X159773952Y-86152028D01*
X159726333Y-86199647D01*
X159631095Y-86247266D01*
X159535857Y-86247266D01*
X159440619Y-86199647D01*
X159393000Y-86152028D01*
X159345380Y-86056790D01*
X159345380Y-85818695D01*
X159393000Y-85675838D01*
X159821571Y-85247266D02*
X159821571Y-84913933D01*
X160345380Y-84771076D02*
X160345380Y-85247266D01*
X159345380Y-85247266D01*
X159345380Y-84771076D01*
X159345380Y-84485361D02*
X159345380Y-83913933D01*
X160345380Y-84199647D02*
X159345380Y-84199647D01*
%TD*%
M02*
