%TF.GenerationSoftware,KiCad,Pcbnew,(5.1.10)-1*%
%TF.CreationDate,2021-08-29T08:11:49+09:00*%
%TF.ProjectId,korpo44,6b6f7270-6f34-4342-9e6b-696361645f70,rev?*%
%TF.SameCoordinates,Original*%
%TF.FileFunction,Legend,Bot*%
%TF.FilePolarity,Positive*%
%FSLAX46Y46*%
G04 Gerber Fmt 4.6, Leading zero omitted, Abs format (unit mm)*
G04 Created by KiCad (PCBNEW (5.1.10)-1) date 2021-08-29 08:11:49*
%MOMM*%
%LPD*%
G01*
G04 APERTURE LIST*
%ADD10C,0.300000*%
%ADD11C,0.150000*%
%ADD12C,0.400000*%
%ADD13C,0.500000*%
%ADD14C,3.500000*%
%ADD15C,1.000000*%
%ADD16C,3.000000*%
%ADD17C,0.800000*%
%ADD18C,0.120000*%
%ADD19C,0.125000*%
G04 APERTURE END LIST*
D10*
X152596428Y-62107142D02*
X154096428Y-62107142D01*
X153167857Y-61964285D02*
X152596428Y-61535714D01*
X153596428Y-61535714D02*
X153025000Y-62107142D01*
X152596428Y-60678571D02*
X152667857Y-60821428D01*
X152739285Y-60892857D01*
X152882142Y-60964285D01*
X153310714Y-60964285D01*
X153453571Y-60892857D01*
X153525000Y-60821428D01*
X153596428Y-60678571D01*
X153596428Y-60464285D01*
X153525000Y-60321428D01*
X153453571Y-60250000D01*
X153310714Y-60178571D01*
X152882142Y-60178571D01*
X152739285Y-60250000D01*
X152667857Y-60321428D01*
X152596428Y-60464285D01*
X152596428Y-60678571D01*
X152596428Y-59535714D02*
X153596428Y-59535714D01*
X153310714Y-59535714D02*
X153453571Y-59464285D01*
X153525000Y-59392857D01*
X153596428Y-59250000D01*
X153596428Y-59107142D01*
X153596428Y-58607142D02*
X152096428Y-58607142D01*
X153525000Y-58607142D02*
X153596428Y-58464285D01*
X153596428Y-58178571D01*
X153525000Y-58035714D01*
X153453571Y-57964285D01*
X153310714Y-57892857D01*
X152882142Y-57892857D01*
X152739285Y-57964285D01*
X152667857Y-58035714D01*
X152596428Y-58178571D01*
X152596428Y-58464285D01*
X152667857Y-58607142D01*
X152596428Y-57035714D02*
X152667857Y-57178571D01*
X152739285Y-57250000D01*
X152882142Y-57321428D01*
X153310714Y-57321428D01*
X153453571Y-57250000D01*
X153525000Y-57178571D01*
X153596428Y-57035714D01*
X153596428Y-56821428D01*
X153525000Y-56678571D01*
X153453571Y-56607142D01*
X153310714Y-56535714D01*
X152882142Y-56535714D01*
X152739285Y-56607142D01*
X152667857Y-56678571D01*
X152596428Y-56821428D01*
X152596428Y-57035714D01*
X153596428Y-55250000D02*
X152596428Y-55250000D01*
X154167857Y-55607142D02*
X153096428Y-55964285D01*
X153096428Y-55035714D01*
X153596428Y-53821428D02*
X152596428Y-53821428D01*
X154167857Y-54178571D02*
X153096428Y-54535714D01*
X153096428Y-53607142D01*
X153596428Y-52035714D02*
X152596428Y-51678571D01*
X153596428Y-51321428D01*
X154096428Y-50464285D02*
X154096428Y-50321428D01*
X154025000Y-50178571D01*
X153953571Y-50107142D01*
X153810714Y-50035714D01*
X153525000Y-49964285D01*
X153167857Y-49964285D01*
X152882142Y-50035714D01*
X152739285Y-50107142D01*
X152667857Y-50178571D01*
X152596428Y-50321428D01*
X152596428Y-50464285D01*
X152667857Y-50607142D01*
X152739285Y-50678571D01*
X152882142Y-50750000D01*
X153167857Y-50821428D01*
X153525000Y-50821428D01*
X153810714Y-50750000D01*
X153953571Y-50678571D01*
X154025000Y-50607142D01*
X154096428Y-50464285D01*
X152739285Y-49321428D02*
X152667857Y-49250000D01*
X152596428Y-49321428D01*
X152667857Y-49392857D01*
X152739285Y-49321428D01*
X152596428Y-49321428D01*
X154096428Y-48750000D02*
X154096428Y-47821428D01*
X153525000Y-48321428D01*
X153525000Y-48107142D01*
X153453571Y-47964285D01*
X153382142Y-47892857D01*
X153239285Y-47821428D01*
X152882142Y-47821428D01*
X152739285Y-47892857D01*
X152667857Y-47964285D01*
X152596428Y-48107142D01*
X152596428Y-48535714D01*
X152667857Y-48678571D01*
X152739285Y-48750000D01*
X150046428Y-66321428D02*
X151546428Y-66321428D01*
X150117857Y-66321428D02*
X150046428Y-66464285D01*
X150046428Y-66750000D01*
X150117857Y-66892857D01*
X150189285Y-66964285D01*
X150332142Y-67035714D01*
X150760714Y-67035714D01*
X150903571Y-66964285D01*
X150975000Y-66892857D01*
X151046428Y-66750000D01*
X151046428Y-66464285D01*
X150975000Y-66321428D01*
X150117857Y-65035714D02*
X150046428Y-65178571D01*
X150046428Y-65464285D01*
X150117857Y-65607142D01*
X150260714Y-65678571D01*
X150832142Y-65678571D01*
X150975000Y-65607142D01*
X151046428Y-65464285D01*
X151046428Y-65178571D01*
X150975000Y-65035714D01*
X150832142Y-64964285D01*
X150689285Y-64964285D01*
X150546428Y-65678571D01*
X150117857Y-64392857D02*
X150046428Y-64250000D01*
X150046428Y-63964285D01*
X150117857Y-63821428D01*
X150260714Y-63750000D01*
X150332142Y-63750000D01*
X150475000Y-63821428D01*
X150546428Y-63964285D01*
X150546428Y-64178571D01*
X150617857Y-64321428D01*
X150760714Y-64392857D01*
X150832142Y-64392857D01*
X150975000Y-64321428D01*
X151046428Y-64178571D01*
X151046428Y-63964285D01*
X150975000Y-63821428D01*
X150046428Y-63107142D02*
X151046428Y-63107142D01*
X151546428Y-63107142D02*
X151475000Y-63178571D01*
X151403571Y-63107142D01*
X151475000Y-63035714D01*
X151546428Y-63107142D01*
X151403571Y-63107142D01*
X151046428Y-61750000D02*
X149832142Y-61750000D01*
X149689285Y-61821428D01*
X149617857Y-61892857D01*
X149546428Y-62035714D01*
X149546428Y-62250000D01*
X149617857Y-62392857D01*
X150117857Y-61750000D02*
X150046428Y-61892857D01*
X150046428Y-62178571D01*
X150117857Y-62321428D01*
X150189285Y-62392857D01*
X150332142Y-62464285D01*
X150760714Y-62464285D01*
X150903571Y-62392857D01*
X150975000Y-62321428D01*
X151046428Y-62178571D01*
X151046428Y-61892857D01*
X150975000Y-61750000D01*
X151046428Y-61035714D02*
X150046428Y-61035714D01*
X150903571Y-61035714D02*
X150975000Y-60964285D01*
X151046428Y-60821428D01*
X151046428Y-60607142D01*
X150975000Y-60464285D01*
X150832142Y-60392857D01*
X150046428Y-60392857D01*
X150046428Y-58535714D02*
X151546428Y-58535714D01*
X150975000Y-58535714D02*
X151046428Y-58392857D01*
X151046428Y-58107142D01*
X150975000Y-57964285D01*
X150903571Y-57892857D01*
X150760714Y-57821428D01*
X150332142Y-57821428D01*
X150189285Y-57892857D01*
X150117857Y-57964285D01*
X150046428Y-58107142D01*
X150046428Y-58392857D01*
X150117857Y-58535714D01*
X151046428Y-57321428D02*
X150046428Y-56964285D01*
X151046428Y-56607142D02*
X150046428Y-56964285D01*
X149689285Y-57107142D01*
X149617857Y-57178571D01*
X149546428Y-57321428D01*
X151046428Y-55107142D02*
X151046428Y-54535714D01*
X151546428Y-54892857D02*
X150260714Y-54892857D01*
X150117857Y-54821428D01*
X150046428Y-54678571D01*
X150046428Y-54535714D01*
X150046428Y-53392857D02*
X150832142Y-53392857D01*
X150975000Y-53464285D01*
X151046428Y-53607142D01*
X151046428Y-53892857D01*
X150975000Y-54035714D01*
X150117857Y-53392857D02*
X150046428Y-53535714D01*
X150046428Y-53892857D01*
X150117857Y-54035714D01*
X150260714Y-54107142D01*
X150403571Y-54107142D01*
X150546428Y-54035714D01*
X150617857Y-53892857D01*
X150617857Y-53535714D01*
X150689285Y-53392857D01*
X150046428Y-52678571D02*
X151046428Y-52678571D01*
X150903571Y-52678571D02*
X150975000Y-52607142D01*
X151046428Y-52464285D01*
X151046428Y-52250000D01*
X150975000Y-52107142D01*
X150832142Y-52035714D01*
X150046428Y-52035714D01*
X150832142Y-52035714D02*
X150975000Y-51964285D01*
X151046428Y-51821428D01*
X151046428Y-51607142D01*
X150975000Y-51464285D01*
X150832142Y-51392857D01*
X150046428Y-51392857D01*
X150046428Y-50035714D02*
X150832142Y-50035714D01*
X150975000Y-50107142D01*
X151046428Y-50250000D01*
X151046428Y-50535714D01*
X150975000Y-50678571D01*
X150117857Y-50035714D02*
X150046428Y-50178571D01*
X150046428Y-50535714D01*
X150117857Y-50678571D01*
X150260714Y-50750000D01*
X150403571Y-50750000D01*
X150546428Y-50678571D01*
X150617857Y-50535714D01*
X150617857Y-50178571D01*
X150689285Y-50035714D01*
X151046428Y-48678571D02*
X149832142Y-48678571D01*
X149689285Y-48750000D01*
X149617857Y-48821428D01*
X149546428Y-48964285D01*
X149546428Y-49178571D01*
X149617857Y-49321428D01*
X150117857Y-48678571D02*
X150046428Y-48821428D01*
X150046428Y-49107142D01*
X150117857Y-49250000D01*
X150189285Y-49321428D01*
X150332142Y-49392857D01*
X150760714Y-49392857D01*
X150903571Y-49321428D01*
X150975000Y-49250000D01*
X151046428Y-49107142D01*
X151046428Y-48821428D01*
X150975000Y-48678571D01*
X150046428Y-47750000D02*
X150117857Y-47892857D01*
X150189285Y-47964285D01*
X150332142Y-48035714D01*
X150760714Y-48035714D01*
X150903571Y-47964285D01*
X150975000Y-47892857D01*
X151046428Y-47750000D01*
X151046428Y-47535714D01*
X150975000Y-47392857D01*
X150903571Y-47321428D01*
X150760714Y-47250000D01*
X150332142Y-47250000D01*
X150189285Y-47321428D01*
X150117857Y-47392857D01*
X150046428Y-47535714D01*
X150046428Y-47750000D01*
X151546428Y-46750000D02*
X151546428Y-45821428D01*
X150975000Y-46321428D01*
X150975000Y-46107142D01*
X150903571Y-45964285D01*
X150832142Y-45892857D01*
X150689285Y-45821428D01*
X150332142Y-45821428D01*
X150189285Y-45892857D01*
X150117857Y-45964285D01*
X150046428Y-46107142D01*
X150046428Y-46535714D01*
X150117857Y-46678571D01*
X150189285Y-46750000D01*
X151403571Y-45250000D02*
X151475000Y-45178571D01*
X151546428Y-45035714D01*
X151546428Y-44678571D01*
X151475000Y-44535714D01*
X151403571Y-44464285D01*
X151260714Y-44392857D01*
X151117857Y-44392857D01*
X150903571Y-44464285D01*
X150046428Y-45321428D01*
X150046428Y-44392857D01*
X151046428Y-43107142D02*
X150046428Y-43107142D01*
X151617857Y-43464285D02*
X150546428Y-43821428D01*
X150546428Y-42892857D01*
D11*
%TO.C,U1*%
X157861000Y-40919400D02*
X160401000Y-40919400D01*
X160401000Y-40919400D02*
X160401000Y-71399400D01*
X160401000Y-71399400D02*
X157861000Y-71399400D01*
X157861000Y-71399400D02*
X157861000Y-40919400D01*
X142621000Y-40919400D02*
X145161000Y-40919400D01*
X145161000Y-40919400D02*
X145161000Y-71399400D01*
X145161000Y-71399400D02*
X142621000Y-71399400D01*
X142621000Y-71399400D02*
X142621000Y-40919400D01*
D12*
%TO.C,SW6*%
X59772000Y-84288800D02*
X59772000Y-84988800D01*
X59772000Y-81788800D02*
X58372000Y-81788800D01*
D13*
X49672000Y-86888800D02*
X52372000Y-86888800D01*
D11*
X59972000Y-81938800D02*
X59972000Y-81588800D01*
X59972000Y-81588800D02*
X51571999Y-81588800D01*
X54972000Y-85188800D02*
X59972000Y-85188800D01*
X49472000Y-87088800D02*
X52752000Y-87088800D01*
X49472000Y-83488800D02*
X49472000Y-84488800D01*
X49472000Y-87088800D02*
X49472000Y-86728800D01*
X49672000Y-86728800D02*
X49472000Y-86728800D01*
X49702000Y-84488800D02*
X49702000Y-86728800D01*
X49472000Y-84488800D02*
X49672000Y-84488800D01*
X59772000Y-81938800D02*
X59972000Y-81938800D01*
X59752000Y-84188800D02*
X59752000Y-81938800D01*
X59972000Y-84188800D02*
X59772000Y-84188800D01*
X59972000Y-85188800D02*
X59972000Y-84188800D01*
D14*
X57972000Y-83388800D02*
X51272000Y-83388800D01*
D15*
X59272000Y-82188800D02*
X59272000Y-84688800D01*
D13*
X59672000Y-84888800D02*
X58272000Y-84888800D01*
D16*
X51202000Y-83088800D02*
X51202000Y-85328800D01*
D17*
X50072000Y-86588800D02*
X50072000Y-84788801D01*
D10*
X49572000Y-84388799D02*
X49572000Y-83488800D01*
D15*
X52355682Y-86667329D02*
G75*
G02*
X54572000Y-84788800I2151318J-291471D01*
G01*
D11*
X49472000Y-83488801D02*
G75*
G02*
X51571999Y-81588800I2000000J-99999D01*
G01*
X52755682Y-87067329D02*
G75*
G02*
X54972000Y-85188800I2151318J-291471D01*
G01*
D12*
%TO.C,SW18*%
X122395618Y-105489698D02*
X122517172Y-104800333D01*
X121961498Y-107951718D02*
X123340228Y-108194825D01*
D13*
X132793662Y-104683045D02*
X130134681Y-104214195D01*
D11*
X121790583Y-107769267D02*
X121729806Y-108113950D01*
X121729806Y-108113950D02*
X130002192Y-109572594D01*
X127278979Y-105436883D02*
X122354940Y-104568642D01*
X133025353Y-104520813D02*
X129795183Y-103951247D01*
X132400219Y-108066121D02*
X132573867Y-107081313D01*
X133025353Y-104520813D02*
X132962839Y-104875344D01*
X132765878Y-104840614D02*
X132962839Y-104875344D01*
X132347362Y-107041374D02*
X132736334Y-104835404D01*
X132573867Y-107081313D02*
X132376906Y-107046583D01*
X121987545Y-107803996D02*
X121790583Y-107769267D01*
X122397949Y-105591652D02*
X122007241Y-107807469D01*
X122181292Y-105553449D02*
X122378253Y-105588179D01*
X122354940Y-104568642D02*
X122181292Y-105553449D01*
D14*
X124011989Y-106688592D02*
X130610201Y-107852035D01*
D15*
X122523361Y-107644619D02*
X122957481Y-105182599D01*
D13*
X122598288Y-104916178D02*
X123977019Y-105159286D01*
D16*
X130627043Y-108159632D02*
X131016015Y-105953663D01*
D17*
X132347644Y-104909028D02*
X132035077Y-106681681D01*
D10*
X132458022Y-107162430D02*
X132301739Y-108048756D01*
D15*
X130112293Y-104435134D02*
G75*
G02*
X127603442Y-105900265I-2068022J660615D01*
G01*
D11*
X132400219Y-108066121D02*
G75*
G02*
X130002192Y-109572594I-1952250J445777D01*
G01*
X129787830Y-103971752D02*
G75*
G02*
X127278979Y-105436883I-2068022J660615D01*
G01*
D12*
%TO.C,SW1*%
X40722000Y-48678000D02*
X40722000Y-49378000D01*
X40722000Y-46178000D02*
X39322000Y-46178000D01*
D13*
X30622000Y-51278000D02*
X33322000Y-51278000D01*
D11*
X40922000Y-46328000D02*
X40922000Y-45978000D01*
X40922000Y-45978000D02*
X32521999Y-45978000D01*
X35922000Y-49578000D02*
X40922000Y-49578000D01*
X30422000Y-51478000D02*
X33702000Y-51478000D01*
X30422000Y-47878000D02*
X30422000Y-48878000D01*
X30422000Y-51478000D02*
X30422000Y-51118000D01*
X30622000Y-51118000D02*
X30422000Y-51118000D01*
X30652000Y-48878000D02*
X30652000Y-51118000D01*
X30422000Y-48878000D02*
X30622000Y-48878000D01*
X40722000Y-46328000D02*
X40922000Y-46328000D01*
X40702000Y-48578000D02*
X40702000Y-46328000D01*
X40922000Y-48578000D02*
X40722000Y-48578000D01*
X40922000Y-49578000D02*
X40922000Y-48578000D01*
D14*
X38922000Y-47778000D02*
X32222000Y-47778000D01*
D15*
X40222000Y-46578000D02*
X40222000Y-49078000D01*
D13*
X40622000Y-49278000D02*
X39222000Y-49278000D01*
D16*
X32152000Y-47478000D02*
X32152000Y-49718000D01*
D17*
X31022000Y-50978000D02*
X31022000Y-49178001D01*
D10*
X30522000Y-48777999D02*
X30522000Y-47878000D01*
D15*
X33305682Y-51056529D02*
G75*
G02*
X35522000Y-49178000I2151318J-291471D01*
G01*
D11*
X30422000Y-47878001D02*
G75*
G02*
X32521999Y-45978000I2000000J-99999D01*
G01*
X33705682Y-51456529D02*
G75*
G02*
X35922000Y-49578000I2151318J-291471D01*
G01*
%TO.C,D1*%
X44107800Y-54196000D02*
X42607800Y-54196000D01*
X44107800Y-59596000D02*
X44107800Y-54196000D01*
X42607800Y-59596000D02*
X44107800Y-59596000D01*
X42607800Y-54196000D02*
X42607800Y-59596000D01*
X43857800Y-56396000D02*
X43357800Y-57296000D01*
X42857800Y-56396000D02*
X43857800Y-56396000D01*
X43357800Y-57296000D02*
X42857800Y-56396000D01*
X42857800Y-57396000D02*
X43857800Y-57396000D01*
%TO.C,D2*%
X44082400Y-73220600D02*
X42582400Y-73220600D01*
X44082400Y-78620600D02*
X44082400Y-73220600D01*
X42582400Y-78620600D02*
X44082400Y-78620600D01*
X42582400Y-73220600D02*
X42582400Y-78620600D01*
X43832400Y-75420600D02*
X43332400Y-76320600D01*
X42832400Y-75420600D02*
X43832400Y-75420600D01*
X43332400Y-76320600D02*
X42832400Y-75420600D01*
X42832400Y-76420600D02*
X43832400Y-76420600D01*
%TO.C,D3*%
X44031600Y-92296000D02*
X42531600Y-92296000D01*
X44031600Y-97696000D02*
X44031600Y-92296000D01*
X42531600Y-97696000D02*
X44031600Y-97696000D01*
X42531600Y-92296000D02*
X42531600Y-97696000D01*
X43781600Y-94496000D02*
X43281600Y-95396000D01*
X42781600Y-94496000D02*
X43781600Y-94496000D01*
X43281600Y-95396000D02*
X42781600Y-94496000D01*
X42781600Y-95496000D02*
X43781600Y-95496000D01*
%TO.C,D4*%
X49162400Y-51681400D02*
X47662400Y-51681400D01*
X49162400Y-57081400D02*
X49162400Y-51681400D01*
X47662400Y-57081400D02*
X49162400Y-57081400D01*
X47662400Y-51681400D02*
X47662400Y-57081400D01*
X48912400Y-53881400D02*
X48412400Y-54781400D01*
X47912400Y-53881400D02*
X48912400Y-53881400D01*
X48412400Y-54781400D02*
X47912400Y-53881400D01*
X47912400Y-54881400D02*
X48912400Y-54881400D01*
%TO.C,D5*%
X49111600Y-70782200D02*
X47611600Y-70782200D01*
X49111600Y-76182200D02*
X49111600Y-70782200D01*
X47611600Y-76182200D02*
X49111600Y-76182200D01*
X47611600Y-70782200D02*
X47611600Y-76182200D01*
X48861600Y-72982200D02*
X48361600Y-73882200D01*
X47861600Y-72982200D02*
X48861600Y-72982200D01*
X48361600Y-73882200D02*
X47861600Y-72982200D01*
X47861600Y-73982200D02*
X48861600Y-73982200D01*
%TO.C,D6*%
X49162400Y-89832200D02*
X47662400Y-89832200D01*
X49162400Y-95232200D02*
X49162400Y-89832200D01*
X47662400Y-95232200D02*
X49162400Y-95232200D01*
X47662400Y-89832200D02*
X47662400Y-95232200D01*
X48912400Y-92032200D02*
X48412400Y-92932200D01*
X47912400Y-92032200D02*
X48912400Y-92032200D01*
X48412400Y-92932200D02*
X47912400Y-92032200D01*
X47912400Y-93032200D02*
X48912400Y-93032200D01*
%TO.C,D7*%
X82157000Y-40200600D02*
X80657000Y-40200600D01*
X82157000Y-45600600D02*
X82157000Y-40200600D01*
X80657000Y-45600600D02*
X82157000Y-45600600D01*
X80657000Y-40200600D02*
X80657000Y-45600600D01*
X81907000Y-42400600D02*
X81407000Y-43300600D01*
X80907000Y-42400600D02*
X81907000Y-42400600D01*
X81407000Y-43300600D02*
X80907000Y-42400600D01*
X80907000Y-43400600D02*
X81907000Y-43400600D01*
%TO.C,D8*%
X82157000Y-59326800D02*
X80657000Y-59326800D01*
X82157000Y-64726800D02*
X82157000Y-59326800D01*
X80657000Y-64726800D02*
X82157000Y-64726800D01*
X80657000Y-59326800D02*
X80657000Y-64726800D01*
X81907000Y-61526800D02*
X81407000Y-62426800D01*
X80907000Y-61526800D02*
X81907000Y-61526800D01*
X81407000Y-62426800D02*
X80907000Y-61526800D01*
X80907000Y-62526800D02*
X81907000Y-62526800D01*
%TO.C,D9*%
X82131600Y-78376800D02*
X80631600Y-78376800D01*
X82131600Y-83776800D02*
X82131600Y-78376800D01*
X80631600Y-83776800D02*
X82131600Y-83776800D01*
X80631600Y-78376800D02*
X80631600Y-83776800D01*
X81881600Y-80576800D02*
X81381600Y-81476800D01*
X80881600Y-80576800D02*
X81881600Y-80576800D01*
X81381600Y-81476800D02*
X80881600Y-80576800D01*
X80881600Y-81576800D02*
X81881600Y-81576800D01*
%TO.C,D10*%
X89674000Y-98966000D02*
X91174000Y-98966000D01*
X89674000Y-93566000D02*
X89674000Y-98966000D01*
X91174000Y-93566000D02*
X89674000Y-93566000D01*
X91174000Y-98966000D02*
X91174000Y-93566000D01*
X89924000Y-96766000D02*
X90424000Y-95866000D01*
X90924000Y-96766000D02*
X89924000Y-96766000D01*
X90424000Y-95866000D02*
X90924000Y-96766000D01*
X90924000Y-95766000D02*
X89924000Y-95766000D01*
%TO.C,D11*%
X87287800Y-37813000D02*
X85787800Y-37813000D01*
X87287800Y-43213000D02*
X87287800Y-37813000D01*
X85787800Y-43213000D02*
X87287800Y-43213000D01*
X85787800Y-37813000D02*
X85787800Y-43213000D01*
X87037800Y-40013000D02*
X86537800Y-40913000D01*
X86037800Y-40013000D02*
X87037800Y-40013000D01*
X86537800Y-40913000D02*
X86037800Y-40013000D01*
X86037800Y-41013000D02*
X87037800Y-41013000D01*
%TO.C,D12*%
X87186200Y-56888400D02*
X85686200Y-56888400D01*
X87186200Y-62288400D02*
X87186200Y-56888400D01*
X85686200Y-62288400D02*
X87186200Y-62288400D01*
X85686200Y-56888400D02*
X85686200Y-62288400D01*
X86936200Y-59088400D02*
X86436200Y-59988400D01*
X85936200Y-59088400D02*
X86936200Y-59088400D01*
X86436200Y-59988400D02*
X85936200Y-59088400D01*
X85936200Y-60088400D02*
X86936200Y-60088400D01*
%TO.C,D13*%
X87262400Y-75862200D02*
X85762400Y-75862200D01*
X87262400Y-81262200D02*
X87262400Y-75862200D01*
X85762400Y-81262200D02*
X87262400Y-81262200D01*
X85762400Y-75862200D02*
X85762400Y-81262200D01*
X87012400Y-78062200D02*
X86512400Y-78962200D01*
X86012400Y-78062200D02*
X87012400Y-78062200D01*
X86512400Y-78962200D02*
X86012400Y-78062200D01*
X86012400Y-79062200D02*
X87012400Y-79062200D01*
%TO.C,D14*%
X99122800Y-98991400D02*
X100622800Y-98991400D01*
X99122800Y-93591400D02*
X99122800Y-98991400D01*
X100622800Y-93591400D02*
X99122800Y-93591400D01*
X100622800Y-98991400D02*
X100622800Y-93591400D01*
X99372800Y-96791400D02*
X99872800Y-95891400D01*
X100372800Y-96791400D02*
X99372800Y-96791400D01*
X99872800Y-95891400D02*
X100372800Y-96791400D01*
X100372800Y-95791400D02*
X99372800Y-95791400D01*
%TO.C,D15*%
X120257000Y-40302200D02*
X118757000Y-40302200D01*
X120257000Y-45702200D02*
X120257000Y-40302200D01*
X118757000Y-45702200D02*
X120257000Y-45702200D01*
X118757000Y-40302200D02*
X118757000Y-45702200D01*
X120007000Y-42502200D02*
X119507000Y-43402200D01*
X119007000Y-42502200D02*
X120007000Y-42502200D01*
X119507000Y-43402200D02*
X119007000Y-42502200D01*
X119007000Y-43502200D02*
X120007000Y-43502200D01*
%TO.C,D16*%
X120206000Y-59326800D02*
X118706000Y-59326800D01*
X120206000Y-64726800D02*
X120206000Y-59326800D01*
X118706000Y-64726800D02*
X120206000Y-64726800D01*
X118706000Y-59326800D02*
X118706000Y-64726800D01*
X119956000Y-61526800D02*
X119456000Y-62426800D01*
X118956000Y-61526800D02*
X119956000Y-61526800D01*
X119456000Y-62426800D02*
X118956000Y-61526800D01*
X118956000Y-62526800D02*
X119956000Y-62526800D01*
%TO.C,D17*%
X120257000Y-78402200D02*
X118757000Y-78402200D01*
X120257000Y-83802200D02*
X120257000Y-78402200D01*
X118757000Y-83802200D02*
X120257000Y-83802200D01*
X118757000Y-78402200D02*
X118757000Y-83802200D01*
X120007000Y-80602200D02*
X119507000Y-81502200D01*
X119007000Y-80602200D02*
X120007000Y-80602200D01*
X119507000Y-81502200D02*
X119007000Y-80602200D01*
X119007000Y-81602200D02*
X120007000Y-81602200D01*
%TO.C,D18*%
X133790544Y-101914345D02*
X135267756Y-102174817D01*
X134728244Y-96596383D02*
X133790544Y-101914345D01*
X136205456Y-96856855D02*
X134728244Y-96596383D01*
X135267756Y-102174817D02*
X136205456Y-96856855D01*
X134418772Y-99791180D02*
X135067459Y-98991677D01*
X135403580Y-99964828D02*
X134418772Y-99791180D01*
X135067459Y-98991677D02*
X135403580Y-99964828D01*
X135577228Y-98980020D02*
X134592420Y-98806372D01*
%TO.C,D19*%
X125337000Y-42766000D02*
X123837000Y-42766000D01*
X125337000Y-48166000D02*
X125337000Y-42766000D01*
X123837000Y-48166000D02*
X125337000Y-48166000D01*
X123837000Y-42766000D02*
X123837000Y-48166000D01*
X125087000Y-44966000D02*
X124587000Y-45866000D01*
X124087000Y-44966000D02*
X125087000Y-44966000D01*
X124587000Y-45866000D02*
X124087000Y-44966000D01*
X124087000Y-45966000D02*
X125087000Y-45966000D01*
%TO.C,D20*%
X125286000Y-61739800D02*
X123786000Y-61739800D01*
X125286000Y-67139800D02*
X125286000Y-61739800D01*
X123786000Y-67139800D02*
X125286000Y-67139800D01*
X123786000Y-61739800D02*
X123786000Y-67139800D01*
X125036000Y-63939800D02*
X124536000Y-64839800D01*
X124036000Y-63939800D02*
X125036000Y-63939800D01*
X124536000Y-64839800D02*
X124036000Y-63939800D01*
X124036000Y-64939800D02*
X125036000Y-64939800D01*
%TO.C,D21*%
X125337000Y-80866000D02*
X123837000Y-80866000D01*
X125337000Y-86266000D02*
X125337000Y-80866000D01*
X123837000Y-86266000D02*
X125337000Y-86266000D01*
X123837000Y-80866000D02*
X123837000Y-86266000D01*
X125087000Y-83066000D02*
X124587000Y-83966000D01*
X124087000Y-83066000D02*
X125087000Y-83066000D01*
X124587000Y-83966000D02*
X124087000Y-83066000D01*
X124087000Y-84066000D02*
X125087000Y-84066000D01*
%TO.C,D22*%
X149168655Y-97462424D02*
X149681685Y-96052885D01*
X144094315Y-95615515D02*
X149168655Y-97462424D01*
X144607345Y-94205976D02*
X144094315Y-95615515D01*
X149681685Y-96052885D02*
X144607345Y-94205976D01*
X147186836Y-96475056D02*
X146512123Y-95697392D01*
X147528856Y-95535364D02*
X147186836Y-96475056D01*
X146512123Y-95697392D02*
X147528856Y-95535364D01*
X146589164Y-95193344D02*
X146247144Y-96133036D01*
%TO.C,J1*%
X149163000Y-72948600D02*
X161163000Y-72948600D01*
X149163000Y-78948600D02*
X149163000Y-72948600D01*
X161163000Y-78948600D02*
X149163000Y-78948600D01*
X161163000Y-72948600D02*
X161163000Y-78948600D01*
D18*
%TO.C,LED1*%
X40157400Y-58166000D02*
X38785800Y-58166000D01*
X40157400Y-59359800D02*
X38785800Y-59359800D01*
X40157400Y-59359800D02*
X40157400Y-58166000D01*
%TO.C,LED2*%
X39954200Y-77190600D02*
X38582600Y-77190600D01*
X39954200Y-78384400D02*
X38582600Y-78384400D01*
X39954200Y-78384400D02*
X39954200Y-77190600D01*
%TO.C,LED3*%
X39954200Y-96266000D02*
X38582600Y-96266000D01*
X39954200Y-97459800D02*
X38582600Y-97459800D01*
X39954200Y-97459800D02*
X39954200Y-96266000D01*
%TO.C,LED4*%
X59036400Y-56856400D02*
X59036400Y-55662600D01*
X59036400Y-56856400D02*
X57664800Y-56856400D01*
X59036400Y-55662600D02*
X57664800Y-55662600D01*
%TO.C,LED5*%
X59156600Y-75920600D02*
X59156600Y-74726800D01*
X59156600Y-75920600D02*
X57785000Y-75920600D01*
X59156600Y-74726800D02*
X57785000Y-74726800D01*
%TO.C,LED6*%
X59232800Y-94996000D02*
X59232800Y-93802200D01*
X59232800Y-94996000D02*
X57861200Y-94996000D01*
X59232800Y-93802200D02*
X57861200Y-93802200D01*
%TO.C,LED7*%
X78232000Y-44246800D02*
X76860400Y-44246800D01*
X78232000Y-45440600D02*
X76860400Y-45440600D01*
X78232000Y-45440600D02*
X78232000Y-44246800D01*
%TO.C,LED8*%
X78079600Y-63322200D02*
X76708000Y-63322200D01*
X78079600Y-64516000D02*
X76708000Y-64516000D01*
X78079600Y-64516000D02*
X78079600Y-63322200D01*
%TO.C,LED9*%
X78257400Y-82346800D02*
X76885800Y-82346800D01*
X78257400Y-83540600D02*
X76885800Y-83540600D01*
X78257400Y-83540600D02*
X78257400Y-82346800D01*
%TO.C,LED10*%
X87376000Y-95097600D02*
X86004400Y-95097600D01*
X87376000Y-96291400D02*
X86004400Y-96291400D01*
X87376000Y-96291400D02*
X87376000Y-95097600D01*
%TO.C,LED11*%
X97231200Y-42976800D02*
X97231200Y-41783000D01*
X97231200Y-42976800D02*
X95859600Y-42976800D01*
X97231200Y-41783000D02*
X95859600Y-41783000D01*
%TO.C,LED12*%
X97155000Y-62077600D02*
X97155000Y-60883800D01*
X97155000Y-62077600D02*
X95783400Y-62077600D01*
X97155000Y-60883800D02*
X95783400Y-60883800D01*
%TO.C,LED13*%
X97256600Y-81051400D02*
X97256600Y-79857600D01*
X97256600Y-81051400D02*
X95885000Y-81051400D01*
X97256600Y-79857600D02*
X95885000Y-79857600D01*
%TO.C,LED14*%
X110718800Y-96367600D02*
X110718800Y-95173800D01*
X110718800Y-96367600D02*
X109347200Y-96367600D01*
X110718800Y-95173800D02*
X109347200Y-95173800D01*
%TO.C,LED15*%
X116255800Y-44272200D02*
X114884200Y-44272200D01*
X116255800Y-45466000D02*
X114884200Y-45466000D01*
X116255800Y-45466000D02*
X116255800Y-44272200D01*
%TO.C,LED16*%
X116103800Y-63296800D02*
X114732200Y-63296800D01*
X116103800Y-64490600D02*
X114732200Y-64490600D01*
X116103800Y-64490600D02*
X116103800Y-63296800D01*
%TO.C,LED17*%
X116128800Y-82346800D02*
X114757200Y-82346800D01*
X116128800Y-83540600D02*
X114757200Y-83540600D01*
X116128800Y-83540600D02*
X116128800Y-82346800D01*
%TO.C,LED18*%
X132259433Y-97852624D02*
X130908670Y-97614448D01*
X132052131Y-99028288D02*
X130701369Y-98790112D01*
X132052131Y-99028288D02*
X132259433Y-97852624D01*
%TO.C,LED19*%
X135229800Y-47929800D02*
X135229800Y-46736000D01*
X135229800Y-47929800D02*
X133858200Y-47929800D01*
X135229800Y-46736000D02*
X133858200Y-46736000D01*
%TO.C,LED20*%
X135254800Y-66979800D02*
X135254800Y-65786000D01*
X135254800Y-66979800D02*
X133883200Y-66979800D01*
X135254800Y-65786000D02*
X133883200Y-65786000D01*
%TO.C,LED21*%
X135686800Y-86004400D02*
X135686800Y-84810600D01*
X135686800Y-86004400D02*
X134315200Y-86004400D01*
X135686800Y-84810600D02*
X134315200Y-84810600D01*
%TO.C,LED22*%
X145852313Y-99220429D02*
X144730508Y-98812125D01*
X145852313Y-99220429D02*
X145383198Y-100509311D01*
X144730508Y-98812125D02*
X144261393Y-100101007D01*
D11*
%TO.C,RESET_SW1*%
X158393000Y-89080600D02*
X158143000Y-89080600D01*
X158143000Y-89080600D02*
X158143000Y-83080600D01*
X158143000Y-83080600D02*
X158393000Y-83080600D01*
X161393000Y-83080600D02*
X161643000Y-83080600D01*
X161643000Y-83080600D02*
X161643000Y-89080600D01*
X161643000Y-89080600D02*
X161393000Y-89080600D01*
D10*
%TO.C,SW2*%
X30522000Y-67827999D02*
X30522000Y-66928000D01*
D17*
X31022000Y-70028000D02*
X31022000Y-68228001D01*
D16*
X32152000Y-66528000D02*
X32152000Y-68768000D01*
D13*
X40622000Y-68328000D02*
X39222000Y-68328000D01*
D15*
X40222000Y-65628000D02*
X40222000Y-68128000D01*
D14*
X38922000Y-66828000D02*
X32222000Y-66828000D01*
D11*
X40922000Y-68628000D02*
X40922000Y-67628000D01*
X40922000Y-67628000D02*
X40722000Y-67628000D01*
X40702000Y-67628000D02*
X40702000Y-65378000D01*
X40722000Y-65378000D02*
X40922000Y-65378000D01*
X30422000Y-67928000D02*
X30622000Y-67928000D01*
X30652000Y-67928000D02*
X30652000Y-70168000D01*
X30622000Y-70168000D02*
X30422000Y-70168000D01*
X30422000Y-70528000D02*
X30422000Y-70168000D01*
X30422000Y-66928000D02*
X30422000Y-67928000D01*
X30422000Y-70528000D02*
X33702000Y-70528000D01*
X35922000Y-68628000D02*
X40922000Y-68628000D01*
X40922000Y-65028000D02*
X32521999Y-65028000D01*
X40922000Y-65378000D02*
X40922000Y-65028000D01*
D13*
X30622000Y-70328000D02*
X33322000Y-70328000D01*
D12*
X40722000Y-65228000D02*
X39322000Y-65228000D01*
X40722000Y-67728000D02*
X40722000Y-68428000D01*
D11*
X33705682Y-70506529D02*
G75*
G02*
X35922000Y-68628000I2151318J-291471D01*
G01*
X30422000Y-66928001D02*
G75*
G02*
X32521999Y-65028000I2000000J-99999D01*
G01*
D15*
X33305682Y-70106529D02*
G75*
G02*
X35522000Y-68228000I2151318J-291471D01*
G01*
D12*
%TO.C,SW3*%
X40722000Y-86778000D02*
X40722000Y-87478000D01*
X40722000Y-84278000D02*
X39322000Y-84278000D01*
D13*
X30622000Y-89378000D02*
X33322000Y-89378000D01*
D11*
X40922000Y-84428000D02*
X40922000Y-84078000D01*
X40922000Y-84078000D02*
X32521999Y-84078000D01*
X35922000Y-87678000D02*
X40922000Y-87678000D01*
X30422000Y-89578000D02*
X33702000Y-89578000D01*
X30422000Y-85978000D02*
X30422000Y-86978000D01*
X30422000Y-89578000D02*
X30422000Y-89218000D01*
X30622000Y-89218000D02*
X30422000Y-89218000D01*
X30652000Y-86978000D02*
X30652000Y-89218000D01*
X30422000Y-86978000D02*
X30622000Y-86978000D01*
X40722000Y-84428000D02*
X40922000Y-84428000D01*
X40702000Y-86678000D02*
X40702000Y-84428000D01*
X40922000Y-86678000D02*
X40722000Y-86678000D01*
X40922000Y-87678000D02*
X40922000Y-86678000D01*
D14*
X38922000Y-85878000D02*
X32222000Y-85878000D01*
D15*
X40222000Y-84678000D02*
X40222000Y-87178000D01*
D13*
X40622000Y-87378000D02*
X39222000Y-87378000D01*
D16*
X32152000Y-85578000D02*
X32152000Y-87818000D01*
D17*
X31022000Y-89078000D02*
X31022000Y-87278001D01*
D10*
X30522000Y-86877999D02*
X30522000Y-85978000D01*
D15*
X33305682Y-89156529D02*
G75*
G02*
X35522000Y-87278000I2151318J-291471D01*
G01*
D11*
X30422000Y-85978001D02*
G75*
G02*
X32521999Y-84078000I2000000J-99999D01*
G01*
X33705682Y-89556529D02*
G75*
G02*
X35922000Y-87678000I2151318J-291471D01*
G01*
D10*
%TO.C,SW4*%
X49572000Y-46288799D02*
X49572000Y-45388800D01*
D17*
X50072000Y-48488800D02*
X50072000Y-46688801D01*
D16*
X51202000Y-44988800D02*
X51202000Y-47228800D01*
D13*
X59672000Y-46788800D02*
X58272000Y-46788800D01*
D15*
X59272000Y-44088800D02*
X59272000Y-46588800D01*
D14*
X57972000Y-45288800D02*
X51272000Y-45288800D01*
D11*
X59972000Y-47088800D02*
X59972000Y-46088800D01*
X59972000Y-46088800D02*
X59772000Y-46088800D01*
X59752000Y-46088800D02*
X59752000Y-43838800D01*
X59772000Y-43838800D02*
X59972000Y-43838800D01*
X49472000Y-46388800D02*
X49672000Y-46388800D01*
X49702000Y-46388800D02*
X49702000Y-48628800D01*
X49672000Y-48628800D02*
X49472000Y-48628800D01*
X49472000Y-48988800D02*
X49472000Y-48628800D01*
X49472000Y-45388800D02*
X49472000Y-46388800D01*
X49472000Y-48988800D02*
X52752000Y-48988800D01*
X54972000Y-47088800D02*
X59972000Y-47088800D01*
X59972000Y-43488800D02*
X51571999Y-43488800D01*
X59972000Y-43838800D02*
X59972000Y-43488800D01*
D13*
X49672000Y-48788800D02*
X52372000Y-48788800D01*
D12*
X59772000Y-43688800D02*
X58372000Y-43688800D01*
X59772000Y-46188800D02*
X59772000Y-46888800D01*
D11*
X52755682Y-48967329D02*
G75*
G02*
X54972000Y-47088800I2151318J-291471D01*
G01*
X49472000Y-45388801D02*
G75*
G02*
X51571999Y-43488800I2000000J-99999D01*
G01*
D15*
X52355682Y-48567329D02*
G75*
G02*
X54572000Y-46688800I2151318J-291471D01*
G01*
D10*
%TO.C,SW5*%
X49572000Y-65364199D02*
X49572000Y-64464200D01*
D17*
X50072000Y-67564200D02*
X50072000Y-65764201D01*
D16*
X51202000Y-64064200D02*
X51202000Y-66304200D01*
D13*
X59672000Y-65864200D02*
X58272000Y-65864200D01*
D15*
X59272000Y-63164200D02*
X59272000Y-65664200D01*
D14*
X57972000Y-64364200D02*
X51272000Y-64364200D01*
D11*
X59972000Y-66164200D02*
X59972000Y-65164200D01*
X59972000Y-65164200D02*
X59772000Y-65164200D01*
X59752000Y-65164200D02*
X59752000Y-62914200D01*
X59772000Y-62914200D02*
X59972000Y-62914200D01*
X49472000Y-65464200D02*
X49672000Y-65464200D01*
X49702000Y-65464200D02*
X49702000Y-67704200D01*
X49672000Y-67704200D02*
X49472000Y-67704200D01*
X49472000Y-68064200D02*
X49472000Y-67704200D01*
X49472000Y-64464200D02*
X49472000Y-65464200D01*
X49472000Y-68064200D02*
X52752000Y-68064200D01*
X54972000Y-66164200D02*
X59972000Y-66164200D01*
X59972000Y-62564200D02*
X51571999Y-62564200D01*
X59972000Y-62914200D02*
X59972000Y-62564200D01*
D13*
X49672000Y-67864200D02*
X52372000Y-67864200D01*
D12*
X59772000Y-62764200D02*
X58372000Y-62764200D01*
X59772000Y-65264200D02*
X59772000Y-65964200D01*
D11*
X52755682Y-68042729D02*
G75*
G02*
X54972000Y-66164200I2151318J-291471D01*
G01*
X49472000Y-64464201D02*
G75*
G02*
X51571999Y-62564200I2000000J-99999D01*
G01*
D15*
X52355682Y-67642729D02*
G75*
G02*
X54572000Y-65764200I2151318J-291471D01*
G01*
D12*
%TO.C,SW7*%
X78822000Y-34758800D02*
X78822000Y-35458800D01*
X78822000Y-32258800D02*
X77422000Y-32258800D01*
D13*
X68722000Y-37358800D02*
X71422000Y-37358800D01*
D11*
X79022000Y-32408800D02*
X79022000Y-32058800D01*
X79022000Y-32058800D02*
X70621999Y-32058800D01*
X74022000Y-35658800D02*
X79022000Y-35658800D01*
X68522000Y-37558800D02*
X71802000Y-37558800D01*
X68522000Y-33958800D02*
X68522000Y-34958800D01*
X68522000Y-37558800D02*
X68522000Y-37198800D01*
X68722000Y-37198800D02*
X68522000Y-37198800D01*
X68752000Y-34958800D02*
X68752000Y-37198800D01*
X68522000Y-34958800D02*
X68722000Y-34958800D01*
X78822000Y-32408800D02*
X79022000Y-32408800D01*
X78802000Y-34658800D02*
X78802000Y-32408800D01*
X79022000Y-34658800D02*
X78822000Y-34658800D01*
X79022000Y-35658800D02*
X79022000Y-34658800D01*
D14*
X77022000Y-33858800D02*
X70322000Y-33858800D01*
D15*
X78322000Y-32658800D02*
X78322000Y-35158800D01*
D13*
X78722000Y-35358800D02*
X77322000Y-35358800D01*
D16*
X70252000Y-33558800D02*
X70252000Y-35798800D01*
D17*
X69122000Y-37058800D02*
X69122000Y-35258801D01*
D10*
X68622000Y-34858799D02*
X68622000Y-33958800D01*
D15*
X71405682Y-37137329D02*
G75*
G02*
X73622000Y-35258800I2151318J-291471D01*
G01*
D11*
X68522000Y-33958801D02*
G75*
G02*
X70621999Y-32058800I2000000J-99999D01*
G01*
X71805682Y-37537329D02*
G75*
G02*
X74022000Y-35658800I2151318J-291471D01*
G01*
D10*
%TO.C,SW8*%
X68622000Y-53934199D02*
X68622000Y-53034200D01*
D17*
X69122000Y-56134200D02*
X69122000Y-54334201D01*
D16*
X70252000Y-52634200D02*
X70252000Y-54874200D01*
D13*
X78722000Y-54434200D02*
X77322000Y-54434200D01*
D15*
X78322000Y-51734200D02*
X78322000Y-54234200D01*
D14*
X77022000Y-52934200D02*
X70322000Y-52934200D01*
D11*
X79022000Y-54734200D02*
X79022000Y-53734200D01*
X79022000Y-53734200D02*
X78822000Y-53734200D01*
X78802000Y-53734200D02*
X78802000Y-51484200D01*
X78822000Y-51484200D02*
X79022000Y-51484200D01*
X68522000Y-54034200D02*
X68722000Y-54034200D01*
X68752000Y-54034200D02*
X68752000Y-56274200D01*
X68722000Y-56274200D02*
X68522000Y-56274200D01*
X68522000Y-56634200D02*
X68522000Y-56274200D01*
X68522000Y-53034200D02*
X68522000Y-54034200D01*
X68522000Y-56634200D02*
X71802000Y-56634200D01*
X74022000Y-54734200D02*
X79022000Y-54734200D01*
X79022000Y-51134200D02*
X70621999Y-51134200D01*
X79022000Y-51484200D02*
X79022000Y-51134200D01*
D13*
X68722000Y-56434200D02*
X71422000Y-56434200D01*
D12*
X78822000Y-51334200D02*
X77422000Y-51334200D01*
X78822000Y-53834200D02*
X78822000Y-54534200D01*
D11*
X71805682Y-56612729D02*
G75*
G02*
X74022000Y-54734200I2151318J-291471D01*
G01*
X68522000Y-53034201D02*
G75*
G02*
X70621999Y-51134200I2000000J-99999D01*
G01*
D15*
X71405682Y-56212729D02*
G75*
G02*
X73622000Y-54334200I2151318J-291471D01*
G01*
D10*
%TO.C,SW9*%
X68622000Y-73060399D02*
X68622000Y-72160400D01*
D17*
X69122000Y-75260400D02*
X69122000Y-73460401D01*
D16*
X70252000Y-71760400D02*
X70252000Y-74000400D01*
D13*
X78722000Y-73560400D02*
X77322000Y-73560400D01*
D15*
X78322000Y-70860400D02*
X78322000Y-73360400D01*
D14*
X77022000Y-72060400D02*
X70322000Y-72060400D01*
D11*
X79022000Y-73860400D02*
X79022000Y-72860400D01*
X79022000Y-72860400D02*
X78822000Y-72860400D01*
X78802000Y-72860400D02*
X78802000Y-70610400D01*
X78822000Y-70610400D02*
X79022000Y-70610400D01*
X68522000Y-73160400D02*
X68722000Y-73160400D01*
X68752000Y-73160400D02*
X68752000Y-75400400D01*
X68722000Y-75400400D02*
X68522000Y-75400400D01*
X68522000Y-75760400D02*
X68522000Y-75400400D01*
X68522000Y-72160400D02*
X68522000Y-73160400D01*
X68522000Y-75760400D02*
X71802000Y-75760400D01*
X74022000Y-73860400D02*
X79022000Y-73860400D01*
X79022000Y-70260400D02*
X70621999Y-70260400D01*
X79022000Y-70610400D02*
X79022000Y-70260400D01*
D13*
X68722000Y-75560400D02*
X71422000Y-75560400D01*
D12*
X78822000Y-70460400D02*
X77422000Y-70460400D01*
X78822000Y-72960400D02*
X78822000Y-73660400D01*
D11*
X71805682Y-75738929D02*
G75*
G02*
X74022000Y-73860400I2151318J-291471D01*
G01*
X68522000Y-72160401D02*
G75*
G02*
X70621999Y-70260400I2000000J-99999D01*
G01*
D15*
X71405682Y-75338929D02*
G75*
G02*
X73622000Y-73460400I2151318J-291471D01*
G01*
D12*
%TO.C,SW10*%
X79039000Y-104509000D02*
X79039000Y-103809000D01*
X79039000Y-107009000D02*
X80439000Y-107009000D01*
D13*
X89139000Y-101909000D02*
X86439000Y-101909000D01*
D11*
X78839000Y-106859000D02*
X78839000Y-107209000D01*
X78839000Y-107209000D02*
X87239001Y-107209000D01*
X83839000Y-103609000D02*
X78839000Y-103609000D01*
X89339000Y-101709000D02*
X86059000Y-101709000D01*
X89339000Y-105309000D02*
X89339000Y-104309000D01*
X89339000Y-101709000D02*
X89339000Y-102069000D01*
X89139000Y-102069000D02*
X89339000Y-102069000D01*
X89109000Y-104309000D02*
X89109000Y-102069000D01*
X89339000Y-104309000D02*
X89139000Y-104309000D01*
X79039000Y-106859000D02*
X78839000Y-106859000D01*
X79059000Y-104609000D02*
X79059000Y-106859000D01*
X78839000Y-104609000D02*
X79039000Y-104609000D01*
X78839000Y-103609000D02*
X78839000Y-104609000D01*
D14*
X80839000Y-105409000D02*
X87539000Y-105409000D01*
D15*
X79539000Y-106609000D02*
X79539000Y-104109000D01*
D13*
X79139000Y-103909000D02*
X80539000Y-103909000D01*
D16*
X87609000Y-105709000D02*
X87609000Y-103469000D01*
D17*
X88739000Y-102209000D02*
X88739000Y-104008999D01*
D10*
X89239000Y-104409001D02*
X89239000Y-105309000D01*
D15*
X86455318Y-102130471D02*
G75*
G02*
X84239000Y-104009000I-2151318J291471D01*
G01*
D11*
X89339000Y-105308999D02*
G75*
G02*
X87239001Y-107209000I-2000000J99999D01*
G01*
X86055318Y-101730471D02*
G75*
G02*
X83839000Y-103609000I-2151318J291471D01*
G01*
D10*
%TO.C,SW11*%
X87672000Y-32445799D02*
X87672000Y-31545800D01*
D17*
X88172000Y-34645800D02*
X88172000Y-32845801D01*
D16*
X89302000Y-31145800D02*
X89302000Y-33385800D01*
D13*
X97772000Y-32945800D02*
X96372000Y-32945800D01*
D15*
X97372000Y-30245800D02*
X97372000Y-32745800D01*
D14*
X96072000Y-31445800D02*
X89372000Y-31445800D01*
D11*
X98072000Y-33245800D02*
X98072000Y-32245800D01*
X98072000Y-32245800D02*
X97872000Y-32245800D01*
X97852000Y-32245800D02*
X97852000Y-29995800D01*
X97872000Y-29995800D02*
X98072000Y-29995800D01*
X87572000Y-32545800D02*
X87772000Y-32545800D01*
X87802000Y-32545800D02*
X87802000Y-34785800D01*
X87772000Y-34785800D02*
X87572000Y-34785800D01*
X87572000Y-35145800D02*
X87572000Y-34785800D01*
X87572000Y-31545800D02*
X87572000Y-32545800D01*
X87572000Y-35145800D02*
X90852000Y-35145800D01*
X93072000Y-33245800D02*
X98072000Y-33245800D01*
X98072000Y-29645800D02*
X89671999Y-29645800D01*
X98072000Y-29995800D02*
X98072000Y-29645800D01*
D13*
X87772000Y-34945800D02*
X90472000Y-34945800D01*
D12*
X97872000Y-29845800D02*
X96472000Y-29845800D01*
X97872000Y-32345800D02*
X97872000Y-33045800D01*
D11*
X90855682Y-35124329D02*
G75*
G02*
X93072000Y-33245800I2151318J-291471D01*
G01*
X87572000Y-31545801D02*
G75*
G02*
X89671999Y-29645800I2000000J-99999D01*
G01*
D15*
X90455682Y-34724329D02*
G75*
G02*
X92672000Y-32845800I2151318J-291471D01*
G01*
D12*
%TO.C,SW12*%
X97872000Y-51370400D02*
X97872000Y-52070400D01*
X97872000Y-48870400D02*
X96472000Y-48870400D01*
D13*
X87772000Y-53970400D02*
X90472000Y-53970400D01*
D11*
X98072000Y-49020400D02*
X98072000Y-48670400D01*
X98072000Y-48670400D02*
X89671999Y-48670400D01*
X93072000Y-52270400D02*
X98072000Y-52270400D01*
X87572000Y-54170400D02*
X90852000Y-54170400D01*
X87572000Y-50570400D02*
X87572000Y-51570400D01*
X87572000Y-54170400D02*
X87572000Y-53810400D01*
X87772000Y-53810400D02*
X87572000Y-53810400D01*
X87802000Y-51570400D02*
X87802000Y-53810400D01*
X87572000Y-51570400D02*
X87772000Y-51570400D01*
X97872000Y-49020400D02*
X98072000Y-49020400D01*
X97852000Y-51270400D02*
X97852000Y-49020400D01*
X98072000Y-51270400D02*
X97872000Y-51270400D01*
X98072000Y-52270400D02*
X98072000Y-51270400D01*
D14*
X96072000Y-50470400D02*
X89372000Y-50470400D01*
D15*
X97372000Y-49270400D02*
X97372000Y-51770400D01*
D13*
X97772000Y-51970400D02*
X96372000Y-51970400D01*
D16*
X89302000Y-50170400D02*
X89302000Y-52410400D01*
D17*
X88172000Y-53670400D02*
X88172000Y-51870401D01*
D10*
X87672000Y-51470399D02*
X87672000Y-50570400D01*
D15*
X90455682Y-53748929D02*
G75*
G02*
X92672000Y-51870400I2151318J-291471D01*
G01*
D11*
X87572000Y-50570401D02*
G75*
G02*
X89671999Y-48670400I2000000J-99999D01*
G01*
X90855682Y-54148929D02*
G75*
G02*
X93072000Y-52270400I2151318J-291471D01*
G01*
D12*
%TO.C,SW13*%
X97872000Y-70420400D02*
X97872000Y-71120400D01*
X97872000Y-67920400D02*
X96472000Y-67920400D01*
D13*
X87772000Y-73020400D02*
X90472000Y-73020400D01*
D11*
X98072000Y-68070400D02*
X98072000Y-67720400D01*
X98072000Y-67720400D02*
X89671999Y-67720400D01*
X93072000Y-71320400D02*
X98072000Y-71320400D01*
X87572000Y-73220400D02*
X90852000Y-73220400D01*
X87572000Y-69620400D02*
X87572000Y-70620400D01*
X87572000Y-73220400D02*
X87572000Y-72860400D01*
X87772000Y-72860400D02*
X87572000Y-72860400D01*
X87802000Y-70620400D02*
X87802000Y-72860400D01*
X87572000Y-70620400D02*
X87772000Y-70620400D01*
X97872000Y-68070400D02*
X98072000Y-68070400D01*
X97852000Y-70320400D02*
X97852000Y-68070400D01*
X98072000Y-70320400D02*
X97872000Y-70320400D01*
X98072000Y-71320400D02*
X98072000Y-70320400D01*
D14*
X96072000Y-69520400D02*
X89372000Y-69520400D01*
D15*
X97372000Y-68320400D02*
X97372000Y-70820400D01*
D13*
X97772000Y-71020400D02*
X96372000Y-71020400D01*
D16*
X89302000Y-69220400D02*
X89302000Y-71460400D01*
D17*
X88172000Y-72720400D02*
X88172000Y-70920401D01*
D10*
X87672000Y-70520399D02*
X87672000Y-69620400D01*
D15*
X90455682Y-72798929D02*
G75*
G02*
X92672000Y-70920400I2151318J-291471D01*
G01*
D11*
X87572000Y-69620401D02*
G75*
G02*
X89671999Y-67720400I2000000J-99999D01*
G01*
X90855682Y-73198929D02*
G75*
G02*
X93072000Y-71320400I2151318J-291471D01*
G01*
D10*
%TO.C,SW14*%
X112607000Y-104384001D02*
X112607000Y-105284000D01*
D17*
X112107000Y-102184000D02*
X112107000Y-103983999D01*
D16*
X110977000Y-105684000D02*
X110977000Y-103444000D01*
D13*
X102507000Y-103884000D02*
X103907000Y-103884000D01*
D15*
X102907000Y-106584000D02*
X102907000Y-104084000D01*
D14*
X104207000Y-105384000D02*
X110907000Y-105384000D01*
D11*
X102207000Y-103584000D02*
X102207000Y-104584000D01*
X102207000Y-104584000D02*
X102407000Y-104584000D01*
X102427000Y-104584000D02*
X102427000Y-106834000D01*
X102407000Y-106834000D02*
X102207000Y-106834000D01*
X112707000Y-104284000D02*
X112507000Y-104284000D01*
X112477000Y-104284000D02*
X112477000Y-102044000D01*
X112507000Y-102044000D02*
X112707000Y-102044000D01*
X112707000Y-101684000D02*
X112707000Y-102044000D01*
X112707000Y-105284000D02*
X112707000Y-104284000D01*
X112707000Y-101684000D02*
X109427000Y-101684000D01*
X107207000Y-103584000D02*
X102207000Y-103584000D01*
X102207000Y-107184000D02*
X110607001Y-107184000D01*
X102207000Y-106834000D02*
X102207000Y-107184000D01*
D13*
X112507000Y-101884000D02*
X109807000Y-101884000D01*
D12*
X102407000Y-106984000D02*
X103807000Y-106984000D01*
X102407000Y-104484000D02*
X102407000Y-103784000D01*
D11*
X109423318Y-101705471D02*
G75*
G02*
X107207000Y-103584000I-2151318J291471D01*
G01*
X112707000Y-105283999D02*
G75*
G02*
X110607001Y-107184000I-2000000J99999D01*
G01*
D15*
X109823318Y-102105471D02*
G75*
G02*
X107607000Y-103984000I-2151318J291471D01*
G01*
D12*
%TO.C,SW15*%
X116922000Y-34784200D02*
X116922000Y-35484200D01*
X116922000Y-32284200D02*
X115522000Y-32284200D01*
D13*
X106822000Y-37384200D02*
X109522000Y-37384200D01*
D11*
X117122000Y-32434200D02*
X117122000Y-32084200D01*
X117122000Y-32084200D02*
X108721999Y-32084200D01*
X112122000Y-35684200D02*
X117122000Y-35684200D01*
X106622000Y-37584200D02*
X109902000Y-37584200D01*
X106622000Y-33984200D02*
X106622000Y-34984200D01*
X106622000Y-37584200D02*
X106622000Y-37224200D01*
X106822000Y-37224200D02*
X106622000Y-37224200D01*
X106852000Y-34984200D02*
X106852000Y-37224200D01*
X106622000Y-34984200D02*
X106822000Y-34984200D01*
X116922000Y-32434200D02*
X117122000Y-32434200D01*
X116902000Y-34684200D02*
X116902000Y-32434200D01*
X117122000Y-34684200D02*
X116922000Y-34684200D01*
X117122000Y-35684200D02*
X117122000Y-34684200D01*
D14*
X115122000Y-33884200D02*
X108422000Y-33884200D01*
D15*
X116422000Y-32684200D02*
X116422000Y-35184200D01*
D13*
X116822000Y-35384200D02*
X115422000Y-35384200D01*
D16*
X108352000Y-33584200D02*
X108352000Y-35824200D01*
D17*
X107222000Y-37084200D02*
X107222000Y-35284201D01*
D10*
X106722000Y-34884199D02*
X106722000Y-33984200D01*
D15*
X109505682Y-37162729D02*
G75*
G02*
X111722000Y-35284200I2151318J-291471D01*
G01*
D11*
X106622000Y-33984201D02*
G75*
G02*
X108721999Y-32084200I2000000J-99999D01*
G01*
X109905682Y-37562729D02*
G75*
G02*
X112122000Y-35684200I2151318J-291471D01*
G01*
D10*
%TO.C,SW16*%
X106722000Y-53934199D02*
X106722000Y-53034200D01*
D17*
X107222000Y-56134200D02*
X107222000Y-54334201D01*
D16*
X108352000Y-52634200D02*
X108352000Y-54874200D01*
D13*
X116822000Y-54434200D02*
X115422000Y-54434200D01*
D15*
X116422000Y-51734200D02*
X116422000Y-54234200D01*
D14*
X115122000Y-52934200D02*
X108422000Y-52934200D01*
D11*
X117122000Y-54734200D02*
X117122000Y-53734200D01*
X117122000Y-53734200D02*
X116922000Y-53734200D01*
X116902000Y-53734200D02*
X116902000Y-51484200D01*
X116922000Y-51484200D02*
X117122000Y-51484200D01*
X106622000Y-54034200D02*
X106822000Y-54034200D01*
X106852000Y-54034200D02*
X106852000Y-56274200D01*
X106822000Y-56274200D02*
X106622000Y-56274200D01*
X106622000Y-56634200D02*
X106622000Y-56274200D01*
X106622000Y-53034200D02*
X106622000Y-54034200D01*
X106622000Y-56634200D02*
X109902000Y-56634200D01*
X112122000Y-54734200D02*
X117122000Y-54734200D01*
X117122000Y-51134200D02*
X108721999Y-51134200D01*
X117122000Y-51484200D02*
X117122000Y-51134200D01*
D13*
X106822000Y-56434200D02*
X109522000Y-56434200D01*
D12*
X116922000Y-51334200D02*
X115522000Y-51334200D01*
X116922000Y-53834200D02*
X116922000Y-54534200D01*
D11*
X109905682Y-56612729D02*
G75*
G02*
X112122000Y-54734200I2151318J-291471D01*
G01*
X106622000Y-53034201D02*
G75*
G02*
X108721999Y-51134200I2000000J-99999D01*
G01*
D15*
X109505682Y-56212729D02*
G75*
G02*
X111722000Y-54334200I2151318J-291471D01*
G01*
D12*
%TO.C,SW17*%
X116922000Y-72909600D02*
X116922000Y-73609600D01*
X116922000Y-70409600D02*
X115522000Y-70409600D01*
D13*
X106822000Y-75509600D02*
X109522000Y-75509600D01*
D11*
X117122000Y-70559600D02*
X117122000Y-70209600D01*
X117122000Y-70209600D02*
X108721999Y-70209600D01*
X112122000Y-73809600D02*
X117122000Y-73809600D01*
X106622000Y-75709600D02*
X109902000Y-75709600D01*
X106622000Y-72109600D02*
X106622000Y-73109600D01*
X106622000Y-75709600D02*
X106622000Y-75349600D01*
X106822000Y-75349600D02*
X106622000Y-75349600D01*
X106852000Y-73109600D02*
X106852000Y-75349600D01*
X106622000Y-73109600D02*
X106822000Y-73109600D01*
X116922000Y-70559600D02*
X117122000Y-70559600D01*
X116902000Y-72809600D02*
X116902000Y-70559600D01*
X117122000Y-72809600D02*
X116922000Y-72809600D01*
X117122000Y-73809600D02*
X117122000Y-72809600D01*
D14*
X115122000Y-72009600D02*
X108422000Y-72009600D01*
D15*
X116422000Y-70809600D02*
X116422000Y-73309600D01*
D13*
X116822000Y-73509600D02*
X115422000Y-73509600D01*
D16*
X108352000Y-71709600D02*
X108352000Y-73949600D01*
D17*
X107222000Y-75209600D02*
X107222000Y-73409601D01*
D10*
X106722000Y-73009599D02*
X106722000Y-72109600D01*
D15*
X109505682Y-75288129D02*
G75*
G02*
X111722000Y-73409600I2151318J-291471D01*
G01*
D11*
X106622000Y-72109601D02*
G75*
G02*
X108721999Y-70209600I2000000J-99999D01*
G01*
X109905682Y-75688129D02*
G75*
G02*
X112122000Y-73809600I2151318J-291471D01*
G01*
D10*
%TO.C,SW19*%
X125772000Y-37297199D02*
X125772000Y-36397200D01*
D17*
X126272000Y-39497200D02*
X126272000Y-37697201D01*
D16*
X127402000Y-35997200D02*
X127402000Y-38237200D01*
D13*
X135872000Y-37797200D02*
X134472000Y-37797200D01*
D15*
X135472000Y-35097200D02*
X135472000Y-37597200D01*
D14*
X134172000Y-36297200D02*
X127472000Y-36297200D01*
D11*
X136172000Y-38097200D02*
X136172000Y-37097200D01*
X136172000Y-37097200D02*
X135972000Y-37097200D01*
X135952000Y-37097200D02*
X135952000Y-34847200D01*
X135972000Y-34847200D02*
X136172000Y-34847200D01*
X125672000Y-37397200D02*
X125872000Y-37397200D01*
X125902000Y-37397200D02*
X125902000Y-39637200D01*
X125872000Y-39637200D02*
X125672000Y-39637200D01*
X125672000Y-39997200D02*
X125672000Y-39637200D01*
X125672000Y-36397200D02*
X125672000Y-37397200D01*
X125672000Y-39997200D02*
X128952000Y-39997200D01*
X131172000Y-38097200D02*
X136172000Y-38097200D01*
X136172000Y-34497200D02*
X127771999Y-34497200D01*
X136172000Y-34847200D02*
X136172000Y-34497200D01*
D13*
X125872000Y-39797200D02*
X128572000Y-39797200D01*
D12*
X135972000Y-34697200D02*
X134572000Y-34697200D01*
X135972000Y-37197200D02*
X135972000Y-37897200D01*
D11*
X128955682Y-39975729D02*
G75*
G02*
X131172000Y-38097200I2151318J-291471D01*
G01*
X125672000Y-36397201D02*
G75*
G02*
X127771999Y-34497200I2000000J-99999D01*
G01*
D15*
X128555682Y-39575729D02*
G75*
G02*
X130772000Y-37697200I2151318J-291471D01*
G01*
D10*
%TO.C,SW20*%
X125772000Y-56423399D02*
X125772000Y-55523400D01*
D17*
X126272000Y-58623400D02*
X126272000Y-56823401D01*
D16*
X127402000Y-55123400D02*
X127402000Y-57363400D01*
D13*
X135872000Y-56923400D02*
X134472000Y-56923400D01*
D15*
X135472000Y-54223400D02*
X135472000Y-56723400D01*
D14*
X134172000Y-55423400D02*
X127472000Y-55423400D01*
D11*
X136172000Y-57223400D02*
X136172000Y-56223400D01*
X136172000Y-56223400D02*
X135972000Y-56223400D01*
X135952000Y-56223400D02*
X135952000Y-53973400D01*
X135972000Y-53973400D02*
X136172000Y-53973400D01*
X125672000Y-56523400D02*
X125872000Y-56523400D01*
X125902000Y-56523400D02*
X125902000Y-58763400D01*
X125872000Y-58763400D02*
X125672000Y-58763400D01*
X125672000Y-59123400D02*
X125672000Y-58763400D01*
X125672000Y-55523400D02*
X125672000Y-56523400D01*
X125672000Y-59123400D02*
X128952000Y-59123400D01*
X131172000Y-57223400D02*
X136172000Y-57223400D01*
X136172000Y-53623400D02*
X127771999Y-53623400D01*
X136172000Y-53973400D02*
X136172000Y-53623400D01*
D13*
X125872000Y-58923400D02*
X128572000Y-58923400D01*
D12*
X135972000Y-53823400D02*
X134572000Y-53823400D01*
X135972000Y-56323400D02*
X135972000Y-57023400D01*
D11*
X128955682Y-59101929D02*
G75*
G02*
X131172000Y-57223400I2151318J-291471D01*
G01*
X125672000Y-55523401D02*
G75*
G02*
X127771999Y-53623400I2000000J-99999D01*
G01*
D15*
X128555682Y-58701929D02*
G75*
G02*
X130772000Y-56823400I2151318J-291471D01*
G01*
D12*
%TO.C,SW21*%
X135972000Y-75322600D02*
X135972000Y-76022600D01*
X135972000Y-72822600D02*
X134572000Y-72822600D01*
D13*
X125872000Y-77922600D02*
X128572000Y-77922600D01*
D11*
X136172000Y-72972600D02*
X136172000Y-72622600D01*
X136172000Y-72622600D02*
X127771999Y-72622600D01*
X131172000Y-76222600D02*
X136172000Y-76222600D01*
X125672000Y-78122600D02*
X128952000Y-78122600D01*
X125672000Y-74522600D02*
X125672000Y-75522600D01*
X125672000Y-78122600D02*
X125672000Y-77762600D01*
X125872000Y-77762600D02*
X125672000Y-77762600D01*
X125902000Y-75522600D02*
X125902000Y-77762600D01*
X125672000Y-75522600D02*
X125872000Y-75522600D01*
X135972000Y-72972600D02*
X136172000Y-72972600D01*
X135952000Y-75222600D02*
X135952000Y-72972600D01*
X136172000Y-75222600D02*
X135972000Y-75222600D01*
X136172000Y-76222600D02*
X136172000Y-75222600D01*
D14*
X134172000Y-74422600D02*
X127472000Y-74422600D01*
D15*
X135472000Y-73222600D02*
X135472000Y-75722600D01*
D13*
X135872000Y-75922600D02*
X134472000Y-75922600D01*
D16*
X127402000Y-74122600D02*
X127402000Y-76362600D01*
D17*
X126272000Y-77622600D02*
X126272000Y-75822601D01*
D10*
X125772000Y-75422599D02*
X125772000Y-74522600D01*
D15*
X128555682Y-77701129D02*
G75*
G02*
X130772000Y-75822600I2151318J-291471D01*
G01*
D11*
X125672000Y-74522601D02*
G75*
G02*
X127771999Y-72622600I2000000J-99999D01*
G01*
X128955682Y-78101129D02*
G75*
G02*
X131172000Y-76222600I2151318J-291471D01*
G01*
D10*
%TO.C,SW22*%
X154093550Y-99913460D02*
X154939272Y-100221277D01*
D17*
X151855215Y-99630861D02*
X153546661Y-100246497D01*
D16*
X154757656Y-101889785D02*
X152652745Y-101123659D01*
D13*
X150169299Y-109233345D02*
X150648127Y-107917775D01*
D15*
X152843277Y-109780922D02*
X150494046Y-108925872D01*
D14*
X152160272Y-108148898D02*
X154451807Y-101852957D01*
D11*
X149784785Y-109412646D02*
X150724478Y-109754667D01*
X150724478Y-109754667D02*
X150792882Y-109566728D01*
X150799722Y-109547934D02*
X152914031Y-110317480D01*
X152907190Y-110336273D02*
X152838786Y-110524212D01*
X154033782Y-99785288D02*
X153965378Y-99973227D01*
X153955117Y-100001417D02*
X151850205Y-99235292D01*
X151860466Y-99207101D02*
X151928870Y-99019163D01*
X151590581Y-98896036D02*
X151928870Y-99019163D01*
X154973474Y-100127308D02*
X154033782Y-99785288D01*
X151590581Y-98896036D02*
X150468755Y-101978227D01*
X151494886Y-104714183D02*
X149784785Y-109412646D01*
X153167679Y-110643919D02*
X156040648Y-102750500D01*
X152838786Y-110524212D02*
X153167679Y-110643919D01*
D13*
X151710115Y-99152378D02*
X150786661Y-101689548D01*
D12*
X153048144Y-110387576D02*
X153526972Y-109072007D01*
X150698913Y-109532526D02*
X150041128Y-109293112D01*
D11*
X150487670Y-101989031D02*
G75*
G02*
X151494886Y-104714183I-1009686J-1921889D01*
G01*
X154973474Y-100127308D02*
G75*
G02*
X156040648Y-102750500I-778009J-1845183D01*
G01*
D15*
X151000355Y-101749962D02*
G75*
G02*
X152007571Y-104475114I-1009686J-1921889D01*
G01*
%TO.C,U1*%
D19*
X157317238Y-42592185D02*
X157483904Y-42235042D01*
X157602952Y-42592185D02*
X157602952Y-41842185D01*
X157412476Y-41842185D01*
X157364857Y-41877900D01*
X157341047Y-41913614D01*
X157317238Y-41985042D01*
X157317238Y-42092185D01*
X157341047Y-42163614D01*
X157364857Y-42199328D01*
X157412476Y-42235042D01*
X157602952Y-42235042D01*
X157126761Y-42377900D02*
X156888666Y-42377900D01*
X157174380Y-42592185D02*
X157007714Y-41842185D01*
X156841047Y-42592185D01*
X156722000Y-41842185D02*
X156602952Y-42592185D01*
X156507714Y-42056471D01*
X156412476Y-42592185D01*
X156293428Y-41842185D01*
X142053428Y-42592185D02*
X142291523Y-42592185D01*
X142291523Y-41842185D01*
X141886761Y-42199328D02*
X141720095Y-42199328D01*
X141648666Y-42592185D02*
X141886761Y-42592185D01*
X141886761Y-41842185D01*
X141648666Y-41842185D01*
X141434380Y-42592185D02*
X141434380Y-41842185D01*
X141315333Y-41842185D01*
X141243904Y-41877900D01*
X141196285Y-41949328D01*
X141172476Y-42020757D01*
X141148666Y-42163614D01*
X141148666Y-42270757D01*
X141172476Y-42413614D01*
X141196285Y-42485042D01*
X141243904Y-42556471D01*
X141315333Y-42592185D01*
X141434380Y-42592185D01*
X157289452Y-44354400D02*
X157337071Y-44318685D01*
X157408500Y-44318685D01*
X157479928Y-44354400D01*
X157527547Y-44425828D01*
X157551357Y-44497257D01*
X157575166Y-44640114D01*
X157575166Y-44747257D01*
X157551357Y-44890114D01*
X157527547Y-44961542D01*
X157479928Y-45032971D01*
X157408500Y-45068685D01*
X157360880Y-45068685D01*
X157289452Y-45032971D01*
X157265642Y-44997257D01*
X157265642Y-44747257D01*
X157360880Y-44747257D01*
X157051357Y-45068685D02*
X157051357Y-44318685D01*
X156765642Y-45068685D01*
X156765642Y-44318685D01*
X156527547Y-45068685D02*
X156527547Y-44318685D01*
X156408500Y-44318685D01*
X156337071Y-44354400D01*
X156289452Y-44425828D01*
X156265642Y-44497257D01*
X156241833Y-44640114D01*
X156241833Y-44747257D01*
X156265642Y-44890114D01*
X156289452Y-44961542D01*
X156337071Y-45032971D01*
X156408500Y-45068685D01*
X156527547Y-45068685D01*
X142331000Y-45236685D02*
X142331000Y-44486685D01*
X142211952Y-44486685D01*
X142140523Y-44522400D01*
X142092904Y-44593828D01*
X142069095Y-44665257D01*
X142045285Y-44808114D01*
X142045285Y-44915257D01*
X142069095Y-45058114D01*
X142092904Y-45129542D01*
X142140523Y-45200971D01*
X142211952Y-45236685D01*
X142331000Y-45236685D01*
X141854809Y-45022400D02*
X141616714Y-45022400D01*
X141902428Y-45236685D02*
X141735761Y-44486685D01*
X141569095Y-45236685D01*
X141473857Y-44486685D02*
X141188142Y-44486685D01*
X141331000Y-45236685D02*
X141331000Y-44486685D01*
X141045285Y-45022400D02*
X140807190Y-45022400D01*
X141092904Y-45236685D02*
X140926238Y-44486685D01*
X140759571Y-45236685D01*
X157245809Y-47672185D02*
X157412476Y-47315042D01*
X157531523Y-47672185D02*
X157531523Y-46922185D01*
X157341047Y-46922185D01*
X157293428Y-46957900D01*
X157269619Y-46993614D01*
X157245809Y-47065042D01*
X157245809Y-47172185D01*
X157269619Y-47243614D01*
X157293428Y-47279328D01*
X157341047Y-47315042D01*
X157531523Y-47315042D01*
X157055333Y-47636471D02*
X156983904Y-47672185D01*
X156864857Y-47672185D01*
X156817238Y-47636471D01*
X156793428Y-47600757D01*
X156769619Y-47529328D01*
X156769619Y-47457900D01*
X156793428Y-47386471D01*
X156817238Y-47350757D01*
X156864857Y-47315042D01*
X156960095Y-47279328D01*
X157007714Y-47243614D01*
X157031523Y-47207900D01*
X157055333Y-47136471D01*
X157055333Y-47065042D01*
X157031523Y-46993614D01*
X157007714Y-46957900D01*
X156960095Y-46922185D01*
X156841047Y-46922185D01*
X156769619Y-46957900D01*
X156626761Y-46922185D02*
X156341047Y-46922185D01*
X156483904Y-47672185D02*
X156483904Y-46922185D01*
X142112952Y-46957900D02*
X142160571Y-46922185D01*
X142232000Y-46922185D01*
X142303428Y-46957900D01*
X142351047Y-47029328D01*
X142374857Y-47100757D01*
X142398666Y-47243614D01*
X142398666Y-47350757D01*
X142374857Y-47493614D01*
X142351047Y-47565042D01*
X142303428Y-47636471D01*
X142232000Y-47672185D01*
X142184380Y-47672185D01*
X142112952Y-47636471D01*
X142089142Y-47600757D01*
X142089142Y-47350757D01*
X142184380Y-47350757D01*
X141874857Y-47672185D02*
X141874857Y-46922185D01*
X141589142Y-47672185D01*
X141589142Y-46922185D01*
X141351047Y-47672185D02*
X141351047Y-46922185D01*
X141232000Y-46922185D01*
X141160571Y-46957900D01*
X141112952Y-47029328D01*
X141089142Y-47100757D01*
X141065333Y-47243614D01*
X141065333Y-47350757D01*
X141089142Y-47493614D01*
X141112952Y-47565042D01*
X141160571Y-47636471D01*
X141232000Y-47672185D01*
X141351047Y-47672185D01*
X157575166Y-49462185D02*
X157408500Y-50212185D01*
X157241833Y-49462185D01*
X156789452Y-50140757D02*
X156813261Y-50176471D01*
X156884690Y-50212185D01*
X156932309Y-50212185D01*
X157003738Y-50176471D01*
X157051357Y-50105042D01*
X157075166Y-50033614D01*
X157098976Y-49890757D01*
X157098976Y-49783614D01*
X157075166Y-49640757D01*
X157051357Y-49569328D01*
X157003738Y-49497900D01*
X156932309Y-49462185D01*
X156884690Y-49462185D01*
X156813261Y-49497900D01*
X156789452Y-49533614D01*
X156289452Y-50140757D02*
X156313261Y-50176471D01*
X156384690Y-50212185D01*
X156432309Y-50212185D01*
X156503738Y-50176471D01*
X156551357Y-50105042D01*
X156575166Y-50033614D01*
X156598976Y-49890757D01*
X156598976Y-49783614D01*
X156575166Y-49640757D01*
X156551357Y-49569328D01*
X156503738Y-49497900D01*
X156432309Y-49462185D01*
X156384690Y-49462185D01*
X156313261Y-49497900D01*
X156289452Y-49533614D01*
X142112952Y-49497900D02*
X142160571Y-49462185D01*
X142232000Y-49462185D01*
X142303428Y-49497900D01*
X142351047Y-49569328D01*
X142374857Y-49640757D01*
X142398666Y-49783614D01*
X142398666Y-49890757D01*
X142374857Y-50033614D01*
X142351047Y-50105042D01*
X142303428Y-50176471D01*
X142232000Y-50212185D01*
X142184380Y-50212185D01*
X142112952Y-50176471D01*
X142089142Y-50140757D01*
X142089142Y-49890757D01*
X142184380Y-49890757D01*
X141874857Y-50212185D02*
X141874857Y-49462185D01*
X141589142Y-50212185D01*
X141589142Y-49462185D01*
X141351047Y-50212185D02*
X141351047Y-49462185D01*
X141232000Y-49462185D01*
X141160571Y-49497900D01*
X141112952Y-49569328D01*
X141089142Y-49640757D01*
X141065333Y-49783614D01*
X141065333Y-49890757D01*
X141089142Y-50033614D01*
X141112952Y-50105042D01*
X141160571Y-50176471D01*
X141232000Y-50212185D01*
X141351047Y-50212185D01*
X157328619Y-60265257D02*
X157352428Y-60300971D01*
X157423857Y-60336685D01*
X157471476Y-60336685D01*
X157542904Y-60300971D01*
X157590523Y-60229542D01*
X157614333Y-60158114D01*
X157638142Y-60015257D01*
X157638142Y-59908114D01*
X157614333Y-59765257D01*
X157590523Y-59693828D01*
X157542904Y-59622400D01*
X157471476Y-59586685D01*
X157423857Y-59586685D01*
X157352428Y-59622400D01*
X157328619Y-59658114D01*
X157019095Y-59586685D02*
X156923857Y-59586685D01*
X156876238Y-59622400D01*
X156828619Y-59693828D01*
X156804809Y-59836685D01*
X156804809Y-60086685D01*
X156828619Y-60229542D01*
X156876238Y-60300971D01*
X156923857Y-60336685D01*
X157019095Y-60336685D01*
X157066714Y-60300971D01*
X157114333Y-60229542D01*
X157138142Y-60086685D01*
X157138142Y-59836685D01*
X157114333Y-59693828D01*
X157066714Y-59622400D01*
X157019095Y-59586685D01*
X156352428Y-60336685D02*
X156590523Y-60336685D01*
X156590523Y-59586685D01*
X156233380Y-59586685D02*
X155923857Y-59586685D01*
X156090523Y-59872400D01*
X156019095Y-59872400D01*
X155971476Y-59908114D01*
X155947666Y-59943828D01*
X155923857Y-60015257D01*
X155923857Y-60193828D01*
X155947666Y-60265257D01*
X155971476Y-60300971D01*
X156019095Y-60336685D01*
X156161952Y-60336685D01*
X156209571Y-60300971D01*
X156233380Y-60265257D01*
X142111952Y-57768685D02*
X142278619Y-57411542D01*
X142397666Y-57768685D02*
X142397666Y-57018685D01*
X142207190Y-57018685D01*
X142159571Y-57054400D01*
X142135761Y-57090114D01*
X142111952Y-57161542D01*
X142111952Y-57268685D01*
X142135761Y-57340114D01*
X142159571Y-57375828D01*
X142207190Y-57411542D01*
X142397666Y-57411542D01*
X141802428Y-57018685D02*
X141707190Y-57018685D01*
X141659571Y-57054400D01*
X141611952Y-57125828D01*
X141588142Y-57268685D01*
X141588142Y-57518685D01*
X141611952Y-57661542D01*
X141659571Y-57732971D01*
X141707190Y-57768685D01*
X141802428Y-57768685D01*
X141850047Y-57732971D01*
X141897666Y-57661542D01*
X141921476Y-57518685D01*
X141921476Y-57268685D01*
X141897666Y-57125828D01*
X141850047Y-57054400D01*
X141802428Y-57018685D01*
X141421476Y-57018685D02*
X141302428Y-57768685D01*
X141207190Y-57232971D01*
X141111952Y-57768685D01*
X140992904Y-57018685D01*
X140707190Y-57018685D02*
X140659571Y-57018685D01*
X140611952Y-57054400D01*
X140588142Y-57090114D01*
X140564333Y-57161542D01*
X140540523Y-57304400D01*
X140540523Y-57482971D01*
X140564333Y-57625828D01*
X140588142Y-57697257D01*
X140611952Y-57732971D01*
X140659571Y-57768685D01*
X140707190Y-57768685D01*
X140754809Y-57732971D01*
X140778619Y-57697257D01*
X140802428Y-57625828D01*
X140826238Y-57482971D01*
X140826238Y-57304400D01*
X140802428Y-57161542D01*
X140778619Y-57090114D01*
X140754809Y-57054400D01*
X140707190Y-57018685D01*
X157328619Y-57765257D02*
X157352428Y-57800971D01*
X157423857Y-57836685D01*
X157471476Y-57836685D01*
X157542904Y-57800971D01*
X157590523Y-57729542D01*
X157614333Y-57658114D01*
X157638142Y-57515257D01*
X157638142Y-57408114D01*
X157614333Y-57265257D01*
X157590523Y-57193828D01*
X157542904Y-57122400D01*
X157471476Y-57086685D01*
X157423857Y-57086685D01*
X157352428Y-57122400D01*
X157328619Y-57158114D01*
X157019095Y-57086685D02*
X156923857Y-57086685D01*
X156876238Y-57122400D01*
X156828619Y-57193828D01*
X156804809Y-57336685D01*
X156804809Y-57586685D01*
X156828619Y-57729542D01*
X156876238Y-57800971D01*
X156923857Y-57836685D01*
X157019095Y-57836685D01*
X157066714Y-57800971D01*
X157114333Y-57729542D01*
X157138142Y-57586685D01*
X157138142Y-57336685D01*
X157114333Y-57193828D01*
X157066714Y-57122400D01*
X157019095Y-57086685D01*
X156352428Y-57836685D02*
X156590523Y-57836685D01*
X156590523Y-57086685D01*
X156209571Y-57158114D02*
X156185761Y-57122400D01*
X156138142Y-57086685D01*
X156019095Y-57086685D01*
X155971476Y-57122400D01*
X155947666Y-57158114D01*
X155923857Y-57229542D01*
X155923857Y-57300971D01*
X155947666Y-57408114D01*
X156233380Y-57836685D01*
X155923857Y-57836685D01*
X142327238Y-55256471D02*
X142255809Y-55292185D01*
X142136761Y-55292185D01*
X142089142Y-55256471D01*
X142065333Y-55220757D01*
X142041523Y-55149328D01*
X142041523Y-55077900D01*
X142065333Y-55006471D01*
X142089142Y-54970757D01*
X142136761Y-54935042D01*
X142232000Y-54899328D01*
X142279619Y-54863614D01*
X142303428Y-54827900D01*
X142327238Y-54756471D01*
X142327238Y-54685042D01*
X142303428Y-54613614D01*
X142279619Y-54577900D01*
X142232000Y-54542185D01*
X142112952Y-54542185D01*
X142041523Y-54577900D01*
X141541523Y-55220757D02*
X141565333Y-55256471D01*
X141636761Y-55292185D01*
X141684380Y-55292185D01*
X141755809Y-55256471D01*
X141803428Y-55185042D01*
X141827238Y-55113614D01*
X141851047Y-54970757D01*
X141851047Y-54863614D01*
X141827238Y-54720757D01*
X141803428Y-54649328D01*
X141755809Y-54577900D01*
X141684380Y-54542185D01*
X141636761Y-54542185D01*
X141565333Y-54577900D01*
X141541523Y-54613614D01*
X141089142Y-55292185D02*
X141327238Y-55292185D01*
X141327238Y-54542185D01*
X157328619Y-55220757D02*
X157352428Y-55256471D01*
X157423857Y-55292185D01*
X157471476Y-55292185D01*
X157542904Y-55256471D01*
X157590523Y-55185042D01*
X157614333Y-55113614D01*
X157638142Y-54970757D01*
X157638142Y-54863614D01*
X157614333Y-54720757D01*
X157590523Y-54649328D01*
X157542904Y-54577900D01*
X157471476Y-54542185D01*
X157423857Y-54542185D01*
X157352428Y-54577900D01*
X157328619Y-54613614D01*
X157019095Y-54542185D02*
X156923857Y-54542185D01*
X156876238Y-54577900D01*
X156828619Y-54649328D01*
X156804809Y-54792185D01*
X156804809Y-55042185D01*
X156828619Y-55185042D01*
X156876238Y-55256471D01*
X156923857Y-55292185D01*
X157019095Y-55292185D01*
X157066714Y-55256471D01*
X157114333Y-55185042D01*
X157138142Y-55042185D01*
X157138142Y-54792185D01*
X157114333Y-54649328D01*
X157066714Y-54577900D01*
X157019095Y-54542185D01*
X156352428Y-55292185D02*
X156590523Y-55292185D01*
X156590523Y-54542185D01*
X155923857Y-55292185D02*
X156209571Y-55292185D01*
X156066714Y-55292185D02*
X156066714Y-54542185D01*
X156114333Y-54649328D01*
X156161952Y-54720757D01*
X156209571Y-54756471D01*
X142339142Y-52716471D02*
X142267714Y-52752185D01*
X142148666Y-52752185D01*
X142101047Y-52716471D01*
X142077238Y-52680757D01*
X142053428Y-52609328D01*
X142053428Y-52537900D01*
X142077238Y-52466471D01*
X142101047Y-52430757D01*
X142148666Y-52395042D01*
X142243904Y-52359328D01*
X142291523Y-52323614D01*
X142315333Y-52287900D01*
X142339142Y-52216471D01*
X142339142Y-52145042D01*
X142315333Y-52073614D01*
X142291523Y-52037900D01*
X142243904Y-52002185D01*
X142124857Y-52002185D01*
X142053428Y-52037900D01*
X141839142Y-52752185D02*
X141839142Y-52002185D01*
X141720095Y-52002185D01*
X141648666Y-52037900D01*
X141601047Y-52109328D01*
X141577238Y-52180757D01*
X141553428Y-52323614D01*
X141553428Y-52430757D01*
X141577238Y-52573614D01*
X141601047Y-52645042D01*
X141648666Y-52716471D01*
X141720095Y-52752185D01*
X141839142Y-52752185D01*
X141362952Y-52537900D02*
X141124857Y-52537900D01*
X141410571Y-52752185D02*
X141243904Y-52002185D01*
X141077238Y-52752185D01*
X157328619Y-52715257D02*
X157352428Y-52750971D01*
X157423857Y-52786685D01*
X157471476Y-52786685D01*
X157542904Y-52750971D01*
X157590523Y-52679542D01*
X157614333Y-52608114D01*
X157638142Y-52465257D01*
X157638142Y-52358114D01*
X157614333Y-52215257D01*
X157590523Y-52143828D01*
X157542904Y-52072400D01*
X157471476Y-52036685D01*
X157423857Y-52036685D01*
X157352428Y-52072400D01*
X157328619Y-52108114D01*
X157019095Y-52036685D02*
X156923857Y-52036685D01*
X156876238Y-52072400D01*
X156828619Y-52143828D01*
X156804809Y-52286685D01*
X156804809Y-52536685D01*
X156828619Y-52679542D01*
X156876238Y-52750971D01*
X156923857Y-52786685D01*
X157019095Y-52786685D01*
X157066714Y-52750971D01*
X157114333Y-52679542D01*
X157138142Y-52536685D01*
X157138142Y-52286685D01*
X157114333Y-52143828D01*
X157066714Y-52072400D01*
X157019095Y-52036685D01*
X156352428Y-52786685D02*
X156590523Y-52786685D01*
X156590523Y-52036685D01*
X156090523Y-52036685D02*
X156042904Y-52036685D01*
X155995285Y-52072400D01*
X155971476Y-52108114D01*
X155947666Y-52179542D01*
X155923857Y-52322400D01*
X155923857Y-52500971D01*
X155947666Y-52643828D01*
X155971476Y-52715257D01*
X155995285Y-52750971D01*
X156042904Y-52786685D01*
X156090523Y-52786685D01*
X156138142Y-52750971D01*
X156161952Y-52715257D01*
X156185761Y-52643828D01*
X156209571Y-52500971D01*
X156209571Y-52322400D01*
X156185761Y-52179542D01*
X156161952Y-52108114D01*
X156138142Y-52072400D01*
X156090523Y-52036685D01*
X157428380Y-70075828D02*
X157356952Y-70111542D01*
X157333142Y-70147257D01*
X157309333Y-70218685D01*
X157309333Y-70325828D01*
X157333142Y-70397257D01*
X157356952Y-70432971D01*
X157404571Y-70468685D01*
X157595047Y-70468685D01*
X157595047Y-69718685D01*
X157428380Y-69718685D01*
X157380761Y-69754400D01*
X157356952Y-69790114D01*
X157333142Y-69861542D01*
X157333142Y-69932971D01*
X157356952Y-70004400D01*
X157380761Y-70040114D01*
X157428380Y-70075828D01*
X157595047Y-70075828D01*
X156880761Y-69718685D02*
X156976000Y-69718685D01*
X157023619Y-69754400D01*
X157047428Y-69790114D01*
X157095047Y-69897257D01*
X157118857Y-70040114D01*
X157118857Y-70325828D01*
X157095047Y-70397257D01*
X157071238Y-70432971D01*
X157023619Y-70468685D01*
X156928380Y-70468685D01*
X156880761Y-70432971D01*
X156856952Y-70397257D01*
X156833142Y-70325828D01*
X156833142Y-70147257D01*
X156856952Y-70075828D01*
X156880761Y-70040114D01*
X156928380Y-70004400D01*
X157023619Y-70004400D01*
X157071238Y-70040114D01*
X157095047Y-70075828D01*
X157118857Y-70147257D01*
X141934380Y-70139328D02*
X141862952Y-70175042D01*
X141839142Y-70210757D01*
X141815333Y-70282185D01*
X141815333Y-70389328D01*
X141839142Y-70460757D01*
X141862952Y-70496471D01*
X141910571Y-70532185D01*
X142101047Y-70532185D01*
X142101047Y-69782185D01*
X141934380Y-69782185D01*
X141886761Y-69817900D01*
X141862952Y-69853614D01*
X141839142Y-69925042D01*
X141839142Y-69996471D01*
X141862952Y-70067900D01*
X141886761Y-70103614D01*
X141934380Y-70139328D01*
X142101047Y-70139328D01*
X141362952Y-69782185D02*
X141601047Y-69782185D01*
X141624857Y-70139328D01*
X141601047Y-70103614D01*
X141553428Y-70067900D01*
X141434380Y-70067900D01*
X141386761Y-70103614D01*
X141362952Y-70139328D01*
X141339142Y-70210757D01*
X141339142Y-70389328D01*
X141362952Y-70460757D01*
X141386761Y-70496471D01*
X141434380Y-70532185D01*
X141553428Y-70532185D01*
X141601047Y-70496471D01*
X141624857Y-70460757D01*
X141934380Y-67599328D02*
X141862952Y-67635042D01*
X141839142Y-67670757D01*
X141815333Y-67742185D01*
X141815333Y-67849328D01*
X141839142Y-67920757D01*
X141862952Y-67956471D01*
X141910571Y-67992185D01*
X142101047Y-67992185D01*
X142101047Y-67242185D01*
X141934380Y-67242185D01*
X141886761Y-67277900D01*
X141862952Y-67313614D01*
X141839142Y-67385042D01*
X141839142Y-67456471D01*
X141862952Y-67527900D01*
X141886761Y-67563614D01*
X141934380Y-67599328D01*
X142101047Y-67599328D01*
X141386761Y-67492185D02*
X141386761Y-67992185D01*
X141505809Y-67206471D02*
X141624857Y-67742185D01*
X141315333Y-67742185D01*
X157491880Y-67472328D02*
X157420452Y-67508042D01*
X157396642Y-67543757D01*
X157372833Y-67615185D01*
X157372833Y-67722328D01*
X157396642Y-67793757D01*
X157420452Y-67829471D01*
X157468071Y-67865185D01*
X157658547Y-67865185D01*
X157658547Y-67115185D01*
X157491880Y-67115185D01*
X157444261Y-67150900D01*
X157420452Y-67186614D01*
X157396642Y-67258042D01*
X157396642Y-67329471D01*
X157420452Y-67400900D01*
X157444261Y-67436614D01*
X157491880Y-67472328D01*
X157658547Y-67472328D01*
X157182357Y-67186614D02*
X157158547Y-67150900D01*
X157110928Y-67115185D01*
X156991880Y-67115185D01*
X156944261Y-67150900D01*
X156920452Y-67186614D01*
X156896642Y-67258042D01*
X156896642Y-67329471D01*
X156920452Y-67436614D01*
X157206166Y-67865185D01*
X156896642Y-67865185D01*
X142111952Y-65486685D02*
X142278619Y-65129542D01*
X142397666Y-65486685D02*
X142397666Y-64736685D01*
X142207190Y-64736685D01*
X142159571Y-64772400D01*
X142135761Y-64808114D01*
X142111952Y-64879542D01*
X142111952Y-64986685D01*
X142135761Y-65058114D01*
X142159571Y-65093828D01*
X142207190Y-65129542D01*
X142397666Y-65129542D01*
X141802428Y-64736685D02*
X141707190Y-64736685D01*
X141659571Y-64772400D01*
X141611952Y-64843828D01*
X141588142Y-64986685D01*
X141588142Y-65236685D01*
X141611952Y-65379542D01*
X141659571Y-65450971D01*
X141707190Y-65486685D01*
X141802428Y-65486685D01*
X141850047Y-65450971D01*
X141897666Y-65379542D01*
X141921476Y-65236685D01*
X141921476Y-64986685D01*
X141897666Y-64843828D01*
X141850047Y-64772400D01*
X141802428Y-64736685D01*
X141421476Y-64736685D02*
X141302428Y-65486685D01*
X141207190Y-64950971D01*
X141111952Y-65486685D01*
X140992904Y-64736685D01*
X140850047Y-64736685D02*
X140540523Y-64736685D01*
X140707190Y-65022400D01*
X140635761Y-65022400D01*
X140588142Y-65058114D01*
X140564333Y-65093828D01*
X140540523Y-65165257D01*
X140540523Y-65343828D01*
X140564333Y-65415257D01*
X140588142Y-65450971D01*
X140635761Y-65486685D01*
X140778619Y-65486685D01*
X140826238Y-65450971D01*
X140850047Y-65415257D01*
X157328619Y-65415257D02*
X157352428Y-65450971D01*
X157423857Y-65486685D01*
X157471476Y-65486685D01*
X157542904Y-65450971D01*
X157590523Y-65379542D01*
X157614333Y-65308114D01*
X157638142Y-65165257D01*
X157638142Y-65058114D01*
X157614333Y-64915257D01*
X157590523Y-64843828D01*
X157542904Y-64772400D01*
X157471476Y-64736685D01*
X157423857Y-64736685D01*
X157352428Y-64772400D01*
X157328619Y-64808114D01*
X157019095Y-64736685D02*
X156923857Y-64736685D01*
X156876238Y-64772400D01*
X156828619Y-64843828D01*
X156804809Y-64986685D01*
X156804809Y-65236685D01*
X156828619Y-65379542D01*
X156876238Y-65450971D01*
X156923857Y-65486685D01*
X157019095Y-65486685D01*
X157066714Y-65450971D01*
X157114333Y-65379542D01*
X157138142Y-65236685D01*
X157138142Y-64986685D01*
X157114333Y-64843828D01*
X157066714Y-64772400D01*
X157019095Y-64736685D01*
X156352428Y-65486685D02*
X156590523Y-65486685D01*
X156590523Y-64736685D01*
X155947666Y-64736685D02*
X156185761Y-64736685D01*
X156209571Y-65093828D01*
X156185761Y-65058114D01*
X156138142Y-65022400D01*
X156019095Y-65022400D01*
X155971476Y-65058114D01*
X155947666Y-65093828D01*
X155923857Y-65165257D01*
X155923857Y-65343828D01*
X155947666Y-65415257D01*
X155971476Y-65450971D01*
X156019095Y-65486685D01*
X156138142Y-65486685D01*
X156185761Y-65450971D01*
X156209571Y-65415257D01*
X142111952Y-62975685D02*
X142278619Y-62618542D01*
X142397666Y-62975685D02*
X142397666Y-62225685D01*
X142207190Y-62225685D01*
X142159571Y-62261400D01*
X142135761Y-62297114D01*
X142111952Y-62368542D01*
X142111952Y-62475685D01*
X142135761Y-62547114D01*
X142159571Y-62582828D01*
X142207190Y-62618542D01*
X142397666Y-62618542D01*
X141802428Y-62225685D02*
X141707190Y-62225685D01*
X141659571Y-62261400D01*
X141611952Y-62332828D01*
X141588142Y-62475685D01*
X141588142Y-62725685D01*
X141611952Y-62868542D01*
X141659571Y-62939971D01*
X141707190Y-62975685D01*
X141802428Y-62975685D01*
X141850047Y-62939971D01*
X141897666Y-62868542D01*
X141921476Y-62725685D01*
X141921476Y-62475685D01*
X141897666Y-62332828D01*
X141850047Y-62261400D01*
X141802428Y-62225685D01*
X141421476Y-62225685D02*
X141302428Y-62975685D01*
X141207190Y-62439971D01*
X141111952Y-62975685D01*
X140992904Y-62225685D01*
X140826238Y-62297114D02*
X140802428Y-62261400D01*
X140754809Y-62225685D01*
X140635761Y-62225685D01*
X140588142Y-62261400D01*
X140564333Y-62297114D01*
X140540523Y-62368542D01*
X140540523Y-62439971D01*
X140564333Y-62547114D01*
X140850047Y-62975685D01*
X140540523Y-62975685D01*
X157278619Y-62777257D02*
X157302428Y-62812971D01*
X157373857Y-62848685D01*
X157421476Y-62848685D01*
X157492904Y-62812971D01*
X157540523Y-62741542D01*
X157564333Y-62670114D01*
X157588142Y-62527257D01*
X157588142Y-62420114D01*
X157564333Y-62277257D01*
X157540523Y-62205828D01*
X157492904Y-62134400D01*
X157421476Y-62098685D01*
X157373857Y-62098685D01*
X157302428Y-62134400D01*
X157278619Y-62170114D01*
X156969095Y-62098685D02*
X156873857Y-62098685D01*
X156826238Y-62134400D01*
X156778619Y-62205828D01*
X156754809Y-62348685D01*
X156754809Y-62598685D01*
X156778619Y-62741542D01*
X156826238Y-62812971D01*
X156873857Y-62848685D01*
X156969095Y-62848685D01*
X157016714Y-62812971D01*
X157064333Y-62741542D01*
X157088142Y-62598685D01*
X157088142Y-62348685D01*
X157064333Y-62205828D01*
X157016714Y-62134400D01*
X156969095Y-62098685D01*
X156302428Y-62848685D02*
X156540523Y-62848685D01*
X156540523Y-62098685D01*
X155921476Y-62348685D02*
X155921476Y-62848685D01*
X156040523Y-62062971D02*
X156159571Y-62598685D01*
X155850047Y-62598685D01*
X142111952Y-60372185D02*
X142278619Y-60015042D01*
X142397666Y-60372185D02*
X142397666Y-59622185D01*
X142207190Y-59622185D01*
X142159571Y-59657900D01*
X142135761Y-59693614D01*
X142111952Y-59765042D01*
X142111952Y-59872185D01*
X142135761Y-59943614D01*
X142159571Y-59979328D01*
X142207190Y-60015042D01*
X142397666Y-60015042D01*
X141802428Y-59622185D02*
X141707190Y-59622185D01*
X141659571Y-59657900D01*
X141611952Y-59729328D01*
X141588142Y-59872185D01*
X141588142Y-60122185D01*
X141611952Y-60265042D01*
X141659571Y-60336471D01*
X141707190Y-60372185D01*
X141802428Y-60372185D01*
X141850047Y-60336471D01*
X141897666Y-60265042D01*
X141921476Y-60122185D01*
X141921476Y-59872185D01*
X141897666Y-59729328D01*
X141850047Y-59657900D01*
X141802428Y-59622185D01*
X141421476Y-59622185D02*
X141302428Y-60372185D01*
X141207190Y-59836471D01*
X141111952Y-60372185D01*
X140992904Y-59622185D01*
X140540523Y-60372185D02*
X140826238Y-60372185D01*
X140683380Y-60372185D02*
X140683380Y-59622185D01*
X140731000Y-59729328D01*
X140778619Y-59800757D01*
X140826238Y-59836471D01*
%TO.C,J1*%
D11*
X154201880Y-75111195D02*
X154201880Y-75682623D01*
X155201880Y-75396909D02*
X154201880Y-75396909D01*
X155201880Y-76587385D02*
X154725690Y-76254052D01*
X155201880Y-76015957D02*
X154201880Y-76015957D01*
X154201880Y-76396909D01*
X154249500Y-76492147D01*
X154297119Y-76539766D01*
X154392357Y-76587385D01*
X154535214Y-76587385D01*
X154630452Y-76539766D01*
X154678071Y-76492147D01*
X154725690Y-76396909D01*
X154725690Y-76015957D01*
X155201880Y-77587385D02*
X154725690Y-77254052D01*
X155201880Y-77015957D02*
X154201880Y-77015957D01*
X154201880Y-77396909D01*
X154249500Y-77492147D01*
X154297119Y-77539766D01*
X154392357Y-77587385D01*
X154535214Y-77587385D01*
X154630452Y-77539766D01*
X154678071Y-77492147D01*
X154725690Y-77396909D01*
X154725690Y-77015957D01*
X155154261Y-77968338D02*
X155201880Y-78111195D01*
X155201880Y-78349290D01*
X155154261Y-78444528D01*
X155106642Y-78492147D01*
X155011404Y-78539766D01*
X154916166Y-78539766D01*
X154820928Y-78492147D01*
X154773309Y-78444528D01*
X154725690Y-78349290D01*
X154678071Y-78158814D01*
X154630452Y-78063576D01*
X154582833Y-78015957D01*
X154487595Y-77968338D01*
X154392357Y-77968338D01*
X154297119Y-78015957D01*
X154249500Y-78063576D01*
X154201880Y-78158814D01*
X154201880Y-78396909D01*
X154249500Y-78539766D01*
%TO.C,RESET_SW1*%
X160345380Y-84755219D02*
X159869190Y-84421885D01*
X160345380Y-84183790D02*
X159345380Y-84183790D01*
X159345380Y-84564742D01*
X159393000Y-84659980D01*
X159440619Y-84707600D01*
X159535857Y-84755219D01*
X159678714Y-84755219D01*
X159773952Y-84707600D01*
X159821571Y-84659980D01*
X159869190Y-84564742D01*
X159869190Y-84183790D01*
X159821571Y-85183790D02*
X159821571Y-85517123D01*
X160345380Y-85659980D02*
X160345380Y-85183790D01*
X159345380Y-85183790D01*
X159345380Y-85659980D01*
X160297761Y-86040933D02*
X160345380Y-86183790D01*
X160345380Y-86421885D01*
X160297761Y-86517123D01*
X160250142Y-86564742D01*
X160154904Y-86612361D01*
X160059666Y-86612361D01*
X159964428Y-86564742D01*
X159916809Y-86517123D01*
X159869190Y-86421885D01*
X159821571Y-86231409D01*
X159773952Y-86136171D01*
X159726333Y-86088552D01*
X159631095Y-86040933D01*
X159535857Y-86040933D01*
X159440619Y-86088552D01*
X159393000Y-86136171D01*
X159345380Y-86231409D01*
X159345380Y-86469504D01*
X159393000Y-86612361D01*
X159821571Y-87040933D02*
X159821571Y-87374266D01*
X160345380Y-87517123D02*
X160345380Y-87040933D01*
X159345380Y-87040933D01*
X159345380Y-87517123D01*
X159345380Y-87802838D02*
X159345380Y-88374266D01*
X160345380Y-88088552D02*
X159345380Y-88088552D01*
%TD*%
M02*
