M48
; DRILL file {KiCad (5.1.10)-1} date 08/29/21 08:13:53
; FORMAT={-:-/ absolute / inch / decimal}
; #@! TF.CreationDate,2021-08-29T08:13:53+09:00
; #@! TF.GenerationSoftware,Kicad,Pcbnew,(5.1.10)-1
FMAT,2
INCH
T1C0.0157
T2C0.0320
T3C0.0394
T4C0.0512
T5C0.0472
T6C0.0669
T7C0.0748
T8C0.0866
T9C0.1181
T10C0.1614
T11C0.1693
%
G90
G05
T1
X1.1766Y-3.2886
X1.1788Y-2.5428
X1.2019Y-2.1645
X1.22Y-3.018
X1.222Y-3.772
X1.2249Y-2.9735
X1.2276Y-3.7238
X1.2311Y-2.4081
X1.2341Y-3.1461
X1.549Y-2.372
X1.5602Y-2.4311
X1.5929Y-3.1066
X1.605Y-3.052
X1.6121Y-2.2108
X1.6124Y-2.3136
X1.6177Y-3.8209
X1.622Y-3.764
X1.6395Y-2.9191
X1.6455Y-2.372
X1.6631Y-2.1701
X1.704Y-3.6204
X1.7514Y-3.8086
X1.8573Y-2.2281
X1.8581Y-2.9761
X1.904Y-2.7643
X1.906Y-1.9499
X1.906Y-3.4787
X1.913Y-1.6976
X1.9301Y-3.161
X1.9382Y-2.3832
X1.9496Y-2.3381
X1.9565Y-2.8947
X1.9582Y-3.6614
X1.9637Y-2.1599
X1.9854Y-2.2886
X1.997Y-3.757
X1.9976Y-3.0585
X2.0162Y-2.9656
X2.084Y-3.019
X2.1449Y-3.1272
X2.1725Y-3.0568
X2.3747Y-2.0707
X2.3779Y-2.8229
X2.3954Y-2.3776
X2.4107Y-2.1335
X2.4131Y-3.6589
X2.4146Y-2.87
X2.4843Y-3.7166
X2.5343Y-1.8636
X2.6163Y-2.9874
X2.6544Y-2.425
X2.6545Y-1.2496
X2.6899Y-1.8031
X2.694Y-2.5557
X2.7318Y-3.1213
X2.7406Y-2.5946
X2.7598Y-1.8698
X2.7679Y-3.2074
X2.7831Y-3.1569
X2.8616Y-1.8531
X3.0327Y-3.3453
X3.0495Y-3.7124
X3.0699Y-1.9476
X3.0781Y-3.7701
X3.0885Y-3.3068
X3.1043Y-1.7823
X3.1095Y-3.364
X3.1155Y-2.4485
X3.1206Y-1.7104
X3.124Y-3.265
X3.1265Y-1.919
X3.1611Y-1.6175
X3.1616Y-2.3683
X3.2438Y-3.3017
X3.2453Y-2.8595
X3.2485Y-1.7589
X3.27Y-2.449
X3.354Y-3.126
X3.3968Y-2.5119
X3.403Y-2.226
X3.407Y-1.4322
X3.4238Y-2.6531
X3.425Y-1.1532
X3.4455Y-2.2763
X3.4485Y-3.0179
X3.4559Y-2.5919
X3.4673Y-1.6189
X3.4766Y-2.3579
X3.488Y-3.667
X3.5001Y-3.7695
X3.502Y-1.726
X3.508Y-3.11
X3.5096Y-2.4806
X3.5437Y-4.234
X3.5451Y-3.0589
X3.56Y-3.9543
X3.6025Y-3.7091
X3.7082Y-1.9141
X3.8192Y-1.8496
X3.865Y-1.618
X3.8702Y-3.202
X3.882Y-2.378
X3.8919Y-4.126
X3.896Y-3.163
X3.9259Y-2.4243
X3.9683Y-1.6587
X3.9835Y-3.7154
X3.9941Y-3.8562
X4.0124Y-3.7706
X4.1475Y-2.9863
X4.1487Y-1.4846
X4.1544Y-2.3232
X4.195Y-1.7209
X4.223Y-2.4286
X4.228Y-2.51
X4.243Y-3.198
X4.2534Y-1.7666
X4.301Y-3.16
X4.4016Y-3.7154
X4.4939Y-3.7706
X4.5856Y-3.753
X4.5966Y-3.1197
X4.6004Y-3.2993
X4.6172Y-1.6768
X4.63Y-2.462
X4.6322Y-2.7005
X4.634Y-3.239
X4.6394Y-2.5016
X4.646Y-1.7768
X4.6518Y-2.0066
X4.66Y-2.367
X4.6619Y-3.1231
X4.6626Y-1.6293
X4.707Y-1.761
X4.7622Y-2.5656
X4.8283Y-3.7781
X4.8357Y-3.8313
X4.8635Y-2.5584
X4.8969Y-2.3339
X4.917Y-1.8102
X4.9193Y-2.4167
X4.9458Y-2.6069
X4.9474Y-3.3599
X4.9479Y-3.2087
X4.9706Y-1.8084
X4.9738Y-1.3461
X4.9834Y-3.3166
X4.999Y-2.64
X5.0021Y-1.7127
X5.0048Y-1.9032
X5.1624Y-2.1361
X5.248Y-3.838
X5.264Y-2.499
X5.2663Y-4.3289
X5.2674Y-3.9026
X5.2783Y-4.1095
X5.3033Y-3.4117
X5.3431Y-1.8106
X5.3496Y-4.0063
X5.3601Y-2.0508
X5.3621Y-3.8007
X5.3679Y-3.9607
X5.373Y-2.547
X5.391Y-3.392
X5.4157Y-1.7133
X5.4505Y-3.385
X5.468Y-3.9165
X5.4778Y-4.1752
X5.5152Y-4.0789
X5.5635Y-1.6707
X5.6129Y-1.9171
X5.6746Y-3.7928
X5.7512Y-3.8702
X5.8125Y-3.0174
X5.847Y-2.607
X5.8487Y-3.7969
X5.85Y-2.523
X5.9572Y-3.8388
T2
X5.665Y-1.661
X5.665Y-1.761
X5.665Y-1.861
X5.665Y-1.961
X5.665Y-2.061
X5.665Y-2.161
X5.665Y-2.261
X5.665Y-2.361
X5.665Y-2.461
X5.665Y-2.561
X5.665Y-2.661
X5.665Y-2.761
X5.7172Y-1.611
X5.7172Y-1.711
X5.7172Y-1.811
X5.7172Y-1.911
X5.7172Y-2.011
X5.7172Y-2.111
X5.7172Y-2.211
X5.7172Y-2.311
X5.7172Y-2.411
X5.7172Y-2.511
X5.7172Y-2.611
X5.7172Y-2.711
X6.265Y-1.661
X6.265Y-1.761
X6.265Y-1.861
X6.265Y-1.961
X6.265Y-2.061
X6.265Y-2.161
X6.265Y-2.261
X6.265Y-2.361
X6.265Y-2.461
X6.265Y-2.561
X6.265Y-2.661
X6.265Y-2.761
X6.3164Y-1.611
X6.3164Y-1.711
X6.3164Y-1.811
X6.3164Y-1.911
X6.3164Y-2.011
X6.3164Y-2.111
X6.3164Y-2.211
X6.3164Y-2.311
X6.3164Y-2.411
X6.3164Y-2.511
X6.3164Y-2.611
X6.3164Y-2.711
T4
X6.295Y-3.261
X6.295Y-3.517
T5
X6.0104Y-2.9901
X6.0104Y-3.059
X6.2859Y-2.9901
X6.2859Y-3.059
T6
X1.2528Y-2.07
X1.2528Y-2.82
X1.2528Y-3.57
X1.6072Y-2.07
X1.6072Y-2.82
X1.6072Y-3.57
X2.0028Y-1.972
X2.0028Y-2.723
X2.0028Y-3.472
X2.3572Y-1.972
X2.3572Y-2.723
X2.3572Y-3.472
X2.7528Y-1.522
X2.7528Y-2.273
X2.7528Y-3.026
X3.1072Y-1.522
X3.1072Y-2.273
X3.1072Y-3.026
X3.1078Y-3.961
X3.4622Y-3.961
X3.5028Y-1.427
X3.5028Y-2.176
X3.5028Y-2.926
X3.8572Y-1.427
X3.8572Y-2.176
X3.8572Y-2.926
X4.0278Y-3.96
X4.2528Y-1.523
X4.2528Y-2.273
X4.2528Y-3.024
X4.3822Y-3.96
X4.6072Y-1.523
X4.6072Y-2.273
X4.6072Y-3.024
X4.8415Y-4.0012
X5.0028Y-1.618
X5.0028Y-2.371
X5.0028Y-3.119
X5.1905Y-4.0628
X5.3572Y-1.618
X5.3572Y-2.371
X5.3572Y-3.119
X5.7874Y-4.2635
X5.9086Y-3.9305
T7
X1.23Y-2.07
X1.23Y-2.82
X1.23Y-3.57
X1.63Y-2.07
X1.63Y-2.82
X1.63Y-3.57
X1.98Y-1.972
X1.98Y-2.723
X1.98Y-3.472
X2.38Y-1.972
X2.38Y-2.723
X2.38Y-3.472
X2.73Y-1.522
X2.73Y-2.273
X2.73Y-3.026
X3.085Y-3.961
X3.13Y-1.522
X3.13Y-2.273
X3.13Y-3.026
X3.48Y-1.427
X3.48Y-2.176
X3.48Y-2.926
X3.485Y-3.961
X3.88Y-1.427
X3.88Y-2.176
X3.88Y-2.926
X4.005Y-3.96
X4.23Y-1.523
X4.23Y-2.273
X4.23Y-3.024
X4.405Y-3.96
X4.63Y-1.523
X4.63Y-2.273
X4.63Y-3.024
X4.819Y-3.9973
X4.98Y-1.618
X4.98Y-2.371
X4.98Y-3.119
X5.2129Y-4.0667
X5.38Y-1.618
X5.38Y-2.371
X5.38Y-3.119
X5.7796Y-4.2849
X5.9164Y-3.9091
T8
X5.674Y-2.915
X6.072Y-3.423
T9
X1.28Y-1.97
X1.28Y-2.72
X1.28Y-3.47
X1.33Y-1.87
X1.33Y-2.62
X1.33Y-3.37
X1.53Y-1.87
X1.53Y-2.62
X1.53Y-3.37
X1.58Y-1.97
X1.58Y-2.72
X1.58Y-3.47
X2.03Y-1.872
X2.03Y-2.623
X2.03Y-3.372
X2.08Y-1.772
X2.08Y-2.523
X2.08Y-3.272
X2.28Y-1.772
X2.28Y-2.523
X2.28Y-3.272
X2.33Y-1.872
X2.33Y-2.623
X2.33Y-3.372
X2.78Y-1.422
X2.78Y-2.173
X2.78Y-2.926
X2.83Y-1.322
X2.83Y-2.073
X2.83Y-2.826
X3.03Y-1.322
X3.03Y-2.073
X3.03Y-2.826
X3.08Y-1.422
X3.08Y-2.173
X3.08Y-2.926
X3.135Y-4.061
X3.185Y-4.161
X3.385Y-4.161
X3.435Y-4.061
X3.53Y-1.327
X3.53Y-2.076
X3.53Y-2.826
X3.58Y-1.227
X3.58Y-1.976
X3.58Y-2.726
X3.78Y-1.227
X3.78Y-1.976
X3.78Y-2.726
X3.83Y-1.327
X3.83Y-2.076
X3.83Y-2.826
X4.055Y-4.06
X4.105Y-4.16
X4.28Y-1.423
X4.28Y-2.173
X4.28Y-2.924
X4.305Y-4.16
X4.33Y-1.323
X4.33Y-2.073
X4.33Y-2.824
X4.355Y-4.06
X4.53Y-1.323
X4.53Y-2.073
X4.53Y-2.824
X4.58Y-1.423
X4.58Y-2.173
X4.58Y-2.924
X4.8509Y-4.1044
X4.8828Y-4.2116
X5.03Y-1.518
X5.03Y-2.271
X5.03Y-3.019
X5.0797Y-4.2463
X5.08Y-1.418
X5.08Y-2.171
X5.08Y-2.919
X5.1463Y-4.1565
X5.28Y-1.418
X5.28Y-2.171
X5.28Y-2.919
X5.33Y-1.518
X5.33Y-2.271
X5.33Y-3.019
X5.8907Y-4.2722
X5.9933Y-3.9903
X6.0017Y-4.2594
X6.0701Y-4.0714
T10
X1.43Y-2.07
X1.43Y-2.82
X1.43Y-3.57
X2.18Y-1.972
X2.18Y-2.723
X2.18Y-3.472
X2.93Y-1.522
X2.93Y-2.273
X2.93Y-3.026
X3.285Y-3.961
X3.68Y-1.427
X3.68Y-2.176
X3.68Y-2.926
X4.205Y-3.96
X4.43Y-1.523
X4.43Y-2.273
X4.43Y-3.024
X5.016Y-4.032
X5.18Y-1.618
X5.18Y-2.371
X5.18Y-3.119
X5.848Y-4.097
T11
X1.7719Y-3.195
X1.7729Y-2.446
X3.747Y-3.96
X4.0219Y-1.801
X5.511Y-3.776
T3
G00X5.8903Y-2.9763
M15
G01X5.8706Y-2.9763
M16
G05
G00X5.8903Y-3.0728
M15
G01X5.8706Y-3.0728
M16
G05
G00X5.9493Y-2.9074
M15
G01X5.9296Y-2.9074
M16
G05
G00X5.9493Y-3.1417
M15
G01X5.9296Y-3.1417
M16
G05
G00X6.1068Y-2.9074
M15
G01X6.0871Y-2.9074
M16
G05
G00X6.1068Y-3.1417
M15
G01X6.0871Y-3.1417
M16
G05
G00X6.2249Y-2.9074
M15
G01X6.2052Y-2.9074
M16
G05
G00X6.2249Y-3.1417
M15
G01X6.2052Y-3.1417
M16
G05
T0
M30
