%TF.GenerationSoftware,KiCad,Pcbnew,(5.1.10)-1*%
%TF.CreationDate,2021-08-29T08:11:49+09:00*%
%TF.ProjectId,korpo44,6b6f7270-6f34-4342-9e6b-696361645f70,rev?*%
%TF.SameCoordinates,Original*%
%TF.FileFunction,Profile,NP*%
%FSLAX46Y46*%
G04 Gerber Fmt 4.6, Leading zero omitted, Abs format (unit mm)*
G04 Created by KiCad (PCBNEW (5.1.10)-1) date 2021-08-29 08:11:49*
%MOMM*%
%LPD*%
G01*
G04 APERTURE LIST*
%TA.AperFunction,Profile*%
%ADD10C,0.200000*%
%TD*%
%TA.AperFunction,Profile*%
%ADD11C,0.120000*%
%TD*%
G04 APERTURE END LIST*
D10*
X161726373Y-36049642D02*
G75*
G02*
X162726373Y-37049642I0J-1000000D01*
G01*
X162726373Y-92696988D02*
G75*
G02*
X162605758Y-93381028I-2000000J0D01*
G01*
X153756746Y-117693496D02*
X162605758Y-93381028D01*
X162726373Y-92696988D02*
X162726373Y-37049642D01*
X45872400Y-99215700D02*
X45872400Y-97739200D01*
X45872400Y-97739200D02*
X64922399Y-97739200D01*
X71589900Y-97739200D02*
X71589900Y-109122577D01*
X26822400Y-44065700D02*
X26822401Y-99215700D01*
X26822400Y-44065700D02*
G75*
G02*
X27822400Y-43065700I1000000J0D01*
G01*
X83972399Y-27682699D02*
G75*
G02*
X84972400Y-26682700I1000000J-1D01*
G01*
X45872401Y-99215700D02*
G75*
G02*
X44872400Y-100215701I-1000001J0D01*
G01*
X72589023Y-110122577D02*
G75*
G02*
X71589900Y-109122577I877J1000000D01*
G01*
X102022400Y-26682701D02*
X84972400Y-26682700D01*
X153756747Y-117693496D02*
G75*
G02*
X152596843Y-118326928I-939693J342021D01*
G01*
X103022400Y-29159200D02*
X121072400Y-29159200D01*
X103022400Y-29159200D02*
X103022400Y-27682700D01*
X102022400Y-26682700D02*
G75*
G02*
X103022400Y-27682700I0J-1000000D01*
G01*
X140122400Y-31635701D02*
G75*
G02*
X141122399Y-32635700I0J-999999D01*
G01*
X141122399Y-36049642D02*
X141122399Y-32635700D01*
X72589022Y-110122577D02*
X115425592Y-110160145D01*
X27822401Y-100215700D02*
G75*
G02*
X26822401Y-99215700I0J1000000D01*
G01*
X122072400Y-31635700D02*
X140122400Y-31635701D01*
X64922399Y-30159199D02*
G75*
G02*
X65922400Y-29159200I1000000J-1D01*
G01*
X83972400Y-29159200D02*
X83972400Y-27682700D01*
X45872400Y-43065700D02*
X45872399Y-41589200D01*
X45872400Y-43065700D02*
X27822400Y-43065700D01*
X115425592Y-110160144D02*
G75*
G02*
X117399594Y-110381070I-7893J-8999996D01*
G01*
X122072400Y-31635700D02*
X122072400Y-30159200D01*
X121072400Y-29159200D02*
G75*
G02*
X122072400Y-30159200I0J-1000000D01*
G01*
X45872399Y-41589199D02*
G75*
G02*
X46872400Y-40589200I1000000J-1D01*
G01*
X117399594Y-110381070D02*
X152596843Y-118326928D01*
X64922399Y-40589200D02*
X46872400Y-40589200D01*
X44872400Y-100215701D02*
X27822400Y-100215701D01*
X141122399Y-36049642D02*
X161726373Y-36049642D01*
X64922400Y-30159200D02*
X64922399Y-40589200D01*
X64922399Y-97739200D02*
X71589900Y-97739200D01*
X83972400Y-29159200D02*
X65922400Y-29159200D01*
D11*
%TO.C,LED1*%
X38223600Y-59614400D02*
X38223600Y-56514400D01*
X38223600Y-56514400D02*
X34623600Y-56514400D01*
X34623600Y-56514400D02*
X34623600Y-59614400D01*
X34623600Y-59614400D02*
X38223600Y-59614400D01*
%TO.C,LED2*%
X38020400Y-78639000D02*
X38020400Y-75539000D01*
X38020400Y-75539000D02*
X34420400Y-75539000D01*
X34420400Y-75539000D02*
X34420400Y-78639000D01*
X34420400Y-78639000D02*
X38020400Y-78639000D01*
%TO.C,LED3*%
X38020400Y-97714400D02*
X38020400Y-94614400D01*
X38020400Y-94614400D02*
X34420400Y-94614400D01*
X34420400Y-94614400D02*
X34420400Y-97714400D01*
X34420400Y-97714400D02*
X38020400Y-97714400D01*
%TO.C,LED4*%
X53502600Y-57111000D02*
X57102600Y-57111000D01*
X53502600Y-54011000D02*
X53502600Y-57111000D01*
X57102600Y-54011000D02*
X53502600Y-54011000D01*
X57102600Y-57111000D02*
X57102600Y-54011000D01*
%TO.C,LED5*%
X53622800Y-76175200D02*
X57222800Y-76175200D01*
X53622800Y-73075200D02*
X53622800Y-76175200D01*
X57222800Y-73075200D02*
X53622800Y-73075200D01*
X57222800Y-76175200D02*
X57222800Y-73075200D01*
%TO.C,LED6*%
X53699000Y-95250600D02*
X57299000Y-95250600D01*
X53699000Y-92150600D02*
X53699000Y-95250600D01*
X57299000Y-92150600D02*
X53699000Y-92150600D01*
X57299000Y-95250600D02*
X57299000Y-92150600D01*
%TO.C,LED7*%
X76298200Y-45695200D02*
X76298200Y-42595200D01*
X76298200Y-42595200D02*
X72698200Y-42595200D01*
X72698200Y-42595200D02*
X72698200Y-45695200D01*
X72698200Y-45695200D02*
X76298200Y-45695200D01*
%TO.C,LED8*%
X76145800Y-64770600D02*
X76145800Y-61670600D01*
X76145800Y-61670600D02*
X72545800Y-61670600D01*
X72545800Y-61670600D02*
X72545800Y-64770600D01*
X72545800Y-64770600D02*
X76145800Y-64770600D01*
%TO.C,LED9*%
X76323600Y-83795200D02*
X76323600Y-80695200D01*
X76323600Y-80695200D02*
X72723600Y-80695200D01*
X72723600Y-80695200D02*
X72723600Y-83795200D01*
X72723600Y-83795200D02*
X76323600Y-83795200D01*
%TO.C,LED10*%
X85442200Y-96546000D02*
X85442200Y-93446000D01*
X85442200Y-93446000D02*
X81842200Y-93446000D01*
X81842200Y-93446000D02*
X81842200Y-96546000D01*
X81842200Y-96546000D02*
X85442200Y-96546000D01*
%TO.C,LED11*%
X91697400Y-43231400D02*
X95297400Y-43231400D01*
X91697400Y-40131400D02*
X91697400Y-43231400D01*
X95297400Y-40131400D02*
X91697400Y-40131400D01*
X95297400Y-43231400D02*
X95297400Y-40131400D01*
%TO.C,LED12*%
X91621200Y-62332200D02*
X95221200Y-62332200D01*
X91621200Y-59232200D02*
X91621200Y-62332200D01*
X95221200Y-59232200D02*
X91621200Y-59232200D01*
X95221200Y-62332200D02*
X95221200Y-59232200D01*
%TO.C,LED13*%
X91722800Y-81306000D02*
X95322800Y-81306000D01*
X91722800Y-78206000D02*
X91722800Y-81306000D01*
X95322800Y-78206000D02*
X91722800Y-78206000D01*
X95322800Y-81306000D02*
X95322800Y-78206000D01*
%TO.C,LED14*%
X105185000Y-96622200D02*
X108785000Y-96622200D01*
X105185000Y-93522200D02*
X105185000Y-96622200D01*
X108785000Y-93522200D02*
X105185000Y-93522200D01*
X108785000Y-96622200D02*
X108785000Y-93522200D01*
%TO.C,LED15*%
X114322000Y-45720600D02*
X114322000Y-42620600D01*
X114322000Y-42620600D02*
X110722000Y-42620600D01*
X110722000Y-42620600D02*
X110722000Y-45720600D01*
X110722000Y-45720600D02*
X114322000Y-45720600D01*
%TO.C,LED16*%
X114170000Y-64745200D02*
X114170000Y-61645200D01*
X114170000Y-61645200D02*
X110570000Y-61645200D01*
X110570000Y-61645200D02*
X110570000Y-64745200D01*
X110570000Y-64745200D02*
X114170000Y-64745200D01*
%TO.C,LED17*%
X114195000Y-83795200D02*
X114195000Y-80695200D01*
X114195000Y-80695200D02*
X110595000Y-80695200D01*
X110595000Y-80695200D02*
X110595000Y-83795200D01*
X110595000Y-83795200D02*
X114195000Y-83795200D01*
%TO.C,LED18*%
X130103499Y-98943219D02*
X130641809Y-95890315D01*
X130641809Y-95890315D02*
X127096501Y-95265181D01*
X127096501Y-95265181D02*
X126558191Y-98318085D01*
X126558191Y-98318085D02*
X130103499Y-98943219D01*
%TO.C,LED19*%
X129696000Y-48184400D02*
X133296000Y-48184400D01*
X129696000Y-45084400D02*
X129696000Y-48184400D01*
X133296000Y-45084400D02*
X129696000Y-45084400D01*
X133296000Y-48184400D02*
X133296000Y-45084400D01*
%TO.C,LED20*%
X129721000Y-67234400D02*
X133321000Y-67234400D01*
X129721000Y-64134400D02*
X129721000Y-67234400D01*
X133321000Y-64134400D02*
X129721000Y-64134400D01*
X133321000Y-67234400D02*
X133321000Y-64134400D01*
%TO.C,LED21*%
X130153000Y-86259000D02*
X133753000Y-86259000D01*
X130153000Y-83159000D02*
X130153000Y-86259000D01*
X133753000Y-83159000D02*
X130153000Y-83159000D01*
X133753000Y-86259000D02*
X133753000Y-83159000D01*
%TO.C,LED22*%
X144198887Y-104507578D02*
X145430160Y-101124685D01*
X141285840Y-103447315D02*
X144198887Y-104507578D01*
X142517113Y-100064422D02*
X141285840Y-103447315D01*
X145430160Y-101124685D02*
X142517113Y-100064422D01*
%TD*%
M02*
