%TF.GenerationSoftware,KiCad,Pcbnew,(5.1.10)-1*%
%TF.CreationDate,2021-08-29T08:26:45+09:00*%
%TF.ProjectId,bottom_pcb,626f7474-6f6d-45f7-9063-622e6b696361,rev?*%
%TF.SameCoordinates,Original*%
%TF.FileFunction,Copper,L2,Bot*%
%TF.FilePolarity,Positive*%
%FSLAX46Y46*%
G04 Gerber Fmt 4.6, Leading zero omitted, Abs format (unit mm)*
G04 Created by KiCad (PCBNEW (5.1.10)-1) date 2021-08-29 08:26:45*
%MOMM*%
%LPD*%
G01*
G04 APERTURE LIST*
%TA.AperFunction,NonConductor*%
%ADD10C,0.254000*%
%TD*%
%TA.AperFunction,NonConductor*%
%ADD11C,0.100000*%
%TD*%
G04 APERTURE END LIST*
D10*
X95526689Y-18569501D02*
X95617066Y-18578363D01*
X95670615Y-18594530D01*
X95719998Y-18620788D01*
X95763346Y-18656141D01*
X95799001Y-18699240D01*
X95825602Y-18748437D01*
X95842143Y-18801875D01*
X95851402Y-18889964D01*
X95851401Y-20301122D01*
X95847966Y-20336000D01*
X95861674Y-20475184D01*
X95902273Y-20609020D01*
X95968201Y-20732363D01*
X96056926Y-20840475D01*
X96133713Y-20903492D01*
X96165038Y-20929200D01*
X96288381Y-20995128D01*
X96422217Y-21035727D01*
X96561401Y-21049435D01*
X96596278Y-21046000D01*
X114576679Y-21046000D01*
X114667066Y-21054863D01*
X114720615Y-21071030D01*
X114769998Y-21097288D01*
X114813346Y-21132641D01*
X114849001Y-21175740D01*
X114875602Y-21224937D01*
X114892143Y-21278375D01*
X114901402Y-21366464D01*
X114901401Y-22777632D01*
X114897967Y-22812500D01*
X114901401Y-22847369D01*
X114901401Y-22847376D01*
X114911674Y-22951683D01*
X114952273Y-23085519D01*
X115018201Y-23208862D01*
X115106926Y-23316974D01*
X115215038Y-23405700D01*
X115338381Y-23471628D01*
X115472217Y-23512227D01*
X115611401Y-23525935D01*
X115646288Y-23522499D01*
X133626679Y-23522501D01*
X133717066Y-23531364D01*
X133770615Y-23547531D01*
X133819999Y-23573789D01*
X133863346Y-23609142D01*
X133898998Y-23652237D01*
X133925600Y-23701438D01*
X133942142Y-23754877D01*
X133951401Y-23842964D01*
X133951400Y-27191565D01*
X133947965Y-27226442D01*
X133961673Y-27365626D01*
X134002272Y-27499462D01*
X134068200Y-27622805D01*
X134156925Y-27730917D01*
X134235861Y-27795698D01*
X134265037Y-27819642D01*
X134388380Y-27885570D01*
X134522216Y-27926169D01*
X134661400Y-27939877D01*
X134696277Y-27936442D01*
X155230652Y-27936442D01*
X155321039Y-27945305D01*
X155374588Y-27961472D01*
X155423971Y-27987730D01*
X155467319Y-28023083D01*
X155502974Y-28066182D01*
X155529575Y-28115379D01*
X155546116Y-28168817D01*
X155555375Y-28256906D01*
X155555374Y-83839067D01*
X155526735Y-84131151D01*
X155468252Y-84340613D01*
X146640440Y-108594838D01*
X146601200Y-108676738D01*
X146567692Y-108721528D01*
X146526124Y-108758957D01*
X146478085Y-108787593D01*
X146425389Y-108806358D01*
X146370051Y-108814529D01*
X146292756Y-108810749D01*
X146279161Y-108808214D01*
X111060923Y-100857619D01*
X111045321Y-100855677D01*
X110280388Y-100718239D01*
X110273384Y-100717455D01*
X110266514Y-100715888D01*
X110202506Y-100708651D01*
X109023519Y-100629304D01*
X109000092Y-100626976D01*
X66163378Y-100589408D01*
X66072989Y-100580466D01*
X66019455Y-100564252D01*
X65970094Y-100537951D01*
X65926777Y-100502559D01*
X65891164Y-100459433D01*
X65864601Y-100410202D01*
X65848108Y-100356757D01*
X65838901Y-100268416D01*
X65838901Y-91599317D01*
X86961800Y-91599317D01*
X86961800Y-91941083D01*
X87028475Y-92276281D01*
X87159263Y-92592031D01*
X87349137Y-92876198D01*
X87590802Y-93117863D01*
X87874969Y-93307737D01*
X88190719Y-93438525D01*
X88525917Y-93505200D01*
X88867683Y-93505200D01*
X89202881Y-93438525D01*
X89518631Y-93307737D01*
X89802798Y-93117863D01*
X90044463Y-92876198D01*
X90234337Y-92592031D01*
X90365125Y-92276281D01*
X90431800Y-91941083D01*
X90431800Y-91599317D01*
X90365125Y-91264119D01*
X90234337Y-90948369D01*
X90044463Y-90664202D01*
X89802798Y-90422537D01*
X89518631Y-90232663D01*
X89202881Y-90101875D01*
X88867683Y-90035200D01*
X88525917Y-90035200D01*
X88190719Y-90101875D01*
X87874969Y-90232663D01*
X87590802Y-90422537D01*
X87349137Y-90664202D01*
X87159263Y-90948369D01*
X87028475Y-91264119D01*
X86961800Y-91599317D01*
X65838901Y-91599317D01*
X65838901Y-88950877D01*
X65842336Y-88916000D01*
X65828628Y-88776816D01*
X65788029Y-88642980D01*
X65722101Y-88519637D01*
X65633376Y-88411525D01*
X65525264Y-88322800D01*
X65401921Y-88256872D01*
X65268085Y-88216273D01*
X65163778Y-88206000D01*
X65128901Y-88202565D01*
X65094024Y-88206000D01*
X39446278Y-88206000D01*
X39411401Y-88202565D01*
X39376524Y-88206000D01*
X39272217Y-88216273D01*
X39138381Y-88256872D01*
X39015038Y-88322800D01*
X38906926Y-88411525D01*
X38818201Y-88519637D01*
X38752273Y-88642980D01*
X38711674Y-88776816D01*
X38697966Y-88916000D01*
X38701402Y-88950887D01*
X38701401Y-90357789D01*
X38692540Y-90448165D01*
X38676372Y-90501714D01*
X38650113Y-90551100D01*
X38614762Y-90594445D01*
X38571666Y-90630097D01*
X38522459Y-90656703D01*
X38469026Y-90673243D01*
X38380946Y-90682501D01*
X21396133Y-90682501D01*
X21305738Y-90673638D01*
X21252188Y-90657470D01*
X21202805Y-90631212D01*
X21159455Y-90595857D01*
X21123803Y-90552761D01*
X21097201Y-90503563D01*
X21080660Y-90450125D01*
X21071402Y-90362045D01*
X21071402Y-86925717D01*
X131792800Y-86925717D01*
X131792800Y-87267483D01*
X131859475Y-87602681D01*
X131990263Y-87918431D01*
X132180137Y-88202598D01*
X132421802Y-88444263D01*
X132705969Y-88634137D01*
X133021719Y-88764925D01*
X133356917Y-88831600D01*
X133698683Y-88831600D01*
X134033881Y-88764925D01*
X134349631Y-88634137D01*
X134633798Y-88444263D01*
X134875463Y-88202598D01*
X135065337Y-87918431D01*
X135196125Y-87602681D01*
X135262800Y-87267483D01*
X135262800Y-86925717D01*
X135196125Y-86590519D01*
X135065337Y-86274769D01*
X134875463Y-85990602D01*
X134633798Y-85748937D01*
X134349631Y-85559063D01*
X134033881Y-85428275D01*
X133698683Y-85361600D01*
X133356917Y-85361600D01*
X133021719Y-85428275D01*
X132705969Y-85559063D01*
X132421802Y-85748937D01*
X132180137Y-85990602D01*
X131990263Y-86274769D01*
X131859475Y-86590519D01*
X131792800Y-86925717D01*
X21071402Y-86925717D01*
X21071402Y-72168317D01*
X36843800Y-72168317D01*
X36843800Y-72510083D01*
X36910475Y-72845281D01*
X37041263Y-73161031D01*
X37231137Y-73445198D01*
X37472802Y-73686863D01*
X37756969Y-73876737D01*
X38072719Y-74007525D01*
X38407917Y-74074200D01*
X38749683Y-74074200D01*
X39084881Y-74007525D01*
X39400631Y-73876737D01*
X39684798Y-73686863D01*
X39926463Y-73445198D01*
X40116337Y-73161031D01*
X40247125Y-72845281D01*
X40313800Y-72510083D01*
X40313800Y-72168317D01*
X40247125Y-71833119D01*
X40116337Y-71517369D01*
X39926463Y-71233202D01*
X39684798Y-70991537D01*
X39400631Y-70801663D01*
X39084881Y-70670875D01*
X38749683Y-70604200D01*
X38407917Y-70604200D01*
X38072719Y-70670875D01*
X37756969Y-70801663D01*
X37472802Y-70991537D01*
X37231137Y-71233202D01*
X37041263Y-71517369D01*
X36910475Y-71833119D01*
X36843800Y-72168317D01*
X21071402Y-72168317D01*
X21071401Y-53143717D01*
X36843800Y-53143717D01*
X36843800Y-53485483D01*
X36910475Y-53820681D01*
X37041263Y-54136431D01*
X37231137Y-54420598D01*
X37472802Y-54662263D01*
X37756969Y-54852137D01*
X38072719Y-54982925D01*
X38407917Y-55049600D01*
X38749683Y-55049600D01*
X39084881Y-54982925D01*
X39400631Y-54852137D01*
X39684798Y-54662263D01*
X39926463Y-54420598D01*
X40116337Y-54136431D01*
X40247125Y-53820681D01*
X40313800Y-53485483D01*
X40313800Y-53143717D01*
X40247125Y-52808519D01*
X40116337Y-52492769D01*
X39926463Y-52208602D01*
X39684798Y-51966937D01*
X39400631Y-51777063D01*
X39084881Y-51646275D01*
X38749683Y-51579600D01*
X38407917Y-51579600D01*
X38072719Y-51646275D01*
X37756969Y-51777063D01*
X37472802Y-51966937D01*
X37231137Y-52208602D01*
X37041263Y-52492769D01*
X36910475Y-52808519D01*
X36843800Y-53143717D01*
X21071401Y-53143717D01*
X21071401Y-36735317D01*
X93993800Y-36735317D01*
X93993800Y-37077083D01*
X94060475Y-37412281D01*
X94191263Y-37728031D01*
X94381137Y-38012198D01*
X94622802Y-38253863D01*
X94906969Y-38443737D01*
X95222719Y-38574525D01*
X95557917Y-38641200D01*
X95899683Y-38641200D01*
X96234881Y-38574525D01*
X96550631Y-38443737D01*
X96834798Y-38253863D01*
X97076463Y-38012198D01*
X97266337Y-37728031D01*
X97397125Y-37412281D01*
X97463800Y-37077083D01*
X97463800Y-36735317D01*
X97397125Y-36400119D01*
X97266337Y-36084369D01*
X97076463Y-35800202D01*
X96834798Y-35558537D01*
X96550631Y-35368663D01*
X96234881Y-35237875D01*
X95899683Y-35171200D01*
X95557917Y-35171200D01*
X95222719Y-35237875D01*
X94906969Y-35368663D01*
X94622802Y-35558537D01*
X94381137Y-35800202D01*
X94191263Y-36084369D01*
X94060475Y-36400119D01*
X93993800Y-36735317D01*
X21071401Y-36735317D01*
X21071400Y-35277232D01*
X21080264Y-35186835D01*
X21096431Y-35133286D01*
X21122689Y-35083903D01*
X21158042Y-35040555D01*
X21201141Y-35004900D01*
X21250338Y-34978299D01*
X21303776Y-34961758D01*
X21391856Y-34952500D01*
X39376532Y-34952500D01*
X39411401Y-34955934D01*
X39446268Y-34952500D01*
X39446278Y-34952500D01*
X39550585Y-34942227D01*
X39684421Y-34901628D01*
X39807764Y-34835700D01*
X39915876Y-34746975D01*
X40004601Y-34638863D01*
X40070529Y-34515520D01*
X40111128Y-34381684D01*
X40124836Y-34242500D01*
X40121401Y-34207622D01*
X40121399Y-32800730D01*
X40130263Y-32710334D01*
X40146430Y-32656785D01*
X40172687Y-32607402D01*
X40208041Y-32564054D01*
X40251138Y-32528402D01*
X40300338Y-32501799D01*
X40353775Y-32485258D01*
X40441856Y-32476000D01*
X58426533Y-32476000D01*
X58461400Y-32479434D01*
X58496269Y-32476000D01*
X58496277Y-32476000D01*
X58600584Y-32465727D01*
X58734420Y-32425128D01*
X58857763Y-32359200D01*
X58965875Y-32270475D01*
X59054600Y-32162363D01*
X59120528Y-32039020D01*
X59161127Y-31905184D01*
X59174835Y-31766000D01*
X59171399Y-31731113D01*
X59171401Y-21370711D01*
X59180263Y-21280334D01*
X59196430Y-21226785D01*
X59222687Y-21177402D01*
X59258041Y-21134054D01*
X59301138Y-21098402D01*
X59350338Y-21071799D01*
X59403775Y-21055258D01*
X59491856Y-21046000D01*
X77476524Y-21046000D01*
X77511401Y-21049435D01*
X77546278Y-21046000D01*
X77650585Y-21035727D01*
X77784421Y-20995128D01*
X77907764Y-20929200D01*
X78015876Y-20840475D01*
X78104601Y-20732363D01*
X78170529Y-20609020D01*
X78211128Y-20475184D01*
X78224836Y-20336000D01*
X78221401Y-20301123D01*
X78221401Y-18894210D01*
X78230263Y-18803834D01*
X78246430Y-18750285D01*
X78272687Y-18700902D01*
X78308041Y-18657554D01*
X78351138Y-18621902D01*
X78400338Y-18595299D01*
X78453775Y-18578758D01*
X78541865Y-18569499D01*
X95526689Y-18569501D01*
%TA.AperFunction,NonConductor*%
D11*
G36*
X95526689Y-18569501D02*
G01*
X95617066Y-18578363D01*
X95670615Y-18594530D01*
X95719998Y-18620788D01*
X95763346Y-18656141D01*
X95799001Y-18699240D01*
X95825602Y-18748437D01*
X95842143Y-18801875D01*
X95851402Y-18889964D01*
X95851401Y-20301122D01*
X95847966Y-20336000D01*
X95861674Y-20475184D01*
X95902273Y-20609020D01*
X95968201Y-20732363D01*
X96056926Y-20840475D01*
X96133713Y-20903492D01*
X96165038Y-20929200D01*
X96288381Y-20995128D01*
X96422217Y-21035727D01*
X96561401Y-21049435D01*
X96596278Y-21046000D01*
X114576679Y-21046000D01*
X114667066Y-21054863D01*
X114720615Y-21071030D01*
X114769998Y-21097288D01*
X114813346Y-21132641D01*
X114849001Y-21175740D01*
X114875602Y-21224937D01*
X114892143Y-21278375D01*
X114901402Y-21366464D01*
X114901401Y-22777632D01*
X114897967Y-22812500D01*
X114901401Y-22847369D01*
X114901401Y-22847376D01*
X114911674Y-22951683D01*
X114952273Y-23085519D01*
X115018201Y-23208862D01*
X115106926Y-23316974D01*
X115215038Y-23405700D01*
X115338381Y-23471628D01*
X115472217Y-23512227D01*
X115611401Y-23525935D01*
X115646288Y-23522499D01*
X133626679Y-23522501D01*
X133717066Y-23531364D01*
X133770615Y-23547531D01*
X133819999Y-23573789D01*
X133863346Y-23609142D01*
X133898998Y-23652237D01*
X133925600Y-23701438D01*
X133942142Y-23754877D01*
X133951401Y-23842964D01*
X133951400Y-27191565D01*
X133947965Y-27226442D01*
X133961673Y-27365626D01*
X134002272Y-27499462D01*
X134068200Y-27622805D01*
X134156925Y-27730917D01*
X134235861Y-27795698D01*
X134265037Y-27819642D01*
X134388380Y-27885570D01*
X134522216Y-27926169D01*
X134661400Y-27939877D01*
X134696277Y-27936442D01*
X155230652Y-27936442D01*
X155321039Y-27945305D01*
X155374588Y-27961472D01*
X155423971Y-27987730D01*
X155467319Y-28023083D01*
X155502974Y-28066182D01*
X155529575Y-28115379D01*
X155546116Y-28168817D01*
X155555375Y-28256906D01*
X155555374Y-83839067D01*
X155526735Y-84131151D01*
X155468252Y-84340613D01*
X146640440Y-108594838D01*
X146601200Y-108676738D01*
X146567692Y-108721528D01*
X146526124Y-108758957D01*
X146478085Y-108787593D01*
X146425389Y-108806358D01*
X146370051Y-108814529D01*
X146292756Y-108810749D01*
X146279161Y-108808214D01*
X111060923Y-100857619D01*
X111045321Y-100855677D01*
X110280388Y-100718239D01*
X110273384Y-100717455D01*
X110266514Y-100715888D01*
X110202506Y-100708651D01*
X109023519Y-100629304D01*
X109000092Y-100626976D01*
X66163378Y-100589408D01*
X66072989Y-100580466D01*
X66019455Y-100564252D01*
X65970094Y-100537951D01*
X65926777Y-100502559D01*
X65891164Y-100459433D01*
X65864601Y-100410202D01*
X65848108Y-100356757D01*
X65838901Y-100268416D01*
X65838901Y-91599317D01*
X86961800Y-91599317D01*
X86961800Y-91941083D01*
X87028475Y-92276281D01*
X87159263Y-92592031D01*
X87349137Y-92876198D01*
X87590802Y-93117863D01*
X87874969Y-93307737D01*
X88190719Y-93438525D01*
X88525917Y-93505200D01*
X88867683Y-93505200D01*
X89202881Y-93438525D01*
X89518631Y-93307737D01*
X89802798Y-93117863D01*
X90044463Y-92876198D01*
X90234337Y-92592031D01*
X90365125Y-92276281D01*
X90431800Y-91941083D01*
X90431800Y-91599317D01*
X90365125Y-91264119D01*
X90234337Y-90948369D01*
X90044463Y-90664202D01*
X89802798Y-90422537D01*
X89518631Y-90232663D01*
X89202881Y-90101875D01*
X88867683Y-90035200D01*
X88525917Y-90035200D01*
X88190719Y-90101875D01*
X87874969Y-90232663D01*
X87590802Y-90422537D01*
X87349137Y-90664202D01*
X87159263Y-90948369D01*
X87028475Y-91264119D01*
X86961800Y-91599317D01*
X65838901Y-91599317D01*
X65838901Y-88950877D01*
X65842336Y-88916000D01*
X65828628Y-88776816D01*
X65788029Y-88642980D01*
X65722101Y-88519637D01*
X65633376Y-88411525D01*
X65525264Y-88322800D01*
X65401921Y-88256872D01*
X65268085Y-88216273D01*
X65163778Y-88206000D01*
X65128901Y-88202565D01*
X65094024Y-88206000D01*
X39446278Y-88206000D01*
X39411401Y-88202565D01*
X39376524Y-88206000D01*
X39272217Y-88216273D01*
X39138381Y-88256872D01*
X39015038Y-88322800D01*
X38906926Y-88411525D01*
X38818201Y-88519637D01*
X38752273Y-88642980D01*
X38711674Y-88776816D01*
X38697966Y-88916000D01*
X38701402Y-88950887D01*
X38701401Y-90357789D01*
X38692540Y-90448165D01*
X38676372Y-90501714D01*
X38650113Y-90551100D01*
X38614762Y-90594445D01*
X38571666Y-90630097D01*
X38522459Y-90656703D01*
X38469026Y-90673243D01*
X38380946Y-90682501D01*
X21396133Y-90682501D01*
X21305738Y-90673638D01*
X21252188Y-90657470D01*
X21202805Y-90631212D01*
X21159455Y-90595857D01*
X21123803Y-90552761D01*
X21097201Y-90503563D01*
X21080660Y-90450125D01*
X21071402Y-90362045D01*
X21071402Y-86925717D01*
X131792800Y-86925717D01*
X131792800Y-87267483D01*
X131859475Y-87602681D01*
X131990263Y-87918431D01*
X132180137Y-88202598D01*
X132421802Y-88444263D01*
X132705969Y-88634137D01*
X133021719Y-88764925D01*
X133356917Y-88831600D01*
X133698683Y-88831600D01*
X134033881Y-88764925D01*
X134349631Y-88634137D01*
X134633798Y-88444263D01*
X134875463Y-88202598D01*
X135065337Y-87918431D01*
X135196125Y-87602681D01*
X135262800Y-87267483D01*
X135262800Y-86925717D01*
X135196125Y-86590519D01*
X135065337Y-86274769D01*
X134875463Y-85990602D01*
X134633798Y-85748937D01*
X134349631Y-85559063D01*
X134033881Y-85428275D01*
X133698683Y-85361600D01*
X133356917Y-85361600D01*
X133021719Y-85428275D01*
X132705969Y-85559063D01*
X132421802Y-85748937D01*
X132180137Y-85990602D01*
X131990263Y-86274769D01*
X131859475Y-86590519D01*
X131792800Y-86925717D01*
X21071402Y-86925717D01*
X21071402Y-72168317D01*
X36843800Y-72168317D01*
X36843800Y-72510083D01*
X36910475Y-72845281D01*
X37041263Y-73161031D01*
X37231137Y-73445198D01*
X37472802Y-73686863D01*
X37756969Y-73876737D01*
X38072719Y-74007525D01*
X38407917Y-74074200D01*
X38749683Y-74074200D01*
X39084881Y-74007525D01*
X39400631Y-73876737D01*
X39684798Y-73686863D01*
X39926463Y-73445198D01*
X40116337Y-73161031D01*
X40247125Y-72845281D01*
X40313800Y-72510083D01*
X40313800Y-72168317D01*
X40247125Y-71833119D01*
X40116337Y-71517369D01*
X39926463Y-71233202D01*
X39684798Y-70991537D01*
X39400631Y-70801663D01*
X39084881Y-70670875D01*
X38749683Y-70604200D01*
X38407917Y-70604200D01*
X38072719Y-70670875D01*
X37756969Y-70801663D01*
X37472802Y-70991537D01*
X37231137Y-71233202D01*
X37041263Y-71517369D01*
X36910475Y-71833119D01*
X36843800Y-72168317D01*
X21071402Y-72168317D01*
X21071401Y-53143717D01*
X36843800Y-53143717D01*
X36843800Y-53485483D01*
X36910475Y-53820681D01*
X37041263Y-54136431D01*
X37231137Y-54420598D01*
X37472802Y-54662263D01*
X37756969Y-54852137D01*
X38072719Y-54982925D01*
X38407917Y-55049600D01*
X38749683Y-55049600D01*
X39084881Y-54982925D01*
X39400631Y-54852137D01*
X39684798Y-54662263D01*
X39926463Y-54420598D01*
X40116337Y-54136431D01*
X40247125Y-53820681D01*
X40313800Y-53485483D01*
X40313800Y-53143717D01*
X40247125Y-52808519D01*
X40116337Y-52492769D01*
X39926463Y-52208602D01*
X39684798Y-51966937D01*
X39400631Y-51777063D01*
X39084881Y-51646275D01*
X38749683Y-51579600D01*
X38407917Y-51579600D01*
X38072719Y-51646275D01*
X37756969Y-51777063D01*
X37472802Y-51966937D01*
X37231137Y-52208602D01*
X37041263Y-52492769D01*
X36910475Y-52808519D01*
X36843800Y-53143717D01*
X21071401Y-53143717D01*
X21071401Y-36735317D01*
X93993800Y-36735317D01*
X93993800Y-37077083D01*
X94060475Y-37412281D01*
X94191263Y-37728031D01*
X94381137Y-38012198D01*
X94622802Y-38253863D01*
X94906969Y-38443737D01*
X95222719Y-38574525D01*
X95557917Y-38641200D01*
X95899683Y-38641200D01*
X96234881Y-38574525D01*
X96550631Y-38443737D01*
X96834798Y-38253863D01*
X97076463Y-38012198D01*
X97266337Y-37728031D01*
X97397125Y-37412281D01*
X97463800Y-37077083D01*
X97463800Y-36735317D01*
X97397125Y-36400119D01*
X97266337Y-36084369D01*
X97076463Y-35800202D01*
X96834798Y-35558537D01*
X96550631Y-35368663D01*
X96234881Y-35237875D01*
X95899683Y-35171200D01*
X95557917Y-35171200D01*
X95222719Y-35237875D01*
X94906969Y-35368663D01*
X94622802Y-35558537D01*
X94381137Y-35800202D01*
X94191263Y-36084369D01*
X94060475Y-36400119D01*
X93993800Y-36735317D01*
X21071401Y-36735317D01*
X21071400Y-35277232D01*
X21080264Y-35186835D01*
X21096431Y-35133286D01*
X21122689Y-35083903D01*
X21158042Y-35040555D01*
X21201141Y-35004900D01*
X21250338Y-34978299D01*
X21303776Y-34961758D01*
X21391856Y-34952500D01*
X39376532Y-34952500D01*
X39411401Y-34955934D01*
X39446268Y-34952500D01*
X39446278Y-34952500D01*
X39550585Y-34942227D01*
X39684421Y-34901628D01*
X39807764Y-34835700D01*
X39915876Y-34746975D01*
X40004601Y-34638863D01*
X40070529Y-34515520D01*
X40111128Y-34381684D01*
X40124836Y-34242500D01*
X40121401Y-34207622D01*
X40121399Y-32800730D01*
X40130263Y-32710334D01*
X40146430Y-32656785D01*
X40172687Y-32607402D01*
X40208041Y-32564054D01*
X40251138Y-32528402D01*
X40300338Y-32501799D01*
X40353775Y-32485258D01*
X40441856Y-32476000D01*
X58426533Y-32476000D01*
X58461400Y-32479434D01*
X58496269Y-32476000D01*
X58496277Y-32476000D01*
X58600584Y-32465727D01*
X58734420Y-32425128D01*
X58857763Y-32359200D01*
X58965875Y-32270475D01*
X59054600Y-32162363D01*
X59120528Y-32039020D01*
X59161127Y-31905184D01*
X59174835Y-31766000D01*
X59171399Y-31731113D01*
X59171401Y-21370711D01*
X59180263Y-21280334D01*
X59196430Y-21226785D01*
X59222687Y-21177402D01*
X59258041Y-21134054D01*
X59301138Y-21098402D01*
X59350338Y-21071799D01*
X59403775Y-21055258D01*
X59491856Y-21046000D01*
X77476524Y-21046000D01*
X77511401Y-21049435D01*
X77546278Y-21046000D01*
X77650585Y-21035727D01*
X77784421Y-20995128D01*
X77907764Y-20929200D01*
X78015876Y-20840475D01*
X78104601Y-20732363D01*
X78170529Y-20609020D01*
X78211128Y-20475184D01*
X78224836Y-20336000D01*
X78221401Y-20301123D01*
X78221401Y-18894210D01*
X78230263Y-18803834D01*
X78246430Y-18750285D01*
X78272687Y-18700902D01*
X78308041Y-18657554D01*
X78351138Y-18621902D01*
X78400338Y-18595299D01*
X78453775Y-18578758D01*
X78541865Y-18569499D01*
X95526689Y-18569501D01*
G37*
%TD.AperFunction*%
M02*
