%TF.GenerationSoftware,KiCad,Pcbnew,(5.1.10)-1*%
%TF.CreationDate,2021-08-29T08:27:15+09:00*%
%TF.ProjectId,top_pcb,746f705f-7063-4622-9e6b-696361645f70,rev?*%
%TF.SameCoordinates,Original*%
%TF.FileFunction,Profile,NP*%
%FSLAX46Y46*%
G04 Gerber Fmt 4.6, Leading zero omitted, Abs format (unit mm)*
G04 Created by KiCad (PCBNEW (5.1.10)-1) date 2021-08-29 08:27:15*
%MOMM*%
%LPD*%
G01*
G04 APERTURE LIST*
%TA.AperFunction,Profile*%
%ADD10C,0.200000*%
%TD*%
%TA.AperFunction,Profile*%
%ADD11C,0.120000*%
%TD*%
G04 APERTURE END LIST*
D10*
X112877600Y-21069300D02*
X130924792Y-21071710D01*
X108204794Y-99814670D02*
X143479197Y-107780983D01*
X155185980Y-81233693D02*
X135582005Y-74098430D01*
X134924763Y-25722094D02*
X134924026Y-39338911D01*
X131923584Y-44338911D02*
X131921945Y-74621412D01*
X135924763Y-24722148D02*
X155528000Y-24722148D01*
X144639100Y-107147550D02*
G75*
G02*
X143479197Y-107780983I-939693J342020D01*
G01*
X131924790Y-22071763D02*
X131923855Y-39338911D01*
X134924546Y-44338911D02*
X134922985Y-73158737D01*
X152665482Y-82171442D02*
G75*
G02*
X153263155Y-83453155I-342020J-939693D01*
G01*
X156528000Y-80294000D02*
X156528000Y-25722148D01*
X134924763Y-25722094D02*
G75*
G02*
X135924763Y-24722148I1000000J-54D01*
G01*
X130924791Y-21071709D02*
G75*
G02*
X131924790Y-22071763I-1J-1000000D01*
G01*
X131923584Y-44338911D02*
X134924546Y-44338911D01*
X131923855Y-39338911D02*
X134924026Y-39338911D01*
X155528000Y-24722148D02*
G75*
G02*
X156528000Y-25722148I0J-1000000D01*
G01*
X152665483Y-82171443D02*
X131921945Y-74621412D01*
X135582006Y-74098430D02*
G75*
G02*
X134924026Y-73158737I342020J939693D01*
G01*
X144639100Y-107147551D02*
X153263155Y-83453155D01*
X156528000Y-80294000D02*
G75*
G02*
X155185980Y-81233693I-1000000J0D01*
G01*
X17627600Y-33499300D02*
X17627601Y-88649300D01*
X17627600Y-33499300D02*
G75*
G02*
X18627600Y-32499300I1000000J0D01*
G01*
X36677600Y-88649300D02*
X36677600Y-87172800D01*
X62395100Y-87172800D02*
X62395100Y-98556177D01*
X36677600Y-87172800D02*
X55727599Y-87172800D01*
X35677600Y-89649301D02*
X18627600Y-89649301D01*
X55727600Y-19592800D02*
X55727599Y-30022800D01*
X74777600Y-18592800D02*
X56727600Y-18592800D01*
X55727599Y-87172800D02*
X62395100Y-87172800D01*
X93827600Y-18592800D02*
X93827600Y-17116300D01*
X93827600Y-18592800D02*
X111877600Y-18592800D01*
X55727599Y-30022800D02*
X37677600Y-30022800D01*
X92827600Y-16116300D02*
G75*
G02*
X93827600Y-17116300I0J-1000000D01*
G01*
X36677599Y-31022799D02*
G75*
G02*
X37677600Y-30022800I1000000J-1D01*
G01*
X18627601Y-89649300D02*
G75*
G02*
X17627601Y-88649300I0J1000000D01*
G01*
X36677600Y-32499300D02*
X36677599Y-31022800D01*
X55727599Y-19592799D02*
G75*
G02*
X56727600Y-18592800I1000000J-1D01*
G01*
X63394223Y-99556177D02*
G75*
G02*
X62395100Y-98556177I877J1000000D01*
G01*
X74777599Y-17116299D02*
G75*
G02*
X75777600Y-16116300I1000000J-1D01*
G01*
X111877600Y-18592800D02*
G75*
G02*
X112877600Y-19592800I0J-1000000D01*
G01*
X112877600Y-21069300D02*
X112877600Y-19592800D01*
X36677600Y-32499300D02*
X18627600Y-32499300D01*
X63394222Y-99556177D02*
X106230792Y-99593745D01*
X36677601Y-88649300D02*
G75*
G02*
X35677600Y-89649301I-1000001J0D01*
G01*
X74777600Y-18592800D02*
X74777600Y-17116300D01*
X92827600Y-16116301D02*
X75777600Y-16116300D01*
X106230792Y-99593744D02*
G75*
G02*
X108204794Y-99814670I-7893J-8999996D01*
G01*
D11*
%TO.C,SW7*%
X72227200Y-21092400D02*
X58227200Y-21092400D01*
X72227200Y-35092400D02*
X72227200Y-21092400D01*
X58227200Y-35092400D02*
X72227200Y-35092400D01*
X58227200Y-21092400D02*
X58227200Y-35092400D01*
%TO.C,SW10*%
X67244200Y-97042600D02*
X81244200Y-97042600D01*
X67244200Y-83042600D02*
X67244200Y-97042600D01*
X81244200Y-83042600D02*
X67244200Y-83042600D01*
X81244200Y-97042600D02*
X81244200Y-83042600D01*
%TO.C,SW22*%
X143527907Y-102469589D02*
X148316189Y-89313893D01*
X130372211Y-97681307D02*
X143527907Y-102469589D01*
X135160493Y-84525611D02*
X130372211Y-97681307D01*
X148316189Y-89313893D02*
X135160493Y-84525611D01*
%TO.C,SW9*%
X72227200Y-59294000D02*
X58227200Y-59294000D01*
X72227200Y-73294000D02*
X72227200Y-59294000D01*
X58227200Y-73294000D02*
X72227200Y-73294000D01*
X58227200Y-59294000D02*
X58227200Y-73294000D01*
%TO.C,SW4*%
X53177200Y-32522400D02*
X39177200Y-32522400D01*
X53177200Y-46522400D02*
X53177200Y-32522400D01*
X39177200Y-46522400D02*
X53177200Y-46522400D01*
X39177200Y-32522400D02*
X39177200Y-46522400D01*
%TO.C,SW21*%
X129377200Y-61656200D02*
X115377200Y-61656200D01*
X129377200Y-75656200D02*
X129377200Y-61656200D01*
X115377200Y-75656200D02*
X129377200Y-75656200D01*
X115377200Y-61656200D02*
X115377200Y-75656200D01*
%TO.C,SW13*%
X91277200Y-56754000D02*
X77277200Y-56754000D01*
X91277200Y-70754000D02*
X91277200Y-56754000D01*
X77277200Y-70754000D02*
X91277200Y-70754000D01*
X77277200Y-56754000D02*
X77277200Y-70754000D01*
%TO.C,SW16*%
X110327200Y-40167800D02*
X96327200Y-40167800D01*
X110327200Y-54167800D02*
X110327200Y-40167800D01*
X96327200Y-54167800D02*
X110327200Y-54167800D01*
X96327200Y-40167800D02*
X96327200Y-54167800D01*
%TO.C,SW8*%
X72227200Y-40167800D02*
X58227200Y-40167800D01*
X72227200Y-54167800D02*
X72227200Y-40167800D01*
X58227200Y-54167800D02*
X72227200Y-54167800D01*
X58227200Y-40167800D02*
X58227200Y-54167800D01*
%TO.C,SW5*%
X53177200Y-51597800D02*
X39177200Y-51597800D01*
X53177200Y-65597800D02*
X53177200Y-51597800D01*
X39177200Y-65597800D02*
X53177200Y-65597800D01*
X39177200Y-51597800D02*
X39177200Y-65597800D01*
%TO.C,SW12*%
X91277200Y-37704000D02*
X77277200Y-37704000D01*
X91277200Y-51704000D02*
X91277200Y-37704000D01*
X77277200Y-51704000D02*
X91277200Y-51704000D01*
X77277200Y-37704000D02*
X77277200Y-51704000D01*
%TO.C,SW14*%
X90612200Y-97017600D02*
X104612200Y-97017600D01*
X90612200Y-83017600D02*
X90612200Y-97017600D01*
X104612200Y-83017600D02*
X90612200Y-83017600D01*
X104612200Y-97017600D02*
X104612200Y-83017600D01*
%TO.C,SW11*%
X91277200Y-18679400D02*
X77277200Y-18679400D01*
X91277200Y-32679400D02*
X91277200Y-18679400D01*
X77277200Y-32679400D02*
X91277200Y-32679400D01*
X77277200Y-18679400D02*
X77277200Y-32679400D01*
%TO.C,SW19*%
X129377200Y-23530800D02*
X115377200Y-23530800D01*
X129377200Y-37530800D02*
X129377200Y-23530800D01*
X115377200Y-37530800D02*
X129377200Y-37530800D01*
X115377200Y-23530800D02*
X115377200Y-37530800D01*
%TO.C,SW15*%
X110327200Y-21117800D02*
X96327200Y-21117800D01*
X110327200Y-35117800D02*
X110327200Y-21117800D01*
X96327200Y-35117800D02*
X110327200Y-35117800D01*
X96327200Y-21117800D02*
X96327200Y-35117800D01*
%TO.C,SW20*%
X129377200Y-42657000D02*
X115377200Y-42657000D01*
X129377200Y-56657000D02*
X129377200Y-42657000D01*
X115377200Y-56657000D02*
X129377200Y-56657000D01*
X115377200Y-42657000D02*
X115377200Y-56657000D01*
%TO.C,SW17*%
X110327200Y-59243200D02*
X96327200Y-59243200D01*
X110327200Y-73243200D02*
X110327200Y-59243200D01*
X96327200Y-73243200D02*
X110327200Y-73243200D01*
X96327200Y-59243200D02*
X96327200Y-73243200D01*
%TO.C,SW6*%
X53177200Y-70622400D02*
X39177200Y-70622400D01*
X53177200Y-84622400D02*
X53177200Y-70622400D01*
X39177200Y-84622400D02*
X53177200Y-84622400D01*
X39177200Y-70622400D02*
X39177200Y-84622400D01*
%TO.C,SW18*%
X110102008Y-97524717D02*
X123889317Y-99955792D01*
X112533083Y-83737408D02*
X110102008Y-97524717D01*
X126320392Y-86168483D02*
X112533083Y-83737408D01*
X123889317Y-99955792D02*
X126320392Y-86168483D01*
%TO.C,SW3*%
X34127200Y-73111600D02*
X20127200Y-73111600D01*
X34127200Y-87111600D02*
X34127200Y-73111600D01*
X20127200Y-87111600D02*
X34127200Y-87111600D01*
X20127200Y-73111600D02*
X20127200Y-87111600D01*
%TO.C,SW2*%
X34127200Y-54061600D02*
X20127200Y-54061600D01*
X34127200Y-68061600D02*
X34127200Y-54061600D01*
X20127200Y-68061600D02*
X34127200Y-68061600D01*
X20127200Y-54061600D02*
X20127200Y-68061600D01*
%TO.C,SW1*%
X34127200Y-35011600D02*
X20127200Y-35011600D01*
X34127200Y-49011600D02*
X34127200Y-35011600D01*
X20127200Y-49011600D02*
X34127200Y-49011600D01*
X20127200Y-35011600D02*
X20127200Y-49011600D01*
%TD*%
M02*
