%TF.GenerationSoftware,KiCad,Pcbnew,(5.1.10)-1*%
%TF.CreationDate,2021-08-29T08:27:15+09:00*%
%TF.ProjectId,top_pcb,746f705f-7063-4622-9e6b-696361645f70,rev?*%
%TF.SameCoordinates,Original*%
%TF.FileFunction,Copper,L1,Top*%
%TF.FilePolarity,Positive*%
%FSLAX46Y46*%
G04 Gerber Fmt 4.6, Leading zero omitted, Abs format (unit mm)*
G04 Created by KiCad (PCBNEW (5.1.10)-1) date 2021-08-29 08:27:15*
%MOMM*%
%LPD*%
G01*
G04 APERTURE LIST*
%TA.AperFunction,ComponentPad*%
%ADD10O,16.000000X2.000000*%
%TD*%
%TA.AperFunction,ComponentPad*%
%ADD11O,2.000000X16.000000*%
%TD*%
%TA.AperFunction,NonConductor*%
%ADD12C,0.254000*%
%TD*%
%TA.AperFunction,NonConductor*%
%ADD13C,0.100000*%
%TD*%
G04 APERTURE END LIST*
D10*
%TO.P,SW7,*%
%TO.N,*%
X65227200Y-35092400D03*
X65227200Y-21092400D03*
D11*
X72227200Y-28092400D03*
X58227200Y-28092400D03*
%TD*%
D10*
%TO.P,SW10,*%
%TO.N,*%
X74244200Y-83042600D03*
X74244200Y-97042600D03*
D11*
X67244200Y-90042600D03*
X81244200Y-90042600D03*
%TD*%
%TO.P,SW22,*%
%TO.N,*%
%TA.AperFunction,ComponentPad*%
G36*
G01*
X129432518Y-97339287D02*
X134220800Y-84183591D01*
G75*
G02*
X135502513Y-83585918I939693J-342020D01*
G01*
X135502513Y-83585918D01*
G75*
G02*
X136100186Y-84867631I-342020J-939693D01*
G01*
X131311904Y-98023327D01*
G75*
G02*
X130030191Y-98621000I-939693J342020D01*
G01*
X130030191Y-98621000D01*
G75*
G02*
X129432518Y-97339287I342020J939693D01*
G01*
G37*
%TD.AperFunction*%
%TA.AperFunction,ComponentPad*%
G36*
G01*
X142588214Y-102127569D02*
X147376496Y-88971873D01*
G75*
G02*
X148658209Y-88374200I939693J-342020D01*
G01*
X148658209Y-88374200D01*
G75*
G02*
X149255882Y-89655913I-342020J-939693D01*
G01*
X144467600Y-102811609D01*
G75*
G02*
X143185887Y-103409282I-939693J342020D01*
G01*
X143185887Y-103409282D01*
G75*
G02*
X142588214Y-102127569I342020J939693D01*
G01*
G37*
%TD.AperFunction*%
%TA.AperFunction,ComponentPad*%
G36*
G01*
X130714231Y-96741614D02*
X143869927Y-101529896D01*
G75*
G02*
X144467600Y-102811609I-342020J-939693D01*
G01*
X144467600Y-102811609D01*
G75*
G02*
X143185887Y-103409282I-939693J342020D01*
G01*
X130030191Y-98621000D01*
G75*
G02*
X129432518Y-97339287I342020J939693D01*
G01*
X129432518Y-97339287D01*
G75*
G02*
X130714231Y-96741614I939693J-342020D01*
G01*
G37*
%TD.AperFunction*%
%TA.AperFunction,ComponentPad*%
G36*
G01*
X135502513Y-83585918D02*
X148658209Y-88374200D01*
G75*
G02*
X149255882Y-89655913I-342020J-939693D01*
G01*
X149255882Y-89655913D01*
G75*
G02*
X147974169Y-90253586I-939693J342020D01*
G01*
X134818473Y-85465304D01*
G75*
G02*
X134220800Y-84183591I342020J939693D01*
G01*
X134220800Y-84183591D01*
G75*
G02*
X135502513Y-83585918I939693J-342020D01*
G01*
G37*
%TD.AperFunction*%
%TD*%
D10*
%TO.P,SW9,*%
%TO.N,*%
X65227200Y-73294000D03*
X65227200Y-59294000D03*
D11*
X72227200Y-66294000D03*
X58227200Y-66294000D03*
%TD*%
D10*
%TO.P,SW4,*%
%TO.N,*%
X46177200Y-46522400D03*
X46177200Y-32522400D03*
D11*
X53177200Y-39522400D03*
X39177200Y-39522400D03*
%TD*%
D10*
%TO.P,SW21,*%
%TO.N,*%
X122377200Y-75656200D03*
X122377200Y-61656200D03*
D11*
X129377200Y-68656200D03*
X115377200Y-68656200D03*
%TD*%
D10*
%TO.P,SW13,*%
%TO.N,*%
X84277200Y-70754000D03*
X84277200Y-56754000D03*
D11*
X91277200Y-63754000D03*
X77277200Y-63754000D03*
%TD*%
D10*
%TO.P,SW16,*%
%TO.N,*%
X103327200Y-54167800D03*
X103327200Y-40167800D03*
D11*
X110327200Y-47167800D03*
X96327200Y-47167800D03*
%TD*%
D10*
%TO.P,SW8,*%
%TO.N,*%
X65227200Y-54167800D03*
X65227200Y-40167800D03*
D11*
X72227200Y-47167800D03*
X58227200Y-47167800D03*
%TD*%
D10*
%TO.P,SW5,*%
%TO.N,*%
X46177200Y-65597800D03*
X46177200Y-51597800D03*
D11*
X53177200Y-58597800D03*
X39177200Y-58597800D03*
%TD*%
D10*
%TO.P,SW12,*%
%TO.N,*%
X84277200Y-51704000D03*
X84277200Y-37704000D03*
D11*
X91277200Y-44704000D03*
X77277200Y-44704000D03*
%TD*%
D10*
%TO.P,SW14,*%
%TO.N,*%
X97612200Y-83017600D03*
X97612200Y-97017600D03*
D11*
X90612200Y-90017600D03*
X104612200Y-90017600D03*
%TD*%
D10*
%TO.P,SW11,*%
%TO.N,*%
X84277200Y-32679400D03*
X84277200Y-18679400D03*
D11*
X91277200Y-25679400D03*
X77277200Y-25679400D03*
%TD*%
D10*
%TO.P,SW19,*%
%TO.N,*%
X122377200Y-37530800D03*
X122377200Y-23530800D03*
D11*
X129377200Y-30530800D03*
X115377200Y-30530800D03*
%TD*%
D10*
%TO.P,SW15,*%
%TO.N,*%
X103327200Y-35117800D03*
X103327200Y-21117800D03*
D11*
X110327200Y-28117800D03*
X96327200Y-28117800D03*
%TD*%
D10*
%TO.P,SW20,*%
%TO.N,*%
X122377200Y-56657000D03*
X122377200Y-42657000D03*
D11*
X129377200Y-49657000D03*
X115377200Y-49657000D03*
%TD*%
D10*
%TO.P,SW17,*%
%TO.N,*%
X103327200Y-73243200D03*
X103327200Y-59243200D03*
D11*
X110327200Y-66243200D03*
X96327200Y-66243200D03*
%TD*%
D10*
%TO.P,SW6,*%
%TO.N,*%
X46177200Y-84622400D03*
X46177200Y-70622400D03*
D11*
X53177200Y-77622400D03*
X39177200Y-77622400D03*
%TD*%
%TO.P,SW18,*%
%TO.N,*%
%TA.AperFunction,ComponentPad*%
G36*
G01*
X112706731Y-82752601D02*
X126494039Y-85183675D01*
G75*
G02*
X127305199Y-86342131I-173648J-984808D01*
G01*
X127305199Y-86342131D01*
G75*
G02*
X126146743Y-87153291I-984808J173648D01*
G01*
X112359435Y-84722217D01*
G75*
G02*
X111548275Y-83563761I173648J984808D01*
G01*
X111548275Y-83563761D01*
G75*
G02*
X112706731Y-82752601I984808J-173648D01*
G01*
G37*
%TD.AperFunction*%
%TA.AperFunction,ComponentPad*%
G36*
G01*
X110275657Y-96539909D02*
X124062965Y-98970983D01*
G75*
G02*
X124874125Y-100129439I-173648J-984808D01*
G01*
X124874125Y-100129439D01*
G75*
G02*
X123715669Y-100940599I-984808J173648D01*
G01*
X109928361Y-98509525D01*
G75*
G02*
X109117201Y-97351069I173648J984808D01*
G01*
X109117201Y-97351069D01*
G75*
G02*
X110275657Y-96539909I984808J-173648D01*
G01*
G37*
%TD.AperFunction*%
%TA.AperFunction,ComponentPad*%
G36*
G01*
X113517891Y-83911057D02*
X111086817Y-97698365D01*
G75*
G02*
X109928361Y-98509525I-984808J173648D01*
G01*
X109928361Y-98509525D01*
G75*
G02*
X109117201Y-97351069I173648J984808D01*
G01*
X111548275Y-83563761D01*
G75*
G02*
X112706731Y-82752601I984808J-173648D01*
G01*
X112706731Y-82752601D01*
G75*
G02*
X113517891Y-83911057I-173648J-984808D01*
G01*
G37*
%TD.AperFunction*%
%TA.AperFunction,ComponentPad*%
G36*
G01*
X127305199Y-86342131D02*
X124874125Y-100129439D01*
G75*
G02*
X123715669Y-100940599I-984808J173648D01*
G01*
X123715669Y-100940599D01*
G75*
G02*
X122904509Y-99782143I173648J984808D01*
G01*
X125335583Y-85994835D01*
G75*
G02*
X126494039Y-85183675I984808J-173648D01*
G01*
X126494039Y-85183675D01*
G75*
G02*
X127305199Y-86342131I-173648J-984808D01*
G01*
G37*
%TD.AperFunction*%
%TD*%
D10*
%TO.P,SW3,*%
%TO.N,*%
X27127200Y-87111600D03*
X27127200Y-73111600D03*
D11*
X34127200Y-80111600D03*
X20127200Y-80111600D03*
%TD*%
D10*
%TO.P,SW2,*%
%TO.N,*%
X27127200Y-68061600D03*
X27127200Y-54061600D03*
D11*
X34127200Y-61061600D03*
X20127200Y-61061600D03*
%TD*%
D10*
%TO.P,SW1,*%
%TO.N,*%
X27127200Y-49011600D03*
X27127200Y-35011600D03*
D11*
X34127200Y-42011600D03*
X20127200Y-42011600D03*
%TD*%
D12*
X92791663Y-16851301D02*
X92878387Y-16859804D01*
X92927240Y-16874554D01*
X92972299Y-16898512D01*
X93011845Y-16930766D01*
X93044374Y-16970086D01*
X93068643Y-17014970D01*
X93083735Y-17063727D01*
X93092601Y-17148073D01*
X93092600Y-18556695D01*
X93089044Y-18592800D01*
X93103235Y-18736885D01*
X93145263Y-18875433D01*
X93213513Y-19003120D01*
X93305362Y-19115038D01*
X93413269Y-19203595D01*
X93417280Y-19206887D01*
X93544967Y-19275137D01*
X93683515Y-19317165D01*
X93827600Y-19331356D01*
X93863705Y-19327800D01*
X111841653Y-19327800D01*
X111928387Y-19336304D01*
X111977240Y-19351054D01*
X112022299Y-19375012D01*
X112061845Y-19407266D01*
X112094374Y-19446586D01*
X112118643Y-19491470D01*
X112133735Y-19540227D01*
X112142601Y-19624573D01*
X112142600Y-21033155D01*
X112139045Y-21069202D01*
X112142600Y-21105348D01*
X112142600Y-21105404D01*
X112145923Y-21139139D01*
X112153216Y-21213288D01*
X112153230Y-21213335D01*
X112153235Y-21213384D01*
X112175002Y-21285141D01*
X112195226Y-21351841D01*
X112195248Y-21351882D01*
X112195263Y-21351932D01*
X112231642Y-21419993D01*
X112263459Y-21479537D01*
X112263488Y-21479573D01*
X112263513Y-21479619D01*
X112311027Y-21537515D01*
X112355293Y-21591468D01*
X112355331Y-21591499D01*
X112355362Y-21591537D01*
X112411417Y-21637541D01*
X112467198Y-21683332D01*
X112467241Y-21683355D01*
X112467280Y-21683387D01*
X112532588Y-21718295D01*
X112594876Y-21751599D01*
X112594922Y-21751613D01*
X112594967Y-21751637D01*
X112668670Y-21773995D01*
X112733419Y-21793645D01*
X112733464Y-21793649D01*
X112733515Y-21793665D01*
X112808350Y-21801036D01*
X112841397Y-21804295D01*
X112841444Y-21804295D01*
X112877600Y-21807856D01*
X112913658Y-21804305D01*
X130888797Y-21806704D01*
X130975578Y-21815213D01*
X131024432Y-21829964D01*
X131069486Y-21853919D01*
X131109034Y-21886174D01*
X131141563Y-21925494D01*
X131165835Y-21970385D01*
X131180925Y-22019134D01*
X131189788Y-22103458D01*
X131188858Y-39302776D01*
X131185299Y-39338911D01*
X131194063Y-39427892D01*
X131199483Y-39482956D01*
X131199488Y-39482971D01*
X131199490Y-39482996D01*
X131222346Y-39558342D01*
X131241503Y-39621507D01*
X131241512Y-39621523D01*
X131241518Y-39621544D01*
X131279393Y-39692403D01*
X131309746Y-39749197D01*
X131309757Y-39749210D01*
X131309768Y-39749231D01*
X131363408Y-39814591D01*
X131401589Y-39861120D01*
X131401602Y-39861131D01*
X131401617Y-39861149D01*
X131468281Y-39915859D01*
X131513502Y-39952975D01*
X131513516Y-39952983D01*
X131513535Y-39952998D01*
X131593066Y-39995508D01*
X131641186Y-40021232D01*
X131641200Y-40021236D01*
X131641222Y-40021248D01*
X131720169Y-40045196D01*
X131779731Y-40063268D01*
X131779750Y-40063270D01*
X131779770Y-40063276D01*
X131865312Y-40071701D01*
X131923816Y-40077466D01*
X131935000Y-40076365D01*
X131935000Y-40096066D01*
X131965167Y-40247726D01*
X131993292Y-40315625D01*
X131965167Y-40383524D01*
X131935000Y-40535184D01*
X131935000Y-40689816D01*
X131965167Y-40841476D01*
X131993292Y-40909375D01*
X131965167Y-40977274D01*
X131935000Y-41128934D01*
X131935000Y-41283566D01*
X131965167Y-41435226D01*
X131993292Y-41503125D01*
X131965167Y-41571024D01*
X131935000Y-41722684D01*
X131935000Y-41877316D01*
X131965167Y-42028976D01*
X131993292Y-42096875D01*
X131965167Y-42164774D01*
X131935000Y-42316434D01*
X131935000Y-42471066D01*
X131965167Y-42622726D01*
X131993292Y-42690625D01*
X131965167Y-42758524D01*
X131935000Y-42910184D01*
X131935000Y-43064816D01*
X131965167Y-43216476D01*
X131993292Y-43284375D01*
X131965167Y-43352274D01*
X131935000Y-43503934D01*
X131935000Y-43601477D01*
X131923623Y-43600356D01*
X131887508Y-43603911D01*
X131887479Y-43603911D01*
X131835358Y-43609044D01*
X131779539Y-43614539D01*
X131779524Y-43614544D01*
X131779499Y-43614546D01*
X131699708Y-43638750D01*
X131640988Y-43656559D01*
X131640972Y-43656568D01*
X131640951Y-43656574D01*
X131570092Y-43694449D01*
X131513298Y-43724802D01*
X131513285Y-43724813D01*
X131513264Y-43724824D01*
X131447904Y-43778464D01*
X131401375Y-43816645D01*
X131401364Y-43816658D01*
X131401346Y-43816673D01*
X131346636Y-43883337D01*
X131309520Y-43928558D01*
X131309512Y-43928572D01*
X131309497Y-43928591D01*
X131266987Y-44008122D01*
X131241263Y-44056242D01*
X131241259Y-44056256D01*
X131241247Y-44056278D01*
X131217299Y-44135225D01*
X131199227Y-44194787D01*
X131199225Y-44194806D01*
X131199219Y-44194826D01*
X131191978Y-44268343D01*
X131188586Y-44302767D01*
X131188586Y-44302786D01*
X131185028Y-44338911D01*
X131188582Y-44374997D01*
X131186947Y-74601335D01*
X131184092Y-74653627D01*
X131192056Y-74709408D01*
X131197573Y-74765457D01*
X131202268Y-74780938D01*
X131204555Y-74796956D01*
X131223244Y-74850100D01*
X131239593Y-74904008D01*
X131247219Y-74918277D01*
X131252586Y-74933539D01*
X131281282Y-74982013D01*
X131307836Y-75031698D01*
X131318100Y-75044206D01*
X131326341Y-75058127D01*
X131363943Y-75100072D01*
X131399679Y-75143621D01*
X131412184Y-75153885D01*
X131422984Y-75165932D01*
X131468049Y-75199737D01*
X131511592Y-75235476D01*
X131525859Y-75243103D01*
X131538802Y-75252812D01*
X131589602Y-75277179D01*
X131639276Y-75303733D01*
X131689376Y-75318934D01*
X152380315Y-82849821D01*
X152458916Y-82887480D01*
X152499776Y-82918047D01*
X152533922Y-82955970D01*
X152560052Y-82999804D01*
X152577171Y-83047878D01*
X152584625Y-83098359D01*
X152582132Y-83149336D01*
X152561617Y-83231618D01*
X143960725Y-106862378D01*
X143923064Y-106940981D01*
X143892496Y-106981843D01*
X143854571Y-107015991D01*
X143810739Y-107042120D01*
X143762663Y-107059239D01*
X143712183Y-107066693D01*
X143639021Y-107063115D01*
X143627563Y-107060979D01*
X108331489Y-99089773D01*
X108315313Y-99087758D01*
X107551008Y-98950433D01*
X107543759Y-98949622D01*
X107536645Y-98947999D01*
X107470384Y-98940508D01*
X106291815Y-98861189D01*
X106267541Y-98858777D01*
X63430818Y-98821209D01*
X63344087Y-98812628D01*
X63295249Y-98797837D01*
X63250209Y-98773838D01*
X63210691Y-98741550D01*
X63178198Y-98702201D01*
X63153965Y-98657290D01*
X63138919Y-98608533D01*
X63130100Y-98523909D01*
X63130100Y-87208905D01*
X63133656Y-87172800D01*
X63119465Y-87028715D01*
X63077437Y-86890167D01*
X63009187Y-86762480D01*
X62917338Y-86650562D01*
X62805420Y-86558713D01*
X62677733Y-86490463D01*
X62539185Y-86448435D01*
X62431205Y-86437800D01*
X62395100Y-86434244D01*
X62358995Y-86437800D01*
X36713705Y-86437800D01*
X36677600Y-86434244D01*
X36641495Y-86437800D01*
X36533515Y-86448435D01*
X36394967Y-86490463D01*
X36267280Y-86558713D01*
X36155362Y-86650562D01*
X36063513Y-86762480D01*
X35995263Y-86890167D01*
X35953235Y-87028715D01*
X35939044Y-87172800D01*
X35942601Y-87208915D01*
X35942600Y-88613364D01*
X35934097Y-88700087D01*
X35919347Y-88748941D01*
X35895390Y-88793997D01*
X35863135Y-88833546D01*
X35823816Y-88866073D01*
X35778925Y-88890345D01*
X35730173Y-88905436D01*
X35645835Y-88914301D01*
X18663558Y-88914301D01*
X18576815Y-88905796D01*
X18527961Y-88891046D01*
X18482902Y-88867088D01*
X18443355Y-88834834D01*
X18410828Y-88795515D01*
X18386558Y-88750629D01*
X18371466Y-88701873D01*
X18362601Y-88617535D01*
X18362600Y-35011600D01*
X18484289Y-35011600D01*
X18492200Y-35091922D01*
X18492201Y-48931268D01*
X18484289Y-49011600D01*
X18515857Y-49332116D01*
X18609348Y-49640315D01*
X18761169Y-49924352D01*
X18965486Y-50173314D01*
X19214448Y-50377631D01*
X19498485Y-50529452D01*
X19806684Y-50622943D01*
X20046878Y-50646600D01*
X20127200Y-50654511D01*
X20207522Y-50646600D01*
X34046878Y-50646600D01*
X34127200Y-50654511D01*
X34371366Y-50630463D01*
X34298063Y-50740169D01*
X34167275Y-51055919D01*
X34100600Y-51391117D01*
X34100600Y-51732883D01*
X34167275Y-52068081D01*
X34298063Y-52383831D01*
X34335032Y-52439159D01*
X34207522Y-52426600D01*
X34127200Y-52418689D01*
X34046878Y-52426600D01*
X20207522Y-52426600D01*
X20127200Y-52418689D01*
X20046878Y-52426600D01*
X19806684Y-52450257D01*
X19498485Y-52543748D01*
X19214448Y-52695569D01*
X18965486Y-52899886D01*
X18761169Y-53148848D01*
X18609348Y-53432885D01*
X18515857Y-53741084D01*
X18484289Y-54061600D01*
X18492200Y-54141922D01*
X18492201Y-67981268D01*
X18484289Y-68061600D01*
X18515857Y-68382116D01*
X18609348Y-68690315D01*
X18761169Y-68974352D01*
X18965486Y-69223314D01*
X19214448Y-69427631D01*
X19498485Y-69579452D01*
X19806684Y-69672943D01*
X20046878Y-69696600D01*
X20127200Y-69704511D01*
X20207522Y-69696600D01*
X34046878Y-69696600D01*
X34127200Y-69704511D01*
X34326010Y-69684930D01*
X34272663Y-69764769D01*
X34141875Y-70080519D01*
X34075200Y-70415717D01*
X34075200Y-70757483D01*
X34141875Y-71092681D01*
X34272663Y-71408431D01*
X34326010Y-71488270D01*
X34207522Y-71476600D01*
X34127200Y-71468689D01*
X34046878Y-71476600D01*
X20207522Y-71476600D01*
X20127200Y-71468689D01*
X20046878Y-71476600D01*
X19806684Y-71500257D01*
X19498485Y-71593748D01*
X19214448Y-71745569D01*
X18965486Y-71949886D01*
X18761169Y-72198848D01*
X18609348Y-72482885D01*
X18515857Y-72791084D01*
X18484289Y-73111600D01*
X18492200Y-73191922D01*
X18492201Y-87031268D01*
X18484289Y-87111600D01*
X18515857Y-87432116D01*
X18609348Y-87740315D01*
X18761169Y-88024352D01*
X18965486Y-88273314D01*
X19214448Y-88477631D01*
X19498485Y-88629452D01*
X19806684Y-88722943D01*
X20046878Y-88746600D01*
X20127200Y-88754511D01*
X20207522Y-88746600D01*
X34046878Y-88746600D01*
X34127200Y-88754511D01*
X34447716Y-88722943D01*
X34755915Y-88629452D01*
X35039952Y-88477631D01*
X35288914Y-88273314D01*
X35493231Y-88024352D01*
X35645052Y-87740315D01*
X35738543Y-87432116D01*
X35762200Y-87191922D01*
X35770111Y-87111600D01*
X35762200Y-87031278D01*
X35762200Y-73191922D01*
X35770111Y-73111600D01*
X35738543Y-72791084D01*
X35645052Y-72482885D01*
X35549269Y-72303688D01*
X35639317Y-72321600D01*
X35981083Y-72321600D01*
X36316281Y-72254925D01*
X36632031Y-72124137D01*
X36916198Y-71934263D01*
X37157863Y-71692598D01*
X37347737Y-71408431D01*
X37478525Y-71092681D01*
X37542200Y-70772565D01*
X37542201Y-84542068D01*
X37534289Y-84622400D01*
X37565857Y-84942916D01*
X37659348Y-85251115D01*
X37811169Y-85535152D01*
X38015486Y-85784114D01*
X38264448Y-85988431D01*
X38548485Y-86140252D01*
X38856684Y-86233743D01*
X39096878Y-86257400D01*
X39177200Y-86265311D01*
X39257522Y-86257400D01*
X53096878Y-86257400D01*
X53177200Y-86265311D01*
X53497716Y-86233743D01*
X53805915Y-86140252D01*
X54089952Y-85988431D01*
X54338914Y-85784114D01*
X54543231Y-85535152D01*
X54695052Y-85251115D01*
X54788543Y-84942916D01*
X54812200Y-84702722D01*
X54820111Y-84622400D01*
X54812200Y-84542078D01*
X54812200Y-83042600D01*
X65601289Y-83042600D01*
X65609201Y-83122932D01*
X65609200Y-96962278D01*
X65601289Y-97042600D01*
X65632857Y-97363116D01*
X65726348Y-97671315D01*
X65878169Y-97955352D01*
X66081596Y-98203230D01*
X66082486Y-98204314D01*
X66331448Y-98408631D01*
X66615485Y-98560452D01*
X66923684Y-98653943D01*
X67244200Y-98685511D01*
X67324522Y-98677600D01*
X81163878Y-98677600D01*
X81244200Y-98685511D01*
X81324522Y-98677600D01*
X81564716Y-98653943D01*
X81872915Y-98560452D01*
X82156952Y-98408631D01*
X82405914Y-98204314D01*
X82610231Y-97955352D01*
X82762052Y-97671315D01*
X82855543Y-97363116D01*
X82887111Y-97042600D01*
X82879200Y-96962278D01*
X82879200Y-89846717D01*
X84244000Y-89846717D01*
X84244000Y-90188483D01*
X84310675Y-90523681D01*
X84441463Y-90839431D01*
X84631337Y-91123598D01*
X84873002Y-91365263D01*
X85157169Y-91555137D01*
X85472919Y-91685925D01*
X85808117Y-91752600D01*
X86149883Y-91752600D01*
X86485081Y-91685925D01*
X86800831Y-91555137D01*
X87084998Y-91365263D01*
X87326663Y-91123598D01*
X87516537Y-90839431D01*
X87647325Y-90523681D01*
X87714000Y-90188483D01*
X87714000Y-89846717D01*
X87647325Y-89511519D01*
X87516537Y-89195769D01*
X87326663Y-88911602D01*
X87084998Y-88669937D01*
X86800831Y-88480063D01*
X86485081Y-88349275D01*
X86149883Y-88282600D01*
X85808117Y-88282600D01*
X85472919Y-88349275D01*
X85157169Y-88480063D01*
X84873002Y-88669937D01*
X84631337Y-88911602D01*
X84441463Y-89195769D01*
X84310675Y-89511519D01*
X84244000Y-89846717D01*
X82879200Y-89846717D01*
X82879200Y-83122922D01*
X82887111Y-83042600D01*
X82884649Y-83017600D01*
X88969289Y-83017600D01*
X88977201Y-83097932D01*
X88977200Y-96937278D01*
X88969289Y-97017600D01*
X89000857Y-97338116D01*
X89094348Y-97646315D01*
X89246169Y-97930352D01*
X89437865Y-98163935D01*
X89450486Y-98179314D01*
X89699448Y-98383631D01*
X89983485Y-98535452D01*
X90291684Y-98628943D01*
X90612200Y-98660511D01*
X90692522Y-98652600D01*
X104531878Y-98652600D01*
X104612200Y-98660511D01*
X104692522Y-98652600D01*
X104932716Y-98628943D01*
X105240915Y-98535452D01*
X105524952Y-98383631D01*
X105773914Y-98179314D01*
X105978231Y-97930352D01*
X106130052Y-97646315D01*
X106156066Y-97560556D01*
X108459489Y-97560556D01*
X108498042Y-97880308D01*
X108598234Y-98186393D01*
X108756215Y-98467052D01*
X108965915Y-98711497D01*
X109219274Y-98910334D01*
X109506556Y-99055923D01*
X109816721Y-99142668D01*
X109897202Y-99148825D01*
X123526303Y-101552004D01*
X123604029Y-101573742D01*
X123684503Y-101579899D01*
X123925156Y-101598311D01*
X124244908Y-101559758D01*
X124550993Y-101459566D01*
X124831652Y-101301585D01*
X125076097Y-101091885D01*
X125274934Y-100838526D01*
X125420523Y-100551244D01*
X125485529Y-100318807D01*
X125507268Y-100241079D01*
X125513425Y-100160601D01*
X125937955Y-97752969D01*
X128730864Y-97752969D01*
X128776383Y-98071803D01*
X128883228Y-98375631D01*
X129047295Y-98652776D01*
X129262277Y-98892588D01*
X129519913Y-99085851D01*
X129810303Y-99225138D01*
X129888492Y-99245177D01*
X142893233Y-103978517D01*
X142965999Y-104013420D01*
X143044176Y-104033456D01*
X143044181Y-104033458D01*
X143139891Y-104057987D01*
X143277982Y-104093379D01*
X143599569Y-104110936D01*
X143918403Y-104065417D01*
X144222231Y-103958572D01*
X144499376Y-103794505D01*
X144739188Y-103579523D01*
X144932451Y-103321887D01*
X145036832Y-103104269D01*
X145071738Y-103031497D01*
X145091776Y-102953311D01*
X149825118Y-89948565D01*
X149860020Y-89875801D01*
X149880055Y-89797626D01*
X149880058Y-89797619D01*
X149939978Y-89563819D01*
X149957536Y-89242231D01*
X149955234Y-89226104D01*
X149912017Y-88923396D01*
X149805172Y-88619568D01*
X149641105Y-88342423D01*
X149426123Y-88102611D01*
X149168486Y-87909348D01*
X148950869Y-87804967D01*
X148950863Y-87804965D01*
X148878097Y-87770062D01*
X148799920Y-87750026D01*
X135795171Y-83016685D01*
X135722401Y-82981780D01*
X135644219Y-82961743D01*
X135644217Y-82961742D01*
X135410418Y-82901821D01*
X135088831Y-82884264D01*
X135088830Y-82884264D01*
X134769996Y-82929783D01*
X134466168Y-83036628D01*
X134189023Y-83200695D01*
X133949211Y-83415677D01*
X133755948Y-83673314D01*
X133652704Y-83888561D01*
X133616662Y-83963703D01*
X133596625Y-84041882D01*
X128863286Y-97046627D01*
X128828380Y-97119399D01*
X128808342Y-97197583D01*
X128748421Y-97431382D01*
X128730864Y-97752969D01*
X125937955Y-97752969D01*
X127916604Y-86531495D01*
X127938342Y-86453771D01*
X127944499Y-86373297D01*
X127962911Y-86132644D01*
X127924358Y-85812893D01*
X127924358Y-85812891D01*
X127824166Y-85506806D01*
X127666185Y-85226147D01*
X127620693Y-85173117D01*
X129049200Y-85173117D01*
X129049200Y-85514883D01*
X129115875Y-85850081D01*
X129246663Y-86165831D01*
X129436537Y-86449998D01*
X129678202Y-86691663D01*
X129962369Y-86881537D01*
X130278119Y-87012325D01*
X130613317Y-87079000D01*
X130955083Y-87079000D01*
X131290281Y-87012325D01*
X131606031Y-86881537D01*
X131890198Y-86691663D01*
X132131863Y-86449998D01*
X132321737Y-86165831D01*
X132452525Y-85850081D01*
X132519200Y-85514883D01*
X132519200Y-85173117D01*
X132452525Y-84837919D01*
X132321737Y-84522169D01*
X132131863Y-84238002D01*
X131890198Y-83996337D01*
X131606031Y-83806463D01*
X131290281Y-83675675D01*
X130955083Y-83609000D01*
X130613317Y-83609000D01*
X130278119Y-83675675D01*
X129962369Y-83806463D01*
X129678202Y-83996337D01*
X129436537Y-84238002D01*
X129246663Y-84522169D01*
X129115875Y-84837919D01*
X129049200Y-85173117D01*
X127620693Y-85173117D01*
X127456484Y-84981702D01*
X127203126Y-84782865D01*
X126915843Y-84637276D01*
X126683407Y-84572270D01*
X126683400Y-84572269D01*
X126605679Y-84550532D01*
X126525211Y-84544376D01*
X112896098Y-82141196D01*
X112818371Y-82119458D01*
X112737897Y-82113301D01*
X112737895Y-82113301D01*
X112497244Y-82094889D01*
X112216044Y-82128794D01*
X112177491Y-82133442D01*
X111871406Y-82233634D01*
X111590747Y-82391615D01*
X111472991Y-82492634D01*
X111354397Y-82594372D01*
X111346302Y-82601316D01*
X111147465Y-82854674D01*
X111001876Y-83141957D01*
X110936870Y-83374393D01*
X110915132Y-83452121D01*
X110908975Y-83532592D01*
X108505797Y-97161700D01*
X108484058Y-97239429D01*
X108477901Y-97319905D01*
X108459489Y-97560556D01*
X106156066Y-97560556D01*
X106223543Y-97338116D01*
X106255111Y-97017600D01*
X106247200Y-96937278D01*
X106247200Y-83097922D01*
X106255111Y-83017600D01*
X106223543Y-82697084D01*
X106130052Y-82388885D01*
X105978231Y-82104848D01*
X105773914Y-81855886D01*
X105524952Y-81651569D01*
X105240915Y-81499748D01*
X104932716Y-81406257D01*
X104692522Y-81382600D01*
X104612200Y-81374689D01*
X104531878Y-81382600D01*
X90692522Y-81382600D01*
X90612200Y-81374689D01*
X90531878Y-81382600D01*
X90291684Y-81406257D01*
X89983485Y-81499748D01*
X89699448Y-81651569D01*
X89450486Y-81855886D01*
X89246169Y-82104848D01*
X89094348Y-82388885D01*
X89000857Y-82697084D01*
X88969289Y-83017600D01*
X82884649Y-83017600D01*
X82855543Y-82722084D01*
X82762052Y-82413885D01*
X82610231Y-82129848D01*
X82405914Y-81880886D01*
X82156952Y-81676569D01*
X81872915Y-81524748D01*
X81564716Y-81431257D01*
X81324522Y-81407600D01*
X81244200Y-81399689D01*
X81163878Y-81407600D01*
X67324522Y-81407600D01*
X67244200Y-81399689D01*
X67163878Y-81407600D01*
X66923684Y-81431257D01*
X66615485Y-81524748D01*
X66331448Y-81676569D01*
X66082486Y-81880886D01*
X65878169Y-82129848D01*
X65726348Y-82413885D01*
X65632857Y-82722084D01*
X65601289Y-83042600D01*
X54812200Y-83042600D01*
X54812200Y-70702722D01*
X54820111Y-70622400D01*
X54788543Y-70301884D01*
X54695052Y-69993685D01*
X54543231Y-69709648D01*
X54338914Y-69460686D01*
X54089952Y-69256369D01*
X53805915Y-69104548D01*
X53497716Y-69011057D01*
X53257522Y-68987400D01*
X53177200Y-68979489D01*
X53096878Y-68987400D01*
X39257522Y-68987400D01*
X39177200Y-68979489D01*
X39096878Y-68987400D01*
X38856684Y-69011057D01*
X38548485Y-69104548D01*
X38264448Y-69256369D01*
X38015486Y-69460686D01*
X37811169Y-69709648D01*
X37659348Y-69993685D01*
X37565857Y-70301884D01*
X37545200Y-70511619D01*
X37545200Y-70415717D01*
X37478525Y-70080519D01*
X37347737Y-69764769D01*
X37157863Y-69480602D01*
X36916198Y-69238937D01*
X36632031Y-69049063D01*
X36316281Y-68918275D01*
X35981083Y-68851600D01*
X35639317Y-68851600D01*
X35549269Y-68869512D01*
X35645052Y-68690315D01*
X35738543Y-68382116D01*
X35762200Y-68141922D01*
X35770111Y-68061600D01*
X35762200Y-67981278D01*
X35762200Y-54141922D01*
X35770111Y-54061600D01*
X35738543Y-53741084D01*
X35645052Y-53432885D01*
X35561439Y-53276457D01*
X35664717Y-53297000D01*
X36006483Y-53297000D01*
X36341681Y-53230325D01*
X36657431Y-53099537D01*
X36941598Y-52909663D01*
X37183263Y-52667998D01*
X37373137Y-52383831D01*
X37503925Y-52068081D01*
X37542200Y-51875659D01*
X37542201Y-65517468D01*
X37534289Y-65597800D01*
X37565857Y-65918316D01*
X37659348Y-66226515D01*
X37811169Y-66510552D01*
X38015486Y-66759514D01*
X38264448Y-66963831D01*
X38548485Y-67115652D01*
X38856684Y-67209143D01*
X39096878Y-67232800D01*
X39177200Y-67240711D01*
X39257522Y-67232800D01*
X53096878Y-67232800D01*
X53177200Y-67240711D01*
X53497716Y-67209143D01*
X53805915Y-67115652D01*
X54089952Y-66963831D01*
X54338914Y-66759514D01*
X54543231Y-66510552D01*
X54695052Y-66226515D01*
X54788543Y-65918316D01*
X54812200Y-65678122D01*
X54820111Y-65597800D01*
X54812200Y-65517478D01*
X54812200Y-59294000D01*
X56584289Y-59294000D01*
X56592200Y-59374322D01*
X56592201Y-73213668D01*
X56584289Y-73294000D01*
X56615857Y-73614516D01*
X56709348Y-73922715D01*
X56861169Y-74206752D01*
X57065486Y-74455714D01*
X57314448Y-74660031D01*
X57598485Y-74811852D01*
X57906684Y-74905343D01*
X58146878Y-74929000D01*
X58227200Y-74936911D01*
X58307522Y-74929000D01*
X72146878Y-74929000D01*
X72227200Y-74936911D01*
X72547716Y-74905343D01*
X72855915Y-74811852D01*
X73139952Y-74660031D01*
X73388914Y-74455714D01*
X73593231Y-74206752D01*
X73745052Y-73922715D01*
X73838543Y-73614516D01*
X73862200Y-73374322D01*
X73870111Y-73294000D01*
X73862200Y-73213678D01*
X73862200Y-59374322D01*
X73870111Y-59294000D01*
X73838543Y-58973484D01*
X73745052Y-58665285D01*
X73593231Y-58381248D01*
X73388914Y-58132286D01*
X73139952Y-57927969D01*
X72855915Y-57776148D01*
X72547716Y-57682657D01*
X72307522Y-57659000D01*
X72227200Y-57651089D01*
X72146878Y-57659000D01*
X58307522Y-57659000D01*
X58227200Y-57651089D01*
X58146878Y-57659000D01*
X57906684Y-57682657D01*
X57598485Y-57776148D01*
X57314448Y-57927969D01*
X57065486Y-58132286D01*
X56861169Y-58381248D01*
X56709348Y-58665285D01*
X56615857Y-58973484D01*
X56584289Y-59294000D01*
X54812200Y-59294000D01*
X54812200Y-56754000D01*
X75634289Y-56754000D01*
X75642200Y-56834322D01*
X75642201Y-70673668D01*
X75634289Y-70754000D01*
X75665857Y-71074516D01*
X75759348Y-71382715D01*
X75911169Y-71666752D01*
X76115486Y-71915714D01*
X76364448Y-72120031D01*
X76648485Y-72271852D01*
X76956684Y-72365343D01*
X77196878Y-72389000D01*
X77277200Y-72396911D01*
X77357522Y-72389000D01*
X91196878Y-72389000D01*
X91277200Y-72396911D01*
X91436230Y-72381248D01*
X91597716Y-72365343D01*
X91905915Y-72271852D01*
X92189952Y-72120031D01*
X92438914Y-71915714D01*
X92643231Y-71666752D01*
X92795052Y-71382715D01*
X92888543Y-71074516D01*
X92920111Y-70754000D01*
X92912200Y-70673678D01*
X92912200Y-59243200D01*
X94684289Y-59243200D01*
X94692200Y-59323522D01*
X94692201Y-73162868D01*
X94684289Y-73243200D01*
X94715857Y-73563716D01*
X94809348Y-73871915D01*
X94961169Y-74155952D01*
X95165486Y-74404914D01*
X95414448Y-74609231D01*
X95698485Y-74761052D01*
X96006684Y-74854543D01*
X96246878Y-74878200D01*
X96327200Y-74886111D01*
X96407522Y-74878200D01*
X110246878Y-74878200D01*
X110327200Y-74886111D01*
X110647716Y-74854543D01*
X110955915Y-74761052D01*
X111239952Y-74609231D01*
X111488914Y-74404914D01*
X111693231Y-74155952D01*
X111845052Y-73871915D01*
X111938543Y-73563716D01*
X111962200Y-73323522D01*
X111970111Y-73243200D01*
X111962200Y-73162878D01*
X111962200Y-61656200D01*
X113734289Y-61656200D01*
X113742200Y-61736522D01*
X113742201Y-75575868D01*
X113734289Y-75656200D01*
X113765857Y-75976716D01*
X113859348Y-76284915D01*
X114011169Y-76568952D01*
X114215486Y-76817914D01*
X114464448Y-77022231D01*
X114748485Y-77174052D01*
X115056684Y-77267543D01*
X115296878Y-77291200D01*
X115377200Y-77299111D01*
X115457522Y-77291200D01*
X129296878Y-77291200D01*
X129377200Y-77299111D01*
X129697716Y-77267543D01*
X130005915Y-77174052D01*
X130289952Y-77022231D01*
X130538914Y-76817914D01*
X130743231Y-76568952D01*
X130895052Y-76284915D01*
X130988543Y-75976716D01*
X131012200Y-75736522D01*
X131020111Y-75656200D01*
X131012200Y-75575878D01*
X131012200Y-61736522D01*
X131020111Y-61656200D01*
X130988543Y-61335684D01*
X130895052Y-61027485D01*
X130743231Y-60743448D01*
X130538914Y-60494486D01*
X130289952Y-60290169D01*
X130005915Y-60138348D01*
X129697716Y-60044857D01*
X129457522Y-60021200D01*
X129377200Y-60013289D01*
X129296878Y-60021200D01*
X115457522Y-60021200D01*
X115377200Y-60013289D01*
X115296878Y-60021200D01*
X115056684Y-60044857D01*
X114748485Y-60138348D01*
X114464448Y-60290169D01*
X114215486Y-60494486D01*
X114011169Y-60743448D01*
X113859348Y-61027485D01*
X113765857Y-61335684D01*
X113734289Y-61656200D01*
X111962200Y-61656200D01*
X111962200Y-59323522D01*
X111970111Y-59243200D01*
X111938543Y-58922684D01*
X111845052Y-58614485D01*
X111693231Y-58330448D01*
X111488914Y-58081486D01*
X111239952Y-57877169D01*
X110955915Y-57725348D01*
X110647716Y-57631857D01*
X110407522Y-57608200D01*
X110327200Y-57600289D01*
X110246878Y-57608200D01*
X96407522Y-57608200D01*
X96327200Y-57600289D01*
X96246878Y-57608200D01*
X96006684Y-57631857D01*
X95698485Y-57725348D01*
X95414448Y-57877169D01*
X95165486Y-58081486D01*
X94961169Y-58330448D01*
X94809348Y-58614485D01*
X94715857Y-58922684D01*
X94684289Y-59243200D01*
X92912200Y-59243200D01*
X92912200Y-56834322D01*
X92920111Y-56754000D01*
X92888543Y-56433484D01*
X92795052Y-56125285D01*
X92643231Y-55841248D01*
X92438914Y-55592286D01*
X92189952Y-55387969D01*
X91905915Y-55236148D01*
X91597716Y-55142657D01*
X91357522Y-55119000D01*
X91277200Y-55111089D01*
X91196878Y-55119000D01*
X77357522Y-55119000D01*
X77277200Y-55111089D01*
X77196878Y-55119000D01*
X76956684Y-55142657D01*
X76648485Y-55236148D01*
X76364448Y-55387969D01*
X76115486Y-55592286D01*
X75911169Y-55841248D01*
X75759348Y-56125285D01*
X75665857Y-56433484D01*
X75634289Y-56754000D01*
X54812200Y-56754000D01*
X54812200Y-51678122D01*
X54820111Y-51597800D01*
X54788543Y-51277284D01*
X54695052Y-50969085D01*
X54543231Y-50685048D01*
X54338914Y-50436086D01*
X54089952Y-50231769D01*
X53805915Y-50079948D01*
X53497716Y-49986457D01*
X53257522Y-49962800D01*
X53177200Y-49954889D01*
X53096878Y-49962800D01*
X39257522Y-49962800D01*
X39177200Y-49954889D01*
X39096878Y-49962800D01*
X38856684Y-49986457D01*
X38548485Y-50079948D01*
X38264448Y-50231769D01*
X38015486Y-50436086D01*
X37811169Y-50685048D01*
X37659348Y-50969085D01*
X37565857Y-51277284D01*
X37559929Y-51337471D01*
X37503925Y-51055919D01*
X37373137Y-50740169D01*
X37183263Y-50456002D01*
X36941598Y-50214337D01*
X36657431Y-50024463D01*
X36341681Y-49893675D01*
X36006483Y-49827000D01*
X35664717Y-49827000D01*
X35531056Y-49853587D01*
X35645052Y-49640315D01*
X35738543Y-49332116D01*
X35762200Y-49091922D01*
X35770111Y-49011600D01*
X35762200Y-48931278D01*
X35762200Y-35091922D01*
X35770111Y-35011600D01*
X35738543Y-34691084D01*
X35645052Y-34382885D01*
X35493231Y-34098848D01*
X35288914Y-33849886D01*
X35039952Y-33645569D01*
X34755915Y-33493748D01*
X34447716Y-33400257D01*
X34207522Y-33376600D01*
X34127200Y-33368689D01*
X34046878Y-33376600D01*
X20207522Y-33376600D01*
X20127200Y-33368689D01*
X20046878Y-33376600D01*
X19806684Y-33400257D01*
X19498485Y-33493748D01*
X19214448Y-33645569D01*
X18965486Y-33849886D01*
X18761169Y-34098848D01*
X18609348Y-34382885D01*
X18515857Y-34691084D01*
X18484289Y-35011600D01*
X18362600Y-35011600D01*
X18362599Y-33535257D01*
X18371104Y-33448513D01*
X18385854Y-33399660D01*
X18409812Y-33354601D01*
X18442066Y-33315055D01*
X18481386Y-33282526D01*
X18526270Y-33258257D01*
X18575027Y-33243165D01*
X18659364Y-33234300D01*
X36641503Y-33234300D01*
X36677600Y-33237855D01*
X36713695Y-33234300D01*
X36713705Y-33234300D01*
X36821685Y-33223665D01*
X36960233Y-33181637D01*
X37087920Y-33113387D01*
X37199838Y-33021538D01*
X37291687Y-32909620D01*
X37359937Y-32781933D01*
X37401965Y-32643385D01*
X37413880Y-32522400D01*
X37534289Y-32522400D01*
X37542200Y-32602722D01*
X37542201Y-46442068D01*
X37534289Y-46522400D01*
X37565857Y-46842916D01*
X37659348Y-47151115D01*
X37811169Y-47435152D01*
X38015486Y-47684114D01*
X38264448Y-47888431D01*
X38548485Y-48040252D01*
X38856684Y-48133743D01*
X39096878Y-48157400D01*
X39177200Y-48165311D01*
X39257522Y-48157400D01*
X53096878Y-48157400D01*
X53177200Y-48165311D01*
X53497716Y-48133743D01*
X53805915Y-48040252D01*
X54089952Y-47888431D01*
X54338914Y-47684114D01*
X54543231Y-47435152D01*
X54695052Y-47151115D01*
X54788543Y-46842916D01*
X54812200Y-46602722D01*
X54820111Y-46522400D01*
X54812200Y-46442078D01*
X54812200Y-40167800D01*
X56584289Y-40167800D01*
X56592200Y-40248122D01*
X56592201Y-54087468D01*
X56584289Y-54167800D01*
X56615857Y-54488316D01*
X56709348Y-54796515D01*
X56861169Y-55080552D01*
X57065486Y-55329514D01*
X57314448Y-55533831D01*
X57598485Y-55685652D01*
X57906684Y-55779143D01*
X58146878Y-55802800D01*
X58227200Y-55810711D01*
X58307522Y-55802800D01*
X72146878Y-55802800D01*
X72227200Y-55810711D01*
X72547716Y-55779143D01*
X72855915Y-55685652D01*
X73139952Y-55533831D01*
X73388914Y-55329514D01*
X73593231Y-55080552D01*
X73745052Y-54796515D01*
X73838543Y-54488316D01*
X73862200Y-54248122D01*
X73870111Y-54167800D01*
X73862200Y-54087478D01*
X73862200Y-40248122D01*
X73870111Y-40167800D01*
X73849334Y-39956842D01*
X73838543Y-39847284D01*
X73745052Y-39539085D01*
X73593231Y-39255048D01*
X73388914Y-39006086D01*
X73338353Y-38964592D01*
X73139952Y-38801769D01*
X72855915Y-38649948D01*
X72547716Y-38556457D01*
X72307522Y-38532800D01*
X72227200Y-38524889D01*
X72146878Y-38532800D01*
X58307522Y-38532800D01*
X58227200Y-38524889D01*
X58146878Y-38532800D01*
X57906684Y-38556457D01*
X57598485Y-38649948D01*
X57314448Y-38801769D01*
X57065486Y-39006086D01*
X56861169Y-39255048D01*
X56709348Y-39539085D01*
X56615857Y-39847284D01*
X56584289Y-40167800D01*
X54812200Y-40167800D01*
X54812200Y-32602722D01*
X54820111Y-32522400D01*
X54788543Y-32201884D01*
X54695052Y-31893685D01*
X54543231Y-31609648D01*
X54338914Y-31360686D01*
X54089952Y-31156369D01*
X53805915Y-31004548D01*
X53497716Y-30911057D01*
X53257522Y-30887400D01*
X53177200Y-30879489D01*
X53096878Y-30887400D01*
X39257522Y-30887400D01*
X39177200Y-30879489D01*
X39096878Y-30887400D01*
X38856684Y-30911057D01*
X38548485Y-31004548D01*
X38264448Y-31156369D01*
X38015486Y-31360686D01*
X37811169Y-31609648D01*
X37659348Y-31893685D01*
X37565857Y-32201884D01*
X37534289Y-32522400D01*
X37413880Y-32522400D01*
X37416156Y-32499300D01*
X37412600Y-32463194D01*
X37412598Y-31058755D01*
X37421103Y-30972012D01*
X37435854Y-30923158D01*
X37459809Y-30878104D01*
X37492064Y-30838556D01*
X37531384Y-30806027D01*
X37576275Y-30781755D01*
X37625024Y-30766665D01*
X37709364Y-30757800D01*
X55691504Y-30757800D01*
X55727599Y-30761355D01*
X55763696Y-30757800D01*
X55763704Y-30757800D01*
X55871684Y-30747165D01*
X56010232Y-30705137D01*
X56137919Y-30636887D01*
X56249837Y-30545038D01*
X56341686Y-30433120D01*
X56409936Y-30305433D01*
X56451964Y-30166885D01*
X56466155Y-30022800D01*
X56462598Y-29986685D01*
X56462599Y-21092400D01*
X56584289Y-21092400D01*
X56592200Y-21172722D01*
X56592201Y-35012068D01*
X56584289Y-35092400D01*
X56615857Y-35412916D01*
X56709348Y-35721115D01*
X56861169Y-36005152D01*
X57065486Y-36254114D01*
X57314448Y-36458431D01*
X57598485Y-36610252D01*
X57906684Y-36703743D01*
X58146878Y-36727400D01*
X58227200Y-36735311D01*
X58307522Y-36727400D01*
X72146878Y-36727400D01*
X72227200Y-36735311D01*
X72547716Y-36703743D01*
X72855915Y-36610252D01*
X73139952Y-36458431D01*
X73388914Y-36254114D01*
X73593231Y-36005152D01*
X73745052Y-35721115D01*
X73838543Y-35412916D01*
X73862200Y-35172722D01*
X73870111Y-35092400D01*
X73862200Y-35012078D01*
X73862200Y-21172722D01*
X73870111Y-21092400D01*
X73838543Y-20771884D01*
X73745052Y-20463685D01*
X73593231Y-20179648D01*
X73388914Y-19930686D01*
X73139952Y-19726369D01*
X72855915Y-19574548D01*
X72547716Y-19481057D01*
X72307522Y-19457400D01*
X72227200Y-19449489D01*
X72146878Y-19457400D01*
X58307522Y-19457400D01*
X58227200Y-19449489D01*
X58146878Y-19457400D01*
X57906684Y-19481057D01*
X57598485Y-19574548D01*
X57314448Y-19726369D01*
X57065486Y-19930686D01*
X56861169Y-20179648D01*
X56709348Y-20463685D01*
X56615857Y-20771884D01*
X56584289Y-21092400D01*
X56462599Y-21092400D01*
X56462600Y-19628736D01*
X56471103Y-19542012D01*
X56485854Y-19493158D01*
X56509809Y-19448104D01*
X56542064Y-19408556D01*
X56581384Y-19376027D01*
X56626275Y-19351755D01*
X56675024Y-19336665D01*
X56759364Y-19327800D01*
X74741495Y-19327800D01*
X74777600Y-19331356D01*
X74813705Y-19327800D01*
X74921685Y-19317165D01*
X75060233Y-19275137D01*
X75187920Y-19206887D01*
X75299838Y-19115038D01*
X75391687Y-19003120D01*
X75459937Y-18875433D01*
X75501965Y-18736885D01*
X75507626Y-18679400D01*
X75634289Y-18679400D01*
X75642200Y-18759722D01*
X75642201Y-32599068D01*
X75634289Y-32679400D01*
X75665857Y-32999916D01*
X75759348Y-33308115D01*
X75911169Y-33592152D01*
X76115486Y-33841114D01*
X76364448Y-34045431D01*
X76648485Y-34197252D01*
X76956684Y-34290743D01*
X77196878Y-34314400D01*
X77277200Y-34322311D01*
X77357522Y-34314400D01*
X91196878Y-34314400D01*
X91277200Y-34322311D01*
X91457842Y-34304519D01*
X91422663Y-34357169D01*
X91291875Y-34672919D01*
X91225200Y-35008117D01*
X91225200Y-35349883D01*
X91291875Y-35685081D01*
X91422663Y-36000831D01*
X91476010Y-36080670D01*
X91357522Y-36069000D01*
X91277200Y-36061089D01*
X91196878Y-36069000D01*
X77357522Y-36069000D01*
X77277200Y-36061089D01*
X77196878Y-36069000D01*
X76956684Y-36092657D01*
X76648485Y-36186148D01*
X76364448Y-36337969D01*
X76115486Y-36542286D01*
X75911169Y-36791248D01*
X75759348Y-37075285D01*
X75665857Y-37383484D01*
X75634289Y-37704000D01*
X75642200Y-37784322D01*
X75642201Y-51623668D01*
X75634289Y-51704000D01*
X75665857Y-52024516D01*
X75759348Y-52332715D01*
X75911169Y-52616752D01*
X76115486Y-52865714D01*
X76364448Y-53070031D01*
X76648485Y-53221852D01*
X76956684Y-53315343D01*
X77196878Y-53339000D01*
X77277200Y-53346911D01*
X77357522Y-53339000D01*
X91196878Y-53339000D01*
X91277200Y-53346911D01*
X91597716Y-53315343D01*
X91905915Y-53221852D01*
X92189952Y-53070031D01*
X92438914Y-52865714D01*
X92643231Y-52616752D01*
X92795052Y-52332715D01*
X92888543Y-52024516D01*
X92912200Y-51784322D01*
X92920111Y-51704000D01*
X92912200Y-51623678D01*
X92912200Y-40167800D01*
X94684289Y-40167800D01*
X94692200Y-40248122D01*
X94692201Y-54087468D01*
X94684289Y-54167800D01*
X94715857Y-54488316D01*
X94809348Y-54796515D01*
X94961169Y-55080552D01*
X95165486Y-55329514D01*
X95414448Y-55533831D01*
X95698485Y-55685652D01*
X96006684Y-55779143D01*
X96246878Y-55802800D01*
X96327200Y-55810711D01*
X96407522Y-55802800D01*
X110246878Y-55802800D01*
X110327200Y-55810711D01*
X110647716Y-55779143D01*
X110955915Y-55685652D01*
X111239952Y-55533831D01*
X111488914Y-55329514D01*
X111693231Y-55080552D01*
X111845052Y-54796515D01*
X111938543Y-54488316D01*
X111962200Y-54248122D01*
X111970111Y-54167800D01*
X111962200Y-54087478D01*
X111962200Y-42657000D01*
X113734289Y-42657000D01*
X113742200Y-42737322D01*
X113742201Y-56576668D01*
X113734289Y-56657000D01*
X113765857Y-56977516D01*
X113859348Y-57285715D01*
X114011169Y-57569752D01*
X114215486Y-57818714D01*
X114464448Y-58023031D01*
X114748485Y-58174852D01*
X115056684Y-58268343D01*
X115296878Y-58292000D01*
X115377200Y-58299911D01*
X115457522Y-58292000D01*
X129296878Y-58292000D01*
X129377200Y-58299911D01*
X129697716Y-58268343D01*
X130005915Y-58174852D01*
X130289952Y-58023031D01*
X130538914Y-57818714D01*
X130743231Y-57569752D01*
X130895052Y-57285715D01*
X130988543Y-56977516D01*
X131012200Y-56737322D01*
X131020111Y-56657000D01*
X131012200Y-56576678D01*
X131012200Y-42737322D01*
X131020111Y-42657000D01*
X130988543Y-42336484D01*
X130895052Y-42028285D01*
X130743231Y-41744248D01*
X130538914Y-41495286D01*
X130289952Y-41290969D01*
X130005915Y-41139148D01*
X129697716Y-41045657D01*
X129457522Y-41022000D01*
X129377200Y-41014089D01*
X129296878Y-41022000D01*
X115457522Y-41022000D01*
X115377200Y-41014089D01*
X115296878Y-41022000D01*
X115056684Y-41045657D01*
X114748485Y-41139148D01*
X114464448Y-41290969D01*
X114215486Y-41495286D01*
X114011169Y-41744248D01*
X113859348Y-42028285D01*
X113765857Y-42336484D01*
X113734289Y-42657000D01*
X111962200Y-42657000D01*
X111962200Y-40248122D01*
X111970111Y-40167800D01*
X111949334Y-39956842D01*
X111938543Y-39847284D01*
X111845052Y-39539085D01*
X111693231Y-39255048D01*
X111488914Y-39006086D01*
X111438353Y-38964592D01*
X111239952Y-38801769D01*
X110955915Y-38649948D01*
X110647716Y-38556457D01*
X110407522Y-38532800D01*
X110327200Y-38524889D01*
X110246878Y-38532800D01*
X96407522Y-38532800D01*
X96327200Y-38524889D01*
X96246878Y-38532800D01*
X96006684Y-38556457D01*
X95698485Y-38649948D01*
X95414448Y-38801769D01*
X95165486Y-39006086D01*
X94961169Y-39255048D01*
X94809348Y-39539085D01*
X94715857Y-39847284D01*
X94684289Y-40167800D01*
X92912200Y-40167800D01*
X92912200Y-37784322D01*
X92920111Y-37704000D01*
X92888543Y-37383484D01*
X92795052Y-37075285D01*
X92699269Y-36896088D01*
X92789317Y-36914000D01*
X93131083Y-36914000D01*
X93466281Y-36847325D01*
X93782031Y-36716537D01*
X94066198Y-36526663D01*
X94307863Y-36284998D01*
X94497737Y-36000831D01*
X94628525Y-35685081D01*
X94695200Y-35349883D01*
X94695200Y-35228581D01*
X94715857Y-35438316D01*
X94809348Y-35746515D01*
X94961169Y-36030552D01*
X95165486Y-36279514D01*
X95414448Y-36483831D01*
X95698485Y-36635652D01*
X96006684Y-36729143D01*
X96246878Y-36752800D01*
X96327200Y-36760711D01*
X96407522Y-36752800D01*
X110246878Y-36752800D01*
X110327200Y-36760711D01*
X110647716Y-36729143D01*
X110955915Y-36635652D01*
X111239952Y-36483831D01*
X111488914Y-36279514D01*
X111693231Y-36030552D01*
X111845052Y-35746515D01*
X111938543Y-35438316D01*
X111962200Y-35198122D01*
X111970111Y-35117800D01*
X111962200Y-35037478D01*
X111962200Y-23530800D01*
X113734289Y-23530800D01*
X113742200Y-23611122D01*
X113742201Y-37450468D01*
X113734289Y-37530800D01*
X113765857Y-37851316D01*
X113859348Y-38159515D01*
X114011169Y-38443552D01*
X114215486Y-38692514D01*
X114464448Y-38896831D01*
X114748485Y-39048652D01*
X115056684Y-39142143D01*
X115296878Y-39165800D01*
X115377200Y-39173711D01*
X115457522Y-39165800D01*
X129296878Y-39165800D01*
X129377200Y-39173711D01*
X129697716Y-39142143D01*
X130005915Y-39048652D01*
X130289952Y-38896831D01*
X130538914Y-38692514D01*
X130743231Y-38443552D01*
X130895052Y-38159515D01*
X130988543Y-37851316D01*
X131012200Y-37611122D01*
X131020111Y-37530800D01*
X131012200Y-37450478D01*
X131012200Y-23611122D01*
X131020111Y-23530800D01*
X130988543Y-23210284D01*
X130895052Y-22902085D01*
X130743231Y-22618048D01*
X130538914Y-22369086D01*
X130289952Y-22164769D01*
X130005915Y-22012948D01*
X129697716Y-21919457D01*
X129457522Y-21895800D01*
X129377200Y-21887889D01*
X129296878Y-21895800D01*
X115457522Y-21895800D01*
X115377200Y-21887889D01*
X115296878Y-21895800D01*
X115056684Y-21919457D01*
X114748485Y-22012948D01*
X114464448Y-22164769D01*
X114215486Y-22369086D01*
X114011169Y-22618048D01*
X113859348Y-22902085D01*
X113765857Y-23210284D01*
X113734289Y-23530800D01*
X111962200Y-23530800D01*
X111962200Y-21198122D01*
X111970111Y-21117800D01*
X111938543Y-20797284D01*
X111845052Y-20489085D01*
X111693231Y-20205048D01*
X111488914Y-19956086D01*
X111239952Y-19751769D01*
X110955915Y-19599948D01*
X110647716Y-19506457D01*
X110407522Y-19482800D01*
X110327200Y-19474889D01*
X110246878Y-19482800D01*
X96407522Y-19482800D01*
X96327200Y-19474889D01*
X96246878Y-19482800D01*
X96006684Y-19506457D01*
X95698485Y-19599948D01*
X95414448Y-19751769D01*
X95165486Y-19956086D01*
X94961169Y-20205048D01*
X94809348Y-20489085D01*
X94715857Y-20797284D01*
X94684289Y-21117800D01*
X94692200Y-21198122D01*
X94692201Y-34993040D01*
X94628525Y-34672919D01*
X94497737Y-34357169D01*
X94307863Y-34073002D01*
X94066198Y-33831337D01*
X93782031Y-33641463D01*
X93466281Y-33510675D01*
X93131083Y-33444000D01*
X92789317Y-33444000D01*
X92714461Y-33458890D01*
X92795052Y-33308115D01*
X92888543Y-32999916D01*
X92912200Y-32759722D01*
X92920111Y-32679400D01*
X92912200Y-32599078D01*
X92912200Y-18759722D01*
X92920111Y-18679400D01*
X92888543Y-18358884D01*
X92795052Y-18050685D01*
X92643231Y-17766648D01*
X92438914Y-17517686D01*
X92189952Y-17313369D01*
X91905915Y-17161548D01*
X91597716Y-17068057D01*
X91357522Y-17044400D01*
X91277200Y-17036489D01*
X91196878Y-17044400D01*
X77357522Y-17044400D01*
X77277200Y-17036489D01*
X77196878Y-17044400D01*
X76956684Y-17068057D01*
X76648485Y-17161548D01*
X76364448Y-17313369D01*
X76115486Y-17517686D01*
X75911169Y-17766648D01*
X75759348Y-18050685D01*
X75665857Y-18358884D01*
X75634289Y-18679400D01*
X75507626Y-18679400D01*
X75516156Y-18592800D01*
X75512600Y-18556695D01*
X75512600Y-17152236D01*
X75521103Y-17065512D01*
X75535854Y-17016658D01*
X75559809Y-16971604D01*
X75592064Y-16932056D01*
X75631384Y-16899527D01*
X75676275Y-16875255D01*
X75725024Y-16860165D01*
X75809374Y-16851299D01*
X92791663Y-16851301D01*
%TA.AperFunction,NonConductor*%
D13*
G36*
X92791663Y-16851301D02*
G01*
X92878387Y-16859804D01*
X92927240Y-16874554D01*
X92972299Y-16898512D01*
X93011845Y-16930766D01*
X93044374Y-16970086D01*
X93068643Y-17014970D01*
X93083735Y-17063727D01*
X93092601Y-17148073D01*
X93092600Y-18556695D01*
X93089044Y-18592800D01*
X93103235Y-18736885D01*
X93145263Y-18875433D01*
X93213513Y-19003120D01*
X93305362Y-19115038D01*
X93413269Y-19203595D01*
X93417280Y-19206887D01*
X93544967Y-19275137D01*
X93683515Y-19317165D01*
X93827600Y-19331356D01*
X93863705Y-19327800D01*
X111841653Y-19327800D01*
X111928387Y-19336304D01*
X111977240Y-19351054D01*
X112022299Y-19375012D01*
X112061845Y-19407266D01*
X112094374Y-19446586D01*
X112118643Y-19491470D01*
X112133735Y-19540227D01*
X112142601Y-19624573D01*
X112142600Y-21033155D01*
X112139045Y-21069202D01*
X112142600Y-21105348D01*
X112142600Y-21105404D01*
X112145923Y-21139139D01*
X112153216Y-21213288D01*
X112153230Y-21213335D01*
X112153235Y-21213384D01*
X112175002Y-21285141D01*
X112195226Y-21351841D01*
X112195248Y-21351882D01*
X112195263Y-21351932D01*
X112231642Y-21419993D01*
X112263459Y-21479537D01*
X112263488Y-21479573D01*
X112263513Y-21479619D01*
X112311027Y-21537515D01*
X112355293Y-21591468D01*
X112355331Y-21591499D01*
X112355362Y-21591537D01*
X112411417Y-21637541D01*
X112467198Y-21683332D01*
X112467241Y-21683355D01*
X112467280Y-21683387D01*
X112532588Y-21718295D01*
X112594876Y-21751599D01*
X112594922Y-21751613D01*
X112594967Y-21751637D01*
X112668670Y-21773995D01*
X112733419Y-21793645D01*
X112733464Y-21793649D01*
X112733515Y-21793665D01*
X112808350Y-21801036D01*
X112841397Y-21804295D01*
X112841444Y-21804295D01*
X112877600Y-21807856D01*
X112913658Y-21804305D01*
X130888797Y-21806704D01*
X130975578Y-21815213D01*
X131024432Y-21829964D01*
X131069486Y-21853919D01*
X131109034Y-21886174D01*
X131141563Y-21925494D01*
X131165835Y-21970385D01*
X131180925Y-22019134D01*
X131189788Y-22103458D01*
X131188858Y-39302776D01*
X131185299Y-39338911D01*
X131194063Y-39427892D01*
X131199483Y-39482956D01*
X131199488Y-39482971D01*
X131199490Y-39482996D01*
X131222346Y-39558342D01*
X131241503Y-39621507D01*
X131241512Y-39621523D01*
X131241518Y-39621544D01*
X131279393Y-39692403D01*
X131309746Y-39749197D01*
X131309757Y-39749210D01*
X131309768Y-39749231D01*
X131363408Y-39814591D01*
X131401589Y-39861120D01*
X131401602Y-39861131D01*
X131401617Y-39861149D01*
X131468281Y-39915859D01*
X131513502Y-39952975D01*
X131513516Y-39952983D01*
X131513535Y-39952998D01*
X131593066Y-39995508D01*
X131641186Y-40021232D01*
X131641200Y-40021236D01*
X131641222Y-40021248D01*
X131720169Y-40045196D01*
X131779731Y-40063268D01*
X131779750Y-40063270D01*
X131779770Y-40063276D01*
X131865312Y-40071701D01*
X131923816Y-40077466D01*
X131935000Y-40076365D01*
X131935000Y-40096066D01*
X131965167Y-40247726D01*
X131993292Y-40315625D01*
X131965167Y-40383524D01*
X131935000Y-40535184D01*
X131935000Y-40689816D01*
X131965167Y-40841476D01*
X131993292Y-40909375D01*
X131965167Y-40977274D01*
X131935000Y-41128934D01*
X131935000Y-41283566D01*
X131965167Y-41435226D01*
X131993292Y-41503125D01*
X131965167Y-41571024D01*
X131935000Y-41722684D01*
X131935000Y-41877316D01*
X131965167Y-42028976D01*
X131993292Y-42096875D01*
X131965167Y-42164774D01*
X131935000Y-42316434D01*
X131935000Y-42471066D01*
X131965167Y-42622726D01*
X131993292Y-42690625D01*
X131965167Y-42758524D01*
X131935000Y-42910184D01*
X131935000Y-43064816D01*
X131965167Y-43216476D01*
X131993292Y-43284375D01*
X131965167Y-43352274D01*
X131935000Y-43503934D01*
X131935000Y-43601477D01*
X131923623Y-43600356D01*
X131887508Y-43603911D01*
X131887479Y-43603911D01*
X131835358Y-43609044D01*
X131779539Y-43614539D01*
X131779524Y-43614544D01*
X131779499Y-43614546D01*
X131699708Y-43638750D01*
X131640988Y-43656559D01*
X131640972Y-43656568D01*
X131640951Y-43656574D01*
X131570092Y-43694449D01*
X131513298Y-43724802D01*
X131513285Y-43724813D01*
X131513264Y-43724824D01*
X131447904Y-43778464D01*
X131401375Y-43816645D01*
X131401364Y-43816658D01*
X131401346Y-43816673D01*
X131346636Y-43883337D01*
X131309520Y-43928558D01*
X131309512Y-43928572D01*
X131309497Y-43928591D01*
X131266987Y-44008122D01*
X131241263Y-44056242D01*
X131241259Y-44056256D01*
X131241247Y-44056278D01*
X131217299Y-44135225D01*
X131199227Y-44194787D01*
X131199225Y-44194806D01*
X131199219Y-44194826D01*
X131191978Y-44268343D01*
X131188586Y-44302767D01*
X131188586Y-44302786D01*
X131185028Y-44338911D01*
X131188582Y-44374997D01*
X131186947Y-74601335D01*
X131184092Y-74653627D01*
X131192056Y-74709408D01*
X131197573Y-74765457D01*
X131202268Y-74780938D01*
X131204555Y-74796956D01*
X131223244Y-74850100D01*
X131239593Y-74904008D01*
X131247219Y-74918277D01*
X131252586Y-74933539D01*
X131281282Y-74982013D01*
X131307836Y-75031698D01*
X131318100Y-75044206D01*
X131326341Y-75058127D01*
X131363943Y-75100072D01*
X131399679Y-75143621D01*
X131412184Y-75153885D01*
X131422984Y-75165932D01*
X131468049Y-75199737D01*
X131511592Y-75235476D01*
X131525859Y-75243103D01*
X131538802Y-75252812D01*
X131589602Y-75277179D01*
X131639276Y-75303733D01*
X131689376Y-75318934D01*
X152380315Y-82849821D01*
X152458916Y-82887480D01*
X152499776Y-82918047D01*
X152533922Y-82955970D01*
X152560052Y-82999804D01*
X152577171Y-83047878D01*
X152584625Y-83098359D01*
X152582132Y-83149336D01*
X152561617Y-83231618D01*
X143960725Y-106862378D01*
X143923064Y-106940981D01*
X143892496Y-106981843D01*
X143854571Y-107015991D01*
X143810739Y-107042120D01*
X143762663Y-107059239D01*
X143712183Y-107066693D01*
X143639021Y-107063115D01*
X143627563Y-107060979D01*
X108331489Y-99089773D01*
X108315313Y-99087758D01*
X107551008Y-98950433D01*
X107543759Y-98949622D01*
X107536645Y-98947999D01*
X107470384Y-98940508D01*
X106291815Y-98861189D01*
X106267541Y-98858777D01*
X63430818Y-98821209D01*
X63344087Y-98812628D01*
X63295249Y-98797837D01*
X63250209Y-98773838D01*
X63210691Y-98741550D01*
X63178198Y-98702201D01*
X63153965Y-98657290D01*
X63138919Y-98608533D01*
X63130100Y-98523909D01*
X63130100Y-87208905D01*
X63133656Y-87172800D01*
X63119465Y-87028715D01*
X63077437Y-86890167D01*
X63009187Y-86762480D01*
X62917338Y-86650562D01*
X62805420Y-86558713D01*
X62677733Y-86490463D01*
X62539185Y-86448435D01*
X62431205Y-86437800D01*
X62395100Y-86434244D01*
X62358995Y-86437800D01*
X36713705Y-86437800D01*
X36677600Y-86434244D01*
X36641495Y-86437800D01*
X36533515Y-86448435D01*
X36394967Y-86490463D01*
X36267280Y-86558713D01*
X36155362Y-86650562D01*
X36063513Y-86762480D01*
X35995263Y-86890167D01*
X35953235Y-87028715D01*
X35939044Y-87172800D01*
X35942601Y-87208915D01*
X35942600Y-88613364D01*
X35934097Y-88700087D01*
X35919347Y-88748941D01*
X35895390Y-88793997D01*
X35863135Y-88833546D01*
X35823816Y-88866073D01*
X35778925Y-88890345D01*
X35730173Y-88905436D01*
X35645835Y-88914301D01*
X18663558Y-88914301D01*
X18576815Y-88905796D01*
X18527961Y-88891046D01*
X18482902Y-88867088D01*
X18443355Y-88834834D01*
X18410828Y-88795515D01*
X18386558Y-88750629D01*
X18371466Y-88701873D01*
X18362601Y-88617535D01*
X18362600Y-35011600D01*
X18484289Y-35011600D01*
X18492200Y-35091922D01*
X18492201Y-48931268D01*
X18484289Y-49011600D01*
X18515857Y-49332116D01*
X18609348Y-49640315D01*
X18761169Y-49924352D01*
X18965486Y-50173314D01*
X19214448Y-50377631D01*
X19498485Y-50529452D01*
X19806684Y-50622943D01*
X20046878Y-50646600D01*
X20127200Y-50654511D01*
X20207522Y-50646600D01*
X34046878Y-50646600D01*
X34127200Y-50654511D01*
X34371366Y-50630463D01*
X34298063Y-50740169D01*
X34167275Y-51055919D01*
X34100600Y-51391117D01*
X34100600Y-51732883D01*
X34167275Y-52068081D01*
X34298063Y-52383831D01*
X34335032Y-52439159D01*
X34207522Y-52426600D01*
X34127200Y-52418689D01*
X34046878Y-52426600D01*
X20207522Y-52426600D01*
X20127200Y-52418689D01*
X20046878Y-52426600D01*
X19806684Y-52450257D01*
X19498485Y-52543748D01*
X19214448Y-52695569D01*
X18965486Y-52899886D01*
X18761169Y-53148848D01*
X18609348Y-53432885D01*
X18515857Y-53741084D01*
X18484289Y-54061600D01*
X18492200Y-54141922D01*
X18492201Y-67981268D01*
X18484289Y-68061600D01*
X18515857Y-68382116D01*
X18609348Y-68690315D01*
X18761169Y-68974352D01*
X18965486Y-69223314D01*
X19214448Y-69427631D01*
X19498485Y-69579452D01*
X19806684Y-69672943D01*
X20046878Y-69696600D01*
X20127200Y-69704511D01*
X20207522Y-69696600D01*
X34046878Y-69696600D01*
X34127200Y-69704511D01*
X34326010Y-69684930D01*
X34272663Y-69764769D01*
X34141875Y-70080519D01*
X34075200Y-70415717D01*
X34075200Y-70757483D01*
X34141875Y-71092681D01*
X34272663Y-71408431D01*
X34326010Y-71488270D01*
X34207522Y-71476600D01*
X34127200Y-71468689D01*
X34046878Y-71476600D01*
X20207522Y-71476600D01*
X20127200Y-71468689D01*
X20046878Y-71476600D01*
X19806684Y-71500257D01*
X19498485Y-71593748D01*
X19214448Y-71745569D01*
X18965486Y-71949886D01*
X18761169Y-72198848D01*
X18609348Y-72482885D01*
X18515857Y-72791084D01*
X18484289Y-73111600D01*
X18492200Y-73191922D01*
X18492201Y-87031268D01*
X18484289Y-87111600D01*
X18515857Y-87432116D01*
X18609348Y-87740315D01*
X18761169Y-88024352D01*
X18965486Y-88273314D01*
X19214448Y-88477631D01*
X19498485Y-88629452D01*
X19806684Y-88722943D01*
X20046878Y-88746600D01*
X20127200Y-88754511D01*
X20207522Y-88746600D01*
X34046878Y-88746600D01*
X34127200Y-88754511D01*
X34447716Y-88722943D01*
X34755915Y-88629452D01*
X35039952Y-88477631D01*
X35288914Y-88273314D01*
X35493231Y-88024352D01*
X35645052Y-87740315D01*
X35738543Y-87432116D01*
X35762200Y-87191922D01*
X35770111Y-87111600D01*
X35762200Y-87031278D01*
X35762200Y-73191922D01*
X35770111Y-73111600D01*
X35738543Y-72791084D01*
X35645052Y-72482885D01*
X35549269Y-72303688D01*
X35639317Y-72321600D01*
X35981083Y-72321600D01*
X36316281Y-72254925D01*
X36632031Y-72124137D01*
X36916198Y-71934263D01*
X37157863Y-71692598D01*
X37347737Y-71408431D01*
X37478525Y-71092681D01*
X37542200Y-70772565D01*
X37542201Y-84542068D01*
X37534289Y-84622400D01*
X37565857Y-84942916D01*
X37659348Y-85251115D01*
X37811169Y-85535152D01*
X38015486Y-85784114D01*
X38264448Y-85988431D01*
X38548485Y-86140252D01*
X38856684Y-86233743D01*
X39096878Y-86257400D01*
X39177200Y-86265311D01*
X39257522Y-86257400D01*
X53096878Y-86257400D01*
X53177200Y-86265311D01*
X53497716Y-86233743D01*
X53805915Y-86140252D01*
X54089952Y-85988431D01*
X54338914Y-85784114D01*
X54543231Y-85535152D01*
X54695052Y-85251115D01*
X54788543Y-84942916D01*
X54812200Y-84702722D01*
X54820111Y-84622400D01*
X54812200Y-84542078D01*
X54812200Y-83042600D01*
X65601289Y-83042600D01*
X65609201Y-83122932D01*
X65609200Y-96962278D01*
X65601289Y-97042600D01*
X65632857Y-97363116D01*
X65726348Y-97671315D01*
X65878169Y-97955352D01*
X66081596Y-98203230D01*
X66082486Y-98204314D01*
X66331448Y-98408631D01*
X66615485Y-98560452D01*
X66923684Y-98653943D01*
X67244200Y-98685511D01*
X67324522Y-98677600D01*
X81163878Y-98677600D01*
X81244200Y-98685511D01*
X81324522Y-98677600D01*
X81564716Y-98653943D01*
X81872915Y-98560452D01*
X82156952Y-98408631D01*
X82405914Y-98204314D01*
X82610231Y-97955352D01*
X82762052Y-97671315D01*
X82855543Y-97363116D01*
X82887111Y-97042600D01*
X82879200Y-96962278D01*
X82879200Y-89846717D01*
X84244000Y-89846717D01*
X84244000Y-90188483D01*
X84310675Y-90523681D01*
X84441463Y-90839431D01*
X84631337Y-91123598D01*
X84873002Y-91365263D01*
X85157169Y-91555137D01*
X85472919Y-91685925D01*
X85808117Y-91752600D01*
X86149883Y-91752600D01*
X86485081Y-91685925D01*
X86800831Y-91555137D01*
X87084998Y-91365263D01*
X87326663Y-91123598D01*
X87516537Y-90839431D01*
X87647325Y-90523681D01*
X87714000Y-90188483D01*
X87714000Y-89846717D01*
X87647325Y-89511519D01*
X87516537Y-89195769D01*
X87326663Y-88911602D01*
X87084998Y-88669937D01*
X86800831Y-88480063D01*
X86485081Y-88349275D01*
X86149883Y-88282600D01*
X85808117Y-88282600D01*
X85472919Y-88349275D01*
X85157169Y-88480063D01*
X84873002Y-88669937D01*
X84631337Y-88911602D01*
X84441463Y-89195769D01*
X84310675Y-89511519D01*
X84244000Y-89846717D01*
X82879200Y-89846717D01*
X82879200Y-83122922D01*
X82887111Y-83042600D01*
X82884649Y-83017600D01*
X88969289Y-83017600D01*
X88977201Y-83097932D01*
X88977200Y-96937278D01*
X88969289Y-97017600D01*
X89000857Y-97338116D01*
X89094348Y-97646315D01*
X89246169Y-97930352D01*
X89437865Y-98163935D01*
X89450486Y-98179314D01*
X89699448Y-98383631D01*
X89983485Y-98535452D01*
X90291684Y-98628943D01*
X90612200Y-98660511D01*
X90692522Y-98652600D01*
X104531878Y-98652600D01*
X104612200Y-98660511D01*
X104692522Y-98652600D01*
X104932716Y-98628943D01*
X105240915Y-98535452D01*
X105524952Y-98383631D01*
X105773914Y-98179314D01*
X105978231Y-97930352D01*
X106130052Y-97646315D01*
X106156066Y-97560556D01*
X108459489Y-97560556D01*
X108498042Y-97880308D01*
X108598234Y-98186393D01*
X108756215Y-98467052D01*
X108965915Y-98711497D01*
X109219274Y-98910334D01*
X109506556Y-99055923D01*
X109816721Y-99142668D01*
X109897202Y-99148825D01*
X123526303Y-101552004D01*
X123604029Y-101573742D01*
X123684503Y-101579899D01*
X123925156Y-101598311D01*
X124244908Y-101559758D01*
X124550993Y-101459566D01*
X124831652Y-101301585D01*
X125076097Y-101091885D01*
X125274934Y-100838526D01*
X125420523Y-100551244D01*
X125485529Y-100318807D01*
X125507268Y-100241079D01*
X125513425Y-100160601D01*
X125937955Y-97752969D01*
X128730864Y-97752969D01*
X128776383Y-98071803D01*
X128883228Y-98375631D01*
X129047295Y-98652776D01*
X129262277Y-98892588D01*
X129519913Y-99085851D01*
X129810303Y-99225138D01*
X129888492Y-99245177D01*
X142893233Y-103978517D01*
X142965999Y-104013420D01*
X143044176Y-104033456D01*
X143044181Y-104033458D01*
X143139891Y-104057987D01*
X143277982Y-104093379D01*
X143599569Y-104110936D01*
X143918403Y-104065417D01*
X144222231Y-103958572D01*
X144499376Y-103794505D01*
X144739188Y-103579523D01*
X144932451Y-103321887D01*
X145036832Y-103104269D01*
X145071738Y-103031497D01*
X145091776Y-102953311D01*
X149825118Y-89948565D01*
X149860020Y-89875801D01*
X149880055Y-89797626D01*
X149880058Y-89797619D01*
X149939978Y-89563819D01*
X149957536Y-89242231D01*
X149955234Y-89226104D01*
X149912017Y-88923396D01*
X149805172Y-88619568D01*
X149641105Y-88342423D01*
X149426123Y-88102611D01*
X149168486Y-87909348D01*
X148950869Y-87804967D01*
X148950863Y-87804965D01*
X148878097Y-87770062D01*
X148799920Y-87750026D01*
X135795171Y-83016685D01*
X135722401Y-82981780D01*
X135644219Y-82961743D01*
X135644217Y-82961742D01*
X135410418Y-82901821D01*
X135088831Y-82884264D01*
X135088830Y-82884264D01*
X134769996Y-82929783D01*
X134466168Y-83036628D01*
X134189023Y-83200695D01*
X133949211Y-83415677D01*
X133755948Y-83673314D01*
X133652704Y-83888561D01*
X133616662Y-83963703D01*
X133596625Y-84041882D01*
X128863286Y-97046627D01*
X128828380Y-97119399D01*
X128808342Y-97197583D01*
X128748421Y-97431382D01*
X128730864Y-97752969D01*
X125937955Y-97752969D01*
X127916604Y-86531495D01*
X127938342Y-86453771D01*
X127944499Y-86373297D01*
X127962911Y-86132644D01*
X127924358Y-85812893D01*
X127924358Y-85812891D01*
X127824166Y-85506806D01*
X127666185Y-85226147D01*
X127620693Y-85173117D01*
X129049200Y-85173117D01*
X129049200Y-85514883D01*
X129115875Y-85850081D01*
X129246663Y-86165831D01*
X129436537Y-86449998D01*
X129678202Y-86691663D01*
X129962369Y-86881537D01*
X130278119Y-87012325D01*
X130613317Y-87079000D01*
X130955083Y-87079000D01*
X131290281Y-87012325D01*
X131606031Y-86881537D01*
X131890198Y-86691663D01*
X132131863Y-86449998D01*
X132321737Y-86165831D01*
X132452525Y-85850081D01*
X132519200Y-85514883D01*
X132519200Y-85173117D01*
X132452525Y-84837919D01*
X132321737Y-84522169D01*
X132131863Y-84238002D01*
X131890198Y-83996337D01*
X131606031Y-83806463D01*
X131290281Y-83675675D01*
X130955083Y-83609000D01*
X130613317Y-83609000D01*
X130278119Y-83675675D01*
X129962369Y-83806463D01*
X129678202Y-83996337D01*
X129436537Y-84238002D01*
X129246663Y-84522169D01*
X129115875Y-84837919D01*
X129049200Y-85173117D01*
X127620693Y-85173117D01*
X127456484Y-84981702D01*
X127203126Y-84782865D01*
X126915843Y-84637276D01*
X126683407Y-84572270D01*
X126683400Y-84572269D01*
X126605679Y-84550532D01*
X126525211Y-84544376D01*
X112896098Y-82141196D01*
X112818371Y-82119458D01*
X112737897Y-82113301D01*
X112737895Y-82113301D01*
X112497244Y-82094889D01*
X112216044Y-82128794D01*
X112177491Y-82133442D01*
X111871406Y-82233634D01*
X111590747Y-82391615D01*
X111472991Y-82492634D01*
X111354397Y-82594372D01*
X111346302Y-82601316D01*
X111147465Y-82854674D01*
X111001876Y-83141957D01*
X110936870Y-83374393D01*
X110915132Y-83452121D01*
X110908975Y-83532592D01*
X108505797Y-97161700D01*
X108484058Y-97239429D01*
X108477901Y-97319905D01*
X108459489Y-97560556D01*
X106156066Y-97560556D01*
X106223543Y-97338116D01*
X106255111Y-97017600D01*
X106247200Y-96937278D01*
X106247200Y-83097922D01*
X106255111Y-83017600D01*
X106223543Y-82697084D01*
X106130052Y-82388885D01*
X105978231Y-82104848D01*
X105773914Y-81855886D01*
X105524952Y-81651569D01*
X105240915Y-81499748D01*
X104932716Y-81406257D01*
X104692522Y-81382600D01*
X104612200Y-81374689D01*
X104531878Y-81382600D01*
X90692522Y-81382600D01*
X90612200Y-81374689D01*
X90531878Y-81382600D01*
X90291684Y-81406257D01*
X89983485Y-81499748D01*
X89699448Y-81651569D01*
X89450486Y-81855886D01*
X89246169Y-82104848D01*
X89094348Y-82388885D01*
X89000857Y-82697084D01*
X88969289Y-83017600D01*
X82884649Y-83017600D01*
X82855543Y-82722084D01*
X82762052Y-82413885D01*
X82610231Y-82129848D01*
X82405914Y-81880886D01*
X82156952Y-81676569D01*
X81872915Y-81524748D01*
X81564716Y-81431257D01*
X81324522Y-81407600D01*
X81244200Y-81399689D01*
X81163878Y-81407600D01*
X67324522Y-81407600D01*
X67244200Y-81399689D01*
X67163878Y-81407600D01*
X66923684Y-81431257D01*
X66615485Y-81524748D01*
X66331448Y-81676569D01*
X66082486Y-81880886D01*
X65878169Y-82129848D01*
X65726348Y-82413885D01*
X65632857Y-82722084D01*
X65601289Y-83042600D01*
X54812200Y-83042600D01*
X54812200Y-70702722D01*
X54820111Y-70622400D01*
X54788543Y-70301884D01*
X54695052Y-69993685D01*
X54543231Y-69709648D01*
X54338914Y-69460686D01*
X54089952Y-69256369D01*
X53805915Y-69104548D01*
X53497716Y-69011057D01*
X53257522Y-68987400D01*
X53177200Y-68979489D01*
X53096878Y-68987400D01*
X39257522Y-68987400D01*
X39177200Y-68979489D01*
X39096878Y-68987400D01*
X38856684Y-69011057D01*
X38548485Y-69104548D01*
X38264448Y-69256369D01*
X38015486Y-69460686D01*
X37811169Y-69709648D01*
X37659348Y-69993685D01*
X37565857Y-70301884D01*
X37545200Y-70511619D01*
X37545200Y-70415717D01*
X37478525Y-70080519D01*
X37347737Y-69764769D01*
X37157863Y-69480602D01*
X36916198Y-69238937D01*
X36632031Y-69049063D01*
X36316281Y-68918275D01*
X35981083Y-68851600D01*
X35639317Y-68851600D01*
X35549269Y-68869512D01*
X35645052Y-68690315D01*
X35738543Y-68382116D01*
X35762200Y-68141922D01*
X35770111Y-68061600D01*
X35762200Y-67981278D01*
X35762200Y-54141922D01*
X35770111Y-54061600D01*
X35738543Y-53741084D01*
X35645052Y-53432885D01*
X35561439Y-53276457D01*
X35664717Y-53297000D01*
X36006483Y-53297000D01*
X36341681Y-53230325D01*
X36657431Y-53099537D01*
X36941598Y-52909663D01*
X37183263Y-52667998D01*
X37373137Y-52383831D01*
X37503925Y-52068081D01*
X37542200Y-51875659D01*
X37542201Y-65517468D01*
X37534289Y-65597800D01*
X37565857Y-65918316D01*
X37659348Y-66226515D01*
X37811169Y-66510552D01*
X38015486Y-66759514D01*
X38264448Y-66963831D01*
X38548485Y-67115652D01*
X38856684Y-67209143D01*
X39096878Y-67232800D01*
X39177200Y-67240711D01*
X39257522Y-67232800D01*
X53096878Y-67232800D01*
X53177200Y-67240711D01*
X53497716Y-67209143D01*
X53805915Y-67115652D01*
X54089952Y-66963831D01*
X54338914Y-66759514D01*
X54543231Y-66510552D01*
X54695052Y-66226515D01*
X54788543Y-65918316D01*
X54812200Y-65678122D01*
X54820111Y-65597800D01*
X54812200Y-65517478D01*
X54812200Y-59294000D01*
X56584289Y-59294000D01*
X56592200Y-59374322D01*
X56592201Y-73213668D01*
X56584289Y-73294000D01*
X56615857Y-73614516D01*
X56709348Y-73922715D01*
X56861169Y-74206752D01*
X57065486Y-74455714D01*
X57314448Y-74660031D01*
X57598485Y-74811852D01*
X57906684Y-74905343D01*
X58146878Y-74929000D01*
X58227200Y-74936911D01*
X58307522Y-74929000D01*
X72146878Y-74929000D01*
X72227200Y-74936911D01*
X72547716Y-74905343D01*
X72855915Y-74811852D01*
X73139952Y-74660031D01*
X73388914Y-74455714D01*
X73593231Y-74206752D01*
X73745052Y-73922715D01*
X73838543Y-73614516D01*
X73862200Y-73374322D01*
X73870111Y-73294000D01*
X73862200Y-73213678D01*
X73862200Y-59374322D01*
X73870111Y-59294000D01*
X73838543Y-58973484D01*
X73745052Y-58665285D01*
X73593231Y-58381248D01*
X73388914Y-58132286D01*
X73139952Y-57927969D01*
X72855915Y-57776148D01*
X72547716Y-57682657D01*
X72307522Y-57659000D01*
X72227200Y-57651089D01*
X72146878Y-57659000D01*
X58307522Y-57659000D01*
X58227200Y-57651089D01*
X58146878Y-57659000D01*
X57906684Y-57682657D01*
X57598485Y-57776148D01*
X57314448Y-57927969D01*
X57065486Y-58132286D01*
X56861169Y-58381248D01*
X56709348Y-58665285D01*
X56615857Y-58973484D01*
X56584289Y-59294000D01*
X54812200Y-59294000D01*
X54812200Y-56754000D01*
X75634289Y-56754000D01*
X75642200Y-56834322D01*
X75642201Y-70673668D01*
X75634289Y-70754000D01*
X75665857Y-71074516D01*
X75759348Y-71382715D01*
X75911169Y-71666752D01*
X76115486Y-71915714D01*
X76364448Y-72120031D01*
X76648485Y-72271852D01*
X76956684Y-72365343D01*
X77196878Y-72389000D01*
X77277200Y-72396911D01*
X77357522Y-72389000D01*
X91196878Y-72389000D01*
X91277200Y-72396911D01*
X91436230Y-72381248D01*
X91597716Y-72365343D01*
X91905915Y-72271852D01*
X92189952Y-72120031D01*
X92438914Y-71915714D01*
X92643231Y-71666752D01*
X92795052Y-71382715D01*
X92888543Y-71074516D01*
X92920111Y-70754000D01*
X92912200Y-70673678D01*
X92912200Y-59243200D01*
X94684289Y-59243200D01*
X94692200Y-59323522D01*
X94692201Y-73162868D01*
X94684289Y-73243200D01*
X94715857Y-73563716D01*
X94809348Y-73871915D01*
X94961169Y-74155952D01*
X95165486Y-74404914D01*
X95414448Y-74609231D01*
X95698485Y-74761052D01*
X96006684Y-74854543D01*
X96246878Y-74878200D01*
X96327200Y-74886111D01*
X96407522Y-74878200D01*
X110246878Y-74878200D01*
X110327200Y-74886111D01*
X110647716Y-74854543D01*
X110955915Y-74761052D01*
X111239952Y-74609231D01*
X111488914Y-74404914D01*
X111693231Y-74155952D01*
X111845052Y-73871915D01*
X111938543Y-73563716D01*
X111962200Y-73323522D01*
X111970111Y-73243200D01*
X111962200Y-73162878D01*
X111962200Y-61656200D01*
X113734289Y-61656200D01*
X113742200Y-61736522D01*
X113742201Y-75575868D01*
X113734289Y-75656200D01*
X113765857Y-75976716D01*
X113859348Y-76284915D01*
X114011169Y-76568952D01*
X114215486Y-76817914D01*
X114464448Y-77022231D01*
X114748485Y-77174052D01*
X115056684Y-77267543D01*
X115296878Y-77291200D01*
X115377200Y-77299111D01*
X115457522Y-77291200D01*
X129296878Y-77291200D01*
X129377200Y-77299111D01*
X129697716Y-77267543D01*
X130005915Y-77174052D01*
X130289952Y-77022231D01*
X130538914Y-76817914D01*
X130743231Y-76568952D01*
X130895052Y-76284915D01*
X130988543Y-75976716D01*
X131012200Y-75736522D01*
X131020111Y-75656200D01*
X131012200Y-75575878D01*
X131012200Y-61736522D01*
X131020111Y-61656200D01*
X130988543Y-61335684D01*
X130895052Y-61027485D01*
X130743231Y-60743448D01*
X130538914Y-60494486D01*
X130289952Y-60290169D01*
X130005915Y-60138348D01*
X129697716Y-60044857D01*
X129457522Y-60021200D01*
X129377200Y-60013289D01*
X129296878Y-60021200D01*
X115457522Y-60021200D01*
X115377200Y-60013289D01*
X115296878Y-60021200D01*
X115056684Y-60044857D01*
X114748485Y-60138348D01*
X114464448Y-60290169D01*
X114215486Y-60494486D01*
X114011169Y-60743448D01*
X113859348Y-61027485D01*
X113765857Y-61335684D01*
X113734289Y-61656200D01*
X111962200Y-61656200D01*
X111962200Y-59323522D01*
X111970111Y-59243200D01*
X111938543Y-58922684D01*
X111845052Y-58614485D01*
X111693231Y-58330448D01*
X111488914Y-58081486D01*
X111239952Y-57877169D01*
X110955915Y-57725348D01*
X110647716Y-57631857D01*
X110407522Y-57608200D01*
X110327200Y-57600289D01*
X110246878Y-57608200D01*
X96407522Y-57608200D01*
X96327200Y-57600289D01*
X96246878Y-57608200D01*
X96006684Y-57631857D01*
X95698485Y-57725348D01*
X95414448Y-57877169D01*
X95165486Y-58081486D01*
X94961169Y-58330448D01*
X94809348Y-58614485D01*
X94715857Y-58922684D01*
X94684289Y-59243200D01*
X92912200Y-59243200D01*
X92912200Y-56834322D01*
X92920111Y-56754000D01*
X92888543Y-56433484D01*
X92795052Y-56125285D01*
X92643231Y-55841248D01*
X92438914Y-55592286D01*
X92189952Y-55387969D01*
X91905915Y-55236148D01*
X91597716Y-55142657D01*
X91357522Y-55119000D01*
X91277200Y-55111089D01*
X91196878Y-55119000D01*
X77357522Y-55119000D01*
X77277200Y-55111089D01*
X77196878Y-55119000D01*
X76956684Y-55142657D01*
X76648485Y-55236148D01*
X76364448Y-55387969D01*
X76115486Y-55592286D01*
X75911169Y-55841248D01*
X75759348Y-56125285D01*
X75665857Y-56433484D01*
X75634289Y-56754000D01*
X54812200Y-56754000D01*
X54812200Y-51678122D01*
X54820111Y-51597800D01*
X54788543Y-51277284D01*
X54695052Y-50969085D01*
X54543231Y-50685048D01*
X54338914Y-50436086D01*
X54089952Y-50231769D01*
X53805915Y-50079948D01*
X53497716Y-49986457D01*
X53257522Y-49962800D01*
X53177200Y-49954889D01*
X53096878Y-49962800D01*
X39257522Y-49962800D01*
X39177200Y-49954889D01*
X39096878Y-49962800D01*
X38856684Y-49986457D01*
X38548485Y-50079948D01*
X38264448Y-50231769D01*
X38015486Y-50436086D01*
X37811169Y-50685048D01*
X37659348Y-50969085D01*
X37565857Y-51277284D01*
X37559929Y-51337471D01*
X37503925Y-51055919D01*
X37373137Y-50740169D01*
X37183263Y-50456002D01*
X36941598Y-50214337D01*
X36657431Y-50024463D01*
X36341681Y-49893675D01*
X36006483Y-49827000D01*
X35664717Y-49827000D01*
X35531056Y-49853587D01*
X35645052Y-49640315D01*
X35738543Y-49332116D01*
X35762200Y-49091922D01*
X35770111Y-49011600D01*
X35762200Y-48931278D01*
X35762200Y-35091922D01*
X35770111Y-35011600D01*
X35738543Y-34691084D01*
X35645052Y-34382885D01*
X35493231Y-34098848D01*
X35288914Y-33849886D01*
X35039952Y-33645569D01*
X34755915Y-33493748D01*
X34447716Y-33400257D01*
X34207522Y-33376600D01*
X34127200Y-33368689D01*
X34046878Y-33376600D01*
X20207522Y-33376600D01*
X20127200Y-33368689D01*
X20046878Y-33376600D01*
X19806684Y-33400257D01*
X19498485Y-33493748D01*
X19214448Y-33645569D01*
X18965486Y-33849886D01*
X18761169Y-34098848D01*
X18609348Y-34382885D01*
X18515857Y-34691084D01*
X18484289Y-35011600D01*
X18362600Y-35011600D01*
X18362599Y-33535257D01*
X18371104Y-33448513D01*
X18385854Y-33399660D01*
X18409812Y-33354601D01*
X18442066Y-33315055D01*
X18481386Y-33282526D01*
X18526270Y-33258257D01*
X18575027Y-33243165D01*
X18659364Y-33234300D01*
X36641503Y-33234300D01*
X36677600Y-33237855D01*
X36713695Y-33234300D01*
X36713705Y-33234300D01*
X36821685Y-33223665D01*
X36960233Y-33181637D01*
X37087920Y-33113387D01*
X37199838Y-33021538D01*
X37291687Y-32909620D01*
X37359937Y-32781933D01*
X37401965Y-32643385D01*
X37413880Y-32522400D01*
X37534289Y-32522400D01*
X37542200Y-32602722D01*
X37542201Y-46442068D01*
X37534289Y-46522400D01*
X37565857Y-46842916D01*
X37659348Y-47151115D01*
X37811169Y-47435152D01*
X38015486Y-47684114D01*
X38264448Y-47888431D01*
X38548485Y-48040252D01*
X38856684Y-48133743D01*
X39096878Y-48157400D01*
X39177200Y-48165311D01*
X39257522Y-48157400D01*
X53096878Y-48157400D01*
X53177200Y-48165311D01*
X53497716Y-48133743D01*
X53805915Y-48040252D01*
X54089952Y-47888431D01*
X54338914Y-47684114D01*
X54543231Y-47435152D01*
X54695052Y-47151115D01*
X54788543Y-46842916D01*
X54812200Y-46602722D01*
X54820111Y-46522400D01*
X54812200Y-46442078D01*
X54812200Y-40167800D01*
X56584289Y-40167800D01*
X56592200Y-40248122D01*
X56592201Y-54087468D01*
X56584289Y-54167800D01*
X56615857Y-54488316D01*
X56709348Y-54796515D01*
X56861169Y-55080552D01*
X57065486Y-55329514D01*
X57314448Y-55533831D01*
X57598485Y-55685652D01*
X57906684Y-55779143D01*
X58146878Y-55802800D01*
X58227200Y-55810711D01*
X58307522Y-55802800D01*
X72146878Y-55802800D01*
X72227200Y-55810711D01*
X72547716Y-55779143D01*
X72855915Y-55685652D01*
X73139952Y-55533831D01*
X73388914Y-55329514D01*
X73593231Y-55080552D01*
X73745052Y-54796515D01*
X73838543Y-54488316D01*
X73862200Y-54248122D01*
X73870111Y-54167800D01*
X73862200Y-54087478D01*
X73862200Y-40248122D01*
X73870111Y-40167800D01*
X73849334Y-39956842D01*
X73838543Y-39847284D01*
X73745052Y-39539085D01*
X73593231Y-39255048D01*
X73388914Y-39006086D01*
X73338353Y-38964592D01*
X73139952Y-38801769D01*
X72855915Y-38649948D01*
X72547716Y-38556457D01*
X72307522Y-38532800D01*
X72227200Y-38524889D01*
X72146878Y-38532800D01*
X58307522Y-38532800D01*
X58227200Y-38524889D01*
X58146878Y-38532800D01*
X57906684Y-38556457D01*
X57598485Y-38649948D01*
X57314448Y-38801769D01*
X57065486Y-39006086D01*
X56861169Y-39255048D01*
X56709348Y-39539085D01*
X56615857Y-39847284D01*
X56584289Y-40167800D01*
X54812200Y-40167800D01*
X54812200Y-32602722D01*
X54820111Y-32522400D01*
X54788543Y-32201884D01*
X54695052Y-31893685D01*
X54543231Y-31609648D01*
X54338914Y-31360686D01*
X54089952Y-31156369D01*
X53805915Y-31004548D01*
X53497716Y-30911057D01*
X53257522Y-30887400D01*
X53177200Y-30879489D01*
X53096878Y-30887400D01*
X39257522Y-30887400D01*
X39177200Y-30879489D01*
X39096878Y-30887400D01*
X38856684Y-30911057D01*
X38548485Y-31004548D01*
X38264448Y-31156369D01*
X38015486Y-31360686D01*
X37811169Y-31609648D01*
X37659348Y-31893685D01*
X37565857Y-32201884D01*
X37534289Y-32522400D01*
X37413880Y-32522400D01*
X37416156Y-32499300D01*
X37412600Y-32463194D01*
X37412598Y-31058755D01*
X37421103Y-30972012D01*
X37435854Y-30923158D01*
X37459809Y-30878104D01*
X37492064Y-30838556D01*
X37531384Y-30806027D01*
X37576275Y-30781755D01*
X37625024Y-30766665D01*
X37709364Y-30757800D01*
X55691504Y-30757800D01*
X55727599Y-30761355D01*
X55763696Y-30757800D01*
X55763704Y-30757800D01*
X55871684Y-30747165D01*
X56010232Y-30705137D01*
X56137919Y-30636887D01*
X56249837Y-30545038D01*
X56341686Y-30433120D01*
X56409936Y-30305433D01*
X56451964Y-30166885D01*
X56466155Y-30022800D01*
X56462598Y-29986685D01*
X56462599Y-21092400D01*
X56584289Y-21092400D01*
X56592200Y-21172722D01*
X56592201Y-35012068D01*
X56584289Y-35092400D01*
X56615857Y-35412916D01*
X56709348Y-35721115D01*
X56861169Y-36005152D01*
X57065486Y-36254114D01*
X57314448Y-36458431D01*
X57598485Y-36610252D01*
X57906684Y-36703743D01*
X58146878Y-36727400D01*
X58227200Y-36735311D01*
X58307522Y-36727400D01*
X72146878Y-36727400D01*
X72227200Y-36735311D01*
X72547716Y-36703743D01*
X72855915Y-36610252D01*
X73139952Y-36458431D01*
X73388914Y-36254114D01*
X73593231Y-36005152D01*
X73745052Y-35721115D01*
X73838543Y-35412916D01*
X73862200Y-35172722D01*
X73870111Y-35092400D01*
X73862200Y-35012078D01*
X73862200Y-21172722D01*
X73870111Y-21092400D01*
X73838543Y-20771884D01*
X73745052Y-20463685D01*
X73593231Y-20179648D01*
X73388914Y-19930686D01*
X73139952Y-19726369D01*
X72855915Y-19574548D01*
X72547716Y-19481057D01*
X72307522Y-19457400D01*
X72227200Y-19449489D01*
X72146878Y-19457400D01*
X58307522Y-19457400D01*
X58227200Y-19449489D01*
X58146878Y-19457400D01*
X57906684Y-19481057D01*
X57598485Y-19574548D01*
X57314448Y-19726369D01*
X57065486Y-19930686D01*
X56861169Y-20179648D01*
X56709348Y-20463685D01*
X56615857Y-20771884D01*
X56584289Y-21092400D01*
X56462599Y-21092400D01*
X56462600Y-19628736D01*
X56471103Y-19542012D01*
X56485854Y-19493158D01*
X56509809Y-19448104D01*
X56542064Y-19408556D01*
X56581384Y-19376027D01*
X56626275Y-19351755D01*
X56675024Y-19336665D01*
X56759364Y-19327800D01*
X74741495Y-19327800D01*
X74777600Y-19331356D01*
X74813705Y-19327800D01*
X74921685Y-19317165D01*
X75060233Y-19275137D01*
X75187920Y-19206887D01*
X75299838Y-19115038D01*
X75391687Y-19003120D01*
X75459937Y-18875433D01*
X75501965Y-18736885D01*
X75507626Y-18679400D01*
X75634289Y-18679400D01*
X75642200Y-18759722D01*
X75642201Y-32599068D01*
X75634289Y-32679400D01*
X75665857Y-32999916D01*
X75759348Y-33308115D01*
X75911169Y-33592152D01*
X76115486Y-33841114D01*
X76364448Y-34045431D01*
X76648485Y-34197252D01*
X76956684Y-34290743D01*
X77196878Y-34314400D01*
X77277200Y-34322311D01*
X77357522Y-34314400D01*
X91196878Y-34314400D01*
X91277200Y-34322311D01*
X91457842Y-34304519D01*
X91422663Y-34357169D01*
X91291875Y-34672919D01*
X91225200Y-35008117D01*
X91225200Y-35349883D01*
X91291875Y-35685081D01*
X91422663Y-36000831D01*
X91476010Y-36080670D01*
X91357522Y-36069000D01*
X91277200Y-36061089D01*
X91196878Y-36069000D01*
X77357522Y-36069000D01*
X77277200Y-36061089D01*
X77196878Y-36069000D01*
X76956684Y-36092657D01*
X76648485Y-36186148D01*
X76364448Y-36337969D01*
X76115486Y-36542286D01*
X75911169Y-36791248D01*
X75759348Y-37075285D01*
X75665857Y-37383484D01*
X75634289Y-37704000D01*
X75642200Y-37784322D01*
X75642201Y-51623668D01*
X75634289Y-51704000D01*
X75665857Y-52024516D01*
X75759348Y-52332715D01*
X75911169Y-52616752D01*
X76115486Y-52865714D01*
X76364448Y-53070031D01*
X76648485Y-53221852D01*
X76956684Y-53315343D01*
X77196878Y-53339000D01*
X77277200Y-53346911D01*
X77357522Y-53339000D01*
X91196878Y-53339000D01*
X91277200Y-53346911D01*
X91597716Y-53315343D01*
X91905915Y-53221852D01*
X92189952Y-53070031D01*
X92438914Y-52865714D01*
X92643231Y-52616752D01*
X92795052Y-52332715D01*
X92888543Y-52024516D01*
X92912200Y-51784322D01*
X92920111Y-51704000D01*
X92912200Y-51623678D01*
X92912200Y-40167800D01*
X94684289Y-40167800D01*
X94692200Y-40248122D01*
X94692201Y-54087468D01*
X94684289Y-54167800D01*
X94715857Y-54488316D01*
X94809348Y-54796515D01*
X94961169Y-55080552D01*
X95165486Y-55329514D01*
X95414448Y-55533831D01*
X95698485Y-55685652D01*
X96006684Y-55779143D01*
X96246878Y-55802800D01*
X96327200Y-55810711D01*
X96407522Y-55802800D01*
X110246878Y-55802800D01*
X110327200Y-55810711D01*
X110647716Y-55779143D01*
X110955915Y-55685652D01*
X111239952Y-55533831D01*
X111488914Y-55329514D01*
X111693231Y-55080552D01*
X111845052Y-54796515D01*
X111938543Y-54488316D01*
X111962200Y-54248122D01*
X111970111Y-54167800D01*
X111962200Y-54087478D01*
X111962200Y-42657000D01*
X113734289Y-42657000D01*
X113742200Y-42737322D01*
X113742201Y-56576668D01*
X113734289Y-56657000D01*
X113765857Y-56977516D01*
X113859348Y-57285715D01*
X114011169Y-57569752D01*
X114215486Y-57818714D01*
X114464448Y-58023031D01*
X114748485Y-58174852D01*
X115056684Y-58268343D01*
X115296878Y-58292000D01*
X115377200Y-58299911D01*
X115457522Y-58292000D01*
X129296878Y-58292000D01*
X129377200Y-58299911D01*
X129697716Y-58268343D01*
X130005915Y-58174852D01*
X130289952Y-58023031D01*
X130538914Y-57818714D01*
X130743231Y-57569752D01*
X130895052Y-57285715D01*
X130988543Y-56977516D01*
X131012200Y-56737322D01*
X131020111Y-56657000D01*
X131012200Y-56576678D01*
X131012200Y-42737322D01*
X131020111Y-42657000D01*
X130988543Y-42336484D01*
X130895052Y-42028285D01*
X130743231Y-41744248D01*
X130538914Y-41495286D01*
X130289952Y-41290969D01*
X130005915Y-41139148D01*
X129697716Y-41045657D01*
X129457522Y-41022000D01*
X129377200Y-41014089D01*
X129296878Y-41022000D01*
X115457522Y-41022000D01*
X115377200Y-41014089D01*
X115296878Y-41022000D01*
X115056684Y-41045657D01*
X114748485Y-41139148D01*
X114464448Y-41290969D01*
X114215486Y-41495286D01*
X114011169Y-41744248D01*
X113859348Y-42028285D01*
X113765857Y-42336484D01*
X113734289Y-42657000D01*
X111962200Y-42657000D01*
X111962200Y-40248122D01*
X111970111Y-40167800D01*
X111949334Y-39956842D01*
X111938543Y-39847284D01*
X111845052Y-39539085D01*
X111693231Y-39255048D01*
X111488914Y-39006086D01*
X111438353Y-38964592D01*
X111239952Y-38801769D01*
X110955915Y-38649948D01*
X110647716Y-38556457D01*
X110407522Y-38532800D01*
X110327200Y-38524889D01*
X110246878Y-38532800D01*
X96407522Y-38532800D01*
X96327200Y-38524889D01*
X96246878Y-38532800D01*
X96006684Y-38556457D01*
X95698485Y-38649948D01*
X95414448Y-38801769D01*
X95165486Y-39006086D01*
X94961169Y-39255048D01*
X94809348Y-39539085D01*
X94715857Y-39847284D01*
X94684289Y-40167800D01*
X92912200Y-40167800D01*
X92912200Y-37784322D01*
X92920111Y-37704000D01*
X92888543Y-37383484D01*
X92795052Y-37075285D01*
X92699269Y-36896088D01*
X92789317Y-36914000D01*
X93131083Y-36914000D01*
X93466281Y-36847325D01*
X93782031Y-36716537D01*
X94066198Y-36526663D01*
X94307863Y-36284998D01*
X94497737Y-36000831D01*
X94628525Y-35685081D01*
X94695200Y-35349883D01*
X94695200Y-35228581D01*
X94715857Y-35438316D01*
X94809348Y-35746515D01*
X94961169Y-36030552D01*
X95165486Y-36279514D01*
X95414448Y-36483831D01*
X95698485Y-36635652D01*
X96006684Y-36729143D01*
X96246878Y-36752800D01*
X96327200Y-36760711D01*
X96407522Y-36752800D01*
X110246878Y-36752800D01*
X110327200Y-36760711D01*
X110647716Y-36729143D01*
X110955915Y-36635652D01*
X111239952Y-36483831D01*
X111488914Y-36279514D01*
X111693231Y-36030552D01*
X111845052Y-35746515D01*
X111938543Y-35438316D01*
X111962200Y-35198122D01*
X111970111Y-35117800D01*
X111962200Y-35037478D01*
X111962200Y-23530800D01*
X113734289Y-23530800D01*
X113742200Y-23611122D01*
X113742201Y-37450468D01*
X113734289Y-37530800D01*
X113765857Y-37851316D01*
X113859348Y-38159515D01*
X114011169Y-38443552D01*
X114215486Y-38692514D01*
X114464448Y-38896831D01*
X114748485Y-39048652D01*
X115056684Y-39142143D01*
X115296878Y-39165800D01*
X115377200Y-39173711D01*
X115457522Y-39165800D01*
X129296878Y-39165800D01*
X129377200Y-39173711D01*
X129697716Y-39142143D01*
X130005915Y-39048652D01*
X130289952Y-38896831D01*
X130538914Y-38692514D01*
X130743231Y-38443552D01*
X130895052Y-38159515D01*
X130988543Y-37851316D01*
X131012200Y-37611122D01*
X131020111Y-37530800D01*
X131012200Y-37450478D01*
X131012200Y-23611122D01*
X131020111Y-23530800D01*
X130988543Y-23210284D01*
X130895052Y-22902085D01*
X130743231Y-22618048D01*
X130538914Y-22369086D01*
X130289952Y-22164769D01*
X130005915Y-22012948D01*
X129697716Y-21919457D01*
X129457522Y-21895800D01*
X129377200Y-21887889D01*
X129296878Y-21895800D01*
X115457522Y-21895800D01*
X115377200Y-21887889D01*
X115296878Y-21895800D01*
X115056684Y-21919457D01*
X114748485Y-22012948D01*
X114464448Y-22164769D01*
X114215486Y-22369086D01*
X114011169Y-22618048D01*
X113859348Y-22902085D01*
X113765857Y-23210284D01*
X113734289Y-23530800D01*
X111962200Y-23530800D01*
X111962200Y-21198122D01*
X111970111Y-21117800D01*
X111938543Y-20797284D01*
X111845052Y-20489085D01*
X111693231Y-20205048D01*
X111488914Y-19956086D01*
X111239952Y-19751769D01*
X110955915Y-19599948D01*
X110647716Y-19506457D01*
X110407522Y-19482800D01*
X110327200Y-19474889D01*
X110246878Y-19482800D01*
X96407522Y-19482800D01*
X96327200Y-19474889D01*
X96246878Y-19482800D01*
X96006684Y-19506457D01*
X95698485Y-19599948D01*
X95414448Y-19751769D01*
X95165486Y-19956086D01*
X94961169Y-20205048D01*
X94809348Y-20489085D01*
X94715857Y-20797284D01*
X94684289Y-21117800D01*
X94692200Y-21198122D01*
X94692201Y-34993040D01*
X94628525Y-34672919D01*
X94497737Y-34357169D01*
X94307863Y-34073002D01*
X94066198Y-33831337D01*
X93782031Y-33641463D01*
X93466281Y-33510675D01*
X93131083Y-33444000D01*
X92789317Y-33444000D01*
X92714461Y-33458890D01*
X92795052Y-33308115D01*
X92888543Y-32999916D01*
X92912200Y-32759722D01*
X92920111Y-32679400D01*
X92912200Y-32599078D01*
X92912200Y-18759722D01*
X92920111Y-18679400D01*
X92888543Y-18358884D01*
X92795052Y-18050685D01*
X92643231Y-17766648D01*
X92438914Y-17517686D01*
X92189952Y-17313369D01*
X91905915Y-17161548D01*
X91597716Y-17068057D01*
X91357522Y-17044400D01*
X91277200Y-17036489D01*
X91196878Y-17044400D01*
X77357522Y-17044400D01*
X77277200Y-17036489D01*
X77196878Y-17044400D01*
X76956684Y-17068057D01*
X76648485Y-17161548D01*
X76364448Y-17313369D01*
X76115486Y-17517686D01*
X75911169Y-17766648D01*
X75759348Y-18050685D01*
X75665857Y-18358884D01*
X75634289Y-18679400D01*
X75507626Y-18679400D01*
X75516156Y-18592800D01*
X75512600Y-18556695D01*
X75512600Y-17152236D01*
X75521103Y-17065512D01*
X75535854Y-17016658D01*
X75559809Y-16971604D01*
X75592064Y-16932056D01*
X75631384Y-16899527D01*
X75676275Y-16875255D01*
X75725024Y-16860165D01*
X75809374Y-16851299D01*
X92791663Y-16851301D01*
G37*
%TD.AperFunction*%
D12*
X155578787Y-25465652D02*
X155627640Y-25480402D01*
X155672699Y-25504360D01*
X155712245Y-25536614D01*
X155744774Y-25575934D01*
X155769043Y-25620818D01*
X155784135Y-25669575D01*
X155793001Y-25753922D01*
X155793000Y-80258053D01*
X155784496Y-80344786D01*
X155769746Y-80393640D01*
X155745788Y-80438699D01*
X155713534Y-80478246D01*
X155674215Y-80510773D01*
X155629329Y-80535043D01*
X155580573Y-80550135D01*
X155529828Y-80555469D01*
X155472561Y-80550257D01*
X155409626Y-80532923D01*
X141441982Y-75449117D01*
X146295000Y-75449117D01*
X146295000Y-75790883D01*
X146361675Y-76126081D01*
X146492463Y-76441831D01*
X146682337Y-76725998D01*
X146924002Y-76967663D01*
X147208169Y-77157537D01*
X147523919Y-77288325D01*
X147859117Y-77355000D01*
X148200883Y-77355000D01*
X148536081Y-77288325D01*
X148851831Y-77157537D01*
X149135998Y-76967663D01*
X149377663Y-76725998D01*
X149567537Y-76441831D01*
X149698325Y-76126081D01*
X149765000Y-75790883D01*
X149765000Y-75449117D01*
X149698325Y-75113919D01*
X149567537Y-74798169D01*
X149377663Y-74514002D01*
X149135998Y-74272337D01*
X148851831Y-74082463D01*
X148536081Y-73951675D01*
X148200883Y-73885000D01*
X147859117Y-73885000D01*
X147523919Y-73951675D01*
X147208169Y-74082463D01*
X146924002Y-74272337D01*
X146682337Y-74514002D01*
X146492463Y-74798169D01*
X146361675Y-75113919D01*
X146295000Y-75449117D01*
X141441982Y-75449117D01*
X135867178Y-73420055D01*
X135788575Y-73382394D01*
X135747713Y-73351826D01*
X135713565Y-73313901D01*
X135687436Y-73270069D01*
X135670317Y-73221993D01*
X135658903Y-73144695D01*
X135658807Y-73140777D01*
X135657986Y-73134093D01*
X135658559Y-62539117D01*
X136185000Y-62539117D01*
X136185000Y-62880883D01*
X136251675Y-63216081D01*
X136382463Y-63531831D01*
X136572337Y-63815998D01*
X136814002Y-64057663D01*
X137098169Y-64247537D01*
X137413919Y-64378325D01*
X137749117Y-64445000D01*
X138090883Y-64445000D01*
X138426081Y-64378325D01*
X138741831Y-64247537D01*
X139025998Y-64057663D01*
X139267663Y-63815998D01*
X139457537Y-63531831D01*
X139588325Y-63216081D01*
X139655000Y-62880883D01*
X139655000Y-62539117D01*
X139588325Y-62203919D01*
X139457537Y-61888169D01*
X139267663Y-61604002D01*
X139025998Y-61362337D01*
X138741831Y-61172463D01*
X138426081Y-61041675D01*
X138090883Y-60975000D01*
X137749117Y-60975000D01*
X137413919Y-61041675D01*
X137098169Y-61172463D01*
X136814002Y-61362337D01*
X136572337Y-61604002D01*
X136382463Y-61888169D01*
X136251675Y-62203919D01*
X136185000Y-62539117D01*
X135658559Y-62539117D01*
X135659543Y-44375046D01*
X135663102Y-44338911D01*
X135654338Y-44249930D01*
X135648918Y-44194866D01*
X135648913Y-44194851D01*
X135648911Y-44194826D01*
X135623853Y-44112222D01*
X135606898Y-44056316D01*
X135606890Y-44056301D01*
X135606883Y-44056278D01*
X135567233Y-43982097D01*
X135538655Y-43928625D01*
X135538644Y-43928612D01*
X135538633Y-43928591D01*
X135484993Y-43863231D01*
X135446812Y-43816702D01*
X135446799Y-43816691D01*
X135446784Y-43816673D01*
X135380120Y-43761963D01*
X135334899Y-43724847D01*
X135334885Y-43724839D01*
X135334866Y-43724824D01*
X135255335Y-43682314D01*
X135207215Y-43656590D01*
X135207201Y-43656586D01*
X135207179Y-43656574D01*
X135128232Y-43632626D01*
X135068670Y-43614554D01*
X135068651Y-43614552D01*
X135068631Y-43614546D01*
X134984276Y-43606238D01*
X134965000Y-43604338D01*
X134965000Y-43543934D01*
X134934833Y-43392274D01*
X134906708Y-43324375D01*
X134934833Y-43256476D01*
X134965000Y-43104816D01*
X134965000Y-42950184D01*
X134934833Y-42798524D01*
X134906708Y-42730625D01*
X134934833Y-42662726D01*
X134965000Y-42511066D01*
X134965000Y-42356434D01*
X134934833Y-42204774D01*
X134906708Y-42136875D01*
X134934833Y-42068976D01*
X134965000Y-41917316D01*
X134965000Y-41762684D01*
X134934833Y-41611024D01*
X134906708Y-41543125D01*
X134934833Y-41475226D01*
X134965000Y-41323566D01*
X134965000Y-41168934D01*
X134934833Y-41017274D01*
X134906708Y-40949375D01*
X134934833Y-40881476D01*
X134965000Y-40729816D01*
X134965000Y-40575184D01*
X134934833Y-40423524D01*
X134906708Y-40355625D01*
X134934833Y-40287726D01*
X134965000Y-40136066D01*
X134965000Y-40073431D01*
X135012252Y-40068778D01*
X135068071Y-40063283D01*
X135068086Y-40063278D01*
X135068111Y-40063276D01*
X135147902Y-40039072D01*
X135206622Y-40021263D01*
X135206638Y-40021254D01*
X135206659Y-40021248D01*
X135281146Y-39981434D01*
X135334312Y-39953020D01*
X135334325Y-39953009D01*
X135334346Y-39952998D01*
X135401767Y-39897667D01*
X135446235Y-39861177D01*
X135446246Y-39861164D01*
X135446264Y-39861149D01*
X135500974Y-39794485D01*
X135538090Y-39749264D01*
X135538098Y-39749250D01*
X135538113Y-39749231D01*
X135580623Y-39669700D01*
X135606347Y-39621580D01*
X135606351Y-39621566D01*
X135606363Y-39621544D01*
X135630397Y-39542316D01*
X135648383Y-39483035D01*
X135648385Y-39483016D01*
X135648391Y-39482996D01*
X135655761Y-39408171D01*
X135659024Y-39375055D01*
X135659024Y-39375036D01*
X135662582Y-39338911D01*
X135659028Y-39302825D01*
X135659760Y-25758087D01*
X135668269Y-25671352D01*
X135683023Y-25622494D01*
X135706984Y-25577435D01*
X135739236Y-25537895D01*
X135778560Y-25505367D01*
X135823452Y-25481097D01*
X135872196Y-25466011D01*
X135956567Y-25457148D01*
X155492053Y-25457148D01*
X155578787Y-25465652D01*
%TA.AperFunction,NonConductor*%
D13*
G36*
X155578787Y-25465652D02*
G01*
X155627640Y-25480402D01*
X155672699Y-25504360D01*
X155712245Y-25536614D01*
X155744774Y-25575934D01*
X155769043Y-25620818D01*
X155784135Y-25669575D01*
X155793001Y-25753922D01*
X155793000Y-80258053D01*
X155784496Y-80344786D01*
X155769746Y-80393640D01*
X155745788Y-80438699D01*
X155713534Y-80478246D01*
X155674215Y-80510773D01*
X155629329Y-80535043D01*
X155580573Y-80550135D01*
X155529828Y-80555469D01*
X155472561Y-80550257D01*
X155409626Y-80532923D01*
X141441982Y-75449117D01*
X146295000Y-75449117D01*
X146295000Y-75790883D01*
X146361675Y-76126081D01*
X146492463Y-76441831D01*
X146682337Y-76725998D01*
X146924002Y-76967663D01*
X147208169Y-77157537D01*
X147523919Y-77288325D01*
X147859117Y-77355000D01*
X148200883Y-77355000D01*
X148536081Y-77288325D01*
X148851831Y-77157537D01*
X149135998Y-76967663D01*
X149377663Y-76725998D01*
X149567537Y-76441831D01*
X149698325Y-76126081D01*
X149765000Y-75790883D01*
X149765000Y-75449117D01*
X149698325Y-75113919D01*
X149567537Y-74798169D01*
X149377663Y-74514002D01*
X149135998Y-74272337D01*
X148851831Y-74082463D01*
X148536081Y-73951675D01*
X148200883Y-73885000D01*
X147859117Y-73885000D01*
X147523919Y-73951675D01*
X147208169Y-74082463D01*
X146924002Y-74272337D01*
X146682337Y-74514002D01*
X146492463Y-74798169D01*
X146361675Y-75113919D01*
X146295000Y-75449117D01*
X141441982Y-75449117D01*
X135867178Y-73420055D01*
X135788575Y-73382394D01*
X135747713Y-73351826D01*
X135713565Y-73313901D01*
X135687436Y-73270069D01*
X135670317Y-73221993D01*
X135658903Y-73144695D01*
X135658807Y-73140777D01*
X135657986Y-73134093D01*
X135658559Y-62539117D01*
X136185000Y-62539117D01*
X136185000Y-62880883D01*
X136251675Y-63216081D01*
X136382463Y-63531831D01*
X136572337Y-63815998D01*
X136814002Y-64057663D01*
X137098169Y-64247537D01*
X137413919Y-64378325D01*
X137749117Y-64445000D01*
X138090883Y-64445000D01*
X138426081Y-64378325D01*
X138741831Y-64247537D01*
X139025998Y-64057663D01*
X139267663Y-63815998D01*
X139457537Y-63531831D01*
X139588325Y-63216081D01*
X139655000Y-62880883D01*
X139655000Y-62539117D01*
X139588325Y-62203919D01*
X139457537Y-61888169D01*
X139267663Y-61604002D01*
X139025998Y-61362337D01*
X138741831Y-61172463D01*
X138426081Y-61041675D01*
X138090883Y-60975000D01*
X137749117Y-60975000D01*
X137413919Y-61041675D01*
X137098169Y-61172463D01*
X136814002Y-61362337D01*
X136572337Y-61604002D01*
X136382463Y-61888169D01*
X136251675Y-62203919D01*
X136185000Y-62539117D01*
X135658559Y-62539117D01*
X135659543Y-44375046D01*
X135663102Y-44338911D01*
X135654338Y-44249930D01*
X135648918Y-44194866D01*
X135648913Y-44194851D01*
X135648911Y-44194826D01*
X135623853Y-44112222D01*
X135606898Y-44056316D01*
X135606890Y-44056301D01*
X135606883Y-44056278D01*
X135567233Y-43982097D01*
X135538655Y-43928625D01*
X135538644Y-43928612D01*
X135538633Y-43928591D01*
X135484993Y-43863231D01*
X135446812Y-43816702D01*
X135446799Y-43816691D01*
X135446784Y-43816673D01*
X135380120Y-43761963D01*
X135334899Y-43724847D01*
X135334885Y-43724839D01*
X135334866Y-43724824D01*
X135255335Y-43682314D01*
X135207215Y-43656590D01*
X135207201Y-43656586D01*
X135207179Y-43656574D01*
X135128232Y-43632626D01*
X135068670Y-43614554D01*
X135068651Y-43614552D01*
X135068631Y-43614546D01*
X134984276Y-43606238D01*
X134965000Y-43604338D01*
X134965000Y-43543934D01*
X134934833Y-43392274D01*
X134906708Y-43324375D01*
X134934833Y-43256476D01*
X134965000Y-43104816D01*
X134965000Y-42950184D01*
X134934833Y-42798524D01*
X134906708Y-42730625D01*
X134934833Y-42662726D01*
X134965000Y-42511066D01*
X134965000Y-42356434D01*
X134934833Y-42204774D01*
X134906708Y-42136875D01*
X134934833Y-42068976D01*
X134965000Y-41917316D01*
X134965000Y-41762684D01*
X134934833Y-41611024D01*
X134906708Y-41543125D01*
X134934833Y-41475226D01*
X134965000Y-41323566D01*
X134965000Y-41168934D01*
X134934833Y-41017274D01*
X134906708Y-40949375D01*
X134934833Y-40881476D01*
X134965000Y-40729816D01*
X134965000Y-40575184D01*
X134934833Y-40423524D01*
X134906708Y-40355625D01*
X134934833Y-40287726D01*
X134965000Y-40136066D01*
X134965000Y-40073431D01*
X135012252Y-40068778D01*
X135068071Y-40063283D01*
X135068086Y-40063278D01*
X135068111Y-40063276D01*
X135147902Y-40039072D01*
X135206622Y-40021263D01*
X135206638Y-40021254D01*
X135206659Y-40021248D01*
X135281146Y-39981434D01*
X135334312Y-39953020D01*
X135334325Y-39953009D01*
X135334346Y-39952998D01*
X135401767Y-39897667D01*
X135446235Y-39861177D01*
X135446246Y-39861164D01*
X135446264Y-39861149D01*
X135500974Y-39794485D01*
X135538090Y-39749264D01*
X135538098Y-39749250D01*
X135538113Y-39749231D01*
X135580623Y-39669700D01*
X135606347Y-39621580D01*
X135606351Y-39621566D01*
X135606363Y-39621544D01*
X135630397Y-39542316D01*
X135648383Y-39483035D01*
X135648385Y-39483016D01*
X135648391Y-39482996D01*
X135655761Y-39408171D01*
X135659024Y-39375055D01*
X135659024Y-39375036D01*
X135662582Y-39338911D01*
X135659028Y-39302825D01*
X135659760Y-25758087D01*
X135668269Y-25671352D01*
X135683023Y-25622494D01*
X135706984Y-25577435D01*
X135739236Y-25537895D01*
X135778560Y-25505367D01*
X135823452Y-25481097D01*
X135872196Y-25466011D01*
X135956567Y-25457148D01*
X155492053Y-25457148D01*
X155578787Y-25465652D01*
G37*
%TD.AperFunction*%
M02*
