M48
; DRILL file {KiCad (5.1.10)-1} date 08/29/21 08:27:18
; FORMAT={-:-/ absolute / inch / decimal}
; #@! TF.CreationDate,2021-08-29T08:27:18+09:00
; #@! TF.GenerationSoftware,Kicad,Pcbnew,(5.1.10)-1
FMAT,2
INCH
T1C0.0004
T2C0.0118
T3C0.0866
%
G90
G05
T2
X5.2252Y-1.5522
X5.2252Y-1.5755
X5.2252Y-1.5989
X5.2252Y-1.6223
X5.2252Y-1.6457
X5.2252Y-1.669
X5.2252Y-1.6924
X5.2252Y-1.7158
X5.2252Y-1.7392
X5.2827Y-1.5537
X5.2827Y-1.5771
X5.2827Y-1.6005
X5.2827Y-1.6239
X5.2827Y-1.6472
X5.2827Y-1.6706
X5.2827Y-1.694
X5.2827Y-1.7174
X5.2827Y-1.7407
T3
X1.4099Y-2.779
X1.4109Y-2.03
X3.385Y-3.544
X3.6599Y-1.385
X5.149Y-3.36
X5.4299Y-2.4689
X5.828Y-2.9772
T1
G00X0.7924Y-1.3786
M15
G01X0.7924Y-1.9294
M16
G05
G00X0.7924Y-2.1286
M15
G01X0.7924Y-2.6794
M16
G05
G00X0.7924Y-2.8786
M15
G01X0.7924Y-3.4294
M16
G05
G00X0.7926Y-1.3784
M15
G01X1.3434Y-1.3784
M16
G05
G00X0.7926Y-1.9296
M15
G01X1.3434Y-1.9296
M16
G05
G00X0.7926Y-2.1284
M15
G01X1.3434Y-2.1284
M16
G05
G00X0.7926Y-2.6796
M15
G01X1.3434Y-2.6796
M16
G05
G00X0.7926Y-2.8784
M15
G01X1.3434Y-2.8784
M16
G05
G00X0.7926Y-3.4296
M15
G01X1.3434Y-3.4296
M16
G05
G00X1.3436Y-1.3786
M15
G01X1.3436Y-1.9294
M16
G05
G00X1.3436Y-2.1286
M15
G01X1.3436Y-2.6794
M16
G05
G00X1.3436Y-2.8786
M15
G01X1.3436Y-3.4294
M16
G05
G00X1.5424Y-1.2806
M15
G01X1.5424Y-1.8314
M16
G05
G00X1.5424Y-2.0316
M15
G01X1.5424Y-2.5824
M16
G05
G00X1.5424Y-2.7806
M15
G01X1.5424Y-3.3314
M16
G05
G00X1.5426Y-1.2804
M15
G01X2.0934Y-1.2804
M16
G05
G00X1.5426Y-1.8316
M15
G01X2.0934Y-1.8316
M16
G05
G00X1.5426Y-2.0314
M15
G01X2.0934Y-2.0314
M16
G05
G00X1.5426Y-2.5826
M15
G01X2.0934Y-2.5826
M16
G05
G00X1.5426Y-2.7804
M15
G01X2.0934Y-2.7804
M16
G05
G00X1.5426Y-3.3316
M15
G01X2.0934Y-3.3316
M16
G05
G00X2.0936Y-1.2806
M15
G01X2.0936Y-1.8314
M16
G05
G00X2.0936Y-2.0316
M15
G01X2.0936Y-2.5824
M16
G05
G00X2.0936Y-2.7806
M15
G01X2.0936Y-3.3314
M16
G05
G00X2.2924Y-0.8306
M15
G01X2.2924Y-1.3814
M16
G05
G00X2.2924Y-1.5816
M15
G01X2.2924Y-2.1324
M16
G05
G00X2.2924Y-2.3346
M15
G01X2.2924Y-2.8854
M16
G05
G00X2.2926Y-0.8304
M15
G01X2.8434Y-0.8304
M16
G05
G00X2.2926Y-1.3816
M15
G01X2.8434Y-1.3816
M16
G05
G00X2.2926Y-1.5814
M15
G01X2.8434Y-1.5814
M16
G05
G00X2.2926Y-2.1326
M15
G01X2.8434Y-2.1326
M16
G05
G00X2.2926Y-2.3344
M15
G01X2.8434Y-2.3344
M16
G05
G00X2.2926Y-2.8856
M15
G01X2.8434Y-2.8856
M16
G05
G00X2.6474Y-3.8204
M15
G01X2.6474Y-3.2696
M16
G05
G00X2.8436Y-0.8306
M15
G01X2.8436Y-1.3814
M16
G05
G00X2.8436Y-1.5816
M15
G01X2.8436Y-2.1324
M16
G05
G00X2.8436Y-2.3346
M15
G01X2.8436Y-2.8854
M16
G05
G00X3.1984Y-3.2694
M15
G01X2.6476Y-3.2694
M16
G05
G00X3.1984Y-3.8206
M15
G01X2.6476Y-3.8206
M16
G05
G00X3.0424Y-0.7356
M15
G01X3.0424Y-1.2864
M16
G05
G00X3.0424Y-1.4846
M15
G01X3.0424Y-2.0354
M16
G05
G00X3.0424Y-2.2346
M15
G01X3.0424Y-2.7854
M16
G05
G00X3.1986Y-3.8204
M15
G01X3.1986Y-3.2696
M16
G05
G00X3.0426Y-0.7354
M15
G01X3.5934Y-0.7354
M16
G05
G00X3.0426Y-1.2866
M15
G01X3.5934Y-1.2866
M16
G05
G00X3.0426Y-1.4844
M15
G01X3.5934Y-1.4844
M16
G05
G00X3.0426Y-2.0356
M15
G01X3.5934Y-2.0356
M16
G05
G00X3.0426Y-2.2344
M15
G01X3.5934Y-2.2344
M16
G05
G00X3.0426Y-2.7856
M15
G01X3.5934Y-2.7856
M16
G05
G00X3.5674Y-3.8194
M15
G01X3.5674Y-3.2686
M16
G05
G00X3.5936Y-0.7356
M15
G01X3.5936Y-1.2864
M16
G05
G00X3.5936Y-1.4846
M15
G01X3.5936Y-2.0354
M16
G05
G00X3.5936Y-2.2346
M15
G01X3.5936Y-2.7854
M16
G05
G00X3.7924Y-0.8316
M15
G01X3.7924Y-1.3824
M16
G05
G00X3.7924Y-1.5816
M15
G01X3.7924Y-2.1324
M16
G05
G00X3.7924Y-2.3326
M15
G01X3.7924Y-2.8834
M16
G05
G00X4.1184Y-3.2684
M15
G01X3.5676Y-3.2684
M16
G05
G00X4.1184Y-3.8196
M15
G01X3.5676Y-3.8196
M16
G05
G00X3.7926Y-0.8314
M15
G01X4.3434Y-0.8314
M16
G05
G00X3.7926Y-1.3826
M15
G01X4.3434Y-1.3826
M16
G05
G00X3.7926Y-1.5814
M15
G01X4.3434Y-1.5814
M16
G05
G00X3.7926Y-2.1326
M15
G01X4.3434Y-2.1326
M16
G05
G00X3.7926Y-2.3324
M15
G01X4.3434Y-2.3324
M16
G05
G00X3.7926Y-2.8836
M15
G01X4.3434Y-2.8836
M16
G05
G00X4.1186Y-3.8194
M15
G01X4.1186Y-3.2686
M16
G05
G00X4.3436Y-0.8316
M15
G01X4.3436Y-1.3824
M16
G05
G00X4.3436Y-1.5816
M15
G01X4.3436Y-2.1324
M16
G05
G00X4.3436Y-2.3326
M15
G01X4.3436Y-2.8834
M16
G05
G00X4.3348Y-3.8394
M15
G01X4.4304Y-3.2969
M16
G05
G00X4.5424Y-0.9266
M15
G01X4.5424Y-1.4774
M16
G05
G00X4.5424Y-1.6796
M15
G01X4.5424Y-2.2304
M16
G05
G00X4.5424Y-2.4276
M15
G01X4.5424Y-2.9784
M16
G05
G00X4.8773Y-3.9352
M15
G01X4.3349Y-3.8396
M16
G05
G00X4.973Y-3.3924
M15
G01X4.4306Y-3.2968
M16
G05
G00X4.5426Y-0.9264
M15
G01X5.0934Y-0.9264
M16
G05
G00X4.5426Y-1.4776
M15
G01X5.0934Y-1.4776
M16
G05
G00X4.5426Y-1.6794
M15
G01X5.0934Y-1.6794
M16
G05
G00X4.5426Y-2.2306
M15
G01X5.0934Y-2.2306
M16
G05
G00X4.5426Y-2.4274
M15
G01X5.0934Y-2.4274
M16
G05
G00X4.5426Y-2.9786
M15
G01X5.0934Y-2.9786
M16
G05
G00X4.8776Y-3.9351
M15
G01X4.9732Y-3.3927
M16
G05
G00X5.0936Y-0.9266
M15
G01X5.0936Y-1.4774
M16
G05
G00X5.0936Y-1.6796
M15
G01X5.0936Y-2.2304
M16
G05
G00X5.0936Y-2.4276
M15
G01X5.0936Y-2.9784
M16
G05
G00X5.3212Y-3.328
M15
G01X5.1328Y-3.8455
M16
G05
G00X5.6505Y-4.0342
M15
G01X5.1329Y-3.8458
M16
G05
G00X5.839Y-3.5162
M15
G01X5.3215Y-3.3278
M16
G05
G00X5.8392Y-3.5165
M15
G01X5.6508Y-4.0341
M16
G05
T0
M30
